<?xml version="1.0" standalone="no"?><!-- Generator: Gravit.io --><svg xmlns="http://www.w3.org/2000/svg" xmlns:xlink="http://www.w3.org/1999/xlink" style="isolation:isolate" viewBox="0 0 1000 1000" width="1000" height="1000"><defs><clipPath id="_clipPath_SLZHcyLkUfBSzYJOpu2g4nWaEvzehQAc"><rect width="1000" height="1000"/></clipPath></defs><g clip-path="url(#_clipPath_SLZHcyLkUfBSzYJOpu2g4nWaEvzehQAc)"><g id="lisk"><path d=" M 407.381 997.801 L 537.88 851.173 C 540.079 848.974 538.613 845.308 534.947 845.308 L 391.252 845.308 C 390.519 845.308 389.053 844.575 388.32 843.842 L 266.619 707.478 C 265.886 706.012 265.152 704.545 265.886 703.079 L 469.698 353.372 C 470.431 351.906 470.431 350.44 469.698 349.707 L 385.387 204.545 C 383.921 202.346 380.255 202.346 378.789 204.545 L 77.469 722.141 C 76.736 723.607 76.736 725.073 77.469 726.54 L 319.405 998.534 C 320.138 999.267 320.871 1000 322.337 1000 L 404.449 1000 C 405.182 999.267 406.648 998.534 407.381 997.801 L 407.381 997.801 Z " fill="rgb(23,73,155)"/><path d=" M 496.824 2.199 L 411.78 147.361 C 411.047 148.827 411.047 150.293 411.78 151.026 L 499.757 302.053 L 732.894 702.346 C 733.627 703.812 733.627 705.279 732.161 706.745 L 608.994 844.575 L 477.762 992.669 C 475.563 994.868 477.029 998.534 480.695 998.534 L 677.176 998.534 C 677.909 998.534 679.375 997.801 680.108 997.067 L 922.044 725.073 C 922.777 723.607 923.51 722.141 922.777 720.674 L 502.689 2.199 C 501.956 -0.733 498.29 -0.733 496.824 2.199 Z " fill="rgb(23,73,155)"/></g></g></svg>