<svg xmlns="http://www.w3.org/2000/svg" style="isolation:isolate" width="1000" height="1000"><defs><clipPath id="a"><path d="M0 0h1000v1000H0z"/></clipPath></defs><g fill="#17499B" clip-path="url(#a)"><path d="M407.381 997.801L537.88 851.173c2.199-2.199.733-5.865-2.933-5.865H391.252c-.733 0-2.199-.733-2.932-1.466L266.619 707.478c-.733-1.466-1.467-2.933-.733-4.399l203.812-349.707c.733-1.466.733-2.932 0-3.665l-84.311-145.162c-1.466-2.199-5.132-2.199-6.598 0L77.469 722.141c-.733 1.466-.733 2.932 0 4.399l241.936 271.994c.733.733 1.466 1.466 2.932 1.466h82.112c.733-.733 2.199-1.466 2.932-2.199z"/><path d="M496.824 2.199L411.78 147.361c-.733 1.466-.733 2.932 0 3.665l87.977 151.027 233.137 400.293c.733 1.466.733 2.933-.733 4.399l-123.167 137.83-131.232 148.094c-2.199 2.199-.733 5.865 2.933 5.865h196.481c.733 0 2.199-.733 2.932-1.467l241.936-271.994c.733-1.466 1.466-2.932.733-4.399L502.689 2.199c-.733-2.932-4.399-2.932-5.865 0z"/></g></svg>