<?xml version="1.0" encoding="iso-8859-1"?>
<!-- Generator: Adobe Illustrator 19.0.0, SVG Export Plug-In . SVG Version: 6.00 Build 0)  -->
<svg version="1.1" id="Capa_1" xmlns="http://www.w3.org/2000/svg" xmlns:xlink="http://www.w3.org/1999/xlink" x="0px" y="0px"
	 viewBox="0 0 512 512" style="enable-background:new 0 0 512 512;" xml:space="preserve">
<path style="fill:#353535;" d="M512,256c0,133.872-102.766,243.754-233.712,255.039C270.942,511.676,263.513,512,256,512
	c-7.053,0-14.043-0.282-20.95-0.846C103.466,500.496,0,390.332,0,256c0-61.074,21.389-117.164,57.104-161.165
	c4.932-6.092,10.156-11.964,15.621-17.575C119.223,29.592,184.153,0,256,0s136.777,29.592,183.275,77.26
	c5.778,5.925,11.274,12.142,16.468,18.61C490.945,139.713,512,195.406,512,256z"/>
<path style="fill:#F0EFEB;" d="M455.743,95.869l7.952-18.61h-68.88v0.01l-87.939,205.74H206.42
	C165.721,187.8,118.481,77.27,118.481,77.27l-0.01-0.01h-68.88l7.513,17.575L99.13,193.16H48.295v53.384h73.655l15.59,36.467H48.295
	v53.384H160.36l74.689,174.759C241.957,511.718,248.947,512,256,512c7.513,0,14.942-0.324,22.288-0.961l74.647-174.644h109.464
	v-53.384h-86.643l15.59-36.467h71.053V193.16h-48.232L455.743,95.869z M256.648,400.53c0,0-18.693-43.729-27.408-64.136h54.815
	L256.648,400.53z"/>
<g>
</g>
<g>
</g>
<g>
</g>
<g>
</g>
<g>
</g>
<g>
</g>
<g>
</g>
<g>
</g>
<g>
</g>
<g>
</g>
<g>
</g>
<g>
</g>
<g>
</g>
<g>
</g>
<g>
</g>
</svg>
