<svg xmlns="http://www.w3.org/2000/svg" width="2000" height="2000"><path d="M1460.51 243.93a14.39 14.39 0 0 1-19.63 4.76A879.14 879.14 0 0 0 994.7 127.55c-144.27 0-286.78 35.44-413.14 102.65a14.44 14.44 0 0 1-19.45-5.61l-48.19-86.22a14.56 14.56 0 0 1 5.78-19.91C664.93 40.92 828.81 0 994.7 0a1007.68 1007.68 0 0 1 512.86 139.72 14.55 14.55 0 0 1 4.91 20.13z" fill="#004651"/><path d="M1846.27 749.46a872.06 872.06 0 0 0-160-303.22 14.28 14.28 0 0 1 1.91-20.07l59.82-49.54a14.78 14.78 0 0 1 20.78 2c82.84 101.89 143.45 216.79 180.38 341.95a14.55 14.55 0 0 1-10.2 18.08l-75 20.7a14.44 14.44 0 0 1-17.69-9.9z" fill="#00bfec"/><g fill="#004651"><path d="M1634.56 1752.19l-64.08-75.28a14.28 14.28 0 0 1 1.64-20.09c187.08-162.83 295.63-395.58 299.63-642.6a14.38 14.38 0 0 1 14.38-14.21h99.17a14.7 14.7 0 0 1 14.71 14.74c-4.18 284.23-129.07 552-344.63 739.07a14.78 14.78 0 0 1-20.82-1.63M994.7 2000c-228.31 0-450.88-77.83-628.53-219.48a14.54 14.54 0 0 1-2.05-20.63l63.21-76.07a14.42 14.42 0 0 1 20.12-2c154.78 123 348.52 190.6 547.25 190.6 137.51 0 268.82-30.63 390.6-91a14.43 14.43 0 0 1 19.29 6.15l45.7 87.61a14.52 14.52 0 0 1-6.36 19.73C1305.48 1963.69 1150.5 2000 994.7 2000z"/></g><path d="M176 1535.78a14.72 14.72 0 0 1-20.4-4.25C53.74 1372.81 0 1189.35 0 1000c0-265.54 103.79-513.83 292.58-700.8a14.74 14.74 0 0 1 20.83.25l54.12 55.64a14.29 14.29 0 0 1-.29 20.18C199.23 542.08 106.88 763.37 106.88 1000a876 876 0 0 0 138.24 473.46 14.27 14.27 0 0 1-4.12 19.74z" fill="#00bfec"/><path d="M994.7 1651.07c-360.91 0-654.55-292.06-654.55-651.06S633.79 348.95 994.7 348.95 1649.3 641 1649.3 1000s-293.65 651.07-654.6 651.07zm0-1174.57c-290.2 0-526.33 234.85-526.33 523.51s236.13 523.53 526.33 523.53S1521 1288.69 1521 1000s-236.08-523.5-526.3-523.5z" fill="#004651"/></svg>