<svg xmlns="http://www.w3.org/2000/svg" width="448.775" height="294.813"><path fill="#004651" d="M274.153 80.62c-10.759-6.609-23.158-10.102-35.858-10.102-11.664 0-23.179 2.977-33.303 8.607l-4.877-8.767c11.611-6.46 24.814-9.874 38.18-9.874 14.552 0 28.77 4.006 41.112 11.586l-5.254 8.55z"/><path fill="#00BFEC" d="M305.229 120.509c-2.637-9.498-7.19-18.174-13.534-25.789l6.425-5.352c7.107 8.532 12.209 18.257 15.164 28.906l-8.055 2.235z"/><path fill="#004651" d="M289.103 199.188l-6.484-7.657c15.442-13.079 24.299-32.172 24.299-52.39h10.034c-.001 23.171-10.151 45.055-27.849 60.047zM238.295 217.796c-18.248 0-36.03-6.39-50.073-17.992l6.393-7.733c12.248 10.121 27.761 15.694 43.68 15.694 11.132 0 21.747-2.581 31.554-7.668l4.619 8.907c-11.087 5.753-23.598 8.792-36.173 8.792z"/><path fill="#00BFEC" d="M173.277 181.922c-8.376-12.707-12.802-27.5-12.802-42.781 0-21.273 8.422-41.137 23.714-55.935l5.815 6.011c-13.65 13.206-21.169 30.935-21.169 49.924 0 13.638 3.95 26.842 11.423 38.178l-6.981 4.603z"/><path fill="#004651" d="M238.295 190.351c-28.237 0-51.211-22.973-51.211-51.209 0-28.238 22.974-51.21 51.211-51.21 28.238 0 51.211 22.973 51.211 51.21 0 28.236-22.973 51.209-51.211 51.209zm0-92.387c-22.706 0-41.179 18.472-41.179 41.177 0 22.707 18.473 41.177 41.179 41.177 22.706 0 41.179-18.471 41.179-41.177 0-22.705-18.473-41.177-41.179-41.177zM95.305 173.599l-9.679-20.422a4.339 4.339 0 0 0-3.921-2.48H51.731a4.341 4.341 0 0 0-3.945 2.531l-9.316 20.321a4.333 4.333 0 0 1-3.944 2.529h-.009c-3.189 0-5.289-3.321-3.918-6.203l30.978-65.101a4.34 4.34 0 0 1 3.917-2.475h3.376c1.684 0 3.214.975 3.93 2.5l30.456 65.104c1.346 2.876-.753 6.175-3.929 6.175h-.102a4.334 4.334 0 0 1-3.92-2.479zm-32.178-52.333l-6.917 14.646c-1.36 2.877.74 6.191 3.922 6.191h13.685c3.167 0 5.267-3.283 3.939-6.159l-6.768-14.646c-1.544-3.342-6.288-3.363-7.861-.032zM126.095 171.742V106.54a4.338 4.338 0 0 1 4.34-4.338 4.338 4.338 0 0 1 4.338 4.338v65.202a4.336 4.336 0 0 1-4.338 4.336 4.335 4.335 0 0 1-4.34-4.336zM397.211 174.452l-38.997-48.762c-2.562-3.204-7.727-1.391-7.727 2.709v43.343a4.337 4.337 0 0 1-4.339 4.336 4.337 4.337 0 0 1-4.341-4.336v-65.104a4.34 4.34 0 0 1 4.341-4.338h2.236c1.326 0 2.583.607 3.404 1.65l38.981 49.382c2.549 3.23 7.744 1.428 7.744-2.689v-44.004a4.338 4.338 0 0 1 4.34-4.338h.097a4.338 4.338 0 0 1 4.339 4.338v65.104a4.335 4.335 0 0 1-4.339 4.336h-2.35a4.343 4.343 0 0 1-3.389-1.627z"/></svg>