<?xml version="1.0" encoding="utf-8"?>
<!-- Generator: Adobe Illustrator 16.0.0, SVG Export Plug-In . SVG Version: 6.00 Build 0)  -->
<!DOCTYPE svg PUBLIC "-//W3C//DTD SVG 1.1//EN" "http://www.w3.org/Graphics/SVG/1.1/DTD/svg11.dtd">
<svg version="1.1" id="Layer_2" xmlns="http://www.w3.org/2000/svg" xmlns:xlink="http://www.w3.org/1999/xlink" x="0px" y="0px"
	 width="448.775px" height="294.813px" viewBox="0 0 448.775 294.813" enable-background="new 0 0 448.775 294.813"
	 xml:space="preserve">
<g>
	<path fill="#004651" d="M274.153,80.62c-10.759-6.609-23.158-10.102-35.858-10.102c-11.664,0-23.179,2.977-33.303,8.607
		l-4.877-8.767c11.611-6.46,24.814-9.874,38.18-9.874c14.552,0,28.77,4.006,41.112,11.586L274.153,80.62z"/>
	<path fill="#00BFEC" d="M305.229,120.509c-2.637-9.498-7.19-18.174-13.534-25.789l6.425-5.352
		c7.107,8.532,12.209,18.257,15.164,28.906L305.229,120.509z"/>
	<path fill="#004651" d="M289.103,199.188l-6.484-7.657c15.442-13.079,24.299-32.172,24.299-52.39h10.034
		C316.951,162.312,306.801,184.196,289.103,199.188z"/>
	<path fill="#004651" d="M238.295,217.796c-18.248,0-36.03-6.39-50.073-17.992l6.393-7.733
		c12.248,10.121,27.761,15.694,43.68,15.694c11.132,0,21.747-2.581,31.554-7.668l4.619,8.907
		C263.381,214.757,250.87,217.796,238.295,217.796z"/>
	<path fill="#00BFEC" d="M173.277,181.922c-8.376-12.707-12.802-27.5-12.802-42.781c0-21.273,8.422-41.137,23.714-55.935
		l5.815,6.011c-13.65,13.206-21.169,30.935-21.169,49.924c0,13.638,3.95,26.842,11.423,38.178L173.277,181.922z"/>
	<path fill="#004651" d="M238.295,190.351c-28.237,0-51.211-22.973-51.211-51.209c0-28.238,22.974-51.21,51.211-51.21
		c28.238,0,51.211,22.973,51.211,51.21C289.506,167.378,266.533,190.351,238.295,190.351z M238.295,97.964
		c-22.706,0-41.179,18.472-41.179,41.177c0,22.707,18.473,41.177,41.179,41.177c22.706,0,41.179-18.471,41.179-41.177
		C279.474,116.436,261.001,97.964,238.295,97.964z"/>
</g>
<path fill="#004651" d="M95.305,173.599l-9.679-20.422c-0.718-1.515-2.245-2.48-3.921-2.48H51.731c-1.696,0-3.238,0.989-3.945,2.531
	l-9.316,20.321c-0.707,1.544-2.247,2.529-3.944,2.529h-0.009c-3.189,0-5.289-3.321-3.918-6.203l30.978-65.101
	c0.719-1.512,2.245-2.475,3.917-2.475h3.376c1.684,0,3.214,0.975,3.93,2.5l30.456,65.104c1.346,2.876-0.753,6.175-3.929,6.175
	h-0.102C97.548,176.078,96.023,175.115,95.305,173.599z M63.127,121.266l-6.917,14.646c-1.36,2.877,0.74,6.191,3.922,6.191h13.685
	c3.167,0,5.267-3.283,3.939-6.159l-6.768-14.646C69.444,117.956,64.7,117.935,63.127,121.266z"/>
<path fill="#004651" d="M126.095,171.742V106.54c0-2.396,1.941-4.338,4.34-4.338l0,0c2.395,0,4.338,1.942,4.338,4.338v65.202
	c0,2.397-1.943,4.336-4.338,4.336l0,0C128.036,176.078,126.095,174.14,126.095,171.742z"/>
<path fill="#004651" d="M397.211,174.452l-38.997-48.762c-2.562-3.204-7.727-1.391-7.727,2.709v43.343
	c0,2.397-1.944,4.336-4.339,4.336l0,0c-2.396,0-4.341-1.938-4.341-4.336v-65.104c0-2.396,1.944-4.338,4.341-4.338h2.236
	c1.326,0,2.583,0.607,3.404,1.65l38.981,49.382c2.549,3.23,7.744,1.428,7.744-2.689v-44.004c0-2.396,1.941-4.338,4.34-4.338h0.097
	c2.397,0,4.339,1.942,4.339,4.338v65.104c0,2.397-1.941,4.336-4.339,4.336H400.6C399.281,176.078,398.035,175.481,397.211,174.452z"
	/>
</svg>
