<svg xmlns="http://www.w3.org/2000/svg" viewBox="0 0 2000 1041.72" width="2000" height="2000"><g fill="#0082c6"><path d="M1170.49 442.96C2045.56 607.75 855 1533.62 0 695.44c1008.42 672.18 1527.79 40.52 1162.93-235.35a9.65 9.65 0 0 1-1.92-13.51 9.54 9.54 0 0 1 9.48-3.62z"/><path d="M683.47 74.26C-73.68 326.54 793.73 921.72 869 621.06a9.74 9.74 0 0 0-12.3-11.69C745.35 647.06 131.63 468.36 683.47 74.26z"/><path d="M2000 225.87c-655.55-487-1885.7-85.39-1251.12 258.41a9.68 9.68 0 0 0 13.1-4 9.83 9.83 0 0 0 .3-8.57C504.16-96.27 1815 76.48 2000 225.87z"/><path d="M1456 933.51c346.52-164.19 64.71-725.9-393.69-617.45a9.69 9.69 0 0 1-11.49-7.36 9.51 9.51 0 0 1 3.33-9.47C1410.88 19.94 2080.33 671.75 1456 933.51z"/></g></svg>