<?xml version="1.0" encoding="utf-8"?>
<!-- Generator: Adobe Illustrator 22.1.0, SVG Export Plug-In . SVG Version: 6.00 Build 0)  -->
<svg version="1.1" id="Layer_1" xmlns="http://www.w3.org/2000/svg" xmlns:xlink="http://www.w3.org/1999/xlink" x="0px" y="0px"
	 viewBox="0 0 1417.323 1016.918" style="enable-background:new 0 0 1417.323 1016.918;" xml:space="preserve">
<style type="text/css">
	.st0{fill:#181EA9;}
</style>
<path class="st0" d="M523.672,277.357c-50.973,0-92.446,41.473-92.446,92.449c0,50.976,41.472,92.446,92.446,92.446
	c50.976,0,92.446-41.469,92.446-92.446C616.118,318.829,574.649,277.357,523.672,277.357 M523.672,431.437
	c-33.981,0-61.632-27.647-61.632-61.631c0-33.984,27.651-61.632,61.632-61.632c33.984,0,61.631,27.647,61.631,61.632
	C585.304,403.79,557.656,431.437,523.672,431.437 M677.751,457.63h30.814V184.872h-30.814V457.63z M1016.721,281.981v175.648h30.814
	V312.795h61.631v144.834h30.817V312.795h61.632v144.834h30.814V281.981H1016.721z M375.203,249.96l-44.538,44.535
	c-15.117-10.773-33.58-17.139-53.517-17.139c-50.976,0-92.446,41.473-92.446,92.449c0,45.725,33.374,83.78,77.038,91.138v33.433
	c-43.664,7.361-77.038,45.416-77.038,91.138c0,50.976,41.469,92.449,92.446,92.449c50.973,0,92.446-41.473,92.446-92.449
	c0-45.722-33.374-83.777-77.039-91.138v-33.433c43.664-7.358,77.039-45.412,77.039-91.138c0-19.937-6.363-38.404-17.136-53.517
	l44.535-44.538L375.203,249.96z M338.779,585.514c0,33.984-27.651,61.635-61.631,61.635c-33.984,0-61.632-27.651-61.632-61.635
	c0-33.981,27.647-61.632,61.632-61.632C311.128,523.883,338.779,551.533,338.779,585.514 M277.147,431.437
	c-33.984,0-61.632-27.647-61.632-61.631c0-33.984,27.647-61.632,61.632-61.632c33.981,0,61.631,27.647,61.631,61.632
	C338.779,403.79,311.128,431.437,277.147,431.437 M864.184,277.357c-26.209,0-49.965,9.592-66.902,27.008
	c-16.47,16.946-25.544,40.184-25.544,65.441c0,25.397,8.839,48.609,24.891,65.356c16.982,17.723,40.341,27.09,67.554,27.09
	c29.258,0,59.603-14.239,75.499-35.436l-24.653-18.492c-10.205,13.61-31.114,23.114-50.846,23.114
	c-32.024,0-54.919-18.691-60.379-47.764h149.746v-15.41c0-24.529-8.675-47.232-24.425-63.924
	C912.704,286.94,889.643,277.357,864.184,277.357 M804.545,352.857c6.637-26.988,29.317-44.682,59.639-44.682
	c29.213,0,50.957,17.739,56.916,44.682H804.545z M585.14,738.343c-0.548,2.443-1.696,4.246-3.444,5.404
	c-1.748,1.161-4.165,1.738-7.24,1.738c-3.959,0-7.028-1.138-9.197-3.415c-2.169-2.273-3.255-5.476-3.255-9.608
	c0-4.087,1.076-7.28,3.222-9.576c2.153-2.296,5.143-3.444,8.979-3.444c2.782,0,4.983,0.538,6.604,1.611
	c1.624,1.076,2.834,2.815,3.633,5.215l13.277-1.517c-1.308-5.352-3.91-9.357-7.808-12.012c-3.897-2.655-9.112-3.982-15.645-3.982
	c-5.437,0-10.104,0.991-14.001,2.971c-3.897,1.983-6.878,4.762-8.943,8.346c-2.065,3.581-3.098,7.71-3.098,12.387
	c0,4.931,1.063,9.187,3.193,12.772c2.126,3.581,5.13,6.298,9.008,8.154c3.875,1.853,8.47,2.782,13.78,2.782
	c7.123,0,12.811-1.559,17.067-4.68c4.256-3.118,6.679-7.498,7.27-13.147H585.14z M645.065,738.344c0,5.479-1.852,9.797-5.564,12.958
	c-3.708,3.16-8.783,4.739-15.231,4.739c-6.448,0-11.441-1.526-14.983-4.582c-3.539-3.053-5.31-7.342-5.31-12.863
	c0-5.518,1.852-9.859,5.561-13.02c3.711-3.164,8.786-4.742,15.238-4.742c6.448,0,11.441,1.526,14.98,4.582
	C643.294,728.472,645.065,732.78,645.065,738.344 M632.424,738.406c0-2.697-0.675-4.762-2.022-6.193
	c-1.35-1.435-3.31-2.149-5.88-2.149c-2.528,0-4.478,0.714-5.848,2.149c-1.367,1.432-2.051,3.519-2.051,6.255
	c0,2.697,0.672,4.765,2.022,6.197c1.347,1.432,3.307,2.149,5.877,2.149c2.531,0,4.478-0.718,5.848-2.149
	C631.735,743.233,632.424,741.146,632.424,738.406 M713.648,755.031v-21.62c0-3.959-1.083-7.048-3.255-9.259
	c-2.172-2.211-5.215-3.32-9.132-3.32c-5.437,0-9.82,1.983-13.15,5.942c-0.969-1.937-2.381-3.411-4.233-4.422
	c-1.856-1.011-4.09-1.52-6.702-1.52c-4.762,0-8.786,1.879-12.074,5.629v-4.615h-12.263v33.185h12.518v-18.078
	c0-1.686,0.629-3.16,1.895-4.426c0.675-0.714,1.445-1.262,2.309-1.644c0.861-0.378,1.758-0.568,2.684-0.568
	c1.686,0,2.899,0.421,3.637,1.262c0.737,0.845,1.106,2.192,1.106,4.047v19.406h12.517v-18.46c0-1.517,0.633-2.906,1.895-4.171
	c1.474-1.389,3.141-2.084,4.993-2.084c1.686,0,2.896,0.43,3.636,1.295c0.737,0.864,1.106,2.202,1.106,4.015v19.406H713.648z
	 M722.689,767.294v-45.448h12.263v4.488c2.991-3.666,7.27-5.502,12.83-5.502c3.036,0,5.753,0.688,8.157,2.055
	c2.4,1.37,4.299,3.363,5.688,5.975c1.393,2.612,2.087,5.649,2.087,9.103c0,3.457-0.685,6.552-2.055,9.292
	c-1.37,2.74-3.35,4.889-5.942,6.448c-2.593,1.559-5.636,2.338-9.135,2.338c-4.931,0-8.724-1.559-11.376-4.677v15.929H722.689z
	 M735.141,738.975c0,2.361,0.717,4.256,2.149,5.688c1.432,1.435,3.372,2.149,5.815,2.149c2.57,0,4.54-0.714,5.91-2.149
	c1.373-1.432,2.058-3.539,2.058-6.321c0-2.655-0.678-4.696-2.025-6.132c-1.347-1.432-3.265-2.149-5.753-2.149
	c-2.4,0-4.403,0.76-6.004,2.276c-1.432,1.389-2.149,3.16-2.149,5.31V738.975z M809.224,755.031v-33.185H796.71v17.889
	c0,0.841-0.192,1.673-0.571,2.495s-0.907,1.53-1.579,2.117c-1.689,1.477-3.522,2.215-5.502,2.215c-1.813,0-3.16-0.444-4.044-1.327
	c-0.884-0.887-1.327-2.276-1.327-4.171v-19.216h-12.518v21.555c0,3.959,1.148,7.058,3.444,9.292c2.299,2.234,5.492,3.35,9.579,3.35
	c4.974,0,9.23-1.875,12.769-5.626v4.615H809.224z M844.18,745.551c-1.983,0.59-3.666,0.884-5.059,0.884
	c-1.644,0-2.834-0.349-3.571-1.044c-0.737-0.695-1.106-1.781-1.106-3.255v-11.19h9.863v-9.103h-9.863v-8.721h-12.514v8.721h-6.324
	v9.103h6.324v12.074c0,4.468,1.063,7.69,3.193,9.673c2.126,1.98,5.551,2.968,10.27,2.968c3.666,0,7.1-0.525,10.303-1.579
	L844.18,745.551z M851.955,709.518h12.641v8.219h-12.641V709.518z M852.02,721.846h12.514v33.185H852.02V721.846z M912.448,755.031
	v-21.555c0-4.005-1.168-7.113-3.506-9.324c-2.342-2.211-5.593-3.32-9.765-3.32c-5.186,0-9.527,1.879-13.023,5.629v-4.615h-12.263
	v33.185h12.514v-17.889c0-1.729,0.718-3.245,2.149-4.55c0.757-0.718,1.644-1.275,2.655-1.676c1.011-0.401,2.045-0.6,3.098-0.6
	c1.937,0,3.359,0.44,4.266,1.327c0.907,0.884,1.36,2.296,1.36,4.233v19.154H912.448z M948.419,748.711
	c-2.952,3.327-7.123,4.993-12.517,4.993c-3.076,0-5.815-0.652-8.219-1.96c-2.4-1.305-4.299-3.183-5.688-5.626
	c-1.393-2.443-2.087-5.287-2.087-8.535c0-3.199,0.695-6.066,2.087-8.597c1.389-2.528,3.382-4.517,5.975-5.972
	c2.59-1.455,5.613-2.182,9.07-2.182c2.612,0,4.866,0.391,6.764,1.171c1.895,0.779,3.516,1.99,4.866,3.633v-3.793h12.263v28.195
	c0,6.151-1.634,10.681-4.899,13.59c-3.265,2.906-8.336,4.361-15.205,4.361c-6.024,0-10.629-0.959-13.809-2.877
	c-3.183-1.918-5.026-4.856-5.531-8.819h12.071c0.339,1.181,1.066,2.045,2.185,2.593c1.115,0.548,2.789,0.822,5.023,0.822
	c2.612,0,4.54-0.633,5.782-1.895c1.246-1.265,1.869-3.226,1.869-5.88V748.711z M948.543,737.016c0-1.053-0.17-1.993-0.506-2.811
	c-0.339-0.822-0.907-1.614-1.706-2.371c-1.308-1.265-3.226-1.898-5.753-1.898c-2.528,0-4.488,0.633-5.88,1.898
	c-1.389,1.262-2.084,3.095-2.084,5.499c0,2.361,0.675,4.194,2.022,5.499c1.347,1.308,3.265,1.96,5.753,1.96
	c2.361,0,4.341-0.695,5.942-2.087c1.474-1.262,2.211-2.906,2.211-4.928V737.016z M988.935,755.03v-45.132h22.377
	c6.741,0,11.79,1.285,15.14,3.855c3.349,2.57,5.026,6.471,5.026,11.696c0,5.267-1.719,9.188-5.153,11.758s-8.692,3.855-15.772,3.855
	h-8.721v13.969H988.935z M1010.301,731.137c2.867,0,4.941-0.453,6.226-1.36c1.285-0.903,1.927-2.368,1.927-4.393
	c0-1.937-0.633-3.349-1.895-4.233c-1.265-0.887-3.31-1.327-6.132-1.327h-8.597v11.314H1010.301z M1077.243,738.344
	c0,5.479-1.852,9.797-5.564,12.958c-3.708,3.16-8.783,4.739-15.231,4.739c-6.448,0-11.441-1.526-14.983-4.582
	c-3.539-3.053-5.31-7.342-5.31-12.863c0-5.518,1.853-9.859,5.561-13.02c3.711-3.164,8.786-4.742,15.237-4.742
	c6.448,0,11.441,1.526,14.98,4.582C1075.472,728.472,1077.243,732.78,1077.243,738.344 M1064.602,738.406
	c0-2.697-0.675-4.762-2.022-6.193c-1.35-1.435-3.31-2.149-5.88-2.149c-2.528,0-4.478,0.714-5.848,2.149
	c-1.367,1.432-2.052,3.519-2.052,6.255c0,2.697,0.672,4.765,2.022,6.197c1.347,1.432,3.307,2.149,5.877,2.149
	c2.531,0,4.478-0.718,5.848-2.149C1063.913,743.233,1064.602,741.146,1064.602,738.406 M1129.582,755.031l11.568-33.185h-11.947
	l-6.131,20.289l-6.953-20.038h-10.052l-6.888,20.293l-6.197-20.544h-12.387l11.565,33.185h12.012l6.826-19.344l6.764,19.344
	H1129.582z M1155.69,741.377c0.212,2.065,1.021,3.637,2.436,4.71c1.409,1.073,3.359,1.611,5.844,1.611
	c4.002,0,6.448-1.115,7.332-3.349h11.568c-1.725,7.798-8.131,11.696-19.216,11.696c-6.278,0-11.148-1.497-14.601-4.488
	c-3.454-2.994-5.183-7.227-5.183-12.707c0-3.5,0.799-6.608,2.404-9.325c1.598-2.717,3.917-4.846,6.95-6.386
	c3.033-1.536,6.617-2.306,10.746-2.306c6.109,0,10.851,1.507,14.223,4.52c3.372,3.014,5.055,7.28,5.055,12.801v3.222H1155.69z
	 M1171.619,734.74c-0.209-3.793-2.824-5.688-7.837-5.688c-2.064,0-3.822,0.525-5.277,1.579c-1.455,1.053-2.309,2.423-2.56,4.109
	H1171.619z M1203.541,755.031v-17.132c0-0.884,0.212-1.745,0.633-2.59c0.421-0.841,1.031-1.582,1.833-2.215
	c1.813-1.432,4.256-2.146,7.335-2.146c1.304,0,2.674,0.124,4.106,0.378l1.393-9.673c-1.308-0.251-2.616-0.378-3.92-0.378
	c-4.677,0-8.555,1.748-11.63,5.248v-4.677h-12.263v33.185H1203.541z M1220.609,755.031h11.82v-12.517h-11.82V755.031z
	 M1013.781,798.078c-0.802-4.507-2.984-7.88-6.543-10.114c-3.561-2.234-8.587-3.349-15.078-3.349
	c-6.996,0-12.475,1.223-16.434,3.666c-3.963,2.446-5.942,5.838-5.942,10.179c0,4.044,1.432,7.227,4.299,9.543
	c2.864,2.319,7.397,3.943,13.59,4.869l8.03,1.2c2.231,0.336,3.803,0.799,4.706,1.389c0.907,0.594,1.36,1.412,1.36,2.466
	c0,1.393-0.822,2.466-2.466,3.226c-1.644,0.757-3.982,1.138-7.019,1.138c-3.242,0-5.711-0.509-7.394-1.52
	c-1.686-1.011-2.74-2.59-3.16-4.739h-13.274c0.506,5.352,2.727,9.354,6.666,12.009c3.94,2.655,9.664,3.982,17.162,3.982
	c7.501,0,13.173-1.22,17.005-3.666c3.835-2.443,5.753-6.047,5.753-10.808c0-3.963-1.295-7.048-3.888-9.263
	c-2.593-2.211-6.816-3.78-12.674-4.71l-9.735-1.578c-2.316-0.378-3.878-0.841-4.677-1.393c-0.802-0.545-1.2-1.389-1.2-2.528
	c0-1.22,0.747-2.149,2.244-2.779c1.494-0.633,3.698-0.949,6.604-0.949c2.57,0,4.595,0.388,6.07,1.168
	c1.474,0.779,2.57,2.055,3.288,3.826L1013.781,798.078z M1060.807,830.886v-21.555c0-4.005-1.168-7.113-3.506-9.324
	c-2.342-2.211-5.593-3.32-9.765-3.32c-5.058,0-9.315,1.794-12.772,5.375v-16.31h-12.514v45.135h12.514v-17.889
	c0-1.729,0.718-3.245,2.149-4.55c0.76-0.718,1.644-1.275,2.658-1.676c1.008-0.401,2.042-0.6,3.095-0.6
	c1.937,0,3.359,0.44,4.266,1.327c0.907,0.884,1.36,2.296,1.36,4.233v19.154H1060.807z M1094.755,830.886v-4.109
	c-1.771,1.771-3.702,3.056-5.786,3.858c-2.087,0.799-4.498,1.2-7.237,1.2c-4.468,0-7.902-0.877-10.303-2.625
	c-2.4-1.748-3.604-4.266-3.604-7.554c0-3.581,1.549-6.278,4.648-8.092c3.095-1.81,7.932-2.802,14.507-2.971l7.332-0.189v-1.455
	c0-1.347-0.529-2.391-1.582-3.128c-1.053-0.737-2.547-1.106-4.488-1.106c-1.937,0-3.529,0.274-4.772,0.822s-2.012,1.305-2.306,2.276
	l-11.19-0.822c0.799-3.5,2.727-6.089,5.783-7.775c3.056-1.686,7.302-2.531,12.739-2.531c11.588,0,17.384,4.491,17.384,13.467v20.733
	H1094.755z M1094.312,816.79l-6.575,0.189c-2.948,0.085-5.055,0.411-6.321,0.978c-1.262,0.571-1.898,1.51-1.898,2.815
	c0,2.022,1.94,3.033,5.818,3.033c1.432,0,2.749-0.166,3.95-0.505c1.2-0.336,2.182-0.822,2.939-1.451
	c1.393-1.181,2.087-2.531,2.087-4.047V816.79z M1127.433,830.886v-17.129c0-0.887,0.212-1.748,0.633-2.593
	c0.421-0.841,1.031-1.582,1.833-2.214c1.813-1.432,4.256-2.149,7.335-2.149c1.304,0,2.674,0.127,4.106,0.382l1.393-9.67
	c-1.308-0.254-2.616-0.382-3.92-0.382c-4.677,0-8.555,1.751-11.63,5.248v-4.677h-12.263v33.185H1127.433z M1157.458,817.232
	c0.212,2.065,1.021,3.637,2.436,4.71c1.409,1.076,3.359,1.611,5.844,1.611c4.002,0,6.448-1.115,7.332-3.349h11.568
	c-1.729,7.798-8.134,11.696-19.216,11.696c-6.278,0-11.148-1.497-14.601-4.488c-3.457-2.994-5.183-7.227-5.183-12.707
	c0-3.5,0.799-6.604,2.404-9.325c1.598-2.717,3.917-4.843,6.95-6.383c3.033-1.539,6.614-2.309,10.746-2.309
	c6.109,0,10.851,1.507,14.223,4.52c3.372,3.014,5.055,7.28,5.055,12.801v3.222H1157.458z M1173.387,810.595
	c-0.212-3.793-2.824-5.688-7.837-5.688c-2.065,0-3.826,0.525-5.277,1.579c-1.458,1.053-2.309,2.427-2.563,4.109H1173.387z
	 M1219.978,830.885v-4.488c-3.036,3.666-7.292,5.499-12.772,5.499c-3.075,0-5.825-0.695-8.248-2.084
	c-2.423-1.389-4.318-3.382-5.691-5.975c-1.37-2.59-2.051-5.613-2.051-9.07c0-3.454,0.682-6.552,2.051-9.292
	c1.373-2.74,3.353-4.889,5.946-6.448c2.59-1.559,5.632-2.338,9.132-2.338c4.931,0,8.724,1.559,11.379,4.677v-15.613h12.517v45.132
	H1219.978z M1219.786,813.756c0-2.358-0.718-4.256-2.149-5.688c-1.432-1.432-3.369-2.149-5.815-2.149c-2.57,0-4.54,0.718-5.91,2.149
	s-2.055,3.539-2.055,6.321c0,2.655,0.675,4.7,2.026,6.132c1.347,1.432,3.265,2.149,5.75,2.149c2.4,0,4.403-0.76,6.004-2.276
	c1.432-1.389,2.149-3.16,2.149-5.31V813.756z"/>
</svg>
