<svg xmlns="http://www.w3.org/2000/svg" viewBox="0 0 115.67 115.67"><defs><style>.cls-1{fill:#1b467e;}</style></defs><title>OAX Token 2</title><g id="Layer_2" data-name="Layer 2"><g id="Layer_1-2" data-name="Layer 1"><path class="cls-1" d="M98.93,16.74c11.67,11.67,16.74,25.37,16.74,41.09s-5.58,29.42-16.74,41.09-24.86,16.74-41.09,16.74-29.42-5.58-41.09-16.74Q0,82.18,0,57.83q0-19,10.65-33.48l14.2,14.2a37.48,37.48,0,0,0-5.58,19.79c0,10.65,4.06,19.79,11.16,27.39C38,93.35,47.18,97.4,57.83,97.4s19.79-4.06,27.39-11.67S96.39,69,96.39,58.34,92.33,38.56,85.23,30.95c-7.61-7.61-16.74-11.16-27.39-11.16-7.1,0-13.7,1.52-19.28,5.07l-14.2-14.2Q38.81,0,57.83,0,82.18,0,98.93,16.74Z"/></g></g></svg>