<!DOCTYPE svg PUBLIC "-//W3C//DTD SVG 20010904//EN" "http://www.w3.org/TR/2001/REC-SVG-20010904/DTD/svg10.dtd">
<svg version="1.0" xmlns="http://www.w3.org/2000/svg" width="300px" height="300px" viewBox="0 0 3000 3000" preserveAspectRatio="xMidYMid meet">
<g id="layer101" fill="#1a5099" stroke="none">
 <path d="M630 2332 c-22 -10 -36 -26 -38 -40 -5 -30 21 -38 62 -18 43 20 100 21 117 0 21 -25 1 -43 -76 -69 -111 -37 -137 -95 -71 -161 30 -30 40 -34 86 -34 90 0 148 44 106 79 -11 10 -21 9 -45 -3 -38 -20 -85 -20 -101 -1 -21 25 -4 41 64 59 84 23 121 61 112 115 -3 23 -17 46 -36 64 -26 23 -39 27 -88 27 -34 0 -71 -7 -92 -18z"/>
 <path d="M1047 2343 c-4 -3 -7 -66 -7 -139 l0 -133 -47 -3 c-44 -3 -48 -5 -48 -28 l0 -25 121 -3 c94 -2 124 1 133 11 22 27 2 47 -45 47 l-44 0 0 121 c0 66 -5 129 -10 140 -10 19 -40 26 -53 12z"/>
 <path d="M1326 2328 c-13 -18 -16 -50 -16 -149 0 -171 0 -171 135 -167 99 3 100 3 100 28 0 24 -2 25 -82 28 l-83 3 0 39 0 40 80 0 c63 0 82 3 86 15 12 32 -15 45 -92 45 l-74 0 0 40 0 39 83 3 c80 3 82 4 82 28 0 25 -1 25 -102 28 -96 3 -102 1 -117 -20z"/>
 <path d="M1686 2334 c-13 -12 -16 -41 -16 -154 0 -174 -3 -170 124 -170 97 0 125 11 112 45 -4 12 -23 15 -86 15 l-80 0 0 40 0 40 81 0 80 0 -3 28 c-3 27 -4 27 -80 30 l-78 3 0 39 0 40 80 0 c63 0 82 3 86 15 4 8 1 22 -6 30 -18 22 -192 21 -214 -1z"/>
 <path d="M2034 2337 c-2 -7 -3 -80 -2 -161 3 -127 5 -150 20 -160 11 -7 26 -7 44 -1 23 8 35 27 67 108 l40 99 34 -88 c19 -49 41 -97 50 -106 19 -21 51 -23 76 -4 15 11 17 32 17 158 0 153 -6 174 -47 166 -16 -3 -19 -17 -23 -110 l-5 -107 -44 110 c-33 83 -47 109 -60 107 -10 -2 -31 -41 -57 -106 -23 -57 -43 -105 -45 -107 -2 -2 -3 39 -1 91 4 100 -4 124 -40 124 -10 0 -21 -6 -24 -13z"/>
 <path d="M1483 1718 c2 -13 12 -50 21 -83 31 -114 28 -123 -102 -400 -125 -265 -141 -330 -101 -411 22 -46 143 -174 165 -174 10 0 12 20 7 98 -7 119 -6 123 102 352 97 205 135 307 135 359 0 50 -55 134 -143 219 -69 66 -93 77 -84 40z"/>
 <path d="M1140 1614 c0 -3 7 -31 16 -61 25 -87 16 -130 -69 -308 -94 -201 -114 -263 -98 -316 12 -41 114 -159 136 -159 10 0 13 21 12 88 -2 87 -2 87 57 212 136 290 147 335 100 406 -52 77 -154 169 -154 138z"/>
 <path d="M1834 1588 c3 -18 10 -53 15 -78 13 -60 3 -95 -79 -270 -113 -241 -121 -284 -69 -363 32 -48 95 -107 114 -107 8 0 10 29 7 88 l-3 87 66 140 c75 158 125 284 125 318 0 32 -52 110 -111 168 -60 58 -74 62 -65 17z"/>
 </g>
<g id="layer102" fill="#4aa1f1" stroke="none">
 <path d="M1486 1732 c-3 -4 4 -41 15 -82 34 -131 33 -134 -99 -415 -147 -311 -152 -361 -56 -477 39 -47 110 -108 125 -108 4 0 5 44 2 98 -7 119 -6 123 102 352 97 206 135 307 135 359 0 47 -41 113 -123 199 -65 67 -92 87 -101 74z"/>
 </g>

</svg>