<?xml version="1.0" encoding="utf-8"?>
<!-- Generator: Adobe Illustrator 22.0.1, SVG Export Plug-In . SVG Version: 6.00 Build 0)  -->
<svg version="1.1" id="Capa_1" xmlns="http://www.w3.org/2000/svg" xmlns:xlink="http://www.w3.org/1999/xlink" x="0px" y="0px"
	 viewBox="0 0 1200 400" style="enable-background:new 0 0 1200 400;" xml:space="preserve">
<style type="text/css">
	.st0{fill:#FFFFFF;}
	.st1{fill:url(#SVGID_1_);}
	.st2{fill:#152569;}
	.st3{fill:url(#XMLID_2_);}
	.st4{fill:url(#XMLID_3_);}
	.st5{fill:url(#XMLID_4_);}
	.st6{fill:url(#XMLID_5_);}
</style>
<g>
	<g>
		<circle class="st0" cx="276.7" cy="200" r="115.3"/>
		<linearGradient id="SVGID_1_" gradientUnits="userSpaceOnUse" x1="206.2014" y1="93.3765" x2="364.0115" y2="332.2016">
			<stop  offset="0" style="stop-color:#F4D933"/>
			<stop  offset="1" style="stop-color:#E3821F"/>
		</linearGradient>
		<path class="st1" d="M276.7,68.3C203.9,68.3,145,127.3,145,200s58.9,131.7,131.7,131.7S408.3,272.7,408.3,200
			S349.4,68.3,276.7,68.3z M276.7,301.4c-56,0-101.4-45.4-101.4-101.4S220.7,98.6,276.7,98.6S378,144,378,200
			S332.6,301.4,276.7,301.4z"/>
		<g>
			<g>
				<path id="XMLID_145_" class="st2" d="M232.8,245l5.1-10.1h60.8c8.4,0,15.2-6.8,15.2-15.2v0c0-8.4-6.8-15.2-15.2-15.2H248v-10.1
					h50.6c14,0,25.3,11.3,25.3,25.3v0c0,14-11.3,25.3-25.3,25.3H232.8z"/>
				<path class="st2" d="M298.6,247.8h-70.4l7.9-15.8h62.5c6.8,0,12.4-5.6,12.4-12.4c0-6.8-5.6-12.4-12.4-12.4h-53.4v-15.8h53.4
					c15.5,0,28.1,12.6,28.1,28.1S314.1,247.8,298.6,247.8z M237.3,242.2h61.3c12.4,0,22.5-10.1,22.5-22.5s-10.1-22.5-22.5-22.5
					h-47.8v4.5h47.8c9.9,0,18,8.1,18,18s-8.1,18-18,18h-59L237.3,242.2z"/>
			</g>
			<g>
				<path id="XMLID_144_" class="st2" d="M232.8,153.3l5.1,10.1h54c8.4,0,15.2,6.8,15.2,15.2v0c0,8.4-6.8,15.2-15.2,15.2H253v10.1
					h38.8c14,0,25.3-11.3,25.3-25.3v0c0-14-11.3-25.3-25.3-25.3H232.8z"/>
				<path class="st2" d="M291.8,206.8h-41.6V191h41.6c6.8,0,12.4-5.6,12.4-12.4s-5.6-12.4-12.4-12.4h-55.8l-7.9-15.8h63.6
					c15.5,0,28.1,12.6,28.1,28.1S307.4,206.8,291.8,206.8z M255.8,201.1h36c12.4,0,22.5-10.1,22.5-22.5s-10.1-22.5-22.5-22.5h-54.5
					l2.3,4.5h52.3c9.9,0,18,8.1,18,18s-8.1,18-18,18h-36V201.1z"/>
			</g>
			<g>
				<rect id="XMLID_143_" x="248" y="153.9" class="st2" width="10.1" height="91.1"/>
				<path class="st2" d="M260.9,247.8h-15.8v-96.8h15.8V247.8z M250.8,242.2h4.5v-85.5h-4.5V242.2z"/>
			</g>
			<g>
				<rect id="XMLID_142_" x="260.3" y="138.1" class="st2" width="10.1" height="20.3"/>
				<path class="st2" d="M271.9,159.8h-12.9v-23.1h12.9V159.8z M261.7,157h7.3v-17.4h-7.3V157z"/>
			</g>
			<g>
				<rect id="XMLID_141_" x="282.3" y="138.1" class="st2" width="10.1" height="20.3"/>
				<path class="st2" d="M293.8,159.8h-12.9v-23.1h12.9V159.8z M283.7,157h7.3v-17.4h-7.3V157z"/>
			</g>
			<g>
				<rect id="XMLID_140_" x="260.3" y="239.4" class="st2" width="10.1" height="20.3"/>
				<path class="st2" d="M271.9,261h-12.9V238h12.9V261z M261.7,258.2h7.3v-17.4h-7.3V258.2z"/>
			</g>
			<g>
				<rect id="XMLID_139_" x="282.3" y="239.4" class="st2" width="10.1" height="20.3"/>
				<path class="st2" d="M293.8,261h-12.9V238h12.9V261z M283.7,258.2h7.3v-17.4h-7.3V258.2z"/>
			</g>
		</g>
		<path class="st2" d="M276.7,289.7c-49.5,0-89.7-40.2-89.7-89.7c0-49.5,40.2-89.7,89.7-89.7c49.5,0,89.7,40.2,89.7,89.7
			C366.4,249.5,326.1,289.7,276.7,289.7z M276.7,119.3c-44.5,0-80.7,36.2-80.7,80.7s36.2,80.7,80.7,80.7s80.7-36.2,80.7-80.7
			S321.2,119.3,276.7,119.3z"/>
	</g>
	<g>
		<g id="XMLID_107_">
			<path id="XMLID_135_" class="st2" d="M431.4,169.6c0-0.9,0.7-1.7,1.7-1.7h21.4c10.8,0,19.7,7.4,19.7,17.1
				c0,7.1-6.3,12.2-10.6,14.5c4.9,2,12.3,6.5,12.3,14.9c0,10.3-9.1,17.7-20,17.7h-22.7c-1,0-1.7-0.8-1.7-1.7V169.6z M452.9,193.9
				c3.5,0,6.4-2.9,6.4-6.6c0-3.7-2.9-6.2-6.4-6.2h-7.2v12.8H452.9z M454.1,219c3.6,0,6.6-2.9,6.6-6.7c0-3.7-3.9-6.4-7.5-6.4h-7.4
				V219H454.1z"/>
			<path id="XMLID_133_" class="st2" d="M487.5,169.6c0-0.9,0.8-1.7,1.7-1.7h11c0.9,0,1.7,0.8,1.7,1.7v60.7c0,0.9-0.8,1.7-1.7,1.7
				h-11c-0.9,0-1.7-0.8-1.7-1.7V169.6z"/>
			<path id="XMLID_131_" class="st2" d="M526.1,181.4h-13.1c-1,0-1.7-0.8-1.7-1.7v-10c0-0.9,0.7-1.7,1.7-1.7h40.7
				c1,0,1.7,0.8,1.7,1.7v10c0,0.9-0.7,1.7-1.7,1.7h-13.1v49c0,0.9-0.8,1.7-1.7,1.7h-11c-0.9,0-1.7-0.8-1.7-1.7V181.4z"/>
			<path id="XMLID_129_" class="st2" d="M592.6,167c9.2,0,16,2.8,22.2,8.5c0.8,0.7,0.8,1.8,0.1,2.6l-7.2,7.4c-0.6,0.6-1.7,0.6-2.3,0
				c-3.4-3-7.9-4.7-12.4-4.7c-10.4,0-18,8.6-18,18.9c0,10.2,7.7,18.6,18.1,18.6c4.3,0,9-1.6,12.3-4.4c0.6-0.6,1.8-0.6,2.4,0.1
				l7.2,7.6c0.6,0.6,0.6,1.8-0.1,2.5c-6.2,6.1-14.1,8.9-22.3,8.9c-18.3,0-33.1-14.6-33.1-32.9C559.5,181.7,574.3,167,592.6,167z"/>
			<path id="XMLID_126_" class="st2" d="M653.9,167c18.3,0,33,14.8,33,33.1c0,18.3-14.7,32.9-33,32.9c-18.3,0-32.9-14.6-32.9-32.9
				C621,181.7,635.6,167,653.9,167z M653.9,218.3c10.1,0,18.3-8.3,18.3-18.3c0-10.1-8.3-18.4-18.3-18.4c-10,0-18.3,8.3-18.3,18.4
				C635.7,210.1,643.9,218.3,653.9,218.3z"/>
			<path id="XMLID_124_" class="st2" d="M698,169.6c0-0.9,0.8-1.7,1.7-1.7h11c0.9,0,1.7,0.8,1.7,1.7v60.7c0,0.9-0.8,1.7-1.7,1.7h-11
				c-0.9,0-1.7-0.8-1.7-1.7V169.6z"/>
			<path id="XMLID_122_" class="st2" d="M728.2,168.6c0-0.9,0.8-1.7,1.7-1.7h2.3l36.6,35.2h0.1v-32.6c0-0.9,0.7-1.7,1.7-1.7h11
				c0.9,0,1.7,0.8,1.7,1.7v61.7c0,0.9-0.8,1.7-1.7,1.7h-1.5c-0.3,0-1-0.3-1.2-0.5l-36.2-36.4h-0.1v34.2c0,0.9-0.7,1.7-1.7,1.7H730
				c-0.9,0-1.7-0.8-1.7-1.7L728.2,168.6z"/>
			<linearGradient id="XMLID_2_" gradientUnits="userSpaceOnUse" x1="822.7913" y1="108.0727" x2="822.7913" y2="352.7537">
				<stop  offset="0" style="stop-color:#F4D933"/>
				<stop  offset="1" style="stop-color:#E3821F"/>
			</linearGradient>
			<path id="XMLID_120_" class="st3" d="M827.5,167.1c7.7,0,16.1,3.2,22.4,8.6c0.8,0.6,0.9,1.7,0.2,2.5l-7.2,7.7
				c-0.7,0.6-1.7,0.6-2.5,0.1c-3.5-3.2-7.5-4.4-12-4.4c-10,0-18.1,8.4-18.1,18.5c0,10,8.2,18.3,18.2,18.3c2.7,0,5.4-0.4,8.2-1.5
				v-5.3h-5.8c-1,0-1.7-0.7-1.7-1.7v-9.1c0-1,0.7-1.7,1.7-1.7h18.4c0.9,0,1.7,0.8,1.7,1.7l0.1,24.7c0,0.5-0.4,1.2-0.7,1.5
				c0,0-9.4,6-22.7,6c-18.3,0-32.9-14.5-32.9-32.8C794.6,181.7,809.3,167.1,827.5,167.1z"/>
			<linearGradient id="XMLID_3_" gradientUnits="userSpaceOnUse" x1="891.8499" y1="108.0727" x2="891.8499" y2="352.7537">
				<stop  offset="0" style="stop-color:#F4D933"/>
				<stop  offset="1" style="stop-color:#E3821F"/>
			</linearGradient>
			<path id="XMLID_113_" class="st4" d="M891.8,167c18.3,0,33,14.8,33,33.1c0,18.3-14.7,32.9-33,32.9c-18.3,0-32.9-14.6-32.9-32.9
				C858.9,181.7,873.5,167,891.8,167z M891.8,218.3c10.1,0,18.3-8.3,18.3-18.3c0-10.1-8.3-18.4-18.3-18.4c-10,0-18.3,8.3-18.3,18.4
				C873.6,210.1,881.8,218.3,891.8,218.3z"/>
			<linearGradient id="XMLID_4_" gradientUnits="userSpaceOnUse" x1="954.8998" y1="108.0727" x2="954.8998" y2="352.7537">
				<stop  offset="0" style="stop-color:#F4D933"/>
				<stop  offset="1" style="stop-color:#E3821F"/>
			</linearGradient>
			<path id="XMLID_111_" class="st5" d="M935.9,169.6c0-0.9,0.7-1.7,1.7-1.7h10.9c0.9,0,1.7,0.8,1.7,1.7v49h21.8
				c1,0,1.7,0.8,1.7,1.7v10c0,0.9-0.7,1.7-1.7,1.7h-34.5c-1,0-1.7-0.8-1.7-1.7V169.6z"/>
			<linearGradient id="XMLID_5_" gradientUnits="userSpaceOnUse" x1="1010.8887" y1="108.0727" x2="1010.8887" y2="352.7537">
				<stop  offset="0" style="stop-color:#F4D933"/>
				<stop  offset="1" style="stop-color:#E3821F"/>
			</linearGradient>
			<path id="XMLID_108_" class="st6" d="M982.8,169.6c0-0.9,0.7-1.7,1.7-1.7h22.4c17.7,0,32.2,14.4,32.2,32
				c0,17.8-14.5,32.2-32.2,32.2h-22.4c-0.9,0-1.7-0.8-1.7-1.7V169.6z M1005.9,218.5c10.4,0,17.9-8.2,17.9-18.6
				c0-10.4-7.5-18.5-17.9-18.5h-8.8v37.1H1005.9z"/>
		</g>
	</g>
</g>
</svg>
