<svg id="Layer_1" xmlns="http://www.w3.org/2000/svg" viewBox="0 0 1770.2 780.1"><style>.st0{fill:#4a90e2}</style><path class="st0" d="M985.7 390c0 55.6-45.1 100.6-100.6 100.6s-100.7-45-100.7-100.6c0-75.5-25.2-100.6-100.6-100.6S583.2 314.6 583.2 390c0 55.6-45.1 100.6-100.6 100.6s-100.7-45-100.7-100.6c0-55.6 45.1-100.6 100.6-100.6 75.5 0 100.6-25.2 100.6-100.6 0-55.6 45.1-100.6 100.6-100.6s100.6 45.1 100.6 100.6c0 75.5 25.2 100.6 100.6 100.6 55.8 0 100.8 45.1 100.8 100.6z"/><circle class="st0" cx="281.2" cy="591.3" r="100.6"/><path class="st0" d="M1589.6 188.7c0 55.6-45.1 100.6-100.6 100.6-75.5 0-100.6 25.2-100.6 100.6 0 55.6-45.1 100.6-100.6 100.6-75.5 0-100.6 25.2-100.6 100.6 0 55.6-45.1 100.6-100.6 100.6-55.6 0-100.6-45.1-100.6-100.6 0-55.6 45.1-100.6 100.6-100.6 75.5 0 100.6-25.2 100.6-100.6 0-55.6 45.1-100.6 100.6-100.6 75.5 0 100.6-25.2 100.6-100.6 0-55.6 45.1-100.6 100.6-100.6 55.5 0 100.6 45.1 100.6 100.6z"/></svg>