<svg id="Layer_1" xmlns="http://www.w3.org/2000/svg" viewBox="0 0 1770.2 780.1"><style>.st0{fill:#4a90e2}</style><path d="M887.7 286.1c-2.4 0-4.4.8-5.9 2.5s-2.2 3.8-2.2 6.4v159.6L757.9 290.3c-1.9-2.8-4.3-4.2-7.2-4.2-2.8 0-5 .8-6.6 2.5-1.6 1.7-2.4 3.8-2.4 6.4v181.4c0 2.8.6 5 1.9 6.6 1.3 1.6 3.3 2.4 6.1 2.4 2.4 0 4.4-.8 5.9-2.5s2.2-3.8 2.2-6.4v-160l122 164.7c2.2 2.8 4.7 4.2 7.5 4.2 2.6 0 4.6-.8 6.1-2.5s2.2-3.8 2.2-6.4V295c0-2.8-.7-5-2.1-6.5-1.2-1.6-3.2-2.4-5.8-2.4zm639.5-1.4c-55.4 0-100.4 45-100.4 100.4 0 55.4 45 100.4 100.4 100.4 55.4 0 100.4-45 100.4-100.4 0-55.4-45.1-100.4-100.4-100.4zm0 184.4c-46.3 0-84-37.7-84-84s37.7-84 84-84 84 37.7 84 84-37.7 84-84 84zM1064.4 292c-.7-1.9-2-3.3-3.8-4.5-1.8-1.1-3.7-1.7-5.7-1.7-4.5 0-7.5 2-9.2 6.1l-81.4 182.8c-.4.7-.6 1.8-.6 3.1 0 2.2.8 4 2.4 5.4 1.6 1.4 3.5 2.1 5.7 2.1 3.5 0 6.1-1.8 7.8-5.3l21.5-48.5h108.1l21.2 48.5c.7 1.7 1.8 3 3.2 3.9 1.4.9 2.8 1.4 4.3 1.4 2.2 0 4.2-.7 5.9-2.1 1.7-1.4 2.5-3.1 2.5-5.1 0-1.1-.3-2.2-.8-3.3L1064.4 292zm-56.9 124.5l47.6-107.8 47.4 107.8h-95zM1360 286.1c-2.4 0-4.4.8-5.8 2.5-1.5 1.7-2.2 3.8-2.2 6.4v159.6l-121.8-164.4c-1.9-2.8-4.3-4.2-7.2-4.2-2.8 0-5 .8-6.6 2.5-1.6 1.7-2.4 3.8-2.4 6.4v181.4c0 2.8.6 5 1.9 6.6 1.3 1.6 3.3 2.4 6.1 2.4 2.4 0 4.4-.8 5.9-2.5s2.2-3.8 2.2-6.4V316.5l122 164.7c2.2 2.8 4.7 4.2 7.5 4.2 2.6 0 4.6-.8 6.1-2.5s2.2-3.8 2.2-6.4V295c0-2.8-.7-5-2.1-6.5-1.2-1.6-3.2-2.4-5.8-2.4z" fill="#000034"/><path class="st0" d="M391.2 385.1c0 18.4-14.9 33.2-33.2 33.2s-33.2-14.9-33.2-33.2c0-24.9-8.3-33.2-33.2-33.2s-33.2 8.3-33.2 33.2c0 18.4-14.9 33.2-33.2 33.2S192 403.4 192 385.1c0-18.4 14.9-33.2 33.2-33.2 24.9 0 33.2-8.3 33.2-33.2 0-18.4 14.9-33.2 33.2-33.2s33.2 14.9 33.2 33.2c0 24.9 8.3 33.2 33.2 33.2 18.4 0 33.2 14.8 33.2 33.2z"/><circle class="st0" cx="158.6" cy="451.6" r="33.2"/><path class="st0" d="M590.7 318.6c0 18.4-14.9 33.2-33.2 33.2-24.9 0-33.2 8.3-33.2 33.2 0 18.4-14.9 33.2-33.2 33.2-24.9 0-33.2 8.3-33.2 33.2 0 18.4-14.9 33.2-33.2 33.2s-33.2-14.9-33.2-33.2c0-18.4 14.9-33.2 33.2-33.2 24.9 0 33.2-8.3 33.2-33.2 0-18.4 14.9-33.2 33.2-33.2 24.9 0 33.2-8.3 33.2-33.2 0-18.4 14.9-33.2 33.2-33.2s33.2 14.9 33.2 33.2z"/></svg>