<svg width="256" height="256" xmlns="http://www.w3.org/2000/svg"><path d="M104.894 61.938c0 23.848-19.277 43.181-43.058 43.181-23.78 0-43.056-19.333-43.056-43.18 0-23.848 19.276-43.174 43.053-43.174 23.778 0 43.04 19.34 43.083 43.181h-.022v-.008zM61.834 0C32.43-.019 7.081 20.75 1.238 49.65c-5.844 28.9 9.43 57.927 36.504 69.403 31.531 13.244 67.83-1.58 81.073-33.113 9.631-22.929 4.61-49.396-12.75-67.204h17.513V0H61.833zm131.899 105.144c-23.77 0-43.056-19.332-43.056-43.182s19.27-43.18 43.058-43.18c23.789 0 43.059 19.33 43.059 43.18-.04 23.84-19.307 43.139-43.059 43.179l-.002.003zm0-105.141c-34.11 0-61.762 27.73-61.762 61.938 0 34.207 27.653 61.938 61.762 61.938 34.108 0 61.762-27.73 61.762-61.938S227.846 0 193.735 0l-.002.003zm-131.9 237.261c-23.77 0-43.055-19.33-43.055-43.18s19.278-43.182 43.055-43.182c23.778 0 43.059 19.331 43.059 43.181-.04 23.829-19.294 43.152-43.059 43.181zm0-105.14c-34.108 0-61.759 27.73-61.759 61.938C.074 228.269 27.727 256 61.836 256s61.762-27.73 61.762-61.938-27.65-61.938-61.762-61.938h-.003z" fill="#1A53F0" fill-rule="evenodd"/></svg>