<?xml version="1.0" encoding="UTF-8" standalone="no"?>
<!-- Created with Inkscape (http://www.inkscape.org/) -->

<svg
   xmlns:dc="http://purl.org/dc/elements/1.1/"
   xmlns:cc="http://creativecommons.org/ns#"
   xmlns:rdf="http://www.w3.org/1999/02/22-rdf-syntax-ns#"
   xmlns:svg="http://www.w3.org/2000/svg"
   xmlns="http://www.w3.org/2000/svg"
   version="1.1"
   width="2089.3191"
   height="2089.3191"
   id="svg3077">
  <metadata
     id="metadata3091">
    <rdf:RDF>
      <cc:Work
         rdf:about="">
        <dc:format>image/svg+xml</dc:format>
        <dc:type
           rdf:resource="http://purl.org/dc/dcmitype/StillImage" />
        <dc:title></dc:title>
      </cc:Work>
    </rdf:RDF>
  </metadata>
  <defs
     id="defs3089" />
  <path
     d="m 1044.66,225.536 c 454.7,0 823.308,368.608 823.308,823.308 0,454.7 -368.608,823.309 -823.308,823.309 -454.7,0 -823.308,-368.609 -823.308,-823.309 0,-454.7 368.608,-823.308 823.308,-823.308 z"
     id="path3079"
     style="opacity:0.2;fill:#008fbb;fill-rule:evenodd" />
  <path
     d="m 1044.66,100 c 521.721,0 944.659,422.938 944.659,944.66 0,521.721 -422.938,944.659 -944.659,944.659 C 522.938,1989.319 100,1566.381 100,1044.66 100,522.938 522.938,100 1044.66,100 z"
     id="path3081"
     style="opacity:0.2;fill:#008fbb;fill-rule:evenodd" />
  <path
     d="m 1046.752,364.673 c 385.368,0 697.772,312.402 697.772,697.771 0,385.369 -312.404,697.773 -697.772,697.773 -385.369,0 -697.772,-312.404 -697.772,-697.773 0,-385.369 312.403,-697.771 697.772,-697.771 z"
     id="path3083"
     style="fill:#008fbb;fill-rule:evenodd" />
  <path
     d="m 1408.39,1084.365 c -17.205,0 -31.164,-13.945 -31.164,-31.159 0,0 0,-31.154 0,-31.154 0,0 -156.578,0 -156.578,0 -17.205,0 -31.15,-13.946 -31.15,-31.143 0,-17.208 13.945,-31.154 31.15,-31.154 0,0 187.742,0 187.742,0 17.21,0 31.157,13.946 31.157,31.154 0,0 0,62.297 0,62.297 0,17.214 -13.947,31.159 -31.157,31.159 z m -154.433,0 c 0,0 28.992,0 28.992,0 0,0 33.316,0 33.316,0 17.197,0 31.144,13.947 31.144,31.145 0,17.213 -13.947,31.16 -31.144,31.16 0,0 -33.316,0 -33.316,0 0,0 -28.992,0 -28.992,0 0,0 -33.309,0 -33.309,0 -5.183,0 -10.059,-1.266 -14.354,-3.502 0,0 -181.681,-121.116 -181.681,-121.116 0,0 -52.364,0 -52.364,0 -17.206,0 -31.153,-13.946 -31.153,-31.143 0,-17.208 13.947,-31.154 31.153,-31.154 0,0 62.305,0 62.305,0 6.711,0 12.939,2.123 18.027,5.738 0,0 177.613,118.872 177.613,118.872 0,0 23.763,0 23.763,0 z m -219.4,0 c 17.198,0 31.147,13.947 31.147,31.145 0,17.213 -13.949,31.16 -31.147,31.16 0,0 -62.313,0 -62.313,0 -5.169,0 -10.059,-1.266 -14.35,-3.502 0,0 -181.684,-121.116 -181.684,-121.116 0,0 -52.354,0 -52.354,0 -17.208,0 -31.154,-13.946 -31.154,-31.143 0,-17.208 13.946,-31.154 31.154,-31.154 0,0 62.303,0 62.303,0 6.711,0 12.94,2.123 18.035,5.738 0,0 177.605,118.872 177.605,118.872 0,0 52.758,0 52.758,0 z m -310.701,0 c 0,0 62.303,0 62.303,0 17.208,0 31.153,13.947 31.153,31.154 0,17.204 -13.945,31.151 -31.153,31.151 0,0 -62.303,0 -62.303,0 -17.208,0 -31.154,-13.947 -31.154,-31.151 0,-17.207 13.946,-31.154 31.154,-31.154 z"
     id="path3085"
     style="fill:#ffffff;fill-rule:evenodd" />
</svg>
