<svg xmlns="http://www.w3.org/2000/svg" width="2089.319" height="2089.319"><path d="M1044.66 225.536c454.7 0 823.308 368.608 823.308 823.308s-368.608 823.309-823.308 823.309-823.308-368.609-823.308-823.309S589.96 225.536 1044.66 225.536z" opacity=".2" fill="#008fbb" fill-rule="evenodd"/><path d="M1044.66 100c521.721 0 944.659 422.938 944.659 944.66 0 521.721-422.938 944.659-944.659 944.659-521.722 0-944.66-422.938-944.66-944.659C100 522.938 522.938 100 1044.66 100z" opacity=".2" fill="#008fbb" fill-rule="evenodd"/><path d="M1046.752 364.673c385.368 0 697.772 312.402 697.772 697.771 0 385.369-312.404 697.773-697.772 697.773-385.369 0-697.772-312.404-697.772-697.773s312.403-697.771 697.772-697.771z" fill="#008fbb" fill-rule="evenodd"/><path d="M1408.39 1084.365c-17.205 0-31.164-13.945-31.164-31.159v-31.154h-156.578c-17.205 0-31.15-13.946-31.15-31.143 0-17.208 13.945-31.154 31.15-31.154h187.742c17.21 0 31.157 13.946 31.157 31.154v62.297c0 17.214-13.947 31.159-31.157 31.159zm-154.433 0H1316.265c17.197 0 31.144 13.947 31.144 31.145 0 17.213-13.947 31.16-31.144 31.16h-33.316-28.992-33.309a30.977 30.977 0 0 1-14.354-3.502l-181.681-121.116h-52.364c-17.206 0-31.153-13.946-31.153-31.143 0-17.208 13.947-31.154 31.153-31.154h62.305a31.031 31.031 0 0 1 18.027 5.738l177.613 118.872h23.763zm-219.4 0c17.198 0 31.147 13.947 31.147 31.145 0 17.213-13.949 31.16-31.147 31.16h-62.313a30.991 30.991 0 0 1-14.35-3.502L776.21 1022.052h-52.354c-17.208 0-31.154-13.946-31.154-31.143 0-17.208 13.946-31.154 31.154-31.154h62.303c6.711 0 12.94 2.123 18.035 5.738l177.605 118.872h52.758zm-310.701 0h62.303c17.208 0 31.153 13.947 31.153 31.154 0 17.204-13.945 31.151-31.153 31.151h-62.303c-17.208 0-31.154-13.947-31.154-31.151 0-17.207 13.946-31.154 31.154-31.154z" fill="#fff" fill-rule="evenodd"/></svg>