<?xml version="1.0" encoding="UTF-8"?>
<!DOCTYPE svg PUBLIC "-//W3C//DTD SVG 1.1//EN" "http://www.w3.org/Graphics/SVG/1.1/DTD/svg11.dtd">
<!-- Creator: CorelDRAW X7 -->
<svg xmlns="http://www.w3.org/2000/svg" xml:space="preserve" width="7.5in" height="7.5in" version="1.1" style="shape-rendering:geometricPrecision; text-rendering:geometricPrecision; image-rendering:optimizeQuality; fill-rule:evenodd; clip-rule:evenodd"
viewBox="0 0 7500 7500"
 xmlns:xlink="http://www.w3.org/1999/xlink">
 <defs>
  <style type="text/css">
   <![CDATA[
    .fil0 {fill:none}
    .fil158 {fill:#C01E43;fill-rule:nonzero}
    .fil157 {fill:#C01F43;fill-rule:nonzero}
    .fil156 {fill:#C11F43;fill-rule:nonzero}
    .fil155 {fill:#C12044;fill-rule:nonzero}
    .fil154 {fill:#C12144;fill-rule:nonzero}
    .fil153 {fill:#C12244;fill-rule:nonzero}
    .fil152 {fill:#C22244;fill-rule:nonzero}
    .fil151 {fill:#C22344;fill-rule:nonzero}
    .fil150 {fill:#C22445;fill-rule:nonzero}
    .fil149 {fill:#C22545;fill-rule:nonzero}
    .fil148 {fill:#C32545;fill-rule:nonzero}
    .fil147 {fill:#C32645;fill-rule:nonzero}
    .fil146 {fill:#C32745;fill-rule:nonzero}
    .fil145 {fill:#C42746;fill-rule:nonzero}
    .fil144 {fill:#C42846;fill-rule:nonzero}
    .fil143 {fill:#C42946;fill-rule:nonzero}
    .fil142 {fill:#C42A46;fill-rule:nonzero}
    .fil141 {fill:#C52A46;fill-rule:nonzero}
    .fil140 {fill:#C52B46;fill-rule:nonzero}
    .fil139 {fill:#C52B47;fill-rule:nonzero}
    .fil138 {fill:#C52C47;fill-rule:nonzero}
    .fil137 {fill:#C62D47;fill-rule:nonzero}
    .fil136 {fill:#C62E47;fill-rule:nonzero}
    .fil135 {fill:#C62F48;fill-rule:nonzero}
    .fil134 {fill:#C72F48;fill-rule:nonzero}
    .fil133 {fill:#C73048;fill-rule:nonzero}
    .fil132 {fill:#C73148;fill-rule:nonzero}
    .fil131 {fill:#C73248;fill-rule:nonzero}
    .fil130 {fill:#C83248;fill-rule:nonzero}
    .fil129 {fill:#C83349;fill-rule:nonzero}
    .fil128 {fill:#C83449;fill-rule:nonzero}
    .fil127 {fill:#C93549;fill-rule:nonzero}
    .fil126 {fill:#C93649;fill-rule:nonzero}
    .fil125 {fill:#C9364A;fill-rule:nonzero}
    .fil124 {fill:#C9374A;fill-rule:nonzero}
    .fil123 {fill:#CA374A;fill-rule:nonzero}
    .fil122 {fill:#CA384A;fill-rule:nonzero}
    .fil121 {fill:#CA394A;fill-rule:nonzero}
    .fil120 {fill:#CA3A4A;fill-rule:nonzero}
    .fil119 {fill:#CB3A4B;fill-rule:nonzero}
    .fil118 {fill:#CB3B4B;fill-rule:nonzero}
    .fil117 {fill:#CB3C4B;fill-rule:nonzero}
    .fil116 {fill:#CC3D4B;fill-rule:nonzero}
    .fil115 {fill:#CC3E4C;fill-rule:nonzero}
    .fil114 {fill:#CC3F4C;fill-rule:nonzero}
    .fil113 {fill:#CD3F4C;fill-rule:nonzero}
    .fil112 {fill:#CD404C;fill-rule:nonzero}
    .fil111 {fill:#CD414C;fill-rule:nonzero}
    .fil110 {fill:#CD414D;fill-rule:nonzero}
    .fil109 {fill:#CE424D;fill-rule:nonzero}
    .fil108 {fill:#CE434D;fill-rule:nonzero}
    .fil107 {fill:#CE444D;fill-rule:nonzero}
    .fil106 {fill:#CF454D;fill-rule:nonzero}
    .fil105 {fill:#CF454E;fill-rule:nonzero}
    .fil104 {fill:#CF464E;fill-rule:nonzero}
    .fil103 {fill:#CF474E;fill-rule:nonzero}
    .fil102 {fill:#D0474E;fill-rule:nonzero}
    .fil101 {fill:#D0484E;fill-rule:nonzero}
    .fil100 {fill:#D0494F;fill-rule:nonzero}
    .fil99 {fill:#D14A4F;fill-rule:nonzero}
    .fil98 {fill:#D14B4F;fill-rule:nonzero}
    .fil97 {fill:#D14C4F;fill-rule:nonzero}
    .fil96 {fill:#D24D50;fill-rule:nonzero}
    .fil95 {fill:#D24E50;fill-rule:nonzero}
    .fil94 {fill:#D24F50;fill-rule:nonzero}
    .fil93 {fill:#D34F50;fill-rule:nonzero}
    .fil92 {fill:#D35050;fill-rule:nonzero}
    .fil91 {fill:#D35051;fill-rule:nonzero}
    .fil90 {fill:#D35151;fill-rule:nonzero}
    .fil89 {fill:#D45251;fill-rule:nonzero}
    .fil88 {fill:#D45351;fill-rule:nonzero}
    .fil87 {fill:#D45451;fill-rule:nonzero}
    .fil86 {fill:#D45452;fill-rule:nonzero}
    .fil85 {fill:#D55552;fill-rule:nonzero}
    .fil84 {fill:#D55652;fill-rule:nonzero}
    .fil83 {fill:#D65752;fill-rule:nonzero}
    .fil82 {fill:#D65853;fill-rule:nonzero}
    .fil81 {fill:#D65953;fill-rule:nonzero}
    .fil80 {fill:#D75A53;fill-rule:nonzero}
    .fil79 {fill:#D75B53;fill-rule:nonzero}
    .fil78 {fill:#D75C54;fill-rule:nonzero}
    .fil77 {fill:#D85D54;fill-rule:nonzero}
    .fil76 {fill:#D85E54;fill-rule:nonzero}
    .fil75 {fill:#D95F54;fill-rule:nonzero}
    .fil74 {fill:#D95F55;fill-rule:nonzero}
    .fil73 {fill:#D96055;fill-rule:nonzero}
    .fil72 {fill:#D96155;fill-rule:nonzero}
    .fil71 {fill:#DA6255;fill-rule:nonzero}
    .fil70 {fill:#DA6355;fill-rule:nonzero}
    .fil69 {fill:#DA6356;fill-rule:nonzero}
    .fil68 {fill:#DA6456;fill-rule:nonzero}
    .fil67 {fill:#DB6456;fill-rule:nonzero}
    .fil66 {fill:#DB6556;fill-rule:nonzero}
    .fil65 {fill:#DB6656;fill-rule:nonzero}
    .fil64 {fill:#DC6757;fill-rule:nonzero}
    .fil63 {fill:#DC6857;fill-rule:nonzero}
    .fil62 {fill:#DC6957;fill-rule:nonzero}
    .fil61 {fill:#DD6A57;fill-rule:nonzero}
    .fil60 {fill:#DD6B58;fill-rule:nonzero}
    .fil59 {fill:#DD6C58;fill-rule:nonzero}
    .fil58 {fill:#DE6C58;fill-rule:nonzero}
    .fil57 {fill:#DE6D58;fill-rule:nonzero}
    .fil56 {fill:#DE6E58;fill-rule:nonzero}
    .fil55 {fill:#DE6E59;fill-rule:nonzero}
    .fil54 {fill:#DF6F59;fill-rule:nonzero}
    .fil53 {fill:#DF7059;fill-rule:nonzero}
    .fil52 {fill:#DF7159;fill-rule:nonzero}
    .fil51 {fill:#E07259;fill-rule:nonzero}
    .fil50 {fill:#E0725A;fill-rule:nonzero}
    .fil49 {fill:#E0735A;fill-rule:nonzero}
    .fil48 {fill:#E0745A;fill-rule:nonzero}
    .fil47 {fill:#E1745A;fill-rule:nonzero}
    .fil46 {fill:#E1755A;fill-rule:nonzero}
    .fil45 {fill:#E1765B;fill-rule:nonzero}
    .fil44 {fill:#E2775B;fill-rule:nonzero}
    .fil43 {fill:#E2785B;fill-rule:nonzero}
    .fil42 {fill:#E2795B;fill-rule:nonzero}
    .fil41 {fill:#E3795C;fill-rule:nonzero}
    .fil40 {fill:#E37A5C;fill-rule:nonzero}
    .fil39 {fill:#E37B5C;fill-rule:nonzero}
    .fil38 {fill:#E37C5C;fill-rule:nonzero}
    .fil37 {fill:#E47C5C;fill-rule:nonzero}
    .fil36 {fill:#E47D5C;fill-rule:nonzero}
    .fil35 {fill:#E47D5D;fill-rule:nonzero}
    .fil34 {fill:#E47E5D;fill-rule:nonzero}
    .fil33 {fill:#E57F5D;fill-rule:nonzero}
    .fil32 {fill:#E5805D;fill-rule:nonzero}
    .fil31 {fill:#E5815E;fill-rule:nonzero}
    .fil30 {fill:#E6815E;fill-rule:nonzero}
    .fil29 {fill:#E6825E;fill-rule:nonzero}
    .fil28 {fill:#E6835E;fill-rule:nonzero}
    .fil27 {fill:#E6845E;fill-rule:nonzero}
    .fil26 {fill:#E7845E;fill-rule:nonzero}
    .fil25 {fill:#E7855F;fill-rule:nonzero}
    .fil24 {fill:#E7865F;fill-rule:nonzero}
    .fil23 {fill:#E8875F;fill-rule:nonzero}
    .fil22 {fill:#E8885F;fill-rule:nonzero}
    .fil21 {fill:#E88860;fill-rule:nonzero}
    .fil20 {fill:#E88960;fill-rule:nonzero}
    .fil19 {fill:#E98960;fill-rule:nonzero}
    .fil18 {fill:#E98A60;fill-rule:nonzero}
    .fil17 {fill:#E98B60;fill-rule:nonzero}
    .fil16 {fill:#E98C60;fill-rule:nonzero}
    .fil15 {fill:#EA8C61;fill-rule:nonzero}
    .fil14 {fill:#EA8D61;fill-rule:nonzero}
    .fil13 {fill:#EA8E61;fill-rule:nonzero}
    .fil12 {fill:#EB8E61;fill-rule:nonzero}
    .fil11 {fill:#EB8F61;fill-rule:nonzero}
    .fil10 {fill:#EB9062;fill-rule:nonzero}
    .fil9 {fill:#EB9162;fill-rule:nonzero}
    .fil8 {fill:#EC9162;fill-rule:nonzero}
    .fil7 {fill:#EC9262;fill-rule:nonzero}
    .fil6 {fill:#EC9362;fill-rule:nonzero}
    .fil5 {fill:#EC9463;fill-rule:nonzero}
    .fil4 {fill:#ED9463;fill-rule:nonzero}
    .fil3 {fill:#ED9563;fill-rule:nonzero}
    .fil159 {fill:#FA8C5B;fill-rule:nonzero}
    .fil161 {fill:url(#id1);fill-rule:nonzero}
    .fil162 {fill:url(#id2);fill-rule:nonzero}
    .fil1 {fill:url(#id3);fill-rule:nonzero}
    .fil160 {fill:url(#id4);fill-rule:nonzero}
    .fil2 {fill:url(#id5);fill-rule:nonzero}
   ]]>
  </style>
     <clipPath id="id0" style="clip-rule:nonzero">
      <path d="M3700 1415c6,-2 13,-5 19,-6l0 0c7,-2 13,-3 20,-3 35,-2 57,12 78,25 4,3 8,5 8,5l6 3c220,127 436,250 652,372 428,243 857,487 1279,743l35 21 -1 40c-1,659 -1,1317 0,1975l0 294 0 41 -36 21c-362,211 -754,437 -1146,662 -247,142 -494,284 -800,461l-5 3c0,0 -2,1 -5,2 -16,10 -32,20 -60,20 -7,1 -15,0 -22,-2 -7,-1 -15,-4 -22,-7l-5 -3c-330,-190 -597,-345 -864,-500 -354,-205 -707,-410 -1091,-630l-36 -20 0 -42 0 -103c0,-725 -1,-1451 0,-2177l1 -42 35 -20c389,-223 756,-435 1122,-647 259,-151 519,-302 833,-483l5 -3zm60 148c-6,-3 -11,-6 -15,-9 -238,138 -525,304 -812,470 -368,214 -736,428 -1086,628 -1,712 -1,1423 0,2135l0 61c335,193 696,402 1056,611 299,173 597,346 840,486 227,-131 513,-296 800,-461 362,-207 723,-415 1110,-641l0 -253c-1,-645 -1,-1290 0,-1935 -403,-244 -822,-482 -1241,-719 -220,-125 -440,-250 -652,-373z"/>
     </clipPath>
  <linearGradient id="id1" gradientUnits="objectBoundingBox" x1="30.133%" y1="39.6644%" x2="69.867%" y2="60.3356%">
   <stop offset="0" style="stop-opacity:1; stop-color:#FA9C68"/>
   <stop offset="1" style="stop-opacity:1; stop-color:#E3695E"/>
  </linearGradient>
  <linearGradient id="id2" gradientUnits="userSpaceOnUse" x1="4223.11" y1="5985.87" x2="5315.9" y2="4951.6">
   <stop offset="0" style="stop-opacity:1; stop-color:#B61547"/>
   <stop offset="1" style="stop-opacity:1; stop-color:#EB7B61"/>
  </linearGradient>
  <linearGradient id="id3" gradientUnits="userSpaceOnUse" x1="2536.4" y1="650" x2="2536.4" y2="6850">
   <stop offset="0" style="stop-opacity:1; stop-color:#011E3E"/>
   <stop offset="1" style="stop-opacity:1; stop-color:#002967"/>
  </linearGradient>
  <linearGradient id="id4" gradientUnits="userSpaceOnUse" x1="3874.89" y1="3797.72" x2="5082.05" y2="3797.72">
   <stop offset="0" style="stop-opacity:1; stop-color:#D13F40"/>
   <stop offset="1" style="stop-opacity:1; stop-color:#F57858"/>
  </linearGradient>
  <linearGradient id="id5" gradientUnits="userSpaceOnUse" xlink:href="#id3" x1="5292.54" y1="6788" x2="5292.54" y2="712">
  </linearGradient>
 </defs>
 <g id="Layer_x0020_1">
  <metadata id="CorelCorpID_0Corel-Layer"/>
  <rect class="fil0" width="7500" height="7500"/>
  <rect class="fil0" width="7500" height="7500"/>
  <rect class="fil0" width="7500" height="7500"/>
  <rect class="fil0" width="7500" height="7500"/>
  <g id="_2383752825904">
   <path class="fil1" d="M3947 656l476 3124 -474 3063c-66,5 -132,7 -199,7 -1712,0 -3100,-1388 -3100,-3100 0,-1712 1388,-3100 3100,-3100 66,0 132,2 197,6z"/>
   <path class="fil2" d="M3735 6850l0 -6200c5,0 10,0 15,0 1712,0 3100,1388 3100,3100 0,1712 -1388,3100 -3100,3100 -5,0 -10,0 -15,0z"/>
   <g>
    <g style="clip-path:url(#id0)">
     <polygon class="fil3" points="3750,3750 3724,7069 3618,7066 "/>
     <polygon id="1" class="fil4" points="3750,3750 3635,7066 3547,7061 "/>
     <polygon id="2" class="fil5" points="3750,3750 3564,7062 3476,7054 "/>
     <polygon id="3" class="fil6" points="3750,3750 3493,7056 3405,7046 "/>
     <polygon id="4" class="fil6" points="3750,3750 3423,7048 3335,7035 "/>
     <polygon id="5" class="fil7" points="3750,3750 3352,7037 3264,7022 "/>
     <polygon id="6" class="fil7" points="3750,3750 3282,7025 3194,7008 "/>
     <polygon id="7" class="fil8" points="3750,3750 3212,7011 3125,6991 "/>
     <polygon id="8" class="fil9" points="3750,3750 3142,6995 3056,6973 "/>
     <polygon id="9" class="fil10" points="3750,3750 3073,6977 2987,6952 "/>
     <polygon id="10" class="fil10" points="3750,3750 3004,6957 2918,6930 "/>
     <polygon id="11" class="fil11" points="3750,3750 2935,6935 2850,6906 "/>
     <polygon id="12" class="fil11" points="3750,3750 2867,6911 2783,6879 "/>
     <polygon id="13" class="fil12" points="3750,3750 2800,6886 2716,6851 "/>
     <polygon id="14" class="fil13" points="3750,3750 2733,6858 2650,6821 "/>
     <polygon id="15" class="fil13" points="3750,3750 2667,6829 2585,6790 "/>
     <polygon id="16" class="fil14" points="3750,3750 2601,6797 2520,6756 "/>
     <polygon id="17" class="fil14" points="3750,3750 2536,6764 2456,6721 "/>
     <polygon id="18" class="fil15" points="3750,3750 2472,6729 2393,6683 "/>
     <polygon id="19" class="fil16" points="3750,3750 2409,6692 2330,6644 "/>
     <polygon id="20" class="fil17" points="3750,3750 2346,6654 2269,6604 "/>
     <polygon id="21" class="fil17" points="3750,3750 2284,6614 2208,6561 "/>
     <polygon id="22" class="fil18" points="3750,3750 2223,6572 2149,6517 "/>
     <polygon id="23" class="fil18" points="3750,3750 2164,6528 2090,6471 "/>
     <polygon id="24" class="fil19" points="3750,3750 2105,6483 2032,6424 "/>
     <polygon id="25" class="fil20" points="3750,3750 2046,6435 1975,6375 "/>
     <polygon id="26" class="fil21" points="3750,3750 1989,6387 1920,6324 "/>
     <polygon id="27" class="fil22" points="3750,3750 1934,6337 1865,6272 "/>
     <polygon id="28" class="fil23" points="3750,3750 1879,6285 1812,6218 "/>
     <polygon id="29" class="fil23" points="3750,3750 1825,6231 1759,6163 "/>
     <polygon id="30" class="fil23" points="3750,3750 1772,6177 1708,6106 "/>
     <polygon id="31" class="fil24" points="3750,3750 1721,6120 1658,6048 "/>
     <polygon id="32" class="fil24" points="3750,3750 1671,6063 1610,5989 "/>
     <polygon id="33" class="fil25" points="3750,3750 1622,6004 1563,5928 "/>
     <polygon id="34" class="fil25" points="3750,3750 1574,5943 1517,5866 "/>
     <polygon id="35" class="fil26" points="3750,3750 1528,5881 1472,5802 "/>
     <polygon id="36" class="fil27" points="3750,3750 1483,5818 1429,5738 "/>
     <polygon id="37" class="fil28" points="3750,3750 1440,5754 1387,5672 "/>
     <polygon id="38" class="fil28" points="3750,3750 1397,5688 1346,5605 "/>
     <polygon id="39" class="fil29" points="3750,3750 1357,5622 1307,5537 "/>
     <polygon id="40" class="fil29" points="3750,3750 1317,5554 1270,5468 "/>
     <polygon id="41" class="fil30" points="3750,3750 1279,5485 1234,5398 "/>
     <polygon id="42" class="fil31" points="3750,3750 1243,5415 1199,5326 "/>
     <polygon id="43" class="fil32" points="3750,3750 1208,5344 1167,5254 "/>
     <polygon id="44" class="fil32" points="3750,3750 1175,5272 1135,5181 "/>
     <polygon id="45" class="fil32" points="3750,3750 1143,5199 1105,5107 "/>
     <polygon id="46" class="fil33" points="3750,3750 1113,5126 1077,5032 "/>
     <polygon id="47" class="fil33" points="3750,3750 1084,5051 1050,4957 "/>
     <polygon id="48" class="fil34" points="3750,3750 1057,4976 1025,4881 "/>
     <polygon id="49" class="fil34" points="3750,3750 1032,4900 1002,4804 "/>
     <polygon id="50" class="fil35" points="3750,3750 1008,4823 980,4726 "/>
     <polygon id="51" class="fil36" points="3750,3750 986,4746 960,4648 "/>
     <polygon id="52" class="fil37" points="3750,3750 965,4668 942,4569 "/>
     <polygon id="53" class="fil38" points="3750,3750 947,4589 925,4490 "/>
     <polygon id="54" class="fil39" points="3750,3750 930,4510 910,4411 "/>
     <polygon id="55" class="fil39" points="3750,3750 914,4430 897,4331 "/>
     <polygon id="56" class="fil40" points="3750,3750 900,4351 886,4250 "/>
     <polygon id="57" class="fil40" points="3750,3750 889,4270 876,4170 "/>
     <polygon id="58" class="fil41" points="3750,3750 878,4190 868,4089 "/>
     <polygon id="59" class="fil42" points="3750,3750 870,4109 861,4008 "/>
     <polygon id="60" class="fil42" points="3750,3750 863,4028 857,3926 "/>
     <polygon id="61" class="fil43" points="3750,3750 858,3947 854,3845 "/>
     <polygon id="62" class="fil43" points="3750,3750 855,3865 853,3763 "/>
     <polygon id="63" class="fil44" points="3750,3750 853,3784 853,3682 "/>
     <polygon id="64" class="fil44" points="3750,3750 853,3702 856,3601 "/>
     <polygon id="65" class="fil45" points="3750,3750 855,3621 860,3519 "/>
     <polygon id="66" class="fil45" points="3750,3750 859,3540 866,3438 "/>
     <polygon id="67" class="fil46" points="3750,3750 864,3458 873,3357 "/>
     <polygon id="68" class="fil46" points="3750,3750 872,3377 883,3276 "/>
     <polygon id="69" class="fil47" points="3750,3750 880,3296 894,3196 "/>
     <polygon id="70" class="fil48" points="3750,3750 891,3216 907,3116 "/>
     <polygon id="71" class="fil49" points="3750,3750 903,3136 921,3036 "/>
     <polygon id="72" class="fil49" points="3750,3750 917,3056 937,2957 "/>
     <polygon id="73" class="fil50" points="3750,3750 933,2976 955,2878 "/>
     <polygon id="74" class="fil50" points="3750,3750 951,2897 975,2799 "/>
     <polygon id="75" class="fil51" points="3750,3750 970,2819 996,2722 "/>
     <polygon id="76" class="fil52" points="3750,3750 991,2741 1019,2645 "/>
     <polygon id="77" class="fil52" points="3750,3750 1013,2664 1043,2568 "/>
     <polygon id="78" class="fil53" points="3750,3750 1037,2587 1070,2492 "/>
     <polygon id="79" class="fil53" points="3750,3750 1063,2511 1097,2417 "/>
     <polygon id="80" class="fil54" points="3750,3750 1090,2436 1127,2343 "/>
     <polygon id="81" class="fil54" points="3750,3750 1119,2362 1158,2270 "/>
     <polygon id="82" class="fil55" points="3750,3750 1150,2288 1190,2197 "/>
     <polygon id="83" class="fil56" points="3750,3750 1182,2215 1224,2126 "/>
     <polygon id="84" class="fil57" points="3750,3750 1216,2144 1260,2055 "/>
     <polygon id="85" class="fil57" points="3750,3750 1251,2073 1297,1986 "/>
     <polygon id="86" class="fil58" points="3750,3750 1288,2003 1336,1917 "/>
     <polygon id="87" class="fil59" points="3750,3750 1326,1934 1376,1850 "/>
     <polygon id="88" class="fil60" points="3750,3750 1366,1867 1417,1784 "/>
     <polygon id="89" class="fil60" points="3750,3750 1407,1800 1460,1719 "/>
     <polygon id="90" class="fil60" points="3750,3750 1449,1735 1504,1655 "/>
     <polygon id="91" class="fil61" points="3750,3750 1493,1671 1550,1592 "/>
     <polygon id="92" class="fil61" points="3750,3750 1538,1608 1597,1531 "/>
     <polygon id="93" class="fil62" points="3750,3750 1585,1547 1645,1471 "/>
     <polygon id="94" class="fil62" points="3750,3750 1633,1486 1694,1413 "/>
     <polygon id="95" class="fil63" points="3750,3750 1682,1427 1745,1356 "/>
     <polygon id="96" class="fil63" points="3750,3750 1733,1370 1797,1300 "/>
     <polygon id="97" class="fil64" points="3750,3750 1784,1314 1850,1246 "/>
     <polygon id="98" class="fil64" points="3750,3750 1837,1259 1904,1193 "/>
     <polygon id="99" class="fil65" points="3750,3750 1891,1206 1960,1142 "/>
     <polygon id="100" class="fil65" points="3750,3750 1946,1155 2016,1092 "/>
     <polygon id="101" class="fil66" points="3750,3750 2002,1105 2074,1044 "/>
     <polygon id="102" class="fil66" points="3750,3750 2059,1056 2132,998 "/>
     <polygon id="103" class="fil67" points="3750,3750 2118,1010 2192,953 "/>
     <polygon id="104" class="fil68" points="3750,3750 2177,965 2252,910 "/>
     <polygon id="105" class="fil68" points="3750,3750 2237,921 2313,869 "/>
     <polygon id="106" class="fil69" points="3750,3750 2298,879 2376,829 "/>
     <polygon id="107" class="fil70" points="3750,3750 2360,839 2439,792 "/>
     <polygon id="108" class="fil71" points="3750,3750 2423,801 2502,756 "/>
     <polygon id="109" class="fil71" points="3750,3750 2487,765 2567,721 "/>
     <polygon id="110" class="fil72" points="3750,3750 2551,730 2632,689 "/>
     <polygon id="111" class="fil72" points="3750,3750 2616,697 2698,658 "/>
     <polygon id="112" class="fil73" points="3750,3750 2682,666 2765,630 "/>
     <polygon id="113" class="fil73" points="3750,3750 2748,637 2832,603 "/>
     <polygon id="114" class="fil74" points="3750,3750 2815,610 2900,578 "/>
     <polygon id="115" class="fil75" points="3750,3750 2883,584 2968,555 "/>
     <polygon id="116" class="fil76" points="3750,3750 2951,561 3037,534 "/>
     <polygon id="117" class="fil76" points="3750,3750 3019,539 3106,515 "/>
     <polygon id="118" class="fil77" points="3750,3750 3088,520 3175,498 "/>
     <polygon id="119" class="fil77" points="3750,3750 3158,502 3245,482 "/>
     <polygon id="120" class="fil77" points="3750,3750 3228,486 3315,469 "/>
     <polygon id="121" class="fil78" points="3750,3750 3298,472 3386,458 "/>
     <polygon id="122" class="fil78" points="3750,3750 3368,461 3456,448 "/>
     <polygon id="123" class="fil79" points="3750,3750 3439,451 3527,441 "/>
     <polygon id="124" class="fil79" points="3750,3750 3509,443 3598,436 "/>
     <polygon id="125" class="fil80" points="3750,3750 3580,437 3669,432 "/>
     <polygon id="126" class="fil80" points="3750,3750 3651,433 3740,431 "/>
     <polygon id="127" class="fil81" points="3750,3750 3722,432 3811,432 "/>
     <polygon id="128" class="fil81" points="3750,3750 3794,432 3882,434 "/>
     <polygon id="129" class="fil82" points="3750,3750 3865,434 3953,439 "/>
     <polygon id="130" class="fil82" points="3750,3750 3936,438 4024,446 "/>
     <polygon id="131" class="fil83" points="3750,3750 4007,444 4095,454 "/>
     <polygon id="132" class="fil83" points="3750,3750 4077,452 4165,465 "/>
     <polygon id="133" class="fil84" points="3750,3750 4148,463 4236,478 "/>
     <polygon id="134" class="fil84" points="3750,3750 4218,475 4306,492 "/>
     <polygon id="135" class="fil84" points="3750,3750 4288,489 4375,509 "/>
     <polygon id="136" class="fil85" points="3750,3750 4358,505 4444,527 "/>
     <polygon id="137" class="fil85" points="3750,3750 4427,523 4513,548 "/>
     <polygon id="138" class="fil86" points="3750,3750 4496,543 4582,570 "/>
     <polygon id="139" class="fil87" points="3750,3750 4565,565 4650,594 "/>
     <polygon id="140" class="fil88" points="3750,3750 4633,589 4717,621 "/>
     <polygon id="141" class="fil88" points="3750,3750 4700,614 4784,649 "/>
     <polygon id="142" class="fil89" points="3750,3750 4767,642 4850,679 "/>
     <polygon id="143" class="fil89" points="3750,3750 4833,671 4915,710 "/>
     <polygon id="144" class="fil90" points="3750,3750 4899,703 4980,744 "/>
     <polygon id="145" class="fil90" points="3750,3750 4964,736 5044,780 "/>
     <polygon id="146" class="fil91" points="3750,3750 5028,771 5107,817 "/>
     <polygon id="147" class="fil92" points="3750,3750 5091,808 5170,856 "/>
     <polygon id="148" class="fil93" points="3750,3750 5154,846 5231,896 "/>
     <polygon id="149" class="fil93" points="3750,3750 5216,886 5292,939 "/>
     <polygon id="150" class="fil94" points="3750,3750 5277,928 5351,983 "/>
     <polygon id="151" class="fil95" points="3750,3750 5336,972 5410,1029 "/>
     <polygon id="152" class="fil95" points="3750,3750 5396,1017 5468,1076 "/>
     <polygon id="153" class="fil96" points="3750,3750 5454,1065 5525,1125 "/>
     <polygon id="154" class="fil96" points="3750,3750 5511,1113 5580,1176 "/>
     <polygon id="155" class="fil97" points="3750,3750 5566,1163 5635,1228 "/>
     <polygon id="156" class="fil97" points="3750,3750 5621,1215 5688,1282 "/>
     <polygon id="157" class="fil98" points="3750,3750 5675,1269 5741,1337 "/>
     <polygon id="158" class="fil98" points="3750,3750 5728,1323 5792,1394 "/>
     <polygon id="159" class="fil99" points="3750,3750 5779,1380 5842,1452 "/>
     <polygon id="160" class="fil99" points="3750,3750 5829,1437 5890,1511 "/>
     <polygon id="161" class="fil100" points="3750,3750 5878,1496 5937,1572 "/>
     <polygon id="162" class="fil100" points="3750,3750 5926,1557 5983,1634 "/>
     <polygon id="163" class="fil101" points="3750,3750 5972,1619 6028,1698 "/>
     <polygon id="164" class="fil101" points="3750,3750 6017,1682 6071,1762 "/>
     <polygon id="165" class="fil101" points="3750,3750 6060,1746 6113,1828 "/>
     <polygon id="166" class="fil102" points="3750,3750 6103,1812 6154,1895 "/>
     <polygon id="167" class="fil103" points="3750,3750 6143,1878 6193,1963 "/>
     <polygon id="168" class="fil104" points="3750,3750 6183,1946 6230,2032 "/>
     <polygon id="169" class="fil104" points="3750,3750 6221,2015 6266,2102 "/>
     <polygon id="170" class="fil105" points="3750,3750 6257,2085 6301,2174 "/>
     <polygon id="171" class="fil106" points="3750,3750 6292,2156 6333,2246 "/>
     <polygon id="172" class="fil107" points="3750,3750 6325,2228 6365,2319 "/>
     <polygon id="173" class="fil107" points="3750,3750 6357,2301 6395,2393 "/>
     <polygon id="174" class="fil108" points="3750,3750 6387,2374 6423,2468 "/>
     <polygon id="175" class="fil108" points="3750,3750 6416,2449 6450,2543 "/>
     <polygon id="176" class="fil109" points="3750,3750 6443,2524 6475,2619 "/>
     <polygon id="177" class="fil109" points="3750,3750 6468,2600 6498,2696 "/>
     <polygon id="178" class="fil110" points="3750,3750 6492,2677 6520,2774 "/>
     <polygon id="179" class="fil111" points="3750,3750 6514,2754 6540,2852 "/>
     <polygon id="180" class="fil111" points="3750,3750 6535,2832 6558,2931 "/>
     <polygon id="181" class="fil112" points="3750,3750 6553,2911 6575,3010 "/>
     <polygon id="182" class="fil112" points="3750,3750 6570,2990 6590,3089 "/>
     <polygon id="183" class="fil113" points="3750,3750 6586,3070 6603,3169 "/>
     <polygon id="184" class="fil114" points="3750,3750 6600,3149 6614,3250 "/>
     <polygon id="185" class="fil115" points="3750,3750 6611,3230 6624,3330 "/>
     <polygon id="186" class="fil115" points="3750,3750 6622,3310 6632,3411 "/>
     <polygon id="187" class="fil116" points="3750,3750 6630,3391 6639,3492 "/>
     <polygon id="188" class="fil116" points="3750,3750 6637,3472 6643,3574 "/>
     <polygon id="189" class="fil117" points="3750,3750 6642,3553 6646,3655 "/>
     <polygon id="190" class="fil117" points="3750,3750 6645,3635 6647,3737 "/>
     <polygon id="191" class="fil118" points="3750,3750 6647,3716 6647,3818 "/>
     <polygon id="192" class="fil118" points="3750,3750 6647,3798 6644,3899 "/>
     <polygon id="193" class="fil119" points="3750,3750 6645,3879 6640,3981 "/>
     <polygon id="194" class="fil119" points="3750,3750 6641,3960 6634,4062 "/>
     <polygon id="195" class="fil120" points="3750,3750 6636,4042 6627,4143 "/>
     <polygon id="196" class="fil121" points="3750,3750 6628,4123 6617,4224 "/>
     <polygon id="197" class="fil121" points="3750,3750 6620,4204 6606,4304 "/>
     <polygon id="198" class="fil122" points="3750,3750 6609,4284 6593,4384 "/>
     <polygon id="199" class="fil122" points="3750,3750 6597,4364 6579,4464 "/>
     <polygon id="200" class="fil123" points="3750,3750 6583,4444 6563,4543 "/>
     <polygon id="201" class="fil124" points="3750,3750 6567,4524 6545,4622 "/>
     <polygon id="202" class="fil125" points="3750,3750 6549,4603 6525,4701 "/>
     <polygon id="203" class="fil126" points="3750,3750 6530,4681 6504,4778 "/>
     <polygon id="204" class="fil127" points="3750,3750 6509,4759 6481,4855 "/>
     <polygon id="205" class="fil127" points="3750,3750 6487,4836 6457,4932 "/>
     <polygon id="206" class="fil128" points="3750,3750 6463,4913 6430,5008 "/>
     <polygon id="207" class="fil128" points="3750,3750 6437,4989 6403,5083 "/>
     <polygon id="208" class="fil129" points="3750,3750 6410,5064 6373,5157 "/>
     <polygon id="209" class="fil129" points="3750,3750 6381,5138 6342,5230 "/>
     <polygon id="210" class="fil129" points="3750,3750 6350,5212 6310,5303 "/>
     <polygon id="211" class="fil130" points="3750,3750 6318,5285 6276,5374 "/>
     <polygon id="212" class="fil131" points="3750,3750 6284,5356 6240,5445 "/>
     <polygon id="213" class="fil132" points="3750,3750 6249,5427 6203,5514 "/>
     <polygon id="214" class="fil132" points="3750,3750 6212,5497 6164,5583 "/>
     <polygon id="215" class="fil133" points="3750,3750 6174,5566 6124,5650 "/>
     <polygon id="216" class="fil133" points="3750,3750 6134,5633 6083,5716 "/>
     <polygon id="217" class="fil134" points="3750,3750 6093,5700 6040,5781 "/>
     <polygon id="218" class="fil135" points="3750,3750 6051,5765 5996,5845 "/>
     <polygon id="219" class="fil136" points="3750,3750 6007,5829 5950,5908 "/>
     <polygon id="220" class="fil136" points="3750,3750 5962,5892 5903,5969 "/>
     <polygon id="221" class="fil137" points="3750,3750 5915,5953 5855,6029 "/>
     <polygon id="222" class="fil137" points="3750,3750 5867,6014 5806,6087 "/>
     <polygon id="223" class="fil138" points="3750,3750 5818,6073 5755,6144 "/>
     <polygon id="224" class="fil138" points="3750,3750 5767,6130 5703,6200 "/>
     <polygon id="225" class="fil138" points="3750,3750 5716,6186 5650,6254 "/>
     <polygon id="226" class="fil139" points="3750,3750 5663,6241 5596,6307 "/>
     <polygon id="227" class="fil140" points="3750,3750 5609,6294 5540,6358 "/>
     <polygon id="228" class="fil141" points="3750,3750 5554,6345 5484,6408 "/>
     <polygon id="229" class="fil142" points="3750,3750 5498,6395 5426,6456 "/>
     <polygon id="230" class="fil143" points="3750,3750 5441,6444 5368,6502 "/>
     <polygon id="231" class="fil143" points="3750,3750 5382,6490 5308,6547 "/>
     <polygon id="232" class="fil144" points="3750,3750 5323,6535 5248,6590 "/>
     <polygon id="233" class="fil144" points="3750,3750 5263,6579 5187,6631 "/>
     <polygon id="234" class="fil145" points="3750,3750 5202,6621 5124,6671 "/>
     <polygon id="235" class="fil146" points="3750,3750 5140,6661 5061,6708 "/>
     <polygon id="236" class="fil147" points="3750,3750 5077,6699 4998,6744 "/>
     <polygon id="237" class="fil147" points="3750,3750 5013,6735 4933,6779 "/>
     <polygon id="238" class="fil148" points="3750,3750 4949,6770 4868,6811 "/>
     <polygon id="239" class="fil148" points="3750,3750 4884,6803 4802,6842 "/>
     <polygon id="240" class="fil149" points="3750,3750 4818,6834 4735,6870 "/>
     <polygon id="241" class="fil150" points="3750,3750 4752,6863 4668,6897 "/>
     <polygon id="242" class="fil150" points="3750,3750 4685,6890 4600,6922 "/>
     <polygon id="243" class="fil151" points="3750,3750 4617,6916 4532,6945 "/>
     <polygon id="244" class="fil151" points="3750,3750 4549,6939 4463,6966 "/>
     <polygon id="245" class="fil152" points="3750,3750 4481,6961 4394,6985 "/>
     <polygon id="246" class="fil153" points="3750,3750 4412,6980 4325,7002 "/>
     <polygon id="247" class="fil154" points="3750,3750 4342,6998 4255,7018 "/>
     <polygon id="248" class="fil154" points="3750,3750 4272,7014 4185,7031 "/>
     <polygon id="249" class="fil155" points="3750,3750 4202,7028 4114,7042 "/>
     <polygon id="250" class="fil155" points="3750,3750 4132,7039 4044,7052 "/>
     <polygon id="251" class="fil156" points="3750,3750 4061,7049 3973,7059 "/>
     <polygon id="252" class="fil157" points="3750,3750 3991,7057 3902,7064 "/>
     <polygon id="253" class="fil158" points="3750,3750 3920,7063 3831,7068 "/>
     <polygon id="254" class="fil158" points="3750,3750 3849,7067 3760,7069 "/>
     <polygon id="255" class="fil3" points="3750,3750 3778,7068 3706,7068 "/>
    </g>
   </g>
   <path class="fil159" d="M2958 2461c262,0 523,0 784,0l171 367 -171 424c-320,0 -641,0 -961,0 55,-265 119,-527 177,-791zm280 908c168,2 336,-3 504,2l166 443 -166 491c-17,1 -35,2 -52,3 -111,-1 -221,2 -332,-2 -1,-36 2,-73 6,-109 17,-127 25,-255 42,-383 -55,-149 -115,-295 -168,-445zm-981 536c173,-126 342,-256 514,-383l10 1c146,92 291,185 437,277 12,5 17,14 16,26 0,164 0,328 0,492 -3,17 12,29 22,39 109,102 216,207 323,311 4,53 3,108 0,161 -103,100 -210,195 -314,294 -10,13 -25,18 -40,16 -88,0 -175,0 -262,0 -155,-271 -311,-541 -466,-812 -79,-141 -165,-279 -240,-422z"/>
   <path class="fil160" d="M3742 2461c255,0 510,0 765,-1 64,264 128,528 187,792 -318,0 -635,0 -952,0l0 -791zm0 910l0 934c126,-5 252,0 377,-2 -4,-119 -23,-237 -30,-356 -4,-60 -27,-124 2,-182 49,-131 102,-260 145,-393 -134,1 -269,-3 -403,2 -30,-1 -60,-2 -91,-3zm956 150c173,127 345,257 517,388 -237,407 -469,816 -701,1225 -92,2 -184,0 -276,1 -110,-102 -222,-202 -330,-306 -1,-53 -11,-108 0,-160 111,-112 228,-219 340,-330 5,-162 2,-325 2,-487 2,-16 -2,-37 13,-47 145,-95 291,-188 435,-284z"/>
   <path class="fil161" d="M3700 1415c6,-2 13,-5 19,-6l0 0c7,-2 13,-3 20,-3 35,-2 57,12 78,25 4,3 8,5 8,5l6 3c220,127 436,250 652,372 428,243 857,487 1279,743l35 21 -1 40c-1,659 -1,1317 0,1975l0 294 0 41 -36 21c-362,211 -754,437 -1146,662 -247,142 -494,284 -800,461l-5 3c0,0 -2,1 -5,2 -16,10 -32,20 -60,20 -7,1 -15,0 -22,-2 -7,-1 -15,-4 -22,-7l-5 -3c-330,-190 -597,-345 -864,-500 -354,-205 -707,-410 -1091,-630l-36 -20 0 -42 0 -103c0,-725 -1,-1451 0,-2177l1 -42 35 -20c389,-223 756,-435 1122,-647 259,-151 519,-302 833,-483l5 -3zm60 148c-6,-3 -11,-6 -15,-9 -238,138 -525,304 -812,470 -368,214 -736,428 -1086,628 -1,712 -1,1423 0,2135l0 61c335,193 696,402 1056,611 299,173 597,346 840,486 227,-131 513,-296 800,-461 362,-207 723,-415 1110,-641l0 -253c-1,-645 -1,-1290 0,-1935 -403,-244 -822,-482 -1241,-719 -220,-125 -440,-250 -652,-373z"/>
   <path class="fil161" d="M3700 1415c6,-2 13,-5 19,-6l0 0c7,-2 13,-3 20,-3 35,-2 57,12 78,25 4,3 8,5 8,5l6 3c220,127 436,250 652,372 428,243 857,487 1279,743l35 21 -1 40c-1,659 -1,1317 0,1975l0 294 0 41 -36 21c-362,211 -754,437 -1146,662 -247,142 -494,284 -800,461l-5 3c0,0 -2,1 -5,2 -16,10 -32,20 -60,20 -7,1 -15,0 -22,-2 -7,-1 -15,-4 -22,-7l-5 -3c-330,-190 -597,-345 -864,-500 -354,-205 -707,-410 -1091,-630l-36 -20 0 -42 0 -103c0,-725 -1,-1451 0,-2177l1 -42 35 -20c389,-223 756,-435 1122,-647 259,-151 519,-302 833,-483l5 -3zm60 148c-6,-3 -11,-6 -15,-9 -238,138 -525,304 -812,470 -368,214 -736,428 -1086,628 -1,712 -1,1423 0,2135l0 61c335,193 696,402 1056,611 299,173 597,346 840,486 227,-131 513,-296 800,-461 362,-207 723,-415 1110,-641l0 -253c-1,-645 -1,-1290 0,-1935 -403,-244 -822,-482 -1241,-719 -220,-125 -440,-250 -652,-373z"/>
   <path class="fil162" d="M5796 4925l-36 21c-362,211 -754,437 -1146,662 -247,142 -494,284 -800,461l-5 3c0,0 -2,1 -5,2 -16,10 -32,20 -60,20l-1 -149c227,-131 513,-296 800,-461 362,-207 723,-415 1110,-641l143 82z"/>
  </g>
 </g>
</svg>
