<svg xmlns="http://www.w3.org/2000/svg" width="720" height="720" viewBox="0 0 7500 7500" xmlns:xlink="http://www.w3.org/1999/xlink" shape-rendering="geometricPrecision" text-rendering="geometricPrecision" image-rendering="optimizeQuality" fill-rule="evenodd" clip-rule="evenodd"><defs><style>.fil0{fill:none}.fil154,.fil155,.fil158{fill:#c01e43;fill-rule:nonzero}.fil154,.fil155{fill:#c12044}.fil154{fill:#c12144}.fil148,.fil150,.fil151{fill:#c22344;fill-rule:nonzero}.fil148,.fil150{fill:#c22445}.fil148{fill:#c32545}.fil143,.fil144,.fil147{fill:#c32645;fill-rule:nonzero}.fil143,.fil144{fill:#c42846}.fil143{fill:#c42946}.fil136,.fil137,.fil138{fill:#c52c47;fill-rule:nonzero}.fil136,.fil137{fill:#c62d47}.fil136{fill:#c62e47}.fil129,.fil132,.fil133{fill:#c73048;fill-rule:nonzero}.fil129,.fil132{fill:#c73148}.fil129{fill:#c83349}.fil122,.fil127,.fil128{fill:#c83449;fill-rule:nonzero}.fil122,.fil127{fill:#c93549}.fil122{fill:#ca384a}.fil118,.fil119,.fil121{fill:#ca394a;fill-rule:nonzero}.fil118,.fil119{fill:#cb3a4b}.fil118{fill:#cb3b4b}.fil115,.fil116,.fil117{fill:#cb3c4b;fill-rule:nonzero}.fil115,.fil116{fill:#cc3d4b}.fil115{fill:#cc3e4c}.fil109,.fil111,.fil112{fill:#cd404c;fill-rule:nonzero}.fil109,.fil111{fill:#cd414c}.fil109{fill:#ce424d}.fil104,.fil107,.fil108{fill:#ce434d;fill-rule:nonzero}.fil104,.fil107{fill:#ce444d}.fil104{fill:#cf464e}.fil100,.fil101,.fil99{fill:#d0484e;fill-rule:nonzero}.fil100,.fil99{fill:#d0494f}.fil99{fill:#d14a4f}.fil96,.fil97,.fil98{fill:#d14b4f;fill-rule:nonzero}.fil96,.fil97{fill:#d14c4f}.fil96{fill:#d24d50}.fil90,.fil93,.fil95{fill:#d24e50;fill-rule:nonzero}.fil90,.fil93{fill:#d34f50}.fil90{fill:#d35151}.fil85,.fil88,.fil89{fill:#d45251;fill-rule:nonzero}.fil85,.fil88{fill:#d45351}.fil85{fill:#d55552}.fil82,.fil83,.fil84{fill:#d55652;fill-rule:nonzero}.fil82,.fil83{fill:#d65752}.fil82{fill:#d65853}.fil79,.fil80,.fil81{fill:#d65953;fill-rule:nonzero}.fil79,.fil80{fill:#d75a53}.fil79{fill:#d75b53}.fil76,.fil77,.fil78{fill:#d75c54;fill-rule:nonzero}.fil76,.fil77{fill:#d85d54}.fil76{fill:#d85e54}.fil71,.fil72,.fil73{fill:#d96055;fill-rule:nonzero}.fil71,.fil72{fill:#d96155}.fil71{fill:#da6255}.fil65,.fil66,.fil68{fill:#da6456;fill-rule:nonzero}.fil65,.fil66{fill:#db6556}.fil65{fill:#db6656}.fil62,.fil63,.fil64{fill:#dc6757;fill-rule:nonzero}.fil62,.fil63{fill:#dc6857}.fil62{fill:#dc6957}.fil57,.fil60,.fil61{fill:#dd6a57;fill-rule:nonzero}.fil57,.fil60{fill:#dd6b58}.fil57{fill:#de6d58}.fil52,.fil53,.fil54{fill:#df6f59;fill-rule:nonzero}.fil52,.fil53{fill:#df7059}.fil52{fill:#df7159}.fil46,.fil49,.fil50{fill:#e0725a;fill-rule:nonzero}.fil46,.fil49{fill:#e0735a}.fil46{fill:#e1755a}.fil43,.fil44,.fil45{fill:#e1765b;fill-rule:nonzero}.fil43,.fil44{fill:#e2775b}.fil43{fill:#e2785b}.fil39,.fil40,.fil42{fill:#e2795b;fill-rule:nonzero}.fil39,.fil40{fill:#e37a5c}.fil39{fill:#e37b5c}.fil32,.fil33,.fil34{fill:#e47e5d;fill-rule:nonzero}.fil32,.fil33{fill:#e57f5d}.fil32{fill:#e5805d}.fil25,.fil28,.fil29{fill:#e6825e;fill-rule:nonzero}.fil25,.fil28{fill:#e6835e}.fil25{fill:#e7855f}.fil18,.fil23,.fil24{fill:#e7865f;fill-rule:nonzero}.fil18,.fil23{fill:#e8875f}.fil18{fill:#e98a60}.fil13,.fil14,.fil17{fill:#e98b60;fill-rule:nonzero}.fil13,.fil14{fill:#ea8d61}.fil13{fill:#ea8e61}.fil10,.fil11,.fil7{fill:#eb8f61;fill-rule:nonzero}.fil10,.fil7{fill:#eb9062}.fil7{fill:#ec9262}.fil161,.fil3,.fil6{fill:#ec9362;fill-rule:nonzero}.fil161,.fil3{fill:#ed9563}.fil161{fill:url(#id1)}</style><clipPath id="id0" clip-rule="nonzero"><path d="M3700 1415c6-2 13-5 19-6 7-2 13-3 20-3 35-2 57 12 78 25 4 3 8 5 8 5l6 3c220 127 436 250 652 372 428 243 857 487 1279 743l35 21-1 40c-1 659-1 1317 0 1975v335l-36 21c-362 211-754 437-1146 662-247 142-494 284-800 461l-5 3s-2 1-5 2c-16 10-32 20-60 20-7 1-15 0-22-2-7-1-15-4-22-7l-5-3c-330-190-597-345-864-500-354-205-707-410-1091-630l-36-20v-145c0-725-1-1451 0-2177l1-42 35-20c389-223 756-435 1122-647 259-151 519-302 833-483l5-3zm60 148c-6-3-11-6-15-9-238 138-525 304-812 470-368 214-736 428-1086 628-1 712-1 1423 0 2135v61c335 193 696 402 1056 611 299 173 597 346 840 486 227-131 513-296 800-461 362-207 723-415 1110-641v-253c-1-645-1-1290 0-1935-403-244-822-482-1241-719-220-125-440-250-652-373z"/></clipPath><linearGradient id="id1" gradientUnits="objectBoundingBox" x1="30.133%" y1="39.664%" x2="69.867%" y2="60.336%"><stop offset="0" stop-color="#fa9c68"/><stop offset="1" stop-color="#e3695e"/></linearGradient><linearGradient id="id2" gradientUnits="userSpaceOnUse" x1="4223.11" y1="5985.87" x2="5315.9" y2="4951.6"><stop offset="0" stop-color="#b61547"/><stop offset="1" stop-color="#eb7b61"/></linearGradient><linearGradient id="id3" gradientUnits="userSpaceOnUse" x1="2536.4" y1="650" x2="2536.4" y2="6850"><stop offset="0" stop-color="#011e3e"/><stop offset="1" stop-color="#002967"/></linearGradient><linearGradient id="id4" gradientUnits="userSpaceOnUse" x1="3874.89" y1="3797.72" x2="5082.05" y2="3797.72"><stop offset="0" stop-color="#d13f40"/><stop offset="1" stop-color="#f57858"/></linearGradient><linearGradient id="id5" gradientUnits="userSpaceOnUse" xlink:href="#id3" x1="5292.54" y1="6788" x2="5292.54" y2="712"/></defs><g id="Layer_x0020_1"><path class="fil0" d="M0 0h7500v7500H0z"/><path class="fil0" d="M0 0h7500v7500H0z"/><path class="fil0" d="M0 0h7500v7500H0z"/><path class="fil0" d="M0 0h7500v7500H0z"/><g id="_2383752825904"><path d="M3947 656l476 3124-474 3063c-66 5-132 7-199 7-1712 0-3100-1388-3100-3100S2038 650 3750 650c66 0 132 2 197 6z" fill="url(#id3)" fill-rule="nonzero"/><path d="M3735 6850V650h15c1712 0 3100 1388 3100 3100S5462 6850 3750 6850h-15z" fill="url(#id5)" fill-rule="nonzero"/><g clip-path="url(#id0)"><path class="fil3" d="M3750 3750l-26 3319-106-3z"/><path id="1" fill="#ed9463" fill-rule="nonzero" d="M3750 3750l-115 3316-88-5z"/><path id="2" fill="#ec9463" fill-rule="nonzero" d="M3750 3750l-186 3312-88-8z"/><path id="3" class="fil6" d="M3750 3750l-257 3306-88-10z"/><path id="4" class="fil6" d="M3750 3750l-327 3298-88-13z"/><path id="5" class="fil7" d="M3750 3750l-398 3287-88-15z"/><path id="6" class="fil7" d="M3750 3750l-468 3275-88-17z"/><path id="7" fill="#ec9162" fill-rule="nonzero" d="M3750 3750l-538 3261-87-20z"/><path id="8" fill="#eb9162" fill-rule="nonzero" d="M3750 3750l-608 3245-86-22z"/><path id="9" class="fil10" d="M3750 3750l-677 3227-86-25z"/><path id="10" class="fil10" d="M3750 3750l-746 3207-86-27z"/><path id="11" class="fil11" d="M3750 3750l-815 3185-85-29z"/><path id="12" class="fil11" d="M3750 3750l-883 3161-84-32z"/><path id="13" fill="#eb8e61" fill-rule="nonzero" d="M3750 3750l-950 3136-84-35z"/><path id="14" class="fil13" d="M3750 3750L2733 6858l-83-37z"/><path id="15" class="fil13" d="M3750 3750L2667 6829l-82-39z"/><path id="16" class="fil14" d="M3750 3750L2601 6797l-81-41z"/><path id="17" class="fil14" d="M3750 3750L2536 6764l-80-43z"/><path id="18" fill="#ea8c61" fill-rule="nonzero" d="M3750 3750L2472 6729l-79-46z"/><path id="19" fill="#e98c60" fill-rule="nonzero" d="M3750 3750L2409 6692l-79-48z"/><path id="20" class="fil17" d="M3750 3750L2346 6654l-77-50z"/><path id="21" class="fil17" d="M3750 3750L2284 6614l-76-53z"/><path id="22" class="fil18" d="M3750 3750L2223 6572l-74-55z"/><path id="23" class="fil18" d="M3750 3750L2164 6528l-74-57z"/><path id="24" fill="#e98960" fill-rule="nonzero" d="M3750 3750L2105 6483l-73-59z"/><path id="25" fill="#e88960" fill-rule="nonzero" d="M3750 3750L2046 6435l-71-60z"/><path id="26" fill="#e88860" fill-rule="nonzero" d="M3750 3750L1989 6387l-69-63z"/><path id="27" fill="#e8885f" fill-rule="nonzero" d="M3750 3750L1934 6337l-69-65z"/><path id="28" class="fil23" d="M3750 3750L1879 6285l-67-67z"/><path id="29" class="fil23" d="M3750 3750L1825 6231l-66-68z"/><path id="30" class="fil23" d="M3750 3750L1772 6177l-64-71z"/><path id="31" class="fil24" d="M3750 3750L1721 6120l-63-72z"/><path id="32" class="fil24" d="M3750 3750L1671 6063l-61-74z"/><path id="33" class="fil25" d="M3750 3750L1622 6004l-59-76z"/><path id="34" class="fil25" d="M3750 3750L1574 5943l-57-77z"/><path id="35" fill="#e7845e" fill-rule="nonzero" d="M3750 3750L1528 5881l-56-79z"/><path id="36" fill="#e6845e" fill-rule="nonzero" d="M3750 3750L1483 5818l-54-80z"/><path id="37" class="fil28" d="M3750 3750L1440 5754l-53-82z"/><path id="38" class="fil28" d="M3750 3750L1397 5688l-51-83z"/><path id="39" class="fil29" d="M3750 3750L1357 5622l-50-85z"/><path id="40" class="fil29" d="M3750 3750L1317 5554l-47-86z"/><path id="41" fill="#e6815e" fill-rule="nonzero" d="M3750 3750L1279 5485l-45-87z"/><path id="42" fill="#e5815e" fill-rule="nonzero" d="M3750 3750L1243 5415l-44-89z"/><path id="43" class="fil32" d="M3750 3750L1208 5344l-41-90z"/><path id="44" class="fil32" d="M3750 3750L1175 5272l-40-91z"/><path id="45" class="fil32" d="M3750 3750L1143 5199l-38-92z"/><path id="46" class="fil33" d="M3750 3750L1113 5126l-36-94z"/><path id="47" class="fil33" d="M3750 3750L1084 5051l-34-94z"/><path id="48" class="fil34" d="M3750 3750L1057 4976l-32-95z"/><path id="49" class="fil34" d="M3750 3750L1032 4900l-30-96z"/><path id="50" fill="#e47d5d" fill-rule="nonzero" d="M3750 3750L1008 4823l-28-97z"/><path id="51" fill="#e47d5c" fill-rule="nonzero" d="M3750 3750L986 4746l-26-98z"/><path id="52" fill="#e47c5c" fill-rule="nonzero" d="M3750 3750L965 4668l-23-99z"/><path id="53" fill="#e37c5c" fill-rule="nonzero" d="M3750 3750L947 4589l-22-99z"/><path id="54" class="fil39" d="M3750 3750L930 4510l-20-99z"/><path id="55" class="fil39" d="M3750 3750L914 4430l-17-99z"/><path id="56" class="fil40" d="M3750 3750L900 4351l-14-101z"/><path id="57" class="fil40" d="M3750 3750L889 4270l-13-100z"/><path id="58" fill="#e3795c" fill-rule="nonzero" d="M3750 3750L878 4190l-10-101z"/><path id="59" class="fil42" d="M3750 3750L870 4109l-9-101z"/><path id="60" class="fil42" d="M3750 3750L863 4028l-6-102z"/><path id="61" class="fil43" d="M3750 3750L858 3947l-4-102z"/><path id="62" class="fil43" d="M3750 3750L855 3865l-2-102z"/><path id="63" class="fil44" d="M3750 3750l-2897 34v-102z"/><path id="64" class="fil44" d="M3750 3750l-2897-48 3-101z"/><path id="65" class="fil45" d="M3750 3750L855 3621l5-102z"/><path id="66" class="fil45" d="M3750 3750L859 3540l7-102z"/><path id="67" class="fil46" d="M3750 3750L864 3458l9-101z"/><path id="68" class="fil46" d="M3750 3750L872 3377l11-101z"/><path id="69" fill="#e1745a" fill-rule="nonzero" d="M3750 3750L880 3296l14-100z"/><path id="70" fill="#e0745a" fill-rule="nonzero" d="M3750 3750L891 3216l16-100z"/><path id="71" class="fil49" d="M3750 3750L903 3136l18-100z"/><path id="72" class="fil49" d="M3750 3750L917 3056l20-99z"/><path id="73" class="fil50" d="M3750 3750L933 2976l22-98z"/><path id="74" class="fil50" d="M3750 3750L951 2897l24-98z"/><path id="75" fill="#e07259" fill-rule="nonzero" d="M3750 3750L970 2819l26-97z"/><path id="76" class="fil52" d="M3750 3750L991 2741l28-96z"/><path id="77" class="fil52" d="M3750 3750L1013 2664l30-96z"/><path id="78" class="fil53" d="M3750 3750L1037 2587l33-95z"/><path id="79" class="fil53" d="M3750 3750L1063 2511l34-94z"/><path id="80" class="fil54" d="M3750 3750L1090 2436l37-93z"/><path id="81" class="fil54" d="M3750 3750L1119 2362l39-92z"/><path id="82" fill="#de6e59" fill-rule="nonzero" d="M3750 3750L1150 2288l40-91z"/><path id="83" fill="#de6e58" fill-rule="nonzero" d="M3750 3750L1182 2215l42-89z"/><path id="84" class="fil57" d="M3750 3750L1216 2144l44-89z"/><path id="85" class="fil57" d="M3750 3750L1251 2073l46-87z"/><path id="86" fill="#de6c58" fill-rule="nonzero" d="M3750 3750L1288 2003l48-86z"/><path id="87" fill="#dd6c58" fill-rule="nonzero" d="M3750 3750L1326 1934l50-84z"/><path id="88" class="fil60" d="M3750 3750L1366 1867l51-83z"/><path id="89" class="fil60" d="M3750 3750L1407 1800l53-81z"/><path id="90" class="fil60" d="M3750 3750L1449 1735l55-80z"/><path id="91" class="fil61" d="M3750 3750L1493 1671l57-79z"/><path id="92" class="fil61" d="M3750 3750L1538 1608l59-77z"/><path id="93" class="fil62" d="M3750 3750L1585 1547l60-76z"/><path id="94" class="fil62" d="M3750 3750L1633 1486l61-73z"/><path id="95" class="fil63" d="M3750 3750L1682 1427l63-71z"/><path id="96" class="fil63" d="M3750 3750L1733 1370l64-70z"/><path id="97" class="fil64" d="M3750 3750L1784 1314l66-68z"/><path id="98" class="fil64" d="M3750 3750L1837 1259l67-66z"/><path id="99" class="fil65" d="M3750 3750L1891 1206l69-64z"/><path id="100" class="fil65" d="M3750 3750L1946 1155l70-63z"/><path id="101" class="fil66" d="M3750 3750L2002 1105l72-61z"/><path id="102" class="fil66" d="M3750 3750L2059 1056l73-58z"/><path id="103" fill="#db6456" fill-rule="nonzero" d="M3750 3750L2118 1010l74-57z"/><path id="104" class="fil68" d="M3750 3750L2177 965l75-55z"/><path id="105" class="fil68" d="M3750 3750L2237 921l76-52z"/><path id="106" fill="#da6356" fill-rule="nonzero" d="M3750 3750L2298 879l78-50z"/><path id="107" fill="#da6355" fill-rule="nonzero" d="M3750 3750L2360 839l79-47z"/><path id="108" class="fil71" d="M3750 3750L2423 801l79-45z"/><path id="109" class="fil71" d="M3750 3750L2487 765l80-44z"/><path id="110" class="fil72" d="M3750 3750L2551 730l81-41z"/><path id="111" class="fil72" d="M3750 3750L2616 697l82-39z"/><path id="112" class="fil73" d="M3750 3750L2682 666l83-36z"/><path id="113" class="fil73" d="M3750 3750L2748 637l84-34z"/><path id="114" fill="#d95f55" fill-rule="nonzero" d="M3750 3750L2815 610l85-32z"/><path id="115" fill="#d95f54" fill-rule="nonzero" d="M3750 3750L2883 584l85-29z"/><path id="116" class="fil76" d="M3750 3750L2951 561l86-27z"/><path id="117" class="fil76" d="M3750 3750L3019 539l87-24z"/><path id="118" class="fil77" d="M3750 3750L3088 520l87-22z"/><path id="119" class="fil77" d="M3750 3750L3158 502l87-20z"/><path id="120" class="fil77" d="M3750 3750L3228 486l87-17z"/><path id="121" class="fil78" d="M3750 3750L3298 472l88-14z"/><path id="122" class="fil78" d="M3750 3750L3368 461l88-13z"/><path id="123" class="fil79" d="M3750 3750L3439 451l88-10z"/><path id="124" class="fil79" d="M3750 3750L3509 443l89-7z"/><path id="125" class="fil80" d="M3750 3750L3580 437l89-5z"/><path id="126" class="fil80" d="M3750 3750l-99-3317 89-2z"/><path id="127" class="fil81" d="M3750 3750l-28-3318h89z"/><path id="128" class="fil81" d="M3750 3750l44-3318 88 2z"/><path id="129" class="fil82" d="M3750 3750l115-3316 88 5z"/><path id="130" class="fil82" d="M3750 3750l186-3312 88 8z"/><path id="131" class="fil83" d="M3750 3750l257-3306 88 10z"/><path id="132" class="fil83" d="M3750 3750l327-3298 88 13z"/><path id="133" class="fil84" d="M3750 3750l398-3287 88 15z"/><path id="134" class="fil84" d="M3750 3750l468-3275 88 17z"/><path id="135" class="fil84" d="M3750 3750l538-3261 87 20z"/><path id="136" class="fil85" d="M3750 3750l608-3245 86 22z"/><path id="137" class="fil85" d="M3750 3750l677-3227 86 25z"/><path id="138" fill="#d45452" fill-rule="nonzero" d="M3750 3750l746-3207 86 27z"/><path id="139" fill="#d45451" fill-rule="nonzero" d="M3750 3750l815-3185 85 29z"/><path id="140" class="fil88" d="M3750 3750l883-3161 84 32z"/><path id="141" class="fil88" d="M3750 3750l950-3136 84 35z"/><path id="142" class="fil89" d="M3750 3750L4767 642l83 37z"/><path id="143" class="fil89" d="M3750 3750L4833 671l82 39z"/><path id="144" class="fil90" d="M3750 3750L4899 703l81 41z"/><path id="145" class="fil90" d="M3750 3750L4964 736l80 44z"/><path id="146" fill="#d35051" fill-rule="nonzero" d="M3750 3750L5028 771l79 46z"/><path id="147" fill="#d35050" fill-rule="nonzero" d="M3750 3750L5091 808l79 48z"/><path id="148" class="fil93" d="M3750 3750L5154 846l77 50z"/><path id="149" class="fil93" d="M3750 3750L5216 886l76 53z"/><path id="150" fill="#d24f50" fill-rule="nonzero" d="M3750 3750L5277 928l74 55z"/><path id="151" class="fil95" d="M3750 3750L5336 972l74 57z"/><path id="152" class="fil95" d="M3750 3750l1646-2733 72 59z"/><path id="153" class="fil96" d="M3750 3750l1704-2685 71 60z"/><path id="154" class="fil96" d="M3750 3750l1761-2637 69 63z"/><path id="155" class="fil97" d="M3750 3750l1816-2587 69 65z"/><path id="156" class="fil97" d="M3750 3750l1871-2535 67 67z"/><path id="157" class="fil98" d="M3750 3750l1925-2481 66 68z"/><path id="158" class="fil98" d="M3750 3750l1978-2427 64 71z"/><path id="159" class="fil99" d="M3750 3750l2029-2370 63 72z"/><path id="160" class="fil99" d="M3750 3750l2079-2313 61 74z"/><path id="161" class="fil100" d="M3750 3750l2128-2254 59 76z"/><path id="162" class="fil100" d="M3750 3750l2176-2193 57 77z"/><path id="163" class="fil101" d="M3750 3750l2222-2131 56 79z"/><path id="164" class="fil101" d="M3750 3750l2267-2068 54 80z"/><path id="165" class="fil101" d="M3750 3750l2310-2004 53 82z"/><path id="166" fill="#d0474e" fill-rule="nonzero" d="M3750 3750l2353-1938 51 83z"/><path id="167" fill="#cf474e" fill-rule="nonzero" d="M3750 3750l2393-1872 50 85z"/><path id="168" class="fil104" d="M3750 3750l2433-1804 47 86z"/><path id="169" class="fil104" d="M3750 3750l2471-1735 45 87z"/><path id="170" fill="#cf454e" fill-rule="nonzero" d="M3750 3750l2507-1665 44 89z"/><path id="171" fill="#cf454d" fill-rule="nonzero" d="M3750 3750l2542-1594 41 90z"/><path id="172" class="fil107" d="M3750 3750l2575-1522 40 91z"/><path id="173" class="fil107" d="M3750 3750l2607-1449 38 92z"/><path id="174" class="fil108" d="M3750 3750l2637-1376 36 94z"/><path id="175" class="fil108" d="M3750 3750l2666-1301 34 94z"/><path id="176" class="fil109" d="M3750 3750l2693-1226 32 95z"/><path id="177" class="fil109" d="M3750 3750l2718-1150 30 96z"/><path id="178" fill="#cd414d" fill-rule="nonzero" d="M3750 3750l2742-1073 28 97z"/><path id="179" class="fil111" d="M3750 3750l2764-996 26 98z"/><path id="180" class="fil111" d="M3750 3750l2785-918 23 99z"/><path id="181" class="fil112" d="M3750 3750l2803-839 22 99z"/><path id="182" class="fil112" d="M3750 3750l2820-760 20 99z"/><path id="183" fill="#cd3f4c" fill-rule="nonzero" d="M3750 3750l2836-680 17 99z"/><path id="184" fill="#cc3f4c" fill-rule="nonzero" d="M3750 3750l2850-601 14 101z"/><path id="185" class="fil115" d="M3750 3750l2861-520 13 100z"/><path id="186" class="fil115" d="M3750 3750l2872-440 10 101z"/><path id="187" class="fil116" d="M3750 3750l2880-359 9 101z"/><path id="188" class="fil116" d="M3750 3750l2887-278 6 102z"/><path id="189" class="fil117" d="M3750 3750l2892-197 4 102z"/><path id="190" class="fil117" d="M3750 3750l2895-115 2 102z"/><path id="191" class="fil118" d="M3750 3750l2897-34v102z"/><path id="192" class="fil118" d="M3750 3750l2897 48-3 101z"/><path id="193" class="fil119" d="M3750 3750l2895 129-5 102z"/><path id="194" class="fil119" d="M3750 3750l2891 210-7 102z"/><path id="195" fill="#ca3a4a" fill-rule="nonzero" d="M3750 3750l2886 292-9 101z"/><path id="196" class="fil121" d="M3750 3750l2878 373-11 101z"/><path id="197" class="fil121" d="M3750 3750l2870 454-14 100z"/><path id="198" class="fil122" d="M3750 3750l2859 534-16 100z"/><path id="199" class="fil122" d="M3750 3750l2847 614-18 100z"/><path id="200" fill="#ca374a" fill-rule="nonzero" d="M3750 3750l2833 694-20 99z"/><path id="201" fill="#c9374a" fill-rule="nonzero" d="M3750 3750l2817 774-22 98z"/><path id="202" fill="#c9364a" fill-rule="nonzero" d="M3750 3750l2799 853-24 98z"/><path id="203" fill="#c93649" fill-rule="nonzero" d="M3750 3750l2780 931-26 97z"/><path id="204" class="fil127" d="M3750 3750l2759 1009-28 96z"/><path id="205" class="fil127" d="M3750 3750l2737 1086-30 96z"/><path id="206" class="fil128" d="M3750 3750l2713 1163-33 95z"/><path id="207" class="fil128" d="M3750 3750l2687 1239-34 94z"/><path id="208" class="fil129" d="M3750 3750l2660 1314-37 93z"/><path id="209" class="fil129" d="M3750 3750l2631 1388-39 92z"/><path id="210" class="fil129" d="M3750 3750l2600 1462-40 91z"/><path id="211" fill="#c83248" fill-rule="nonzero" d="M3750 3750l2568 1535-42 89z"/><path id="212" fill="#c73248" fill-rule="nonzero" d="M3750 3750l2534 1606-44 89z"/><path id="213" class="fil132" d="M3750 3750l2499 1677-46 87z"/><path id="214" class="fil132" d="M3750 3750l2462 1747-48 86z"/><path id="215" class="fil133" d="M3750 3750l2424 1816-50 84z"/><path id="216" class="fil133" d="M3750 3750l2384 1883-51 83z"/><path id="217" fill="#c72f48" fill-rule="nonzero" d="M3750 3750l2343 1950-53 81z"/><path id="218" fill="#c62f48" fill-rule="nonzero" d="M3750 3750l2301 2015-55 80z"/><path id="219" class="fil136" d="M3750 3750l2257 2079-57 79z"/><path id="220" class="fil136" d="M3750 3750l2212 2142-59 77z"/><path id="221" class="fil137" d="M3750 3750l2165 2203-60 76z"/><path id="222" class="fil137" d="M3750 3750l2117 2264-61 73z"/><path id="223" class="fil138" d="M3750 3750l2068 2323-63 71z"/><path id="224" class="fil138" d="M3750 3750l2017 2380-64 70z"/><path id="225" class="fil138" d="M3750 3750l1966 2436-66 68z"/><path id="226" fill="#c52b47" fill-rule="nonzero" d="M3750 3750l1913 2491-67 66z"/><path id="227" fill="#c52b46" fill-rule="nonzero" d="M3750 3750l1859 2544-69 64z"/><path id="228" fill="#c52a46" fill-rule="nonzero" d="M3750 3750l1804 2595-70 63z"/><path id="229" fill="#c42a46" fill-rule="nonzero" d="M3750 3750l1748 2645-72 61z"/><path id="230" class="fil143" d="M3750 3750l1691 2694-73 58z"/><path id="231" class="fil143" d="M3750 3750l1632 2740-74 57z"/><path id="232" class="fil144" d="M3750 3750l1573 2785-75 55z"/><path id="233" class="fil144" d="M3750 3750l1513 2829-76 52z"/><path id="234" fill="#c42746" fill-rule="nonzero" d="M3750 3750l1452 2871-78 50z"/><path id="235" fill="#c32745" fill-rule="nonzero" d="M3750 3750l1390 2911-79 47z"/><path id="236" class="fil147" d="M3750 3750l1327 2949-79 45z"/><path id="237" class="fil147" d="M3750 3750l1263 2985-80 44z"/><path id="238" class="fil148" d="M3750 3750l1199 3020-81 41z"/><path id="239" class="fil148" d="M3750 3750l1134 3053-82 39z"/><path id="240" fill="#c22545" fill-rule="nonzero" d="M3750 3750l1068 3084-83 36z"/><path id="241" class="fil150" d="M3750 3750l1002 3113-84 34z"/><path id="242" class="fil150" d="M3750 3750l935 3140-85 32z"/><path id="243" class="fil151" d="M3750 3750l867 3166-85 29z"/><path id="244" class="fil151" d="M3750 3750l799 3189-86 27z"/><path id="245" fill="#c22244" fill-rule="nonzero" d="M3750 3750l731 3211-87 24z"/><path id="246" fill="#c12244" fill-rule="nonzero" d="M3750 3750l662 3230-87 22z"/><path id="247" class="fil154" d="M3750 3750l592 3248-87 20z"/><path id="248" class="fil154" d="M3750 3750l522 3264-87 17z"/><path id="249" class="fil155" d="M3750 3750l452 3278-88 14z"/><path id="250" class="fil155" d="M3750 3750l382 3289-88 13z"/><path id="251" fill="#c11f43" fill-rule="nonzero" d="M3750 3750l311 3299-88 10z"/><path id="252" fill="#c01f43" fill-rule="nonzero" d="M3750 3750l241 3307-89 7z"/><path id="253" class="fil158" d="M3750 3750l170 3313-89 5z"/><path id="254" class="fil158" d="M3750 3750l99 3317-89 2z"/><path id="255" class="fil3" d="M3750 3750l28 3318h-72z"/></g><path d="M2958 2461h784l171 367-171 424h-961c55-265 119-527 177-791zm280 908c168 2 336-3 504 2l166 443-166 491c-17 1-35 2-52 3-111-1-221 2-332-2-1-36 2-73 6-109 17-127 25-255 42-383-55-149-115-295-168-445zm-981 536c173-126 342-256 514-383l10 1c146 92 291 185 437 277 12 5 17 14 16 26v492c-3 17 12 29 22 39 109 102 216 207 323 311 4 53 3 108 0 161-103 100-210 195-314 294-10 13-25 18-40 16h-262c-155-271-311-541-466-812-79-141-165-279-240-422z" fill="#fa8c5b" fill-rule="nonzero"/><path d="M3742 2461c255 0 510 0 765-1 64 264 128 528 187 792h-952v-791zm0 910v934c126-5 252 0 377-2-4-119-23-237-30-356-4-60-27-124 2-182 49-131 102-260 145-393-134 1-269-3-403 2-30-1-60-2-91-3zm956 150c173 127 345 257 517 388-237 407-469 816-701 1225-92 2-184 0-276 1-110-102-222-202-330-306-1-53-11-108 0-160 111-112 228-219 340-330 5-162 2-325 2-487 2-16-2-37 13-47 145-95 291-188 435-284z" fill="url(#id4)" fill-rule="nonzero"/><path class="fil161" d="M3700 1415c6-2 13-5 19-6 7-2 13-3 20-3 35-2 57 12 78 25 4 3 8 5 8 5l6 3c220 127 436 250 652 372 428 243 857 487 1279 743l35 21-1 40c-1 659-1 1317 0 1975v335l-36 21c-362 211-754 437-1146 662-247 142-494 284-800 461l-5 3s-2 1-5 2c-16 10-32 20-60 20-7 1-15 0-22-2-7-1-15-4-22-7l-5-3c-330-190-597-345-864-500-354-205-707-410-1091-630l-36-20v-145c0-725-1-1451 0-2177l1-42 35-20c389-223 756-435 1122-647 259-151 519-302 833-483l5-3zm60 148c-6-3-11-6-15-9-238 138-525 304-812 470-368 214-736 428-1086 628-1 712-1 1423 0 2135v61c335 193 696 402 1056 611 299 173 597 346 840 486 227-131 513-296 800-461 362-207 723-415 1110-641v-253c-1-645-1-1290 0-1935-403-244-822-482-1241-719-220-125-440-250-652-373z"/><path class="fil161" d="M3700 1415c6-2 13-5 19-6 7-2 13-3 20-3 35-2 57 12 78 25 4 3 8 5 8 5l6 3c220 127 436 250 652 372 428 243 857 487 1279 743l35 21-1 40c-1 659-1 1317 0 1975v335l-36 21c-362 211-754 437-1146 662-247 142-494 284-800 461l-5 3s-2 1-5 2c-16 10-32 20-60 20-7 1-15 0-22-2-7-1-15-4-22-7l-5-3c-330-190-597-345-864-500-354-205-707-410-1091-630l-36-20v-145c0-725-1-1451 0-2177l1-42 35-20c389-223 756-435 1122-647 259-151 519-302 833-483l5-3zm60 148c-6-3-11-6-15-9-238 138-525 304-812 470-368 214-736 428-1086 628-1 712-1 1423 0 2135v61c335 193 696 402 1056 611 299 173 597 346 840 486 227-131 513-296 800-461 362-207 723-415 1110-641v-253c-1-645-1-1290 0-1935-403-244-822-482-1241-719-220-125-440-250-652-373z"/><path d="M5796 4925l-36 21c-362 211-754 437-1146 662-247 142-494 284-800 461l-5 3s-2 1-5 2c-16 10-32 20-60 20l-1-149c227-131 513-296 800-461 362-207 723-415 1110-641l143 82z" fill="url(#id2)" fill-rule="nonzero"/></g></g></svg>