<svg id="Layer_1" xmlns="http://www.w3.org/2000/svg" viewBox="0 0 799 145"><style>.st0{fill:#272f5f}</style><path id="Fill-4" class="st0" d="M142.1 90.2c-9.6 38.6-48.7 62.1-87.2 52.5-38.5-9.7-62-48.8-52.4-87.4C12.1 16.7 51.2-6.8 89.7 2.9c38.6 9.6 62 48.7 52.4 87.3zM98 81.9c-2.7.5-4 .6-6.8.8-1.2.1-2.5.2-3.8.2 3.6 2.5 5.9 5.9 4.7 10.6-2.2 8.8-13.7 7.6-22.2 5.7L67.1 111l-.1.5-3.7 15.3 9.6 2.4 4-16c16.4 3.1 28.8 1.9 34-13 3.2-9.2.9-16.4-4.1-20.8-.1.1-.2.1-.3.1-2.5.9-5.8 2-8.5 2.4zm-2.8-19.4c-2.7 10.9-19.5 5.4-24.9 4l4.8-19.2c5.4 1.3 22.9 3.8 20.1 15.2m3.6-37.8l-9.6-2.4-3.8 15.4c-2.5-.6-5.1-1.2-7.7-1.8l3.9-15.5L72 18l-4 15.8c-2.1-.5-4.2-.9-6.1-1.4L48.5 29 46 39.3s7.1 1.6 7 1.7c3.9 1 4.6 3.6 4.5 5.6l-2.9 11.6-2.5 10.1L46.7 90c-.5 1.2-1.7 3-4.4 2.3.1.1-7-1.7-7-1.7l-4.8 11 12.5 3.1 6.9 1.8-4 16 9.6 2.4 3.9-15.9 3.1-11.6 5.3-21.2c1.1.3 2.2.5 3.5.8 3.9.9 8 1.2 11.9 1.5 2.4.2 4.9.3 7.3.3 3.6 0 7.4-.7 10.8-1.9 2.9-1 6.3-2.2 8.5-4.5 2.5-2.7 3.8-6.2 4.3-9.8 1.7-11.7-7.1-18-19.3-22.2l4-15.7z"/><path id="Private" d="M534.8 37.3c8.5 0 14.9 1.6 19.2 4.8 4.3 3.2 6.5 7.9 6.5 14 0 4.7-.9 8.9-2.7 12.3-1.8 3.5-4.3 6.3-7.6 8.5s-7.3 3.9-11.9 5c-4.6 1.1-9.8 1.6-15.5 1.6h-7.3l-6.5 27h-10.2L516 38.9c3-.7 6.1-1.2 9.4-1.4 3.3-.1 6.4-.2 9.4-.2zm-1.3 8.6c-5 0-8 .1-9.1.4l-7 28.8h6.6c3 0 6-.3 9.1-.8s5.9-1.4 8.3-2.8c2.5-1.3 4.5-3.2 6.1-5.5 1.6-2.3 2.4-5.4 2.4-9.1 0-4-1.5-6.8-4.4-8.5-2.9-1.7-6.9-2.5-12-2.5zm53.9 9.1c.8 0 1.8 0 2.8.1 1.1.1 2.1.2 3.1.4s2 .3 2.8.5 1.5.4 1.9.6l-2.8 8.5c-1.4-.6-3-1-4.8-1.3-1.8-.3-3.6-.4-5.3-.4-1.5 0-2.9.1-4.4.3s-2.7.5-3.7.8l-11.2 46.1H556l12.7-52.4c2.8-1 5.8-1.8 9.1-2.4 3.2-.5 6.4-.8 9.6-.8zm13.2 55.6h-9.8L604 56.1h9.8l-13.2 54.5zM612 46.3c-1.6 0-3-.5-4.1-1.5s-1.6-2.3-1.6-4.1c0-2.2.7-4 2.1-5.3s3-1.9 4.7-1.9c1.6 0 3 .5 4.1 1.5 1.1 1 1.7 2.4 1.7 4.2 0 2.1-.7 3.8-2.2 5.1-1.4 1.3-3 2-4.7 2zm13 64.3c-.8-3.6-1.7-7.5-2.4-11.7-.8-4.3-1.5-8.7-2.1-13.4-.6-4.6-1.2-9.4-1.6-14.4-.4-5-.7-10-.8-15h9.9c.1 3.4.2 7.1.5 10.9.2 3.9.5 7.8.9 11.6.4 3.9.8 7.6 1.3 11.2.5 3.6 1 6.9 1.6 9.8 2.1-2.7 4.3-5.8 6.6-9.4 2.3-3.6 4.5-7.4 6.6-11.3 2.1-3.9 4-7.9 5.8-11.9s3.2-7.6 4.2-11h9.9c-1.5 4.6-3.5 9.4-5.9 14.3-2.4 5-5 9.8-7.7 14.6-2.8 4.8-5.7 9.4-8.8 13.8s-6 8.3-8.9 11.7H625zm71.5.6c-.4-.8-.7-1.6-1.1-2.6-.4-.9-.6-1.9-.8-3-1.5 1.4-3.6 2.8-6.2 4.2-2.6 1.4-5.8 2.1-9.6 2.1-3.1 0-5.7-.5-8-1.5-2.2-1-4-2.3-5.4-4.1s-2.4-3.8-3.1-6.2c-.7-2.4-1-5-1-7.9 0-4.7.8-9.3 2.4-13.7 1.6-4.5 4-8.4 7.1-11.9 3.2-3.5 7.1-6.3 11.9-8.5 4.8-2.2 10.4-3.2 16.8-3.2 1.9 0 4.1.2 6.6.6s4.7 1.1 6.5 2.1l-8.1 32.9c-.4 1.6-.7 3.1-.9 4.6-.2 1.5-.4 3-.4 4.6 0 1.6.1 3.2.4 4.9.3 1.6.8 3.4 1.5 5.3l-8.6 1.3zm-15.7-7.5c3 0 5.5-.6 7.6-1.9s3.9-2.7 5.5-4.4c.1-1.2.2-2.4.4-3.7s.4-2.6.7-3.9l6.3-26c-.4-.1-.9-.2-1.7-.3s-1.5-.1-2.2-.1c-4 0-7.6.8-10.9 2.3s-6 3.6-8.3 6.1-4 5.5-5.3 8.9-1.8 6.9-1.8 10.6c0 1.5.1 3 .4 4.5.3 1.5.8 2.8 1.5 4 .7 1.2 1.7 2.1 3 2.8 1.3.7 2.9 1.1 4.8 1.1zm49.9 8.4c-5.3 0-9.1-1.2-11.6-3.5s-3.7-5.7-3.7-10.1c0-2.9.5-6.5 1.5-11l11.3-46.6 10.2-1.7-4.1 16.9H753l-2 8.2h-18.7l-5.8 24.1c-.8 3.3-1.3 6.1-1.3 8.6 0 2.3.6 4 1.9 5 1.3 1 3.4 1.5 6.3 1.5 2 0 4-.3 6-1s3.5-1.3 4.5-1.8l.7 8.3c-1.1.6-2.8 1.3-5.4 2-2.4.7-5.2 1.1-8.5 1.1zM761.6 82c4.1-.1 7.8-.4 11.2-.8s6.3-1 8.8-2c2.5-.9 4.4-2.2 5.7-3.8 1.4-1.6 2.1-3.7 2.1-6.3 0-.6-.1-1.3-.4-2-.2-.7-.7-1.3-1.3-1.9-.6-.6-1.4-1.1-2.5-1.5-1.1-.4-2.4-.6-3.9-.6-2.5 0-4.8.5-6.9 1.6-2.1 1-4.1 2.4-5.7 4.1s-3.1 3.7-4.3 6c-1.3 2.3-2.2 4.7-2.8 7.2zm10 29.9c-3.6 0-6.7-.5-9.3-1.5-2.6-1-4.8-2.4-6.5-4.2s-3.1-3.9-3.9-6.2c-.8-2.4-1.3-4.9-1.3-7.5 0-4.9.7-9.6 2.2-14.1 1.5-4.5 3.6-8.6 6.3-12 2.7-3.5 6.1-6.3 10-8.3 3.9-2.1 8.4-3.1 13.4-3.1 2.9 0 5.4.4 7.4 1.1s3.8 1.7 5.1 3c1.3 1.3 2.3 2.7 2.9 4.3.6 1.6.9 3.3.9 5.1 0 3.3-.6 6.1-1.8 8.3-1.2 2.3-2.8 4.2-4.7 5.7-2 1.5-4.3 2.7-6.9 3.6s-5.4 1.5-8.2 2c-2.8.5-5.7.8-8.6 1-2.9.2-5.7.3-8.3.5-.1.6-.1 1-.1 1.4v.8c0 1.6.2 3.1.6 4.6.4 1.4 1.1 2.7 2.2 3.8 1.1 1.1 2.5 1.9 4.4 2.6 1.9.6 4.3.9 7.3.9 1.3 0 2.7-.1 4.2-.4 1.4-.2 2.8-.6 4.1-.9 1.3-.4 2.5-.8 3.5-1.2 1-.4 1.7-.8 2.2-1.1l.8 8.3c-1.4.8-3.7 1.6-6.8 2.5-3.2.6-6.9 1-11.1 1z" fill="#7da0d1"/><path id="Bitcoin" class="st0" d="M196 112.6c-4.2 0-8.5-.2-13-.5-4.4-.3-8.4-.9-12-1.7l16.9-70.2c4-.8 8.2-1.3 12.6-1.6 4.4-.3 8.4-.4 12.1-.4 4.2 0 7.9.4 10.9 1.3 3.1.9 5.6 2 7.5 3.5 1.9 1.5 3.4 3.2 4.3 5.2s1.4 4.1 1.4 6.3c0 1.5-.2 3.1-.5 4.8-.3 1.7-.9 3.3-1.9 5-.9 1.6-2.2 3.2-3.9 4.7-1.7 1.5-3.8 2.8-6.5 4 3.2 1.4 5.5 3.3 7 5.7s2.2 5.1 2.2 8c0 3.4-.7 6.6-2 9.7s-3.5 5.9-6.4 8.3c-3 2.4-6.8 4.3-11.5 5.8-4.8 1.4-10.5 2.1-17.2 2.1zm-1.5-32.7L190 98.8c1.1.2 2.5.4 4.3.5 1.7.1 3.3.2 4.8.2 2.1 0 4.2-.2 6.3-.5 2.1-.3 3.9-.9 5.6-1.7 1.7-.8 3-2 4.1-3.5s1.6-3.4 1.6-5.7c0-1-.2-2-.6-2.9-.4-1-1-1.9-1.8-2.6s-2-1.4-3.3-1.9c-1.4-.5-3-.7-4.9-.7h-11.6zm3.1-12.3h10.3c4.2 0 7.4-.9 9.4-2.7 2.1-1.8 3.1-4 3.1-6.5 0-1.3-.3-2.5-.9-3.4s-1.4-1.7-2.4-2.3c-1-.6-2.1-1-3.4-1.2-1.3-.2-2.6-.4-3.9-.4-1.5 0-3.1.1-4.7.2-1.7.1-3 .2-3.8.4l-3.7 15.9zm53.4 44h-15.6l13.2-55.1h15.7L251 111.6zm7.6-61.8c-2.2 0-4.1-.6-5.9-1.9s-2.6-3.3-2.6-5.9c0-1.5.3-2.8.9-4.1.6-1.3 1.4-2.4 2.4-3.4 1-.9 2.1-1.7 3.4-2.3 1.3-.6 2.7-.8 4.2-.8 2.2 0 4.1.6 5.9 1.9s2.6 3.3 2.6 5.9c0 1.5-.3 2.8-.9 4.1-.6 1.3-1.4 2.4-2.4 3.4-1 .9-2.1 1.7-3.4 2.3-1.3.6-2.7.8-4.2.8zm17.4-7l16.3-2.5-4 16.2h17.5l-3.2 12.8h-17.4l-4.6 19.3c-.4 1.6-.7 3.1-.8 4.5-.1 1.4.1 2.6.5 3.6.5 1 1.2 1.8 2.4 2.4 1.1.6 2.7.8 4.6.8 1.7 0 3.3-.2 4.9-.5 1.6-.3 3.2-.8 4.8-1.3l1.2 11.9c-2.1.8-4.4 1.4-6.9 2-2.5.6-5.4.8-8.8.8-4.8 0-8.6-.7-11.3-2.1-2.7-1.4-4.6-3.4-5.7-5.9s-1.6-5.3-1.5-8.5c.1-3.2.6-6.6 1.5-10.2L276 42.8zm25.9 46.8c0-4.7.8-9.2 2.3-13.4 1.5-4.2 3.8-7.9 6.6-11 2.9-3.1 6.4-5.6 10.5-7.4 4.1-1.8 8.7-2.7 13.8-2.7 3.2 0 6 .3 8.5.9 2.5.6 4.8 1.4 6.8 2.4L345 70.5c-1.4-.6-2.9-1.1-4.4-1.5-1.5-.5-3.4-.7-5.5-.7-5.3 0-9.4 1.8-12.4 5.3s-4.5 8.3-4.5 14.4c0 3.6.8 6.4 2.3 8.6 1.5 2.2 4.4 3.3 8.5 3.3 2 0 4-.2 5.9-.6 1.9-.4 3.6-.9 5.1-1.6l1.2 12.5c-2 .8-4.1 1.4-6.5 2-2.4.6-5.2.9-8.6.9-4.4 0-8-.6-11.1-1.9s-5.5-3-7.5-5.1-3.4-4.6-4.3-7.5c-.8-2.8-1.3-5.8-1.3-9zm65.5 23.5c-3.7 0-7-.6-9.7-1.7-2.7-1.1-5-2.7-6.8-4.7-1.8-2-3.1-4.4-4.1-7.2-.9-2.8-1.4-5.8-1.4-9.2 0-4.2.7-8.4 2.1-12.6 1.4-4.2 3.4-8 6.1-11.3 2.7-3.4 5.9-6.1 9.8-8.2 3.9-2.1 8.3-3.2 13.3-3.2 3.7 0 6.9.6 9.6 1.7s5.1 2.7 6.9 4.7c1.8 2 3.1 4.4 4.1 7.2s1.4 5.8 1.4 9.2c0 4.2-.7 8.4-2 12.6-1.3 4.2-3.3 8-5.9 11.3-2.6 3.4-5.9 6.1-9.8 8.2s-8.4 3.2-13.6 3.2zm7.8-44.8c-2.3 0-4.4.7-6.1 2-1.8 1.3-3.2 3-4.4 5-1.2 2-2.1 4.2-2.7 6.7-.6 2.4-.9 4.7-.9 6.9 0 3.6.6 6.3 1.7 8.2 1.1 1.9 3.2 2.9 6.1 2.9 2.3 0 4.4-.7 6.1-2s3.2-3 4.4-5c1.2-2 2.1-4.2 2.7-6.7.6-2.4.9-4.7.9-6.9 0-3.6-.6-6.3-1.7-8.2-1.1-2-3.1-2.9-6.1-2.9zm38.9 43.3h-15.6l13.2-55.1h15.7l-13.3 55.1zm7.5-61.8c-2.2 0-4.1-.6-5.9-1.9-1.8-1.3-2.6-3.3-2.6-5.9 0-1.5.3-2.8.9-4.1.6-1.3 1.4-2.4 2.4-3.4s2.1-1.7 3.4-2.3c1.3-.6 2.7-.8 4.2-.8 2.2 0 4.1.6 5.9 1.9s2.6 3.3 2.6 5.9c0 1.5-.3 2.8-.9 4.1-.6 1.3-1.4 2.4-2.4 3.4-1 .9-2.1 1.7-3.4 2.3-1.3.6-2.7.8-4.2.8zm15 9.3c1.2-.3 2.5-.8 4-1.2 1.4-.5 3.1-.9 4.8-1.3 1.8-.4 3.8-.7 6-.9 2.2-.2 4.7-.4 7.5-.4 8.3 0 14 2.4 17.1 7.1s3.6 11.2 1.6 19.5l-7.2 29.7h-15.7l7-29.1c.4-1.8.8-3.6 1-5.3.2-1.7.2-3.2-.1-4.5s-.9-2.3-2-3.1c-1-.8-2.6-1.2-4.7-1.2-2 0-4.1.2-6.2.6l-10.2 42.6h-15.7l12.8-52.5z"/></svg>