<svg xmlns="http://www.w3.org/2000/svg" viewBox="0 0 199 200"><path fill="#272D63" d="M196 124.4c-13.3 53.2-67.1 85.6-120.3 72.4C22.6 183.4-9.8 129.5 3.5 76.3 16.8 23.1 70.6-9.3 123.8 3.9c53.1 13.3 85.5 67.2 72.2 120.5"/><path fill="#FEFEFE" d="M135.2 113c-3.7.6-5.6.9-9.3 1.1-1.7.1-3.4.2-5.2.3 5 3.4 8.1 8.1 6.5 14.6-3 12.2-18.9 10.5-30.7 7.9l-4 16.2-.2.7-5.1 21.1 13.2 3.3 5.5-22.1c22.6 4.3 39.7 2.6 46.8-18 4.5-12.7 1.2-22.6-5.7-28.7-.1.1-.3.1-.4.2-3.2 1.3-7.7 2.8-11.4 3.4"/><path fill="#FEFEFE" d="M131.3 86.2c-3.7 15-26.9 7.4-34.4 5.5l6.6-26.6c7.5 2 31.7 5.4 27.8 21.1m5-52.2L123 30.7 117.8 52c-3.5-.9-7.1-1.7-10.6-2.5l5.3-21.4-13.3-3.3-5.4 21.8c-2.9-.7-5.7-1.3-8.5-2L67 40l-3.5 14.2s9.9 2.3 9.7 2.4c5.4 1.3 6.4 4.9 6.2 7.7l-4 16-3.5 13.9-7.5 30c-.7 1.6-2.3 4.1-6.1 3.2.1.2-9.7-2.4-9.7-2.4L42 140.1l17.3 4.3c3.2.8 6.4 1.7 9.5 2.5L63.3 169l13.3 3.3 5.4-21.9 4.3-16 7.3-29.3c1.5.4 3.1.7 4.8 1.1 5.4 1.2 11 1.7 16.5 2.1 3.4.3 6.7.4 10.1.4 5-.1 10.2-1 14.9-2.6 4-1.3 8.7-3 11.7-6.2 3.5-3.7 5.2-8.6 5.9-13.5 2.4-16.1-9.9-24.8-26.6-30.6l5.4-21.8z"/></svg>