<?xml version="1.0" encoding="utf-8"?>
<!-- Generator: Adobe Illustrator 22.0.0, SVG Export Plug-In . SVG Version: 6.00 Build 0)  -->
<svg version="1.1" id="Layer_1" xmlns="http://www.w3.org/2000/svg" xmlns:xlink="http://www.w3.org/1999/xlink" x="0px" y="0px"
	 viewBox="0 0 799 145" style="enable-background:new 0 0 799 145;" xml:space="preserve">
<style type="text/css">
	.st0{fill:#272F5F;}
	.st1{fill:#7DA0D1;}
</style>
<path id="Fill-4" class="st0" d="M142.1,90.2c-9.6,38.6-48.7,62.1-87.2,52.5C16.4,133-7.1,93.9,2.5,55.3
	C12.1,16.7,51.2-6.8,89.7,2.9C128.3,12.5,151.7,51.6,142.1,90.2z M98,81.9c-2.7,0.5-4,0.6-6.8,0.8c-1.2,0.1-2.5,0.2-3.8,0.2
	c3.6,2.5,5.9,5.9,4.7,10.6c-2.2,8.8-13.7,7.6-22.2,5.7L67.1,111h0l-0.1,0.5l-3.7,15.3l9.6,2.4l4-16c16.4,3.1,28.8,1.9,34-13
	c3.2-9.2,0.9-16.4-4.1-20.8c-0.1,0.1-0.2,0.1-0.3,0.1C104,80.4,100.7,81.5,98,81.9z M95.2,62.5c-2.7,10.9-19.5,5.4-24.9,4l4.8-19.2
	C80.5,48.6,98,51.1,95.2,62.5 M98.8,24.7l-9.6-2.4l-3.8,15.4c-2.5-0.6-5.1-1.2-7.7-1.8l3.9-15.5l-9.6-2.4L68,33.8
	c-2.1-0.5-4.2-0.9-6.1-1.4L48.5,29L46,39.3c0,0,7.1,1.6,7,1.7c3.9,1,4.6,3.6,4.5,5.6l-2.9,11.6l-2.5,10.1L46.7,90
	c-0.5,1.2-1.7,3-4.4,2.3c0.1,0.1-7-1.7-7-1.7l-4.8,11l12.5,3.1c2.3,0.6,4.6,1.2,6.9,1.8l-4,16l9.6,2.4l3.9-15.9l3.1-11.6l5.3-21.2
	c1.1,0.3,2.2,0.5,3.5,0.8c3.9,0.9,8,1.2,11.9,1.5c2.4,0.2,4.9,0.3,7.3,0.3c3.6,0,7.4-0.7,10.8-1.9c2.9-1,6.3-2.2,8.5-4.5
	c2.5-2.7,3.8-6.2,4.3-9.8c1.7-11.7-7.1-18-19.3-22.2L98.8,24.7z"/>
<path id="Private" class="st1" d="M534.8,37.3c8.5,0,14.9,1.6,19.2,4.8c4.3,3.2,6.5,7.9,6.5,14c0,4.7-0.9,8.9-2.7,12.3
	c-1.8,3.5-4.3,6.3-7.6,8.5s-7.3,3.9-11.9,5c-4.6,1.1-9.8,1.6-15.5,1.6h-7.3l-6.5,27h-10.2L516,38.9c3-0.7,6.1-1.2,9.4-1.4
	C528.7,37.4,531.8,37.3,534.8,37.3z M533.5,45.9c-5,0-8,0.1-9.1,0.4l-7,28.8h6.6c3,0,6-0.3,9.1-0.8s5.9-1.4,8.3-2.8
	c2.5-1.3,4.5-3.2,6.1-5.5c1.6-2.3,2.4-5.4,2.4-9.1c0-4-1.5-6.8-4.4-8.5C542.6,46.7,538.6,45.9,533.5,45.9z M587.4,55
	c0.8,0,1.8,0,2.8,0.1c1.1,0.1,2.1,0.2,3.1,0.4c1,0.2,2,0.3,2.8,0.5s1.5,0.4,1.9,0.6l-2.8,8.5c-1.4-0.6-3-1-4.8-1.3
	c-1.8-0.3-3.6-0.4-5.3-0.4c-1.5,0-2.9,0.1-4.4,0.3s-2.7,0.5-3.7,0.8l-11.2,46.1H556l12.7-52.4c2.8-1,5.8-1.8,9.1-2.4
	C581,55.3,584.2,55,587.4,55z M600.6,110.6h-9.8L604,56.1h9.8L600.6,110.6z M612,46.3c-1.6,0-3-0.5-4.1-1.5s-1.6-2.3-1.6-4.1
	c0-2.2,0.7-4,2.1-5.3s3-1.9,4.7-1.9c1.6,0,3,0.5,4.1,1.5c1.1,1,1.7,2.4,1.7,4.2c0,2.1-0.7,3.8-2.2,5.1
	C615.3,45.6,613.7,46.3,612,46.3z M625,110.6c-0.8-3.6-1.7-7.5-2.4-11.7c-0.8-4.3-1.5-8.7-2.1-13.4c-0.6-4.6-1.2-9.4-1.6-14.4
	c-0.4-5-0.7-10-0.8-15h9.9c0.1,3.4,0.2,7.1,0.5,10.9c0.2,3.9,0.5,7.8,0.9,11.6c0.4,3.9,0.8,7.6,1.3,11.2c0.5,3.6,1,6.9,1.6,9.8
	c2.1-2.7,4.3-5.8,6.6-9.4c2.3-3.6,4.5-7.4,6.6-11.3c2.1-3.9,4-7.9,5.8-11.9s3.2-7.6,4.2-11h9.9c-1.5,4.6-3.5,9.4-5.9,14.3
	c-2.4,5-5,9.8-7.7,14.6c-2.8,4.8-5.7,9.4-8.8,13.8s-6,8.3-8.9,11.7H625z M696.5,111.2c-0.4-0.8-0.7-1.6-1.1-2.6
	c-0.4-0.9-0.6-1.9-0.8-3c-1.5,1.4-3.6,2.8-6.2,4.2c-2.6,1.4-5.8,2.1-9.6,2.1c-3.1,0-5.7-0.5-8-1.5c-2.2-1-4-2.3-5.4-4.1
	s-2.4-3.8-3.1-6.2c-0.7-2.4-1-5-1-7.9c0-4.7,0.8-9.3,2.4-13.7c1.6-4.5,4-8.4,7.1-11.9c3.2-3.5,7.1-6.3,11.9-8.5
	c4.8-2.2,10.4-3.2,16.8-3.2c1.9,0,4.1,0.2,6.6,0.6s4.7,1.1,6.5,2.1l-8.1,32.9c-0.4,1.6-0.7,3.1-0.9,4.6c-0.2,1.5-0.4,3-0.4,4.6
	c0,1.6,0.1,3.2,0.4,4.9c0.3,1.6,0.8,3.4,1.5,5.3L696.5,111.2z M680.8,103.7c3,0,5.5-0.6,7.6-1.9s3.9-2.7,5.5-4.4
	c0.1-1.2,0.2-2.4,0.4-3.7s0.4-2.6,0.7-3.9l6.3-26c-0.4-0.1-0.9-0.2-1.7-0.3s-1.5-0.1-2.2-0.1c-4,0-7.6,0.8-10.9,2.3s-6,3.6-8.3,6.1
	s-4,5.5-5.3,8.9s-1.8,6.9-1.8,10.6c0,1.5,0.1,3,0.4,4.5c0.3,1.5,0.8,2.8,1.5,4c0.7,1.2,1.7,2.1,3,2.8
	C677.3,103.3,678.9,103.7,680.8,103.7z M730.7,112.1c-5.3,0-9.1-1.2-11.6-3.5s-3.7-5.7-3.7-10.1c0-2.9,0.5-6.5,1.5-11l11.3-46.6
	l10.2-1.7l-4.1,16.9H753l-2,8.2h-18.7l-5.8,24.1c-0.8,3.3-1.3,6.1-1.3,8.6c0,2.3,0.6,4,1.9,5c1.3,1,3.4,1.5,6.3,1.5c2,0,4-0.3,6-1
	c2-0.7,3.5-1.3,4.5-1.8l0.7,8.3c-1.1,0.6-2.8,1.3-5.4,2C736.8,111.7,734,112.1,730.7,112.1z M761.6,82c4.1-0.1,7.8-0.4,11.2-0.8
	s6.3-1,8.8-2c2.5-0.9,4.4-2.2,5.7-3.8c1.4-1.6,2.1-3.7,2.1-6.3c0-0.6-0.1-1.3-0.4-2c-0.2-0.7-0.7-1.3-1.3-1.9
	c-0.6-0.6-1.4-1.1-2.5-1.5c-1.1-0.4-2.4-0.6-3.9-0.6c-2.5,0-4.8,0.5-6.9,1.6c-2.1,1-4.1,2.4-5.7,4.1s-3.1,3.7-4.3,6
	C763.1,77.1,762.2,79.5,761.6,82z M771.6,111.9c-3.6,0-6.7-0.5-9.3-1.5c-2.6-1-4.8-2.4-6.5-4.2s-3.1-3.9-3.9-6.2
	c-0.8-2.4-1.3-4.9-1.3-7.5c0-4.9,0.7-9.6,2.2-14.1c1.5-4.5,3.6-8.6,6.3-12c2.7-3.5,6.1-6.3,10-8.3c3.9-2.1,8.4-3.1,13.4-3.1
	c2.9,0,5.4,0.4,7.4,1.1s3.8,1.7,5.1,3c1.3,1.3,2.3,2.7,2.9,4.3c0.6,1.6,0.9,3.3,0.9,5.1c0,3.3-0.6,6.1-1.8,8.3
	c-1.2,2.3-2.8,4.2-4.7,5.7c-2,1.5-4.3,2.7-6.9,3.6s-5.4,1.5-8.2,2c-2.8,0.5-5.7,0.8-8.6,1c-2.9,0.2-5.7,0.3-8.3,0.5
	c-0.1,0.6-0.1,1-0.1,1.4v0.8c0,1.6,0.2,3.1,0.6,4.6c0.4,1.4,1.1,2.7,2.2,3.8c1.1,1.1,2.5,1.9,4.4,2.6c1.9,0.6,4.3,0.9,7.3,0.9
	c1.3,0,2.7-0.1,4.2-0.4c1.4-0.2,2.8-0.6,4.1-0.9c1.3-0.4,2.5-0.8,3.5-1.2c1-0.4,1.7-0.8,2.2-1.1l0.8,8.3c-1.4,0.8-3.7,1.6-6.8,2.5
	C779.5,111.5,775.8,111.9,771.6,111.9z"/>
<path id="Bitcoin" class="st0" d="M196,112.6c-4.2,0-8.5-0.2-13-0.5c-4.4-0.3-8.4-0.9-12-1.7l16.9-70.2c4-0.8,8.2-1.3,12.6-1.6
	c4.4-0.3,8.4-0.4,12.1-0.4c4.2,0,7.9,0.4,10.9,1.3c3.1,0.9,5.6,2,7.5,3.5c1.9,1.5,3.4,3.2,4.3,5.2s1.4,4.1,1.4,6.3
	c0,1.5-0.2,3.1-0.5,4.8c-0.3,1.7-0.9,3.3-1.9,5c-0.9,1.6-2.2,3.2-3.9,4.7c-1.7,1.5-3.8,2.8-6.5,4c3.2,1.4,5.5,3.3,7,5.7
	s2.2,5.1,2.2,8c0,3.4-0.7,6.6-2,9.7s-3.5,5.9-6.4,8.3c-3,2.4-6.8,4.3-11.5,5.8C208.4,111.9,202.7,112.6,196,112.6z M194.5,79.9
	L190,98.8c1.1,0.2,2.5,0.4,4.3,0.5c1.7,0.1,3.3,0.2,4.8,0.2c2.1,0,4.2-0.2,6.3-0.5c2.1-0.3,3.9-0.9,5.6-1.7c1.7-0.8,3-2,4.1-3.5
	s1.6-3.4,1.6-5.7c0-1-0.2-2-0.6-2.9c-0.4-1-1-1.9-1.8-2.6s-2-1.4-3.3-1.9c-1.4-0.5-3-0.7-4.9-0.7H194.5z M197.6,67.6h10.3
	c4.2,0,7.4-0.9,9.4-2.7c2.1-1.8,3.1-4,3.1-6.5c0-1.3-0.3-2.5-0.9-3.4s-1.4-1.7-2.4-2.3c-1-0.6-2.1-1-3.4-1.2
	c-1.3-0.2-2.6-0.4-3.9-0.4c-1.5,0-3.1,0.1-4.7,0.2c-1.7,0.1-3,0.2-3.8,0.4L197.6,67.6z M251,111.6h-15.6l13.2-55.1h15.7L251,111.6z
	 M258.6,49.8c-2.2,0-4.1-0.6-5.9-1.9s-2.6-3.3-2.6-5.9c0-1.5,0.3-2.8,0.9-4.1c0.6-1.3,1.4-2.4,2.4-3.4c1-0.9,2.1-1.7,3.4-2.3
	c1.3-0.6,2.7-0.8,4.2-0.8c2.2,0,4.1,0.6,5.9,1.9s2.6,3.3,2.6,5.9c0,1.5-0.3,2.8-0.9,4.1c-0.6,1.3-1.4,2.4-2.4,3.4
	c-1,0.9-2.1,1.7-3.4,2.3C261.5,49.6,260.1,49.8,258.6,49.8z M276,42.8l16.3-2.5l-4,16.2h17.5l-3.2,12.8h-17.4l-4.6,19.3
	c-0.4,1.6-0.7,3.1-0.8,4.5c-0.1,1.4,0.1,2.6,0.5,3.6c0.5,1,1.2,1.8,2.4,2.4c1.1,0.6,2.7,0.8,4.6,0.8c1.7,0,3.3-0.2,4.9-0.5
	c1.6-0.3,3.2-0.8,4.8-1.3l1.2,11.9c-2.1,0.8-4.4,1.4-6.9,2c-2.5,0.6-5.4,0.8-8.8,0.8c-4.8,0-8.6-0.7-11.3-2.1
	c-2.7-1.4-4.6-3.4-5.7-5.9s-1.6-5.3-1.5-8.5c0.1-3.2,0.6-6.6,1.5-10.2L276,42.8z M301.9,89.6c0-4.7,0.8-9.2,2.3-13.4
	c1.5-4.2,3.8-7.9,6.6-11c2.9-3.1,6.4-5.6,10.5-7.4c4.1-1.8,8.7-2.7,13.8-2.7c3.2,0,6,0.3,8.5,0.9c2.5,0.6,4.8,1.4,6.8,2.4L345,70.5
	c-1.4-0.6-2.9-1.1-4.4-1.5c-1.5-0.5-3.4-0.7-5.5-0.7c-5.3,0-9.4,1.8-12.4,5.3c-3,3.5-4.5,8.3-4.5,14.4c0,3.6,0.8,6.4,2.3,8.6
	c1.5,2.2,4.4,3.3,8.5,3.3c2,0,4-0.2,5.9-0.6c1.9-0.4,3.6-0.9,5.1-1.6l1.2,12.5c-2,0.8-4.1,1.4-6.5,2c-2.4,0.6-5.2,0.9-8.6,0.9
	c-4.4,0-8-0.6-11.1-1.9s-5.5-3-7.5-5.1s-3.4-4.6-4.3-7.5C302.4,95.8,301.9,92.8,301.9,89.6z M367.4,113.1c-3.7,0-7-0.6-9.7-1.7
	c-2.7-1.1-5-2.7-6.8-4.7c-1.8-2-3.1-4.4-4.1-7.2c-0.9-2.8-1.4-5.8-1.4-9.2c0-4.2,0.7-8.4,2.1-12.6c1.4-4.2,3.4-8,6.1-11.3
	c2.7-3.4,5.9-6.1,9.8-8.2c3.9-2.1,8.3-3.2,13.3-3.2c3.7,0,6.9,0.6,9.6,1.7s5.1,2.7,6.9,4.7c1.8,2,3.1,4.4,4.1,7.2s1.4,5.8,1.4,9.2
	c0,4.2-0.7,8.4-2,12.6c-1.3,4.2-3.3,8-5.9,11.3c-2.6,3.4-5.9,6.1-9.8,8.2S372.6,113.1,367.4,113.1z M375.2,68.3
	c-2.3,0-4.4,0.7-6.1,2c-1.8,1.3-3.2,3-4.4,5c-1.2,2-2.1,4.2-2.7,6.7c-0.6,2.4-0.9,4.7-0.9,6.9c0,3.6,0.6,6.3,1.7,8.2
	c1.1,1.9,3.2,2.9,6.1,2.9c2.3,0,4.4-0.7,6.1-2s3.2-3,4.4-5c1.2-2,2.1-4.2,2.7-6.7c0.6-2.4,0.9-4.7,0.9-6.9c0-3.6-0.6-6.3-1.7-8.2
	C380.2,69.2,378.2,68.3,375.2,68.3z M414.1,111.6h-15.6l13.2-55.1h15.7L414.1,111.6z M421.6,49.8c-2.2,0-4.1-0.6-5.9-1.9
	c-1.8-1.3-2.6-3.3-2.6-5.9c0-1.5,0.3-2.8,0.9-4.1c0.6-1.3,1.4-2.4,2.4-3.4s2.1-1.7,3.4-2.3c1.3-0.6,2.7-0.8,4.2-0.8
	c2.2,0,4.1,0.6,5.9,1.9s2.6,3.3,2.6,5.9c0,1.5-0.3,2.8-0.9,4.1c-0.6,1.3-1.4,2.4-2.4,3.4c-1,0.9-2.1,1.7-3.4,2.3
	C424.5,49.6,423.1,49.8,421.6,49.8z M436.6,59.1c1.2-0.3,2.5-0.8,4-1.2c1.4-0.5,3.1-0.9,4.8-1.3c1.8-0.4,3.8-0.7,6-0.9
	c2.2-0.2,4.7-0.4,7.5-0.4c8.3,0,14,2.4,17.1,7.1s3.6,11.2,1.6,19.5l-7.2,29.7h-15.7l7-29.1c0.4-1.8,0.8-3.6,1-5.3
	c0.2-1.7,0.2-3.2-0.1-4.5s-0.9-2.3-2-3.1c-1-0.8-2.6-1.2-4.7-1.2c-2,0-4.1,0.2-6.2,0.6l-10.2,42.6h-15.7L436.6,59.1z"/>
</svg>
