<svg xmlns="http://www.w3.org/2000/svg" viewBox="0 0 128 128"><path d="M54.5 55.7c-3 0-5.8-1.7-7.2-4.4-2-3.9-.4-8.8 3.6-10.8 1.1-.6 2.4-.9 3.6-.9 3 0 5.8 1.7 7.2 4.4 2 3.9.4 8.8-3.5 10.8-1.2.6-2.4.9-3.7.9m-9.4 16.4h-.5c-4.4-.3-7.8-4.1-7.5-8.5.2-4.4 4-7.8 8.5-7.5 4.4.2 7.8 4 7.5 8.5-.2 4.1-3.7 7.5-8 7.5m9.5 16.3c-1.6 0-3.1-.5-4.4-1.3-1.8-1.2-3-3-3.4-5.1-.4-2.1 0-4.2 1.1-6 1.5-2.3 4-3.6 6.7-3.6 1.6 0 3.1.5 4.4 1.3 1.8 1.2 3 3 3.5 5.1.4 2.1 0 4.2-1.1 6-1.6 2.2-4.1 3.6-6.8 3.6m18.9 0c-3 0-5.8-1.7-7.2-4.4-1-1.9-1.1-4.1-.5-6.1.7-2 2.1-3.7 4-4.6 1.1-.6 2.4-.9 3.6-.9 3 0 5.8 1.7 7.2 4.4 2 3.9.4 8.8-3.6 10.8-1 .5-2.3.8-3.5.8M82.9 72h-.5c-4.4-.2-7.8-4-7.5-8.5.3-4.4 4-7.8 8.5-7.6 2.1.1 4.1 1.1 5.5 2.7 1.4 1.6 2.1 3.7 2 5.8-.2 4.3-3.8 7.6-8 7.6m-9.5-16.4c-1.6 0-3.1-.5-4.4-1.3-3.7-2.4-4.7-7.4-2.3-11.1 1.5-2.3 4-3.6 6.7-3.6 1.6 0 3.1.5 4.4 1.3 3.7 2.4 4.7 7.4 2.3 11.1-1.5 2.3-4 3.6-6.7 3.6M46.5 25.9c1 2 .2 4.4-1.8 5.4s-4.4.2-5.4-1.8-.2-4.4 1.8-5.4 4.4-.2 5.4 1.8M22.2 60.1c2.2.1 3.9 2 3.8 4.2-.1 2.2-2 3.9-4.2 3.8-2.2-.1-3.9-2-3.8-4.2.1-2.2 2-3.9 4.2-3.8m17.5 38.1c1.2-1.8 3.7-2.4 5.5-1.1 1.9 1.2 2.4 3.7 1.2 5.5-1.2 1.8-3.7 2.4-5.5 1.2-1.9-1.3-2.4-3.7-1.2-5.6m41.8 3.9c-1-2-.2-4.4 1.8-5.4s4.4-.2 5.4 1.8.2 4.4-1.8 5.4-4.4.2-5.4-1.8m24.3-34.2c-2.2-.1-3.9-2-3.8-4.2.1-2.2 2-3.9 4.2-3.8 2.2.1 3.9 2 3.8 4.2-.1 2.2-2 3.9-4.2 3.8M88.3 29.8c-1.2 1.9-3.7 2.4-5.5 1.2-1.9-1.2-2.4-3.7-1.2-5.5 1.2-1.9 3.7-2.4 5.5-1.2 1.9 1.2 2.4 3.6 1.2 5.5M37.7 13.6c.6 1.3.1 2.8-1.1 3.5-1.3.6-2.8.1-3.5-1.1-.6-1.3-.1-2.8 1.1-3.5 1.3-.7 2.9-.2 3.5 1.1M7.2 61.5c1.4.1 2.5 1.3 2.4 2.7-.1 1.4-1.3 2.5-2.7 2.4-1.4-.1-2.5-1.3-2.4-2.7.1-1.4 1.3-2.4 2.7-2.4m26.3 50.4c.8-1.2 2.4-1.5 3.6-.7 1.2.8 1.5 2.4.7 3.6-.8 1.2-2.4 1.5-3.6.7-1.2-.8-1.5-2.4-.7-3.6m56.8 2.5c-.6-1.3-.1-2.8 1.1-3.5 1.3-.6 2.8-.1 3.5 1.1.6 1.3.1 2.8-1.1 3.5-1.3.7-2.9.2-3.5-1.1m30.5-47.9c-1.4-.1-2.5-1.3-2.4-2.7.1-1.4 1.3-2.5 2.7-2.4 1.4.1 2.5 1.3 2.4 2.7-.1 1.3-1.3 2.4-2.7 2.4M94.5 16.1c-.8 1.2-2.4 1.5-3.6.7-1.2-.8-1.5-2.4-.7-3.6.8-1.2 2.4-1.5 3.6-.7 1.2.8 1.5 2.4.7 3.6M38.5 44c2.2 1.4 2.8 4.3 1.4 6.5s-4.3 2.8-6.5 1.4-2.8-4.3-1.4-6.5c1.4-2.3 4.4-2.9 6.5-1.4m-4.6 32c2.3-1.2 5.2-.2 6.3 2.1 1.2 2.3.2 5.2-2.1 6.3-2.3 1.2-5.2.2-6.3-2.1-1.2-2.3-.2-5.1 2.1-6.3M59 96.1c.1-2.6 2.4-4.6 5-4.4 2.6.1 4.6 2.4 4.4 5-.1 2.6-2.4 4.6-5 4.4-2.5-.2-4.5-2.4-4.4-5m30.5-12c-2.2-1.4-2.8-4.3-1.4-6.5s4.3-2.8 6.5-1.4 2.8 4.3 1.4 6.5-4.4 2.8-6.5 1.4M94.1 52c-2.3 1.2-5.2.2-6.3-2.1-1.2-2.3-.2-5.2 2.1-6.3 2.3-1.2 5.2-.2 6.3 2.1 1.2 2.3.2 5.1-2.1 6.3M68.6 31.9c-.1 2.6-2.4 4.6-5 4.4-2.6-.1-4.6-2.4-4.4-5 .1-2.6 2.4-4.6 5-4.4 2.6.2 4.6 2.4 4.4 5M21 35.5c1.5 1 1.9 3 .9 4.6-1 1.5-3 2-4.6.9-1.5-1-1.9-3-.9-4.6 1-1.5 3.1-1.9 4.6-.9M17.8 87c1.6-.8 3.6-.2 4.4 1.5.8 1.6.2 3.6-1.5 4.4-1.6.8-3.6.2-4.4-1.5-.8-1.6-.1-3.6 1.5-4.4m42.7 28.5c.1-1.8 1.7-3.2 3.5-3.1 1.8.1 3.2 1.7 3.1 3.5-.1 1.8-1.7 3.2-3.5 3.1-1.8-.1-3.2-1.7-3.1-3.5m46.5-23c-1.5-1-1.9-3-.9-4.6 1-1.5 3-2 4.6-1 1.5 1 1.9 3 .9 4.6-1 1.6-3.1 2-4.6 1m3.2-51.5c-1.6.8-3.6.2-4.4-1.5-.8-1.6-.2-3.6 1.5-4.4 1.6-.8 3.6-.2 4.4 1.5.8 1.6.1 3.6-1.5 4.4m-43-28.5c-.1 1.8-1.7 3.2-3.5 3.1-1.8-.1-3.2-1.7-3.1-3.5.1-1.8 1.7-3.2 3.5-3.1 1.8.1 3.2 1.7 3.1 3.5"/></svg>