<?xml version="1.0" encoding="utf-8"?>
<!-- Generator: Adobe Illustrator 22.0.1, SVG Export Plug-In . SVG Version: 6.00 Build 0)  -->
<svg version="1.1" id="Layer_1" xmlns="http://www.w3.org/2000/svg" xmlns:xlink="http://www.w3.org/1999/xlink" x="0px" y="0px"
	 viewBox="0 0 128 128" style="enable-background:new 0 0 128 128;" xml:space="preserve">
<g>
	<g>
		<path d="M54.5,55.7c-3,0-5.8-1.7-7.2-4.4c-2-3.9-0.4-8.8,3.6-10.8c1.1-0.6,2.4-0.9,3.6-0.9c3,0,5.8,1.7,7.2,4.4
			c2,3.9,0.4,8.8-3.5,10.8C57,55.4,55.8,55.7,54.5,55.7 M45.1,72.1c-0.2,0-0.3,0-0.5,0c-4.4-0.3-7.8-4.1-7.5-8.5
			c0.2-4.4,4-7.8,8.5-7.5c4.4,0.2,7.8,4,7.5,8.5C52.9,68.7,49.4,72.1,45.1,72.1 M54.6,88.4c-1.6,0-3.1-0.5-4.4-1.3
			c-1.8-1.2-3-3-3.4-5.1c-0.4-2.1,0-4.2,1.1-6c1.5-2.3,4-3.6,6.7-3.6c1.6,0,3.1,0.5,4.4,1.3c1.8,1.2,3,3,3.5,5.1
			c0.4,2.1,0,4.2-1.1,6C59.8,87,57.3,88.4,54.6,88.4 M73.5,88.4c-3,0-5.8-1.7-7.2-4.4c-1-1.9-1.1-4.1-0.5-6.1c0.7-2,2.1-3.7,4-4.6
			c1.1-0.6,2.4-0.9,3.6-0.9c3,0,5.8,1.7,7.2,4.4c2,3.9,0.4,8.8-3.6,10.8C76,88.1,74.7,88.4,73.5,88.4 M82.9,72c-0.2,0-0.3,0-0.5,0
			c-4.4-0.2-7.8-4-7.5-8.5c0.3-4.4,4-7.8,8.5-7.6c2.1,0.1,4.1,1.1,5.5,2.7c1.4,1.6,2.1,3.7,2,5.8C90.7,68.7,87.1,72,82.9,72
			 M73.4,55.6c-1.6,0-3.1-0.5-4.4-1.3c-3.7-2.4-4.7-7.4-2.3-11.1c1.5-2.3,4-3.6,6.7-3.6c1.6,0,3.1,0.5,4.4,1.3
			c3.7,2.4,4.7,7.4,2.3,11.1C78.6,54.3,76.1,55.6,73.4,55.6 M46.5,25.9c1,2,0.2,4.4-1.8,5.4c-2,1-4.4,0.2-5.4-1.8
			c-1-2-0.2-4.4,1.8-5.4C43.1,23.1,45.5,23.9,46.5,25.9 M22.2,60.1c2.2,0.1,3.9,2,3.8,4.2c-0.1,2.2-2,3.9-4.2,3.8
			c-2.2-0.1-3.9-2-3.8-4.2C18.1,61.7,20,60,22.2,60.1 M39.7,98.2c1.2-1.8,3.7-2.4,5.5-1.1c1.9,1.2,2.4,3.7,1.2,5.5
			c-1.2,1.8-3.7,2.4-5.5,1.2C39,102.5,38.5,100.1,39.7,98.2 M81.5,102.1c-1-2-0.2-4.4,1.8-5.4c2-1,4.4-0.2,5.4,1.8
			c1,2,0.2,4.4-1.8,5.4C84.9,104.9,82.5,104.1,81.5,102.1 M105.8,67.9c-2.2-0.1-3.9-2-3.8-4.2c0.1-2.2,2-3.9,4.2-3.8
			c2.2,0.1,3.9,2,3.8,4.2C109.9,66.3,108,68,105.8,67.9 M88.3,29.8c-1.2,1.9-3.7,2.4-5.5,1.2c-1.9-1.2-2.4-3.7-1.2-5.5
			c1.2-1.9,3.7-2.4,5.5-1.2C89,25.5,89.5,27.9,88.3,29.8 M37.7,13.6c0.6,1.3,0.1,2.8-1.1,3.5c-1.3,0.6-2.8,0.1-3.5-1.1
			c-0.6-1.3-0.1-2.8,1.1-3.5C35.5,11.8,37.1,12.3,37.7,13.6 M7.2,61.5c1.4,0.1,2.5,1.3,2.4,2.7c-0.1,1.4-1.3,2.5-2.7,2.4
			c-1.4-0.1-2.5-1.3-2.4-2.7C4.6,62.5,5.8,61.5,7.2,61.5 M33.5,111.9c0.8-1.2,2.4-1.5,3.6-0.7c1.2,0.8,1.5,2.4,0.7,3.6
			c-0.8,1.2-2.4,1.5-3.6,0.7C33,114.7,32.7,113.1,33.5,111.9 M90.3,114.4c-0.6-1.3-0.1-2.8,1.1-3.5c1.3-0.6,2.8-0.1,3.5,1.1
			c0.6,1.3,0.1,2.8-1.1,3.5C92.5,116.2,90.9,115.7,90.3,114.4 M120.8,66.5c-1.4-0.1-2.5-1.3-2.4-2.7c0.1-1.4,1.3-2.5,2.7-2.4
			c1.4,0.1,2.5,1.3,2.4,2.7C123.4,65.4,122.2,66.5,120.8,66.5 M94.5,16.1c-0.8,1.2-2.4,1.5-3.6,0.7c-1.2-0.8-1.5-2.4-0.7-3.6
			c0.8-1.2,2.4-1.5,3.6-0.7C95,13.3,95.3,14.9,94.5,16.1 M38.5,44c2.2,1.4,2.8,4.3,1.4,6.5c-1.4,2.2-4.3,2.8-6.5,1.4
			c-2.2-1.4-2.8-4.3-1.4-6.5C33.4,43.1,36.4,42.5,38.5,44 M33.9,76c2.3-1.2,5.2-0.2,6.3,2.1c1.2,2.3,0.2,5.2-2.1,6.3
			c-2.3,1.2-5.2,0.2-6.3-2.1C30.6,80,31.6,77.2,33.9,76 M59,96.1c0.1-2.6,2.4-4.6,5-4.4c2.6,0.1,4.6,2.4,4.4,5
			c-0.1,2.6-2.4,4.6-5,4.4C60.9,100.9,58.9,98.7,59,96.1 M89.5,84.1c-2.2-1.4-2.8-4.3-1.4-6.5c1.4-2.2,4.3-2.8,6.5-1.4
			c2.2,1.4,2.8,4.3,1.4,6.5C94.6,84.9,91.6,85.5,89.5,84.1 M94.1,52c-2.3,1.2-5.2,0.2-6.3-2.1c-1.2-2.3-0.2-5.2,2.1-6.3
			c2.3-1.2,5.2-0.2,6.3,2.1C97.4,48,96.4,50.8,94.1,52 M68.6,31.9c-0.1,2.6-2.4,4.6-5,4.4c-2.6-0.1-4.6-2.4-4.4-5
			c0.1-2.6,2.4-4.6,5-4.4C66.8,27.1,68.8,29.3,68.6,31.9 M21,35.5c1.5,1,1.9,3,0.9,4.6c-1,1.5-3,2-4.6,0.9c-1.5-1-1.9-3-0.9-4.6
			C17.4,34.9,19.5,34.5,21,35.5 M17.8,87c1.6-0.8,3.6-0.2,4.4,1.5c0.8,1.6,0.2,3.6-1.5,4.4c-1.6,0.8-3.6,0.2-4.4-1.5
			C15.5,89.8,16.2,87.8,17.8,87 M60.5,115.5c0.1-1.8,1.7-3.2,3.5-3.1c1.8,0.1,3.2,1.7,3.1,3.5c-0.1,1.8-1.7,3.2-3.5,3.1
			C61.8,118.9,60.4,117.3,60.5,115.5 M107,92.5c-1.5-1-1.9-3-0.9-4.6c1-1.5,3-2,4.6-1c1.5,1,1.9,3,0.9,4.6
			C110.6,93.1,108.5,93.5,107,92.5 M110.2,41c-1.6,0.8-3.6,0.2-4.4-1.5c-0.8-1.6-0.2-3.6,1.5-4.4c1.6-0.8,3.6-0.2,4.4,1.5
			C112.5,38.2,111.8,40.2,110.2,41 M67.2,12.5c-0.1,1.8-1.7,3.2-3.5,3.1c-1.8-0.1-3.2-1.7-3.1-3.5c0.1-1.8,1.7-3.2,3.5-3.1
			C65.9,9.1,67.3,10.7,67.2,12.5"/>
	</g>
</g>
</svg>
