<svg xmlns="http://www.w3.org/2000/svg" xmlns:xlink="http://www.w3.org/1999/xlink" width="180" height="48" viewBox="0 0 180 48">
    <defs>
        <path id="a" d="M0 24C0 10.747 10.692 0 23.882 0 37.068 0 47.76 10.747 47.76 24c0 13.253-10.692 24-23.878 24C10.692 48 0 37.253 0 24z"/>
        <linearGradient id="b" x1=".001%" x2=".001%" y1="-.001%" y2="256.407%">
            <stop offset="0%" stop-color="#EE4037"/>
            <stop offset="100%" stop-color="#C1041B"/>
        </linearGradient>
        <path id="d" d="M8.08.86L.336 6.699a.375.375 0 1 0 .449.603l7.523-5.668 10.866 8.19h-4.745l-7.77-5.858a.376.376 0 1 0-.45.605l7.87 5.93a.374.374 0 0 0 .224.077H20.3a.37.37 0 0 0 .353-.259.372.372 0 0 0-.13-.419L8.533.86a.374.374 0 0 0-.451 0z"/>
        <path id="f" d="M2.19.652L.532 1.9a.381.381 0 0 0 0 .601L24.12 20.28l-5.372 4.047-1.508-1.136a.374.374 0 0 0-.524.074.379.379 0 0 0 .073.527l1.734 1.308c.068.05.146.074.225.074.079 0 .159-.025.224-.074l5.997-4.52a.374.374 0 0 0 0-.602L1.384 2.2l1.255-.947c.166-.124.2-.36.075-.526a.376.376 0 0 0-.3-.152.364.364 0 0 0-.224.077z"/>
        <path id="h" d="M.76.271a.376.376 0 0 0-.357.257.381.381 0 0 0 .13.421l11.994 9.04a.377.377 0 0 0 .449 0l7.732-5.828a.379.379 0 0 0 .073-.529.374.374 0 0 0-.524-.075L12.75 9.216 1.884 1.026h4.748l7.68 5.79a.377.377 0 0 0 .45-.603L6.98.348a.35.35 0 0 0-.225-.077H.759z"/>
        <path id="j" d="M6.53.86L.534 5.38a.376.376 0 0 0 0 .6l23.585 17.78-1.334 1.004a.378.378 0 0 0-.073.528.371.371 0 0 0 .522.075l1.734-1.307a.376.376 0 0 0 .15-.3c0-.12-.055-.231-.15-.302L1.384 5.679l5.37-4.047 1.65 1.242a.376.376 0 0 0 .449-.6L6.978.859a.372.372 0 0 0-.45 0z"/>
    </defs>
    <g fill="none" fill-rule="evenodd">
        <mask id="c" fill="#fff">
            <use xlink:href="#a"/>
        </mask>
        <path fill="url(#b)" d="M0 48h47.76V0H0z" mask="url(#c)"/>
        <g>
            <g transform="translate(16 7.111)">
                <mask id="e" fill="#fff">
                    <use xlink:href="#d"/>
                </mask>
                <path fill="#FFFFFE" d="M-.415 11.177h21.69V.183H-.415z" mask="url(#e)"/>
            </g>
            <g transform="translate(11.556 15.111)">
                <mask id="g" fill="#fff">
                    <use xlink:href="#f"/>
                </mask>
                <path fill="#FFFFFE" d="M-.216 25.776h25.934v-25.8H-.216z" mask="url(#g)"/>
            </g>
            <g transform="translate(11.556 30.222)">
                <mask id="i" fill="#fff">
                    <use xlink:href="#h"/>
                </mask>
                <path fill="#FFFFFE" d="M-.216 10.664H21.46V-.33H-.216z" mask="url(#i)"/>
            </g>
            <g transform="translate(11.556 7.111)">
                <mask id="k" fill="#fff">
                    <use xlink:href="#j"/>
                </mask>
                <path fill="#FFFFFE" d="M-.216 26.042h25.934V.183H-.216z" mask="url(#k)"/>
            </g>
        </g>
        <path fill="#303030" d="M62.736 29.944c-1.704 0-3.12-.576-4.32-1.392l-.552 1.368a9.018 9.018 0 0 0 4.824 1.392c3 0 5.064-1.848 5.064-4.32 0-2.712-2.184-3.696-4.344-4.344-2.304-.72-3.792-1.344-3.792-3 0-1.368 1.08-2.568 3.336-2.568 1.344 0 2.808.48 3.936 1.248l.552-1.344c-1.272-.816-2.784-1.296-4.512-1.296-2.784 0-4.8 1.704-4.8 4.08 0 2.664 2.256 3.576 4.368 4.2 2.352.696 3.792 1.392 3.792 3.144 0 1.584-1.464 2.832-3.552 2.832zm7.656-9.936v7.536c0 2.4 1.32 3.768 3.456 3.768 1.224 0 2.664-.624 3.792-1.776v1.776L79.128 31V20.008H77.64v8.328c-.888.912-2.112 1.56-3.384 1.56-1.608 0-2.376-.864-2.376-2.784v-7.104h-1.488zm21.792 5.352c0 3.456-2.256 5.952-5.424 5.952-.888 0-1.968-.264-2.688-.6l-1.488.648V14.824l1.488-.312v6.648c.744-.696 1.896-1.392 3.312-1.392 2.904 0 4.8 2.304 4.8 5.592zm-1.536.072c0-2.496-1.368-4.296-3.552-4.296-1.2 0-2.232.504-3.024 1.224v6.744c.672.528 1.704.864 2.76.864 2.352 0 3.816-1.896 3.816-4.536zm10.8 2.568c0-2.04-1.68-2.76-3.24-3.216-1.416-.432-2.712-.816-2.712-2.064 0-1.056.864-1.68 2.208-1.68.96 0 2.088.312 3 .816l.432-1.344a7.525 7.525 0 0 0-3.336-.816c-2.064 0-3.72 1.176-3.72 3.168 0 1.92 1.68 2.664 3.192 3.12 1.368.432 2.76.816 2.76 2.136 0 1.2-1.152 1.848-2.472 1.848-1.128 0-2.304-.384-3.24-1.008l-.408 1.368c.936.6 2.304.984 3.6.984 2.208 0 3.936-1.296 3.936-3.312zm8.16 2.784l-.264-1.296c-.672.288-1.392.528-2.112.528-1.152 0-1.656-.672-1.608-2.064l.168-6.576h3.648l.072-1.32h-3.672l.072-2.568h-1.416l-.072 2.496-1.656.384-.072.936 1.68.096-.168 6.504c-.072 2.304.864 3.456 2.952 3.456.792 0 1.68-.216 2.448-.576zm3.912-6.84c.864-1.968 1.944-2.832 3.096-2.832.624 0 1.2.192 1.68.48l.384-1.392a3.992 3.992 0 0 0-1.92-.504c-1.44 0-2.52.936-3.24 2.352v-2.352l-1.488.312V31h1.488v-7.056zm12.792 4.632V25.36c-3.768.432-5.112 1.272-5.112 2.736 0 1.176.96 1.92 2.256 1.92 1.176 0 2.184-.672 2.856-1.44zm.096 1.104h-.072c-.744.912-1.92 1.632-3.216 1.632-2.016 0-3.48-1.296-3.48-3.048 0-1.992 1.56-3.624 6.672-3.912v-.648c0-1.728-.768-2.616-2.592-2.616-1.2 0-2.664.624-3.6 1.32l-.336-1.392c.984-.696 2.64-1.32 4.08-1.32 2.544 0 3.96 1.152 3.936 3.936v5.28c0 .792.144 1.128 1.104 1.104l-.096 1.224c-1.44.096-2.232-.48-2.4-1.56zm10.176 1.104l-.264-1.296c-.672.288-1.392.528-2.112.528-1.152 0-1.656-.672-1.608-2.064l.168-6.576h3.648l.072-1.32h-3.672l.072-2.568h-1.416l-.072 2.496-1.656.384-.072.936 1.68.096-.168 6.504c-.072 2.304.864 3.456 2.952 3.456.792 0 1.68-.216 2.448-.576zm2.328-10.776v7.536c0 2.4 1.32 3.768 3.456 3.768 1.224 0 2.664-.624 3.792-1.776v1.776l1.488-.312V20.008h-1.488v8.328c-.888.912-2.112 1.56-3.384 1.56-1.608 0-2.376-.864-2.376-2.784v-7.104h-1.488zM166.32 31v-7.512c0-2.424-1.296-3.792-3.384-3.792-1.272 0-2.664.6-3.888 1.824-.528-1.224-1.608-1.824-2.976-1.824-1.128 0-2.352.48-3.48 1.512v-1.512l-1.488.312V31h1.488v-8.616c.84-.744 1.896-1.272 3.048-1.272 1.584 0 2.328.888 2.328 2.808V31h1.488v-7.488c0-.264-.024-.84-.048-.984.84-.792 1.92-1.416 3.096-1.416 1.584 0 2.328.888 2.328 2.808V31h1.488z"/>
    </g>
</svg>
