<?xml version="1.0" encoding="iso-8859-1"?>
<!-- Generator: Adobe Illustrator 22.1.0, SVG Export Plug-In . SVG Version: 6.00 Build 0)  -->
<svg version="1.1"
	 id="svg2" inkscape:version="0.92.2 5c3e80d, 2017-08-06" sodipodi:docname="Mithril.svg" xmlns:cc="http://creativecommons.org/ns#" xmlns:dc="http://purl.org/dc/elements/1.1/" xmlns:inkscape="http://www.inkscape.org/namespaces/inkscape" xmlns:rdf="http://www.w3.org/1999/02/22-rdf-syntax-ns#" xmlns:sodipodi="http://sodipodi.sourceforge.net/DTD/sodipodi-0.dtd" xmlns:svg="http://www.w3.org/2000/svg"
	 xmlns="http://www.w3.org/2000/svg" xmlns:xlink="http://www.w3.org/1999/xlink" x="0px" y="0px" viewBox="0 0 200 115.798"
	 style="enable-background:new 0 0 200 115.798;" xml:space="preserve">
<sodipodi:namedview  bordercolor="#666666" borderopacity="1" gridtolerance="10" guidetolerance="10" id="namedview4" inkscape:current-layer="svg2" inkscape:cx="80" inkscape:cy="80" inkscape:pageopacity="0" inkscape:pageshadow="2" inkscape:window-height="480" inkscape:window-maximized="0" inkscape:window-width="640" inkscape:window-x="65" inkscape:window-y="150" inkscape:zoom="1.475" objecttolerance="10" pagecolor="#ffffff" showgrid="false">
	</sodipodi:namedview>
<g id="g12">
	<path id="path16" inkscape:connector-curvature="0" style="fill:#41628E;" d="M0.848,114.905
		c-2.674-2.674,0.573-7.637,15.507-23.693C27.759,78.951,37.239,66.923,47.48,51.723c21.1-31.319,21.854-32.312,24.505-32.312
		c1.547,0,7.102,6.519,15.63,18.342l13.23,18.342l10.419-22.024C127.551-0.359,127.342,0,131.134,0
		c2.961,0,5.429,3.732,22.13,33.467c10.338,18.407,23.641,40.696,29.562,49.532c16.351,24.4,18.533,28.456,16.574,30.816
		c-1.425,1.717-14.738,1.982-99.652,1.982C45.844,115.798,1.339,115.396,0.848,114.905z M42.794,105.114
		c0-2.21-7.11-18.768-8.059-18.768c-0.988,0-16.447,17.034-17.153,18.902c-0.245,0.648,5.327,1.179,12.383,1.179
		C37.453,106.427,42.794,105.88,42.794,105.114z M92.211,100.52l5.797-5.907l-8.531-9.355c-4.692-5.145-8.969-9.415-9.505-9.488
		c-1.146-0.157-22.452,27.862-22.452,29.525c0,0.622,6.501,1.131,14.447,1.131h14.447L92.211,100.52z M112.407,102.411
		c-4.05-2.139-8.228-3.918-9.285-3.953c-2.07-0.068-8.118,5.046-8.118,6.864c0,0.608,5.572,1.077,12.383,1.042l12.383-0.063
		L112.407,102.411z M157.922,105.819c0-0.772-28.15-40.892-28.692-40.892c-0.781,0-23.737,28.339-23.296,28.759
		c0.246,0.234,6.472,3.165,13.835,6.513c12.725,5.786,13.999,6.091,25.77,6.157C152.35,106.395,157.922,106.153,157.922,105.819z
		 M185.812,105.351c-0.245-0.591-3.76-6.065-7.809-12.163c-7.088-10.674-7.394-10.946-8.208-7.292
		c-0.465,2.088-0.917,7.561-1.004,12.163l-0.158,8.367h8.813C182.292,106.427,186.057,105.943,185.812,105.351L185.812,105.351z
		 M63.408,87.858c6.333-8.372,11.515-15.94,11.515-16.818c0-0.878-1.712-3.236-3.804-5.241l-3.804-3.645l-13.173,8.013
		c-7.245,4.407-13.664,8.89-14.264,9.963c-1.381,2.467,9.17,25.966,10.856,24.18C51.371,103.633,57.075,96.23,63.408,87.858z
		 M164.499,80.708l0.117-8.985l-5.02-1.289c-15.786-4.054-22.202-5.506-22.595-5.113c-0.243,0.243,5.419,8.838,12.582,19.1
		l13.023,18.659l0.888-6.693C163.982,92.705,164.434,85.65,164.499,80.708L164.499,80.708z M99.02,77.838v-8.508L86.675,52.38
		c-13.599-18.672-13.454-18.639-14.834-3.356l-0.8,8.863l12.894,14.23c7.092,7.826,13.387,14.23,13.99,14.23
		C98.527,86.346,99.02,82.517,99.02,77.838z M116.272,72.144l10.861-12.864l0.112-14.245c0.061-7.835,0.262-15.601,0.446-17.257
		c0.184-1.657-0.068-3.012-0.56-3.012c-0.492,0-5.825,10.392-11.852,23.093c-9.441,19.895-10.954,24.066-10.931,30.121
		c0.015,3.865,0.261,7.028,0.546,7.028C105.178,85.007,110.298,79.219,116.272,72.144L116.272,72.144z M58.57,61.685
		c7.593-4.215,8.752-6.392,8.074-15.162l-0.423-5.472l-8.471,12.754c-4.659,7.014-7.966,12.537-7.349,12.273
		C51.019,65.813,54.694,63.836,58.57,61.685z M159.261,64.298c0-0.346-5.698-10.702-12.662-23.013
		c-7.875-13.922-12.951-21.629-13.428-20.387c-0.421,1.098-0.597,10.091-0.391,19.984l0.375,17.988l12.048,2.893
		C159.148,65.109,159.261,65.13,159.261,64.298z"/>
	<path id="path14" inkscape:connector-curvature="0" style="fill:#10386B;" d="M1.575,113.671
		c-2.799-2.047-1.813-3.429,15.801-22.163C30.789,77.241,53.885,45.837,66.699,24.44c3.849-6.426,6.899-4.856,16.343,8.413
		c4.738,6.657,10.323,14.488,12.411,17.403c2.088,2.915,4.537,5.3,5.441,5.3c0.904,0,4.864-7.078,8.799-15.73
		C121.905,12.98,127.188,2.29,128.976,0.806c2.842-2.358,5.768,1.159,15.451,18.569c20.375,36.633,29.712,52.409,41.181,69.576
		c7.597,11.372,13.813,21.481,13.813,22.465c0,0.984-0.832,2.108-1.849,2.498C193.693,115.403,3.62,115.167,1.575,113.671
		L1.575,113.671z M43.691,106.059c0.795-1.286-7.459-21.066-8.775-21.028c-1.951,0.057-18.983,20.171-18.18,21.47
		C17.799,108.221,42.606,107.814,43.691,106.059z M92.167,101.604c3.032-3.445,5.514-6.785,5.514-7.422
		c0-0.637-4.124-5.483-9.164-10.769l-9.164-9.61L67.65,89.383c-6.437,8.569-11.355,16.144-10.929,16.833
		c0.426,0.689,7.335,1.342,15.353,1.452l14.579,0.199L92.167,101.604z M119.77,105.936c0-0.638-4.107-2.996-9.126-5.239
		l-9.126-4.079l-4.093,4.093c-2.295,2.295-3.678,4.765-3.148,5.623C95.395,108.143,119.77,107.763,119.77,105.936z M157.726,106.548
		c0.987-0.61-3.44-7.972-12.595-20.946c-7.764-11.003-14.59-20.479-15.167-21.057c-0.578-0.578-6.632,5.636-13.455,13.81
		c-6.822,8.173-12.172,15.093-11.888,15.377c0.284,0.284,6.821,3.515,14.526,7.18c13.487,6.416,14.441,6.663,25.534,6.621
		C151.018,107.508,156.889,107.065,157.726,106.548z M185.649,106.694c1.148-0.73-0.772-4.646-6.579-13.414
		c-4.51-6.811-8.627-11.91-9.148-11.332c-1.285,1.426-2.837,23.824-1.727,24.934C169.421,108.108,183.664,107.955,185.649,106.694z
		 M63.337,89.231c7.109-9.458,12.925-17.773,12.925-18.479s-1.967-3.19-4.37-5.52l-4.37-4.236l-13.703,8.277
		c-7.537,4.552-14.063,9.409-14.502,10.793c-0.811,2.555,8.354,26.359,10.148,26.359C49.986,106.427,56.229,98.689,63.337,89.231z
		 M164.855,86.42l0.43-15.321l-14.056-3.67c-7.731-2.019-14.504-3.231-15.05-2.695c-0.547,0.537,2.2,5.468,6.104,10.959
		s9.991,14.102,13.528,19.136c3.537,5.034,6.922,8.649,7.522,8.032C163.933,102.246,164.618,94.847,164.855,86.42z M99.068,87.35
		c1.695-11.754,1.416-15.967-1.37-20.712c-5.703-9.714-23.34-32.471-24.369-31.443c-0.57,0.57-1.543,5.757-2.161,11.527
		c-1.123,10.48-1.12,10.494,3.065,15.504C88.251,79.003,98.741,89.616,99.068,87.35z M115.374,74.633
		c5.499-6.442,10.695-13.029,11.548-14.638c2.031-3.832,2.162-38.443,0.141-37.193c-1.405,0.868-14.644,27.882-20.789,42.42
		c-3.195,7.557-4.522,21.125-2.067,21.125C104.849,86.346,109.875,81.075,115.374,74.633z M65.243,58.455
		c2.114-1.276,4.067-19.57,2.009-18.81c-1.849,0.683-17.764,24.34-17.764,26.407C49.488,67.414,54.019,65.229,65.243,58.455z
		 M157.581,59.126c-17.505-31.259-23.209-41.053-23.914-41.053c-1.521-0.001-2.488,9.884-2.503,25.593l-0.015,15.553l13.722,3.289
		c7.547,1.809,14.197,3.043,14.778,2.743C160.229,64.95,159.299,62.194,157.581,59.126L157.581,59.126z"/>
</g>
</svg>
