<?xml version="1.0" encoding="UTF-8"?><svg xmlns="http://www.w3.org/2000/svg" xmlns:xlink="http://www.w3.org/1999/xlink" version="1.1" id="Layer_1" x="0px" y="0px" viewBox="0 0 128 128" xml:space="preserve"><style type="text/css">.st0{fill:none;stroke:#FFFFFF;stroke-width:4;stroke-linecap:round;stroke-linejoin:round;stroke-miterlimit:10;} .st1{fill:#612953;}</style><path class="st1" d="M64 128c-1.2-.5-2.3-.9-3.3-1.5C44.8 117 29 107.6 13.1 98.1 9.5 95.9 8.9 93.8 11 90 27.1 61.1 43.2 32.3 59.2 3.4c1.1-2 2.4-3.5 4.8-3.4 2.4 0 3.7 1.6 4.8 3.6 16 28.8 32.1 57.5 48.1 86.3 2.2 3.9 1.6 6.1-2.2 8.3-15.7 9.4-31.4 18.8-47.1 28.1-1.1.7-2.3 1.1-3.6 1.7zm-5.7-29.7c-3.7-2.2-7.3-4.4-11-6.6-2.7-1.7-5.2-3.5-8-5.1-1.1-.6-2.7-1.1-3.8-.8-6.6 1.8-12.5 5.2-18.7 9.1 15.2 9.1 29.8 17.8 44.9 26.8 0-6.1.1-11.6 0-17-.1-3.3 1.1-6 3.5-8.1 1.6-1.4 3.4-2.9 5.4-3.8 5.4-2.5 9.7-6.1 12.1-12 1.1 1.7 2 3.1 3 4.5-2.5 4.7-6.3 8-10.9 10.5-2.1 1.1-4.2 2.4-6 3.9-1 .8-2.1 2.1-2.2 3.2-.2 6.1-.1 12.2-.1 18.8 15-9 29.6-17.7 44.6-26.7-5.9-3-11.2-5.8-16.7-8.3-3.9-1.8-6.6-4.6-8.2-8.5-1.1-2.7-2-5.6-2.8-8.4-2-7.8-6.8-12.9-14.5-15.2-.9-.2-1.7-.5-2.7-.7 3.2-4.6 3.2-4.6 7.9-2.4 7.1 3.4 12 8.8 13.6 16.5 1.6 8.1 5.2 14 13.3 16.8 2.2.7 4.1 2 6.2 3 1.1.6 2.3 1.1 3.5 1.6.1-.2.2-.3.4-.5-14.7-26.3-29.3-52.6-44-78.9-.3.1-.5.1-.8.2v3c0 9.4-.2 18.8.1 28.2.2 5.5-2.1 9.2-6.4 12-1.6 1-3.3 2-5 2.8-5.4 2.7-8.9 7-10.2 12.8-.7 3.2-.5 6.5-.7 9.7-5-1.5-5-1.5-4.6-6.8.7-9.2 5.5-15.7 13.4-20.1 2.2-1.2 4.5-2.3 6.2-4 1.2-1.2 2.2-3.2 2.3-4.9.2-10.4.1-20.7.1-31.1 0-.6-.2-1.2-.4-2.3C46.4 36.1 31.9 62.2 17 88.8c5.2-2.4 9.7-4.5 14.2-6.6 3.8-1.8 7.5-1.4 11 .5 2.3 1.2 4.6 2.5 6.5 4.1 3.8 3.3 7.8 6 13.1 6.7-1 1.5-1.9 2.7-3.5 4.8z" fill="#612953"/><metadata><rdf:RDF xmlns:rdf="http://www.w3.org/1999/02/22-rdf-syntax-ns#" xmlns:rdfs="http://www.w3.org/2000/01/rdf-schema#" xmlns:dc="http://purl.org/dc/elements/1.1/"><rdf:Description about="https://iconscout.com/legal#licenses" dc:title="augur" dc:description="augur" dc:publisher="Iconscout" dc:date="2018-01-14" dc:format="image/svg+xml" dc:language="en"><dc:creator><rdf:Bag><rdf:li>Icon Mafia</rdf:li></rdf:Bag></dc:creator></rdf:Description></rdf:RDF></metadata></svg>