<svg width="210" height="36" xmlns="http://www.w3.org/2000/svg"><g fill="none" fill-rule="evenodd"><path d="M62.294 30.605L49.896.624h3.024l9.504 23.63L71.971.624h2.895l-12.399 29.98h-.173zM87.66 30V.624h17.712V3.13H90.468v10.843h13.306v2.462H90.468v11.06h15.509V30H87.66zm34.826-12.01V30h-2.808V.624h8.77c3.082 0 5.486.82 7.214 2.462 1.728 1.642 2.592 3.744 2.592 6.308 0 2.016-.554 3.744-1.663 5.184s-2.671 2.433-4.687 2.98L139.637 30h-3.154l-7.43-12.01h-6.567zm0-2.462h5.79c2.332 0 4.089-.54 5.27-1.62 1.18-1.08 1.77-2.585 1.77-4.514 0-1.959-.59-3.492-1.77-4.601-1.181-1.109-2.938-1.663-5.27-1.663h-5.79v12.398zm43.337 14.818c-4.349 0-7.992-1.426-10.93-4.277-2.937-2.851-4.406-6.437-4.406-10.757 0-4.291 1.44-7.87 4.32-10.735 2.88-2.866 6.408-4.299 10.584-4.299 4.608 0 8.295 1.527 11.06 4.58l-1.988 1.857c-2.333-2.592-5.385-3.888-9.158-3.888-3.399 0-6.228 1.188-8.489 3.564-2.26 2.376-3.391 5.35-3.391 8.921 0 3.571 1.166 6.545 3.499 8.92 2.333 2.377 5.3 3.565 8.9 3.565 3.714 0 6.695-.95 8.942-2.851v-6.74h-8.856v-2.505h11.534v10.54c-3.082 2.737-6.955 4.105-11.62 4.105zM191.362 30V.624h17.712V3.13H194.17v10.843h13.305v2.462H194.17v11.06h15.508V30h-18.316z" fill="#303533"/><path fill="#00CBFF" d="M12.398 35.98L0 6h24.97L12.57 35.98z"/><path fill="#303533" opacity=".307" d="M12.398 29.98L0 0h24.97L12.57 29.98z"/></g></svg>