<svg width="893" height="103" xmlns="http://www.w3.org/2000/svg"><g fill="none" fill-rule="evenodd"><path d="M792.54 88.414c4.796 5.078 31.135 29.418 72.478 1.17 29.895-23.282 29.148-73.757 26.276-89-1 2.219-35.724 78.26-98.754 87.83zM891.29.572c-.366-.152-38.827-5.395-76.85 19.094-23.61 15.207-26.731 37.464-25.654 52.295C844.059 65.776 890.036 2.315 891.29.571z" fill="#97C554"/><path d="M891.29.572c-.366-.152-38.827-5.395-76.85 19.094-23.61 15.207-26.731 37.464-25.654 52.295C844.059 65.776 890.036 2.315 891.29.571z" fill="#709B30"/><path d="M62.263 85.445H19.207V62.513h43.056c10.764 0 16.263 5.148 16.263 11.817 0 6.435-5.382 11.115-16.263 11.115zM60.86 50.228H19.207V30.923H60.86c11.35 0 15.795 3.978 15.795 9.477 0 5.031-5.148 9.828-15.795 9.828zm10.998 5.85c18.135-.585 24.687-9.594 24.687-19.422C96.544 25.892 88.004 17 67.177 17H.604v82.134h68.562c17.082 0 29.835-7.137 29.835-22.464 0-10.881-7.137-20.124-27.144-20.592zM120.973 17v82.134h18.603V17h-18.603zm94.044 15.561h40.95V17H155.464v15.561h40.95v66.573h18.603V32.561zM271.855 17v82.134h18.603V67.076H334.1V53.621h-43.64V31.157h70.901V17h-89.505zm104.574 0v82.134h18.603V17H376.43zm62.22 20.007l61.66 62.127h21.06V17h-18.37v59.202L443.797 17h-23.634v82.134h18.486V37.007zM546.5 17v82.134h91.026V85.328h-72.423V62.747h43.407V49.994h-43.407V31.157h72.423V17H546.5zm215.607 0h-24.57L706.18 45.899 675.058 17h-24.92l43.757 40.482L648.5 99.134h24.57l32.877-30.303 32.76 30.303h25.038l-45.513-41.769L762.106 17z" fill="#01131D"/></g></svg>