<?xml version="1.0" encoding="UTF-8"?>
<!DOCTYPE svg PUBLIC "-//W3C//DTD SVG 1.1//EN" "http://www.w3.org/Graphics/SVG/1.1/DTD/svg11.dtd">
<!-- Creator: CorelDRAW X7 -->
<svg xmlns="http://www.w3.org/2000/svg" xml:space="preserve" width="7.5in" height="7.5in" version="1.1" style="shape-rendering:geometricPrecision; text-rendering:geometricPrecision; image-rendering:optimizeQuality; fill-rule:evenodd; clip-rule:evenodd"
viewBox="0 0 7500 7500"
 xmlns:xlink="http://www.w3.org/1999/xlink">
 <defs>
  <style type="text/css">
   <![CDATA[
    .fil0 {fill:none}
    .fil1 {fill:#01A64F;fill-rule:nonzero}
   ]]>
  </style>
 </defs>
 <g id="Layer_x0020_1">
  <metadata id="CorelCorpID_0Corel-Layer"/>
  <rect class="fil0" width="7500" height="7500"/>
  <g id="Moeda_x0020_ICO_x0020_logo.eps">
   <path class="fil1" d="M2688 928c446,-279 1001,-328 1510,-236 683,130 1250,665 1481,1314 305,822 77,1828 -601,2398 -271,236 -608,383 -961,445 0,164 -1,328 -3,491 297,1 595,-1 892,1 -2,237 -2,474 0,711 -297,10 -593,5 -890,6 1,264 1,528 0,792 -244,-3 -488,-3 -732,0 -1,-264 -1,-528 -1,-792 -286,-1 -572,0 -858,1 0,-240 1,-479 -2,-718 286,-1 574,0 861,-1 -1,-167 -1,-334 1,-501 -565,-93 -1078,-444 -1375,-932 -317,-481 -382,-1093 -273,-1650 107,-553 465,-1047 951,-1329zm907 710c-387,78 -677,425 -749,803 -40,371 -39,785 209,1090 307,444 1038,464 1372,42 266,-311 274,-744 230,-1129 -83,-479 -558,-911 -1062,-806z"/>
  </g>
 </g>
</svg>
