<svg xmlns="http://www.w3.org/2000/svg" width="365.546" height="591.999" viewBox="0 0 96.717 156.633"><path d="M0 85.305c17.045 9.041 34.806 18.517 48.557 25.844l48.16-25.837c-17.437 25.912-31.962 47.465-48.16 71.321C32.339 132.827 14.417 106.55 0 85.305zm1.864-7.138l46.748-24.948 46.146 24.767-46.105 24.969z" fill="#009f42" stroke-width=".353"/><path d="M0 85.305c17.045 9.041 34.806 18.517 48.557 25.844l48.16-25.837c-17.437 25.912-31.962 47.465-48.16 71.321C32.339 132.827 14.417 106.55 0 85.305zm1.864-7.138l46.748-24.948 46.146 24.767-46.105 24.969zM48.548 45.21L.006 70.772 48.337 0l48.362 70.926z" fill="#01c853" stroke-width=".353"/><path d="M48.557 111.15l48.16-25.838c-17.437 25.912-48.16 71.321-48.16 71.321zm.055-57.93l46.146 24.766-46.105 24.969zm-.064-8.01L48.337 0l48.362 70.926z" fill="#009f42" stroke-width=".353"/><path d="M48.612 81.993l46.146-4.007-46.105 24.969-.04-20.962z" fill="#007831" stroke-width=".353"/><path d="M48.612 81.993L1.864 78.167l46.708 24.788.04-20.962zM48.557 111.15l48.16-25.838c-17.437 25.912-31.962 47.465-48.16 71.321z" fill="#009f42" stroke-width=".353"/></svg>