<svg xmlns="http://www.w3.org/2000/svg" width="2000" height="1888" viewBox="0 0 2000 1888"><defs><linearGradient id="0" x2="2000" gradientUnits="userSpaceOnUse" x1="0"><stop stop-color="#9d4abe"/><stop offset=".03" stop-color="#9055c4"/><stop offset=".15" stop-color="#6b74d6"/><stop offset=".26" stop-color="#4c8fe5"/><stop offset=".39" stop-color="#34a3f0"/><stop offset=".52" stop-color="#22b2f9"/><stop offset=".66" stop-color="#18bafd"/><stop offset=".83" stop-color="#15bdff"/><stop offset="1" stop-color="#28bad5"/></linearGradient></defs><path d="M859.82,1873,4.4,130.66C-9.52,102.82,11.36,70,42.2,70H338.61c15.91,0,30.83,9,37.8,22.87l624.65,1264c55.7,113.37,216.84,113.37,272.54,0l622.66-1263c7-13.92,21.88-22.87,37.8-22.87h36.8c21.88,0,35.81,22.87,25.86,41.77L1132.36,1873C1076.66,1986.34,915.52,1986.34,859.82,1873Z" transform="translate(0-70)" fill="url(#0)"/><g fill="#fff" transform="translate(0-70)"><path d="M859.82,1873,376.41,93.87C369.45,79,353.53,71,340.6,71H43.19C10.37,71-8.53,103.81,4.4,131.66Z" opacity=".1" isolation="isolate"/><path d="M1001.06,1357.84,4.4,130.66C-7.53,101.82,10.37,73,38.22,70H339.61c16.91,1,29.84,11.93,35.81,22.87Z" opacity=".1" isolation="isolate"/></g></svg>