<svg xmlns="http://www.w3.org/2000/svg" width="2000" height="1888"><defs><linearGradient id="a" x2="2000" gradientUnits="userSpaceOnUse"><stop stop-color="#9d4abe"/><stop offset=".03" stop-color="#9055c4"/><stop offset=".15" stop-color="#6b74d6"/><stop offset=".26" stop-color="#4c8fe5"/><stop offset=".39" stop-color="#34a3f0"/><stop offset=".52" stop-color="#22b2f9"/><stop offset=".66" stop-color="#18bafd"/><stop offset=".83" stop-color="#15bdff"/><stop offset="1" stop-color="#28bad5"/></linearGradient></defs><path d="M859.82 1873L4.4 130.66C-9.52 102.82 11.36 70 42.2 70h296.41c15.91 0 30.83 9 37.8 22.87l624.65 1264c55.7 113.37 216.84 113.37 272.54 0l622.66-1263c7-13.92 21.88-22.87 37.8-22.87h36.8c21.88 0 35.81 22.87 25.86 41.77L1132.36 1873c-55.7 113.34-216.84 113.34-272.54 0z" transform="translate(0 -70)" fill="url(#a)"/><g fill="#fff"><path d="M859.82 1803L376.41 23.87C369.45 9 353.53 1 340.6 1H43.19C10.37 1-8.53 33.81 4.4 61.66z" opacity=".1"/><path d="M1001.06 1287.84L4.4 60.66C-7.53 31.82 10.37 3 38.22 0h301.39c16.91 1 29.84 11.93 35.81 22.87z" opacity=".1"/></g></svg>