<svg width="151" height="39" xmlns="http://www.w3.org/2000/svg" xmlns:xlink="http://www.w3.org/1999/xlink"><defs><path id="a" d="M0 17h82.597V.829H.001z"/><path id="c" d="M0 17h82.597V.829H.001z"/></defs><g fill="none" fill-rule="evenodd"><g stroke-linecap="round" stroke-width="1.825" stroke-linejoin="round"><path stroke="#1ABC9C" d="M23.27 37.815V18.488L1.002 1.614v36.201"/><path stroke="#546979" d="M30.122 37.815V18.488L52.39 1.614v36.201"/></g><g transform="translate(68 13)"><mask id="b" fill="#fff"><use xlink:href="#a"/></mask><path d="M72.763.874a.67.67 0 0 0-.475.191.643.643 0 0 0-.191.473v14.685c0 .18.064.338.192.473a.67.67 0 0 0 .474.191.647.647 0 0 0 .474-.19.645.645 0 0 0 .203-.474V9.567h3.772l3.489 7.061c.12.248.32.372.598.372a.652.652 0 0 0 .293-.068.652.652 0 0 0 .338-.383.626.626 0 0 0-.033-.506L78.68 9.5c1.121-.173 2.052-.66 2.79-1.464.752-.81 1.129-1.749 1.129-2.815 0-1.2-.46-2.226-1.379-3.075-.925-.848-2.04-1.272-3.341-1.272h-5.115zm7.53 6.453c-.64.585-1.419.885-2.337.9H73.44V2.203h4.439c.933 0 1.73.296 2.394.89.661.585.992 1.294.992 2.128 0 .818-.322 1.52-.97 2.106zM66.01 17a.628.628 0 0 0 .475-.203.626.626 0 0 0 .204-.473.626.626 0 0 0-.204-.473.628.628 0 0 0-.474-.203h-8.288V9.59h6.198a.628.628 0 0 0 .475-.203.624.624 0 0 0 .204-.473.627.627 0 0 0-.204-.473.627.627 0 0 0-.474-.202h-6.199V2.18l8.288.023a.645.645 0 0 0 .474-.192.66.66 0 0 0 .204-.484.65.65 0 0 0-.204-.473.628.628 0 0 0-.474-.203L57.044.83a.594.594 0 0 0-.473.203.62.62 0 0 0-.203.473v14.82c0 .187.066.344.203.472a.628.628 0 0 0 .474.203h8.965zm-24.874-.316a.621.621 0 0 0 .204-.473v-4.3l2.008-2.118 6.675 7.004a.663.663 0 0 0 .485.203.65.65 0 0 0 .462-.18.669.669 0 0 0 .215-.473.64.64 0 0 0-.191-.473l-6.72-7.05 6.493-6.8a.64.64 0 0 0 .18-.486.607.607 0 0 0-.203-.46.68.68 0 0 0-.485-.193.656.656 0 0 0-.463.214L41.34 9.973v-8.48a.648.648 0 0 0-.204-.473.647.647 0 0 0-.474-.19.67.67 0 0 0-.474.19.668.668 0 0 0-.192.473v14.718a.64.64 0 0 0 .192.473.646.646 0 0 0 .474.203.624.624 0 0 0 .474-.203zM22.064 17a.619.619 0 0 0 .62-.417l1.4-3.356h8.244l1.4 3.356c.112.278.32.417.62.417.09 0 .178-.019.26-.057a.609.609 0 0 0 .361-.36.624.624 0 0 0 0-.518l-1.57-3.772v-.012L28.827 1.28a1.53 1.53 0 0 0-.056-.123c0 .007-.014-.008-.044-.046a1.21 1.21 0 0 0-.046-.056c-.008 0-.026-.015-.056-.045l-.046-.034a.606.606 0 0 0-.247-.1h-.058a.434.434 0 0 0-.067-.012.718.718 0 0 0-.08.011h-.056a.602.602 0 0 0-.282.135.814.814 0 0 0-.056.045 1.21 1.21 0 0 0-.046.056l-.044.046a1.568 1.568 0 0 0-.058.123l-4.572 11.002v.012l-1.57 3.772a.624.624 0 0 0 0 .518.609.609 0 0 0 .361.36c.084.038.17.057.26.057zm2.573-5.124l3.569-8.58 3.567 8.58h-7.136zM1.343 3.971l6.064 9.988.011.012v.011c.016.015.03.034.045.056l.045.045.045.045c.024.015.043.03.058.045.037.023.045.027.022.011.008 0 .011.004.011.012h.022a.309.309 0 0 0 .068.034.469.469 0 0 0 .056.022.206.206 0 0 0 .069.011.12.12 0 0 0 .056.012.224.224 0 0 0 .135 0 .12.12 0 0 0 .057-.012.196.196 0 0 0 .068-.01.429.429 0 0 0 .056-.023.332.332 0 0 0 .069-.034c.03-.015.04-.019.032-.012-.022.016-.014.012.023-.01a.392.392 0 0 1 .056-.046.658.658 0 0 0 .046-.045l.045-.045a.392.392 0 0 1 .045-.056v-.01l.011-.013 6.065-9.988v12.353c0 .188.064.35.192.484a.667.667 0 0 0 .474.192.644.644 0 0 0 .473-.192.657.657 0 0 0 .204-.484V1.561c0-.338-.165-.552-.497-.642-.323-.09-.575.011-.756.304l-6.73 11.092-6.73-11.092C1.073.93.821.83.497.92.164 1.01 0 1.223 0 1.561v14.763c0 .188.063.35.19.484A.685.685 0 0 0 .677 17a.667.667 0 0 0 .474-.192.678.678 0 0 0 .192-.484V3.971z" fill="#546979" mask="url(#b)"/></g><g stroke-linecap="round" stroke-width="1.825" stroke-linejoin="round"><path stroke="#1ABC9C" d="M23.27 37.815V18.488L1.002 1.614v36.201"/><path stroke="#546979" d="M30.122 37.815V18.488L52.39 1.614v36.201"/></g><g transform="translate(68 13)"><mask id="d" fill="#fff"><use xlink:href="#c"/></mask><path d="M72.763.874a.67.67 0 0 0-.475.191.643.643 0 0 0-.191.473v14.685c0 .18.064.338.192.473a.67.67 0 0 0 .474.191.647.647 0 0 0 .474-.19.645.645 0 0 0 .203-.474V9.567h3.772l3.489 7.061c.12.248.32.372.598.372a.652.652 0 0 0 .293-.068.652.652 0 0 0 .338-.383.626.626 0 0 0-.033-.506L78.68 9.5c1.121-.173 2.052-.66 2.79-1.464.752-.81 1.129-1.749 1.129-2.815 0-1.2-.46-2.226-1.379-3.075-.925-.848-2.04-1.272-3.341-1.272h-5.115zm7.53 6.453c-.64.585-1.419.885-2.337.9H73.44V2.203h4.439c.933 0 1.73.296 2.394.89.661.585.992 1.294.992 2.128 0 .818-.322 1.52-.97 2.106zM66.01 17a.628.628 0 0 0 .475-.203.626.626 0 0 0 .204-.473.626.626 0 0 0-.204-.473.628.628 0 0 0-.474-.203h-8.288V9.59h6.198a.628.628 0 0 0 .475-.203.624.624 0 0 0 .204-.473.627.627 0 0 0-.204-.473.627.627 0 0 0-.474-.202h-6.199V2.18l8.288.023a.645.645 0 0 0 .474-.192.66.66 0 0 0 .204-.484.65.65 0 0 0-.204-.473.628.628 0 0 0-.474-.203L57.044.83a.594.594 0 0 0-.473.203.62.62 0 0 0-.203.473v14.82c0 .187.066.344.203.472a.628.628 0 0 0 .474.203h8.965zm-24.874-.316a.621.621 0 0 0 .204-.473v-4.3l2.008-2.118 6.675 7.004a.663.663 0 0 0 .485.203.65.65 0 0 0 .462-.18.669.669 0 0 0 .215-.473.64.64 0 0 0-.191-.473l-6.72-7.05 6.493-6.8a.64.64 0 0 0 .18-.486.607.607 0 0 0-.203-.46.68.68 0 0 0-.485-.193.656.656 0 0 0-.463.214L41.34 9.973v-8.48a.648.648 0 0 0-.204-.473.647.647 0 0 0-.474-.19.67.67 0 0 0-.474.19.668.668 0 0 0-.192.473v14.718a.64.64 0 0 0 .192.473.646.646 0 0 0 .474.203.624.624 0 0 0 .474-.203zM22.064 17a.619.619 0 0 0 .62-.417l1.4-3.356h8.244l1.4 3.356c.112.278.32.417.62.417.09 0 .178-.019.26-.057a.609.609 0 0 0 .361-.36.624.624 0 0 0 0-.518l-1.57-3.772v-.012L28.827 1.28a1.53 1.53 0 0 0-.056-.123c0 .007-.014-.008-.044-.046a1.21 1.21 0 0 0-.046-.056c-.008 0-.026-.015-.056-.045l-.046-.034a.606.606 0 0 0-.247-.1h-.058a.434.434 0 0 0-.067-.012.718.718 0 0 0-.08.011h-.056a.602.602 0 0 0-.282.135.814.814 0 0 0-.056.045 1.21 1.21 0 0 0-.046.056l-.044.046a1.568 1.568 0 0 0-.058.123l-4.572 11.002v.012l-1.57 3.772a.624.624 0 0 0 0 .518.609.609 0 0 0 .361.36c.084.038.17.057.26.057zm2.573-5.124l3.569-8.58 3.567 8.58h-7.136zM1.343 3.971l6.064 9.988.011.012v.011c.016.015.03.034.045.056l.045.045.045.045c.024.015.043.03.058.045.037.023.045.027.022.011.008 0 .011.004.011.012h.022a.309.309 0 0 0 .068.034.469.469 0 0 0 .056.022.206.206 0 0 0 .069.011.12.12 0 0 0 .056.012.224.224 0 0 0 .135 0 .12.12 0 0 0 .057-.012.196.196 0 0 0 .068-.01.429.429 0 0 0 .056-.023.332.332 0 0 0 .069-.034c.03-.015.04-.019.032-.012-.022.016-.014.012.023-.01a.392.392 0 0 1 .056-.046.658.658 0 0 0 .046-.045l.045-.045a.392.392 0 0 1 .045-.056v-.01l.011-.013 6.065-9.988v12.353c0 .188.064.35.192.484a.667.667 0 0 0 .474.192.644.644 0 0 0 .473-.192.657.657 0 0 0 .204-.484V1.561c0-.338-.165-.552-.497-.642-.323-.09-.575.011-.756.304l-6.73 11.092-6.73-11.092C1.073.93.821.83.497.92.164 1.01 0 1.223 0 1.561v14.763c0 .188.063.35.19.484A.685.685 0 0 0 .677 17a.667.667 0 0 0 .474-.192.678.678 0 0 0 .192-.484V3.971z" fill="#546979" mask="url(#d)"/></g></g></svg>