<svg id="Layer_1" data-name="Layer 1" xmlns="http://www.w3.org/2000/svg" xmlns:xlink="http://www.w3.org/1999/xlink" viewBox="0 0 630 200"><defs><style>.cls-1{fill:url(#linear-gradient);}.cls-2{fill:#fff;}.cls-3{fill:url(#linear-gradient-2);}.cls-4{fill:url(#linear-gradient-6);}.cls-5{fill:url(#linear-gradient-7);}.cls-6{fill:url(#linear-gradient-8);}</style><linearGradient id="linear-gradient" x1="19.16" y1="99.57" x2="178.84" y2="99.57" gradientUnits="userSpaceOnUse"><stop offset="0" stop-color="#01aec9"/><stop offset="1" stop-color="#1e8fca"/></linearGradient><linearGradient id="linear-gradient-2" x1="230.84" y1="100.24" x2="608.85" y2="100.24" xlink:href="#linear-gradient"/><linearGradient id="linear-gradient-6" x1="230.84" y1="110.67" x2="608.85" y2="110.67" xlink:href="#linear-gradient"/><linearGradient id="linear-gradient-7" x1="230.84" y1="110.34" x2="608.85" y2="110.34" xlink:href="#linear-gradient"/><linearGradient id="linear-gradient-8" x1="230.84" y1="99.57" x2="608.85" y2="99.57" xlink:href="#linear-gradient"/></defs><title>ETHLend_logo</title><g id="Logo"><circle id="_Path_" data-name="&lt;Path&gt;" class="cls-1" cx="99" cy="99.57" r="79.84"/><g id="_Group_" data-name="&lt;Group&gt;"><polygon id="_Path_2" data-name="&lt;Path&gt;" class="cls-2" points="134.12 51.38 124.35 41.6 91.71 74.25 124.35 106.89 134.12 97.11 111.25 74.25 134.12 51.38"/><polygon id="_Path_3" data-name="&lt;Path&gt;" class="cls-2" points="106.29 124.89 73.65 92.25 63.88 102.03 86.75 124.89 63.88 147.76 73.65 157.54 106.29 124.89"/><rect id="_Rectangle_" data-name="&lt;Rectangle&gt;" class="cls-2" x="75.92" y="92.69" width="46.16" height="13.77" transform="translate(99.4 -40.84) rotate(45)"/></g></g><g id="_Group_2" data-name="&lt;Group&gt;"><path id="_Compound_Path_" data-name="&lt;Compound Path&gt;" class="cls-3" d="M272.11,131.37l-.1,4.25h-42.4V64.87H272v4.25H234.76v28.6h31v4.15h-31v29.5Z"/><path id="_Compound_Path_2" data-name="&lt;Compound Path&gt;" class="cls-3" d="M333.61,69.22H308.76v66.4h-5.15V69.22h-25V64.87h55Z"/><path id="_Compound_Path_3" data-name="&lt;Compound Path&gt;" class="cls-3" d="M400.11,64.87v70.75H395v-33.9h-44.3v33.9h-5.15V64.87h5.15v33H395v-33Z"/><path id="_Compound_Path_4" data-name="&lt;Compound Path&gt;" class="cls-3" d="M459.66,131.27v4.35H421V64.87h5.15v66.4Z"/><path id="_Compound_Path_5" data-name="&lt;Compound Path&gt;" class="cls-4" d="M466.16,108.77v.95a33.73,33.73,0,0,0,1.3,9.85,20.17,20.17,0,0,0,3.7,7.13A15.25,15.25,0,0,0,477,131a19.19,19.19,0,0,0,7.6,1.45,22.75,22.75,0,0,0,6.5-.82,24.27,24.27,0,0,0,4.63-1.85,25.39,25.39,0,0,0,3-1.85,3.37,3.37,0,0,1,1.6-.83,1.15,1.15,0,0,1,1,.5l1.3,1.6a13.58,13.58,0,0,1-3.17,2.8,22.61,22.61,0,0,1-4.4,2.22,32,32,0,0,1-5.2,1.47,28.58,28.58,0,0,1-5.58.55,23.67,23.67,0,0,1-9.3-1.78,19.7,19.7,0,0,1-7.2-5.17,23.56,23.56,0,0,1-4.62-8.33,35.92,35.92,0,0,1-1.62-11.28A30.75,30.75,0,0,1,463,99.84a22.62,22.62,0,0,1,4.4-7.8,20.05,20.05,0,0,1,7-5.12,23.18,23.18,0,0,1,9.48-1.85,20.68,20.68,0,0,1,7.8,1.45A17.68,17.68,0,0,1,498,90.74a19.89,19.89,0,0,1,4.17,6.83,26.29,26.29,0,0,1,1.53,9.3,2.65,2.65,0,0,1-.3,1.5,1.17,1.17,0,0,1-1,.4Zm33.2-3.05a21.4,21.4,0,0,0-1.12-7.17,15.25,15.25,0,0,0-3.17-5.37,13.88,13.88,0,0,0-4.87-3.37A16.08,16.08,0,0,0,484,88.62a18.73,18.73,0,0,0-6.9,1.2,15.09,15.09,0,0,0-5.27,3.45,17.22,17.22,0,0,0-3.58,5.4,25.12,25.12,0,0,0-1.8,7Z"/><path id="_Compound_Path_6" data-name="&lt;Compound Path&gt;" class="cls-5" d="M521.16,94.57a28.21,28.21,0,0,1,8-6.9,19.87,19.87,0,0,1,10.08-2.6,18.71,18.71,0,0,1,7.23,1.3,13.29,13.29,0,0,1,5.17,3.75,16.61,16.61,0,0,1,3.1,5.9,26.76,26.76,0,0,1,1,7.8v31.8H551v-31.8q0-7-3.2-11t-9.75-4a17.65,17.65,0,0,0-9.07,2.47,25.64,25.64,0,0,0-7.53,6.88v37.4h-4.8V85.87h2.65a1.33,1.33,0,0,1,1.45,1.25Z"/><path id="_Compound_Path_7" data-name="&lt;Compound Path&gt;" class="cls-6" d="M610.31,62.87v72.75h-2.6a1.37,1.37,0,0,1-1.5-1.3l-.5-7.85a26.49,26.49,0,0,1-7.7,7.15,18.81,18.81,0,0,1-9.9,2.65q-9.2,0-14.3-6.35t-5.1-19a35.1,35.1,0,0,1,1.42-10.17,24.42,24.42,0,0,1,4.18-8.2A19.69,19.69,0,0,1,581.08,87a20.59,20.59,0,0,1,9.28-2,19.37,19.37,0,0,1,8.75,1.85,18.35,18.35,0,0,1,6.45,5.5V62.87Zm-4.75,33.7a17,17,0,0,0-6.33-6,19.07,19.07,0,0,0-15.62-.15,15.17,15.17,0,0,0-5.53,4.53,20.38,20.38,0,0,0-3.35,7,33.67,33.67,0,0,0-1.12,9q0,11.1,4.08,16.33t11.77,5.22a16.46,16.46,0,0,0,9-2.55,24.33,24.33,0,0,0,7.15-7.15Z"/></g></svg>