<svg xmlns="http://www.w3.org/2000/svg" width="442" height="75" viewBox="0 0 442 75">
  <g fill-rule="evenodd" transform="translate(1 1)">
    <path fill-rule="nonzero" d="M36.1827012,72.4151786 C16.2001707,72.4151786 -1.77635684e-15,56.2044643 -1.77635684e-15,36.20625 C-1.77635684e-15,16.2107143 16.2001707,-1.77635684e-15 36.1827012,-1.77635684e-15 C56.1679085,-1.77635684e-15 72.3680793,16.2107143 72.3680793,36.20625 C72.3680793,56.2044643 56.1679085,72.4151786 36.1827012,72.4151786 Z M36.1827012,69.5892857 C54.6073171,69.5892857 69.5440244,54.6428571 69.5440244,36.20625 C69.5440244,17.7723214 54.6073171,2.82589286 36.1827012,2.82589286 C17.7607622,2.82589286 2.82405488,17.7723214 2.82405488,36.20625 C2.82405488,54.6428571 17.7607622,69.5892857 36.1827012,69.5892857 Z"/>
    <ellipse cx="36.252" cy="36.276" rx="3.11" ry="3.11"/>
    <path fill-rule="nonzero" d="M120.864195,50.4160714 C118.329238,50.4160714 116.040549,49.8348214 114.003482,48.675 C111.992731,47.5405027 110.334497,45.8719196 109.211957,43.8535714 C108.05289,41.7991071 107.472018,39.4955357 107.472018,36.9508929 C107.472018,34.4035714 108.05289,32.1026786 109.211957,30.0455357 C110.338021,28.0234923 112.003372,26.354275 114.02222,25.2241071 C116.072671,24.0642857 118.364037,23.4830357 120.901671,23.4830357 C122.80222,23.4830357 124.560896,23.8125 126.169671,24.4660714 C127.740051,25.0942941 129.143034,26.0791298 130.267896,27.3428571 L128.549372,29.11875 C126.54978,27.0267857 124.02553,25.9794643 120.973945,25.9794643 C118.950262,25.9794643 117.108604,26.4616071 115.44897,27.4178571 C113.81703,28.3503289 112.470378,29.7108223 111.554183,31.3526786 C110.614616,33.0133929 110.143494,34.8830357 110.143494,36.9508929 C110.143494,39.01875 110.614616,40.8830357 111.554183,42.5491071 C112.491073,44.2125 113.792012,45.5223214 115.44897,46.48125 C117.108604,47.4401786 118.950262,47.9196429 120.973945,47.9196429 C124.049622,47.9196429 126.573872,46.8616071 128.549372,44.7428571 L130.267896,46.51875 C129.146305,47.7803571 127.773091,48.7446429 126.150933,49.4116071 C124.471975,50.0914988 122.675347,50.4328528 120.864195,50.4160714 Z"/>
    <polygon fill-rule="nonzero" points="146.95 23.711 149.656 23.711 149.656 50.188 146.95 50.188"/>
    <polygon fill-rule="nonzero" points="190.304 23.711 190.304 50.188 188.071 50.188 171.606 28.704 171.606 50.188 168.897 50.188 168.897 23.711 171.13 23.711 187.632 45.196 187.632 23.711 190.304 23.711"/>
    <path fill-rule="nonzero" d="M209.544872,23.7107143 L219.971122,23.7107143 C222.680073,23.7107143 225.070482,24.2732143 227.145024,25.3928571 C229.167209,26.4655506 230.842223,28.0924122 231.974024,30.0830357 C233.119707,32.0892857 233.692549,34.3767857 233.692549,36.9508929 C233.692549,39.5223214 233.119707,41.8098214 231.974024,43.8160714 C230.841821,45.8057061 229.166845,47.431602 227.145024,48.5035714 C225.070482,49.6285714 222.680073,50.1910714 219.971122,50.1910714 L209.544872,50.1910714 L209.544872,23.7080357 L209.544872,23.7107143 Z M219.823896,47.7669643 C222.072433,47.7669643 224.034549,47.3089286 225.718274,46.3875 C227.357055,45.5096133 228.713906,44.1853121 229.631799,42.5678571 C230.557982,40.9392857 231.02375,39.0669643 231.02375,36.9508929 C231.02375,34.8321429 230.557982,32.9598214 229.631799,31.33125 C228.713906,29.713795 227.357055,28.3894938 225.718274,27.5116071 C224.031872,26.5928571 222.069756,26.1321429 219.826573,26.1321429 L212.251146,26.1321429 L212.251146,47.7669643 L219.826573,47.7669643 L219.823896,47.7669643 Z"/>
    <polygon fill-rule="nonzero" points="250.666 23.711 253.375 23.711 253.375 50.188 250.666 50.188"/>
    <path fill-rule="nonzero" d="M283.738549 50.4160714C281.200915 50.4160714 278.914902 49.8348214 276.877835 48.675 274.867085 47.5405027 273.208851 45.8719196 272.086311 43.8535714 270.927244 41.7991071 270.346372 39.4955357 270.346372 36.9508929 270.346372 34.4035714 270.927244 32.1026786 272.086311 30.0455357 273.212375 28.0234923 274.877726 26.354275 276.896573 25.2241071 278.944348 24.0642857 281.23839 23.4830357 283.776024 23.4830357 285.676573 23.4830357 287.43525 23.8125 289.044024 24.4660714 290.614405 25.0942941 292.017387 26.0791298 293.14225 27.3428571L291.423726 29.11875C289.421457 27.0267857 286.899884 25.9794643 283.848299 25.9794643 281.824616 25.9794643 279.982957 26.4616071 278.323323 27.4178571 276.690398 28.3499424 275.342787 29.7104704 274.42586 31.3526786 273.48897 33.0133929 273.017848 34.8830357 273.017848 36.9508929 273.017848 39.01875 273.48897 40.8830357 274.42586 42.5491071 275.365427 44.2125 276.663689 45.5223214 278.323323 46.48125 279.982957 47.4401786 281.824616 47.9196429 283.848299 47.9196429 286.921299 47.9196429 289.445549 46.8616071 291.423726 44.7428571L293.14225 46.51875C292.017982 47.7803571 290.647445 48.7446429 289.025287 49.4116071 287.346329 50.0914988 285.5497 50.4328528 283.738549 50.4160714zM325.229402 43.1142857L310.956549 43.1142857 307.883549 50.1883929 305.064848 50.1883929 316.775976 23.7107143 319.444774 23.7107143 331.153226 50.1883929 328.299726 50.1883929 325.226726 43.1169643 325.229402 43.1142857zM324.238976 40.8455357L318.092976 26.6223214 311.944299 40.8455357 324.238976 40.8455357z"/>
    <polygon fill-rule="nonzero" points="349.993 26.132 340.993 26.132 340.993 23.711 361.701 23.711 361.701 26.132 352.702 26.132 352.702 50.188 349.993 50.188"/>
    <path fill-rule="nonzero" d="M387.749427 50.4160714C385.211793 50.4160714 382.912396 49.8294643 380.851238 48.65625 378.829817 47.5231136 377.159121 45.8550377 376.022238 43.8348214 374.863171 41.7910714 374.282299 39.4955357 374.282299 36.9508929 374.282299 34.4035714 374.863171 32.1080357 376.022238 30.0669643 377.158731 28.045762 378.829461 26.3767242 380.851238 25.2428571 382.912396 24.0696429 385.21447 23.4830357 387.749427 23.4830357 390.287061 23.4830357 392.573073 24.0642857 394.61014 25.2241071 396.62366 26.3613008 398.287309 28.0288115 399.420402 30.0455357 400.592854 32.1026786 401.176402 34.4035714 401.176402 36.9508929 401.176402 39.4955357 400.592854 41.7991071 399.420402 43.8535714 398.287309 45.8702956 396.62366 47.5378064 394.61014 48.675 392.573073 49.8348214 390.287061 50.4160714 387.749427 50.4160714zM387.749427 47.9196429C389.77311 47.9196429 391.604061 47.4455357 393.236927 46.5 394.856999 45.5702405 396.187624 44.2090778 397.080854 42.5678571 398.007037 40.8910714 398.470128 39.01875 398.470128 36.9508929 398.470128 34.8830357 398.007037 33.0107143 397.078177 31.33125 396.185676 29.690385 394.856012 28.329258 393.236927 27.3991071 391.567359 26.4438159 389.672493 25.9536048 387.749427 25.9794643 385.725744 25.9794643 383.889439 26.4535714 382.243189 27.3991071 380.612234 28.3271844 379.269069 29.687908 378.361787 31.33125 377.412886 33.0502813 376.928496 34.9872556 376.956451 36.9508929 376.956451 39.01875 377.424896 40.8883929 378.364463 42.5678571 379.301354 44.2446429 380.596939 45.5544643 382.243189 46.5 383.889439 47.4455357 385.723067 47.9196429 387.749427 47.9196429zM435.640579 50.1883929L429.786354 41.6785714C429.105573 41.7551635 428.420971 41.7927248 427.735902 41.7910714L420.856451 41.7910714 420.856451 50.1883929 418.152854 50.1883929 418.152854 23.7107143 427.735902 23.7107143C431.006988 23.7107143 433.566037 24.5169643 435.421079 26.1321429 437.276122 27.7446429 438.202305 29.9625 438.202305 32.7883929 438.202305 34.85625 437.693707 36.6026786 436.684543 38.0276786 435.670024 39.4526786 434.224537 40.48125 432.348079 41.1107143L438.603829 50.1910714 435.640579 50.1910714 435.640579 50.1883929zM427.663628 39.4098214C430.201262 39.4098214 432.139287 38.8285714 433.483055 37.66875 434.82147 36.5089286 435.493354 34.8830357 435.493354 32.7883929 435.493354 30.6455357 434.824146 29.0008929 433.483055 27.8517857 432.139287 26.7053571 430.201262 26.1321429 427.663628 26.1321429L420.859128 26.1321429 420.859128 39.4098214 427.663628 39.4098214z"/>
  </g>
</svg>
