<svg viewBox="0 0 2000 2000" xmlns="http://www.w3.org/2000/svg">
  <g fill="none" fill-rule="evenodd">
    <circle fill="#E9570F" cx="1000" cy="1000" r="1000"/>
    <g fill="#FFF" fill-rule="nonzero">
      <path d="M356.253218 1070.344195c1.214216-27.286822-3.035537-46.511628-12.749258-57.674419-10.320829-10.542635-33.390915-21.085271-69.817369-29.767442-17.606119-4.341085-28.534055-8.062015-32.783807-11.782945-4.249753-4.341086-6.071076-11.162791-5.463968-21.705427 0-8.68217 1.821322-14.263566 6.071075-17.984496 4.85686-3.72093 13.963474-5.581395 28.534055-5.581395 10.927936 0 23.070087.620155 37.033561 2.48062 13.963473 1.24031 26.105624 3.100775 37.03356 5.581395l6.678184-55.193799c-12.142152-3.100774-25.498518-5.581395-40.069099-7.44186-14.570581-1.24031-27.926947-2.480619-40.676206-2.480619-38.247776 0-64.3534 6.201549-79.53109 19.224805-15.177688 13.023255-21.855871 33.488372-21.248764 60.775194-1.214215 26.046512 3.035538 45.271318 12.142152 57.054264 9.106613 12.4031 29.141162 22.325581 61.317862 29.767442 21.248765 4.96124 34.605131 10.542635 40.069099 15.503876 5.463968 5.581395 7.892398 12.4031 7.28529 20.465116 0 10.542635-1.821322 17.984496-6.071075 21.705426-4.249753 4.341086-13.963474 6.20155-28.534055 6.20155-13.963474 0-27.926948-1.24031-41.890421-3.100775-13.963474-2.48062-26.712733-5.581395-38.247776-8.68217l-9.71372 52.713178c13.356365 4.341085 27.926947 8.062016 44.925958 11.16279 17.606119 3.100776 33.390915 4.341086 48.568604 4.341086 39.461991 0 66.174723-7.44186 78.923982-22.945736 13.356366-14.883721 19.427442-35.968993 18.213226-62.63566M538.385484 1092.669776c-5.463967 1.860465-11.535044 3.100775-16.999011 4.341085-6.071077.620156-11.535045 1.24031-16.391905 1.24031-9.106612 0-15.177688-2.48062-18.820333-6.821705-4.249753-4.341085-6.071076-9.92248-5.463969-17.364341V929.569001h64.353402l4.85686-54.573644h-69.210262v-78.139535l-67.996045 9.302326v68.837209h-40.676206v54.573644h40.676206v153.79845c0 24.186046 6.071075 42.790697 18.820333 54.573643 12.142151 12.4031 30.962486 17.984496 55.246788 17.984496 9.106614 0 19.427442-.620155 30.962484-3.100775 11.535044-1.860465 21.248765-4.341085 28.534056-7.44186M712.020673 868.793808c-12.142152 4.341084-25.498519 9.922479-38.854884 17.36434-13.356365 6.821706-24.284302 13.643411-32.1767 19.224806l-4.249754-30.387597h-57.070537v275.348838h67.391365V972.979854c12.142152-8.062016 23.677196-15.503876 35.21224-21.705427 11.535042-6.821705 23.677193-13.023256 36.426453-18.604651M798.837052 1052.979854v-14.263566h150.562674v-58.914729c.607107-30.387597-6.071077-56.434109-20.641658-77.519379-14.570581-21.085272-43.104635-32.248063-85.602165-33.488372-42.497528 1.240309-71.638691 11.782944-88.030595 32.24806-16.999012 20.465117-24.89141 45.891474-23.677193 75.658916v73.178294c-.60711 33.488372 7.892397 59.534884 24.891409 78.139535 17.606118 18.604652 47.354388 27.906977 89.244809 27.906977 16.391905 0 32.783809-1.24031 50.389928-4.341085 16.999012-2.48062 33.390914-6.821706 48.568605-13.023256l-10.320831-52.093023c-14.570581 4.341085-29.141162 8.062015-42.497527 9.92248-13.963475 1.860466-27.31984 3.100776-40.069098 3.100776-20.034549 0-33.998023-3.100776-41.890421-10.542636-7.8924-7.44186-11.535044-19.224806-10.927937-35.968992zm0-83.100776c0-13.023255 3.035537-24.186046 10.320828-31.627907 6.678183-8.062015 18.213228-12.4031 34.60513-12.4031 16.391905 0 27.319842 4.341085 32.783809 12.4031 6.071075 7.441861 8.499505 18.604652 8.499505 31.627907v13.643411h-86.209272v-13.643411zM1189.814318 968.638768c.60711-34.108527-7.28529-59.534883-23.07009-75.658914-16.391904-16.124032-44.925958-24.186046-86.816379-24.186046-15.177688 0-31.569593 1.240309-47.961497 3.72093-16.391905 2.480619-31.569593 5.581396-44.318851 9.302326l7.892397 52.713177c12.142151-2.48062 24.284303-4.341085 37.033561-6.20155 13.356367-1.24031 25.498518-1.860465 37.640669-1.860465 21.248763-.620155 35.212238 2.48062 42.497528 8.68217 6.678184 6.821706 9.713721 17.364342 9.106614 32.248062v29.147287h-64.3534c-27.319842-.620155-47.35439 5.581396-60.103649 17.984496-12.749258 11.782946-18.820334 31.627907-18.820334 59.534884 0 24.186046 5.463969 44.031008 16.391904 58.914729 11.535044 14.88372 29.141163 22.945736 54.032572 22.945736 13.356368 0 27.31984-1.860465 41.283314-5.581395 13.356365-4.341085 26.712733-10.542636 38.854884-18.604651l4.85686 18.60465h55.853897V968.638769zm-67.996048 118.449613c-6.071076 3.72093-13.963474 6.821705-22.462979 9.92248-9.106614 2.48062-18.213228 4.341086-28.534056 4.341086-10.320827 0-16.999011-2.48062-21.248765-6.821706-4.249751-4.341085-6.071074-11.782945-5.463967-21.08527-.607107-10.542637 1.214216-17.364342 5.463967-21.705427 4.249754-3.720931 11.535045-5.581396 22.462979-5.581396h49.782821v40.930233zM1468.476678 1150.344195V959.336443c10.92794-6.821705 23.07009-12.403101 37.03356-16.744186 13.35637-4.341086 24.28431-6.821706 33.39092-6.821706 7.28529 0 13.35637 1.860466 16.3919 5.581396 3.64265 3.72093 4.85686 9.302325 4.85686 16.744186v192.248062h67.99605V950.654272c0-24.806201-4.24975-44.651162-13.96347-59.534883-9.10662-14.263567-24.89141-21.705428-47.35439-22.325581-16.39191.620153-34.60513 3.100774-54.03257 8.68217-19.42745 5.581395-37.64067 12.4031-54.63968 21.085272-4.24976-9.302326-10.32083-16.744186-18.82034-21.705428-8.4995-4.96124-18.82033-7.441861-32.1767-8.062014-15.78479.620153-33.99802 3.100774-52.81836 8.062014-19.42744 5.581395-37.64066 12.403102-55.24678 21.085272l-6.67819-22.945737h-51.60414v275.348838h67.99605V959.336443c12.74926-6.821705 24.89141-12.403101 38.24777-16.744186 12.74926-4.341086 23.07009-6.821706 32.1767-6.821706 7.2853 0 13.35637 1.860466 16.39191 5.581396 3.64264 3.72093 5.46397 9.302325 4.85686 16.744186v192.248062M1814.527988 868.793808c-12.14215 4.341084-25.49852 9.922479-38.85489 17.36434-13.35636 6.821706-24.2843 13.643411-32.1767 19.224806l-4.24975-30.387597h-57.06811v275.348838h67.38894V972.979854c12.14215-8.062016 23.67719-15.503876 35.21224-21.705427 11.53504-6.821705 23.67719-13.023256 36.42645-18.604651"/>
    </g>
  </g>
</svg>
