<?xml version="1.0" encoding="UTF-8" standalone="no"?>
<svg
   xmlns:sketch="http://www.bohemiancoding.com/sketch/ns"
   xmlns:dc="http://purl.org/dc/elements/1.1/"
   xmlns:cc="http://creativecommons.org/ns#"
   xmlns:rdf="http://www.w3.org/1999/02/22-rdf-syntax-ns#"
   xmlns:svg="http://www.w3.org/2000/svg"
   xmlns="http://www.w3.org/2000/svg"
   xmlns:sodipodi="http://sodipodi.sourceforge.net/DTD/sodipodi-0.dtd"
   xmlns:inkscape="http://www.inkscape.org/namespaces/inkscape"
   width="562"
   height="180"
   viewBox="0 0 562 180"
   version="1.1"
   id="svg32"
   sodipodi:docname="Logo BitShares Blue - 1 color.svg"
   inkscape:version="0.92.2 5c3e80d, 2017-08-06">
  <metadata
     id="metadata36">
    <rdf:RDF>
      <cc:Work
         rdf:about="">
        <dc:format>image/svg+xml</dc:format>
        <dc:type
           rdf:resource="http://purl.org/dc/dcmitype/StillImage" />
        <dc:title>Logo BitShares Blue - 1 color</dc:title>
      </cc:Work>
    </rdf:RDF>
  </metadata>
  <sodipodi:namedview
     pagecolor="#ffffff"
     bordercolor="#666666"
     borderopacity="1"
     objecttolerance="10"
     gridtolerance="10"
     guidetolerance="10"
     inkscape:pageopacity="0"
     inkscape:pageshadow="2"
     inkscape:window-width="1219"
     inkscape:window-height="702"
     id="namedview34"
     showgrid="false"
     inkscape:snap-global="false"
     fit-margin-top="0"
     fit-margin-left="0"
     fit-margin-right="0"
     fit-margin-bottom="0"
     inkscape:zoom="0.5"
     inkscape:cx="36"
     inkscape:cy="8.205317"
     inkscape:window-x="0"
     inkscape:window-y="0"
     inkscape:window-maximized="0"
     inkscape:current-layer="Logo-&amp;-Variants" />
  <!-- Generator: Sketch 3.2 (9961) - http://www.bohemiancoding.com/sketch -->
  <title
     id="title2">Logo BitShares Blue - 1 color</title>
  <desc
     id="desc4">Created with Sketch.</desc>
  <defs
     id="defs6" />
  <g
     id="Logo-&amp;-Variants"
     sketch:type="MSPage"
     style="fill:none;fill-rule:evenodd;stroke:none;stroke-width:1"
     transform="translate(-45,-33.705317)">
    <g
       id="Logo-BitShares-Blue---1-color"
       sketch:type="MSArtboardGroup"
       transform="translate(0,0.705317)">
      <g
         id="Imported-Layers"
         sketch:type="MSLayerGroup"
         transform="translate(46,44)" />
      <path
         d="M 594.41379,126.87395 H 592 V 126 h 6 v 0.87395 h -2.55172 V 134 h -1.03449 z"
         id="Shape"
         sketch:type="MSShapeGroup"
         inkscape:connector-curvature="0"
         style="fill:#00a9e0" />
      <path
         d="m 606.30435,130.56198 c -0.13913,-1.12396 -0.13913,-2.44628 -0.13913,-3.30578 v 0 c -0.2087,0.8595 -0.69566,1.91735 -1.04348,2.9752 L 603.73044,134 h -0.83479 l -1.25217,-3.7686 c -0.34783,-1.12396 -0.69565,-2.1157 -0.90435,-3.10743 v 0 c 0,0.99173 -0.13913,2.24793 -0.2087,3.43801 l -0.20869,3.30579 H 599 L 599.55652,126 h 1.25218 l 1.3913,3.76859 c 0.34783,0.99174 0.55652,1.78513 0.83478,2.64463 v 0 c 0.2087,-0.79339 0.48696,-1.65289 0.83478,-2.64463 L 605.26087,126 h 1.25217 L 607,133.86777 h -1.04348 z"
         id="Shape-2"
         sketch:type="MSShapeGroup"
         inkscape:connector-curvature="0"
         style="fill:#00a9e0" />
      <path
         id="Shape-3"
         sketch:type="MSShapeGroup"
         d=""
         inkscape:connector-curvature="0" />
      <path
         d="M 256,111.53992 V 101 l 9,7.32319 V 119 Z"
         id="Shape-4"
         sketch:type="MSShapeGroup"
         inkscape:connector-curvature="0"
         style="fill:#00a9e0" />
      <path
         d="m 246.49812,132.46237 c -2.36545,-2.62796 -5.33917,-4.71685 -8.51564,-6.19929 -3.31164,-1.48243 -6.89362,-2.29104 -10.8811,-2.29104 -5.81227,0 -11.01627,1.54982 -15.34168,4.71685 -2.6358,1.81935 -4.86608,4.17778 -6.5557,6.87312 V 89 H 200 v 93.39355 h 5.13642 v -10.98351 c 1.82478,2.69534 3.98748,4.98638 6.55569,6.87311 4.393,3.16703 9.52942,4.71685 15.34168,4.71685 3.85232,0 7.56946,-0.8086 10.8811,-2.29104 3.31164,-1.48244 6.15019,-3.50394 8.51565,-6.1319 2.36545,-2.62796 4.3254,-5.79498 5.54193,-9.29892 1.21652,-3.50395 2.02753,-7.47957 2.02753,-11.79212 0,-4.17778 -0.67585,-8.1534 -2.02753,-11.79211 -1.14894,-3.36918 -3.04131,-6.5362 -5.47435,-9.23154 z m 2.50063,21.2258 c 0,3.63871 -0.54068,6.87312 -1.55444,9.97276 -1.01377,2.96488 -2.6358,5.52545 -4.393,7.54695 -1.95995,2.15628 -4.3254,3.7061 -6.89361,4.85162 -2.70338,1.14552 -5.6771,1.81935 -8.98874,1.81935 -3.31164,0 -6.21777,-0.53907 -8.98874,-1.81935 -2.70337,-1.14552 -5.00125,-2.83011 -6.89361,-4.85162 -1.95995,-2.15627 -3.37923,-4.64946 -4.52816,-7.54695 -1.01377,-2.96487 -1.55445,-6.33405 -1.55445,-9.97276 0,-3.63871 0.54068,-6.87312 1.55445,-9.97276 1.01376,-2.96487 2.63579,-5.52545 4.52816,-7.68172 1.95995,-2.15627 4.32541,-3.84086 6.89361,-4.98638 2.70338,-1.2129 5.6771,-1.81935 8.85357,-1.81935 3.17647,0 6.21777,0.53906 8.85357,1.81935 2.70338,1.2129 5.00125,2.83011 6.89362,4.98638 1.95995,2.15627 3.37922,4.71685 4.52816,7.68172 1.14893,3.09964 1.68961,6.33405 1.68961,9.97276 z"
         id="Shape-5"
         sketch:type="MSShapeGroup"
         inkscape:connector-curvature="0"
         style="fill:#00a9e0" />
      <rect
         id="Rectangle-path-2"
         sketch:type="MSShapeGroup"
         x="261"
         y="125"
         width="5"
         height="59"
         style="fill:#00a9e0" />
      <path
         d="m 297.69476,176.96444 c -1.50342,1.35299 -3.21184,2.02949 -5.26196,2.02949 -2.05011,0 -3.75854,-0.6765 -5.05695,-2.16479 -1.23006,-1.48829 -2.05011,-3.38248 -2.05011,-5.81787 v -40.38681 h 15.23918 v -5.20902 H 285.32574 V 106 h -5.19362 v 19.41544 H 272 v 5.14137 h 8.13212 v 40.38681 c 0,3.72073 1.16173,6.90027 3.41685,9.33565 2.32347,2.50304 5.26196,3.72073 8.81549,3.72073 1.70843,0 3.34852,-0.20295 4.71527,-0.87945 1.36674,-0.54119 2.66514,-1.21769 3.75854,-2.30008 L 302,179.94102 298.99317,175.5438 Z"
         id="Shape-6"
         sketch:type="MSShapeGroup"
         inkscape:connector-curvature="0"
         style="fill:#00a9e0" />
      <path
         d="m 340.96849,156.7226 c -1.56385,-1.21233 -3.39967,-2.15525 -5.37148,-2.82876 -1.83582,-0.67352 -3.87562,-1.21233 -5.71144,-1.8185 l -3.53565,-1.01027 c -1.35987,-0.33676 -2.85572,-0.80822 -4.35158,-1.21233 -1.22388,-0.47146 -2.65174,-1.14498 -3.73963,-1.81849 -1.0199,-0.80822 -1.97181,-1.8185 -2.65175,-3.03083 -0.67993,-1.21232 -1.0199,-2.96347 -1.0199,-4.98401 0,-1.68379 0.33997,-3.16553 1.15589,-4.37786 0.81592,-1.21233 1.83582,-2.28995 2.85572,-3.03082 1.22388,-0.80822 2.71974,-1.48174 4.35158,-1.81849 1.56385,-0.47146 3.33167,-0.67352 4.89552,-0.67352 2.85572,0 5.50746,0.33676 7.54726,1.14498 2.17579,0.80822 4.35158,1.81849 6.39138,3.36758 l 1.22388,0.87557 2.99171,-4.0411 -1.15589,-0.87557 c -2.51575,-2.02055 -5.16749,-3.36758 -7.95522,-4.37785 C 334.16915,125.33676 331.04146,125 327.77778,125 c -2.17579,0 -4.41957,0.20206 -6.52737,0.80822 -2.17578,0.53881 -4.21558,1.48173 -5.91542,2.82877 -1.83582,1.21232 -3.33167,2.82876 -4.41957,4.71461 -1.08789,1.88584 -1.69983,4.3105 -1.69983,6.86986 0,3.03082 0.54395,5.52283 1.69983,7.47603 1.15589,1.81849 2.37977,3.36758 4.01161,4.64726 1.56385,1.14498 3.33168,2.02055 5.1675,2.62671 1.69983,0.53881 3.39967,1.01027 4.75953,1.34703 l 3.53566,1.01028 c 1.83582,0.47146 3.53565,1.01027 5.16749,1.54908 1.49586,0.53882 2.85572,1.21233 4.01161,2.02055 1.0199,0.80822 1.97181,1.81849 2.51576,3.03082 0.67993,1.21233 0.88391,2.96347 0.88391,4.98402 0,1.81849 -0.33997,3.36758 -1.22388,4.51256 -0.81592,1.21233 -1.83582,2.28995 -3.19569,3.03082 -1.22388,0.80822 -2.85572,1.34703 -4.55555,1.81849 -1.83582,0.33676 -3.53566,0.53882 -5.37148,0.53882 -3.33167,0 -6.39138,-0.67352 -9.2471,-1.8185 -2.85572,-1.14497 -5.50746,-2.96347 -7.75124,-5.18607 l -1.22388,-1.14498 -3.39967,3.97375 1.0199,1.01027 c 2.85572,2.69407 5.91542,4.71461 9.45108,6.19635 3.53565,1.34703 7.27529,2.15525 11.15091,2.15525 2.17579,0 4.41957,-0.20206 6.59536,-0.80822 2.31177,-0.47146 4.41957,-1.34703 6.25539,-2.49201 1.83582,-1.21233 3.39966,-2.69406 4.69154,-4.64726 1.29187,-1.9532 1.83582,-4.37785 1.83582,-7.20662 0,-2.96347 -0.47595,-5.45548 -1.49585,-7.34132 -0.67994,-1.9532 -1.97181,-3.56964 -3.53566,-4.78197 z"
         id="Shape-7"
         sketch:type="MSShapeGroup"
         inkscape:connector-curvature="0"
         style="fill:#00a9e0" />
      <path
         d="m 391.03155,131.26498 c -1.96688,-1.96823 -4.20505,-3.3935 -6.91799,-4.54729 -2.64511,-1.15379 -5.49369,-1.69675 -8.54574,-1.69675 -4.20504,0 -8.07098,1.15379 -11.52997,3.32563 -1.83123,1.22166 -3.52681,2.64693 -4.88328,4.34368 V 90 H 354 v 94 h 5.15457 v -36.98917 c 0,-2.30758 0.47477,-4.54729 1.22082,-6.51552 0.81388,-2.0361 1.96688,-3.8686 3.39117,-5.36174 1.49211,-1.49314 3.1877,-2.7148 5.2224,-3.52924 1.96688,-0.81444 4.20505,-1.22166 6.51104,-1.22166 2.30599,0 4.40852,0.47509 6.37539,1.22166 1.96688,0.81444 3.73029,2.0361 5.15458,3.52924 1.49211,1.49314 2.64511,3.32564 3.39117,5.36174 0.81388,1.96823 1.22082,4.20794 1.22082,6.51552 V 184 H 397 v -36.98917 c 0,-3.05415 -0.54259,-5.90469 -1.69558,-8.55162 -0.88171,-2.98629 -2.44164,-5.15813 -4.27287,-7.19423 z"
         id="Shape-8"
         sketch:type="MSShapeGroup"
         inkscape:connector-curvature="0"
         style="fill:#00a9e0" />
      <path
         d="m 445.70846,131.81278 c -1.67639,-2.3573 -3.82216,-4.37785 -6.7726,-5.79223 C 436.11953,124.80822 432.49854,124 428.27405,124 c -1.9446,0 -4.49271,0.20206 -7.44315,0.67352 -3.01749,0.47146 -6.43731,1.48173 -9.99125,2.96347 l -1.47522,0.67351 2.14577,4.84932 1.34111,-0.67352 c 3.1516,-1.34703 6.10204,-2.28995 8.78426,-2.69406 2.81632,-0.33676 5.09621,-0.53882 6.77259,-0.53882 3.35277,0 6.10204,0.47147 8.11371,1.34704 2.01166,0.87557 3.62099,2.28995 4.82798,3.83904 1.207,1.68379 2.01167,3.83904 2.48105,6.19634 0.33528,2.02055 0.67056,4.31051 0.80467,6.66781 -6.1691,-1.21233 -11.60059,-1.95319 -16.42857,-1.95319 -7.51021,0 -13.47814,1.68379 -17.56852,4.84931 -2.81632,2.28996 -4.62682,4.84932 -5.43148,7.54338 -0.80467,2.69406 -1.207,5.11872 -1.207,7.20662 0,1.54909 0.20117,3.36758 0.80466,5.45548 0.53645,2.02055 1.54228,4.0411 2.95044,5.85959 1.34111,1.81849 3.35277,3.36758 5.76677,4.71461 2.34693,1.21233 5.43148,2.02055 9.11953,2.02055 1.81049,0 3.82216,-0.20206 5.96793,-0.67352 2.14577,-0.47146 4.29154,-1.14497 6.43732,-2.02054 2.14577,-0.87558 4.29154,-2.15526 6.16909,-3.63699 1.207,-1.01027 2.61516,-2.28996 3.68805,-3.50228 v 9.29452 H 450 v -31.65525 c 0,-3.83905 -0.20117,-7.34133 -0.80467,-10.50685 -0.80466,-3.16553 -1.9446,-6.06165 -3.48687,-8.48631 z m -1.13995,20.81165 v 4.98402 c 0,1.81849 -0.20116,3.70433 -0.53644,5.52283 -0.20117,1.81849 -1.00583,3.36758 -2.14577,4.98402 -1.207,1.81849 -2.68222,3.30022 -4.29155,4.51255 -1.67638,1.21233 -3.35277,2.28996 -5.09621,3.03083 -1.81049,0.80821 -3.48688,1.21232 -5.29737,1.68379 -1.8105,0.33675 -3.35277,0.53881 -4.9621,0.53881 -2.68222,0 -4.82799,-0.47146 -6.63849,-1.34703 -1.81049,-0.87557 -3.1516,-2.15526 -4.02332,-3.36758 -1.00583,-1.21233 -1.67639,-2.69407 -2.14577,-4.1758 -0.33528,-1.48174 -0.67056,-2.82877 -0.67056,-3.83904 0,-1.68379 0.20117,-3.50229 0.87172,-5.65754 0.53645,-1.95319 1.8105,-3.63698 3.68805,-5.18607 3.28571,-2.49201 7.97959,-3.70434 14.2828,-3.70434 5.02915,0 10.66181,0.67352 16.96501,2.02055 z"
         id="Shape-9"
         sketch:type="MSShapeGroup"
         inkscape:connector-curvature="0"
         style="fill:#00a9e0" />
      <path
         d="m 487.32584,128.12673 c -1.34831,-0.88364 -2.96629,-1.69931 -4.7191,-2.31106 C 480.78652,125.27189 479.10112,125 477.14607,125 c -3.64045,0 -6.87641,1.01959 -9.97753,2.99078 -1.34832,0.88364 -2.69663,2.03917 -3.8427,3.39862 v -5.70968 H 458 V 184 h 5.32584 v -38.13249 c 0,-2.31106 0.33708,-4.35023 1.01124,-6.18548 0.80899,-1.83526 1.68539,-3.53457 2.96629,-4.89401 1.21348,-1.35945 2.69663,-2.51498 4.38202,-3.33065 2.83146,-1.2235 6.33708,-1.49539 9.16854,-0.4758 1.21349,0.4758 2.49439,1.15553 3.64045,1.83525 l 1.68539,1.15553 1.82023,-5.1659 z"
         id="Shape-10"
         sketch:type="MSShapeGroup"
         inkscape:connector-curvature="0"
         style="fill:#00a9e0" />
      <path
         d="M 493.09804,151.95454 H 540 L 539.86405,150.25 c -0.20392,-3.88636 -1.15555,-7.56818 -2.31111,-10.77273 -1.22353,-3.20454 -2.99085,-5.93182 -5.16601,-8.25 -2.17516,-2.31818 -4.75817,-4.09091 -7.61307,-5.38636 C 521.91895,124.54546 518.52026,124 514.98562,124 c -3.87451,0 -7.61307,0.81818 -10.94379,2.31818 -3.33072,1.5 -6.18562,3.54546 -8.56471,6.27273 -2.31111,2.65909 -4.21438,5.86363 -5.50588,9.61363 -1.22353,3.68182 -1.97124,7.63637 -1.97124,12 0,4.36364 0.67974,8.38637 1.97124,11.93182 1.22353,3.68182 3.19477,6.88637 5.50588,9.47728 2.31111,2.65909 5.23399,4.77272 8.56471,6.20454 3.33072,1.43182 6.93333,2.18182 10.94379,2.18182 4.4183,0 8.42876,-0.68182 12.09935,-2.04546 3.73856,-1.22727 6.93333,-3.3409 9.58431,-5.86363 l 1.15556,-1.02273 -3.33072,-3.88636 -1.22353,1.02272 c -2.31111,1.97728 -4.89412,3.54546 -8.08889,4.77273 -3.05882,1.15909 -6.52549,1.70455 -10.26405,1.70455 -3.19477,0 -6.18562,-0.54546 -8.76863,-1.84091 -2.58301,-1.29546 -4.89412,-2.86364 -6.86536,-4.90909 -1.83529,-2.18182 -3.39869,-4.70455 -4.4183,-7.63637 -1.01961,-3 -1.5634,-6.40909 -1.5634,-10.09091 v -1.8409 c -0.20392,-0.20455 -0.20392,-0.27273 -0.20392,-0.4091 z m 0.74771,-5.18181 c 0.47582,-2.31819 1.22353,-4.36364 2.31111,-6.20455 1.22353,-2.31818 2.71896,-4.43182 4.55425,-6.06818 1.83529,-1.70455 4.01046,-3 6.38954,-3.88636 2.31111,-0.88637 5.03007,-1.36364 7.88497,-1.36364 3.19477,0 5.91373,0.54545 8.22484,1.56818 2.31111,1.02273 4.21438,2.38636 5.84575,4.22727 1.5634,1.84091 2.8549,3.88637 3.73856,6.06819 0.81569,1.8409 1.22353,3.75 1.69935,5.72727 h -40.5804 v -0.0682 z"
         id="Shape-11"
         sketch:type="MSShapeGroup"
         inkscape:connector-curvature="0"
         style="fill:#00a9e0" />
      <path
         d="m 583.66327,161.39567 c -1.01875,-1.95097 -2.30916,-3.49829 -3.87124,-4.70924 -1.56208,-1.21095 -3.39583,-2.15279 -5.36541,-2.82554 -1.83375,-0.67275 -3.87124,-1.21095 -5.70499,-1.81642 l -3.53166,-1.00912 c -1.35833,-0.33638 -2.8525,-0.8073 -4.34666,-1.21095 -1.2225,-0.47092 -2.64875,-1.14367 -3.73541,-1.81642 -1.01875,-0.8073 -1.96958,-1.81642 -2.64875,-3.02736 -0.67917,-1.21095 -1.01875,-2.9601 -1.01875,-4.97834 0,-1.68187 0.33958,-3.16192 1.15458,-4.37286 0.815,-1.21095 1.83375,-2.28735 2.98833,-3.02737 1.2225,-0.8073 2.71667,-1.48004 4.34666,-1.81642 1.56208,-0.47092 3.32791,-0.67275 4.89,-0.67275 2.85249,0 5.50124,0.33638 7.53873,1.14368 2.17333,0.80729 4.34666,1.81642 6.38416,3.36374 l 1.2225,0.87457 2.98833,-4.03649 -1.15458,-0.87457 c -2.51292,-2.01825 -5.16166,-3.36374 -7.94624,-4.37286 C 573.13621,125.33637 570.01204,125 566.75205,125 c -2.17333,0 -4.41458,0.20182 -6.51999,0.8073 -2.0375,0.5382 -4.21083,1.48004 -5.90874,2.82554 -1.83375,1.21095 -3.32791,2.82554 -4.41458,4.70923 -1.15458,1.95097 -1.69791,4.30559 -1.69791,6.86203 0,3.02737 0.54333,5.51654 1.69791,7.46751 1.15458,1.81642 2.37708,3.36374 4.00708,4.64196 1.56208,1.14367 3.32791,2.01824 5.16166,2.62372 1.69791,0.53819 3.39582,1.00912 4.75416,1.34549 l 3.53166,1.00912 c 1.83374,0.47093 3.53166,1.00913 5.16166,1.54732 1.49416,0.5382 2.85249,1.21095 4.00707,2.01825 1.01875,0.8073 1.96958,1.81642 2.51292,3.02736 0.67916,1.21095 0.88291,2.9601 0.88291,4.97834 0,1.81642 -0.33958,3.36374 -1.2225,4.50741 -0.815,1.21095 -1.83374,2.28734 -3.19208,3.02737 -1.22249,0.80729 -2.85249,1.34549 -4.5504,1.81642 -4.89,1.14367 -10.11957,0.67274 -14.60207,-1.21095 -2.85249,-1.21095 -5.50124,-2.96009 -7.74248,-5.18016 l -1.2225,-1.14367 -3.39583,3.96921 1.01875,1.00912 c 2.85249,2.691 5.90874,4.70924 9.4404,6.18929 3.53166,1.34549 7.26707,2.15279 11.13832,2.15279 2.17333,0 4.41457,-0.20182 6.5879,-0.8073 2.30917,-0.47092 4.41458,-1.34549 6.24833,-2.48917 1.83374,-1.21094 3.39582,-2.69099 4.68624,-4.64196 1.2225,-1.95097 1.83375,-4.37286 1.83375,-7.1984 0.20375,-3.02737 -0.27167,-5.51653 -1.29042,-7.4675 z"
         id="Shape-12"
         sketch:type="MSShapeGroup"
         inkscape:connector-curvature="0"
         style="fill:#00a9e0" />
      <path
         d="M 84,145.41168 45,107 v 46 H 80.670732 C 81.28223,150.24671 82.437282,147.62774 84,145.41168 Z"
         id="Shape-13"
         sketch:type="MSShapeGroup"
         inkscape:connector-curvature="0"
         style="fill:#00a9e0" />
      <path
         d="M 80.931818,161 H 45 c 0.818182,12.58763 5.863636,23.95051 13.704546,33 L 84,168.7567 C 82.568182,166.37526 81.409091,163.78969 80.931818,161 Z"
         id="Shape-14"
         sketch:type="MSShapeGroup"
         inkscape:connector-curvature="0"
         style="fill:#00a9e0" />
      <path
         d="M 137,115.70454 C 128.0866,107.93182 116.65567,102.88636 104,102 v 35.79545 c 2.85773,0.54546 5.37526,1.56819 7.55258,3.20455 z"
         id="Shape-15"
         sketch:type="MSShapeGroup"
         inkscape:connector-curvature="0"
         style="fill:#00a9e0" />
      <path
         d="M 117,167.97694 141.95422,193 C 149.38028,184.21174 154.06338,173.20964 155,161 h -35.12324 c -0.66901,2.61635 -1.53873,4.89727 -2.87676,6.97694 z"
         id="Shape-16"
         sketch:type="MSShapeGroup"
         inkscape:connector-curvature="0"
         style="fill:#00a9e0" />
      <path
         d="M 120.20454,153 H 156 c -0.81818,-12.58763 -5.86364,-23.95052 -13.70455,-33 L 117,145.2433 c 1.5,2.38144 2.59091,5.03505 3.20454,7.7567 z"
         id="Shape-17"
         sketch:type="MSShapeGroup"
         inkscape:connector-curvature="0"
         style="fill:#00a9e0" />
      <path
         d="M 64,199.29545 C 72.913402,207.06818 84.34433,212.11364 97,213 V 177.20454 C 94.142268,176.65909 91.624742,175.63636 89.447423,174 Z"
         id="Shape-18"
         sketch:type="MSShapeGroup"
         inkscape:connector-curvature="0"
         style="fill:#00a9e0" />
      <path
         d="M 105,177.20454 V 213 c 12.65567,-0.81818 24.0866,-5.93182 33,-13.70455 L 112.82474,174 c -2.44948,1.63636 -5.03505,2.65909 -7.82474,3.20454 z"
         id="Shape-19"
         sketch:type="MSShapeGroup"
         inkscape:connector-curvature="0"
         style="fill:#00a9e0" />
      <path
         d="M 45.136126,95.26439 C 54.732984,104.80708 84.884817,134.9241 89.921466,140 92.099476,138.78178 94.34555,137.69892 97,137.15749 V 78.886148 L 45,33 c 0,0.06768 0.136126,60.843137 0.136126,62.26439 z"
         id="Shape-20"
         sketch:type="MSShapeGroup"
         inkscape:connector-curvature="0"
         style="fill:#00a9e0" />
    </g>
  </g>
</svg>
