<svg xmlns="http://www.w3.org/2000/svg" width="562" height="180"><g fill="none" fill-rule="evenodd"><path d="M549.414 93.874H547V93h6v.874h-2.552V101h-1.034zM561.304 97.562c-.139-1.124-.139-2.446-.139-3.306-.208.86-.695 1.918-1.043 2.975L558.73 101h-.834l-1.253-3.769c-.347-1.124-.695-2.115-.904-3.107 0 .992-.139 2.248-.209 3.438l-.208 3.306H554l.557-7.868h1.252l1.391 3.769c.348.991.557 1.785.835 2.644.208-.793.487-1.653.835-2.644L560.26 93h1.253l.487 7.868h-1.043zM211 78.54V68l9 7.323V86zM201.498 99.462c-2.365-2.628-5.339-4.716-8.516-6.199-3.311-1.482-6.893-2.291-10.88-2.291-5.813 0-11.017 1.55-15.342 4.717a23.567 23.567 0 0 0-6.556 6.873V56H155v93.394h5.136V138.41c1.825 2.695 3.988 4.986 6.556 6.873 4.393 3.167 9.53 4.717 15.342 4.717 3.852 0 7.57-.809 10.88-2.291 3.313-1.482 6.151-3.504 8.517-6.132 2.365-2.628 4.325-5.795 5.541-9.299 1.217-3.504 2.028-7.48 2.028-11.792 0-4.178-.676-8.153-2.028-11.792-1.148-3.37-3.04-6.536-5.474-9.232zm2.5 21.226c0 3.639-.54 6.873-1.554 9.973-1.013 2.965-2.635 5.525-4.393 7.547-1.96 2.156-4.325 3.706-6.893 4.851a22.76 22.76 0 0 1-8.989 1.82c-3.312 0-6.218-.54-8.989-1.82-2.703-1.145-5.001-2.83-6.893-4.851-1.96-2.156-3.38-4.65-4.529-7.547-1.013-2.965-1.554-6.334-1.554-9.973 0-3.639.54-6.873 1.554-9.973 1.014-2.964 2.636-5.525 4.529-7.681a20.746 20.746 0 0 1 6.893-4.987c2.704-1.213 5.677-1.819 8.854-1.819 3.176 0 6.218.539 8.853 1.82 2.704 1.212 5.002 2.83 6.894 4.986 1.96 2.156 3.38 4.717 4.528 7.681 1.15 3.1 1.69 6.334 1.69 9.973zM216 92h5v59h-5zM252.695 143.964c-1.504 1.353-3.212 2.03-5.262 2.03-2.05 0-3.759-.677-5.057-2.165-1.23-1.488-2.05-3.382-2.05-5.818V97.624h15.239v-5.209h-15.24V73h-5.193v19.415H227v5.142h8.132v40.387c0 3.72 1.162 6.9 3.417 9.335 2.323 2.503 5.262 3.721 8.815 3.721 1.709 0 3.349-.203 4.716-.88 1.366-.54 2.665-1.217 3.758-2.3l1.162-.879-3.007-4.397zM295.968 123.723c-1.563-1.213-3.4-2.156-5.371-2.83-1.836-.673-3.876-1.211-5.711-1.818l-3.536-1.01c-1.36-.337-2.856-.808-4.352-1.212-1.224-.472-2.651-1.145-3.74-1.819-1.02-.808-1.971-1.818-2.651-3.03-.68-1.213-1.02-2.964-1.02-4.985 0-1.683.34-3.165 1.156-4.377.816-1.213 1.836-2.29 2.856-3.031a12.617 12.617 0 0 1 4.351-1.819c1.564-.471 3.332-.673 4.896-.673 2.855 0 5.507.336 7.547 1.145 2.176.808 4.352 1.818 6.391 3.367l1.224.876L301 98.466l-1.156-.876c-2.516-2.02-5.167-3.367-7.955-4.378-2.72-.875-5.848-1.212-9.111-1.212-2.176 0-4.42.202-6.528.808-2.175.539-4.215 1.482-5.915 2.829a14.022 14.022 0 0 0-4.42 4.715c-1.087 1.885-1.7 4.31-1.7 6.87 0 3.03.545 5.522 1.7 7.475 1.156 1.819 2.38 3.368 4.012 4.648 1.564 1.145 3.332 2.02 5.168 2.626 1.7.54 3.4 1.01 4.76 1.347l3.535 1.01c1.836.472 3.535 1.011 5.167 1.55 1.496.539 2.856 1.212 4.012 2.02 1.02.809 1.972 1.819 2.516 3.031.68 1.213.883 2.964.883 4.984 0 1.819-.34 3.368-1.223 4.513-.816 1.212-1.836 2.29-3.196 3.03-1.224.809-2.856 1.348-4.556 1.82-1.835.336-3.535.538-5.371.538-3.332 0-6.391-.674-9.247-1.819s-5.508-2.963-7.751-5.186l-1.224-1.145-3.4 3.974 1.02 1.01c2.856 2.694 5.915 4.715 9.451 6.197 3.536 1.347 7.275 2.155 11.15 2.155 2.177 0 4.42-.202 6.596-.808a18.99 18.99 0 0 0 6.256-2.492c1.835-1.213 3.4-2.694 4.691-4.647 1.292-1.954 1.836-4.378 1.836-7.207 0-2.964-.476-5.456-1.496-7.341-.68-1.954-1.972-3.57-3.536-4.782zM346.032 98.265c-1.967-1.968-4.206-3.394-6.918-4.547-2.646-1.154-5.494-1.697-8.546-1.697-4.205 0-8.071 1.154-11.53 3.326-1.831 1.221-3.527 2.647-4.883 4.343V57H309v94h5.155v-36.99c0-2.307.474-4.546 1.22-6.515.814-2.036 1.967-3.868 3.392-5.361 1.492-1.494 3.187-2.715 5.222-3.53 1.967-.814 4.205-1.221 6.511-1.221s4.409.475 6.375 1.221a15.173 15.173 0 0 1 5.155 3.53c1.492 1.493 2.645 3.325 3.391 5.361.814 1.969 1.221 4.208 1.221 6.516V151H352v-36.99c0-3.053-.543-5.904-1.696-8.55-.881-2.987-2.441-5.159-4.272-7.195zM400.708 98.813c-1.676-2.358-3.822-4.378-6.772-5.792C391.12 91.808 387.499 91 383.274 91c-1.945 0-4.493.202-7.443.674-3.018.471-6.437 1.481-9.991 2.963l-1.476.673 2.146 4.85 1.341-.674c3.152-1.347 6.102-2.29 8.785-2.694 2.816-.337 5.096-.539 6.772-.539 3.353 0 6.102.472 8.114 1.347 2.012.876 3.62 2.29 4.828 3.84 1.207 1.683 2.012 3.839 2.48 6.196.336 2.02.671 4.31.806 6.668-6.17-1.213-11.601-1.954-16.429-1.954-7.51 0-13.478 1.684-17.569 4.85-2.816 2.29-4.626 4.85-5.431 7.543-.805 2.694-1.207 5.119-1.207 7.207 0 1.549.201 3.367.805 5.455.536 2.02 1.542 4.041 2.95 5.86 1.341 1.818 3.353 3.367 5.767 4.714 2.347 1.213 5.431 2.021 9.12 2.021 1.81 0 3.822-.202 5.967-.674a39.42 39.42 0 0 0 6.438-2.02c2.145-.876 4.291-2.155 6.169-3.637 1.207-1.01 2.615-2.29 3.688-3.502v9.294H405v-31.655c0-3.84-.201-7.341-.805-10.507-.804-3.165-1.944-6.062-3.487-8.486zm-1.14 20.811v4.984c0 1.819-.2 3.705-.536 5.523-.201 1.819-1.006 3.368-2.146 4.984-1.207 1.819-2.682 3.3-4.291 4.513-1.677 1.212-3.353 2.29-5.096 3.03-1.811.809-3.487 1.213-5.298 1.684-1.81.337-3.353.54-4.962.54-2.682 0-4.828-.472-6.638-1.348a10.768 10.768 0 0 1-4.024-3.367c-1.006-1.213-1.676-2.694-2.146-4.176-.335-1.482-.67-2.829-.67-3.84 0-1.683.201-3.501.872-5.657.536-1.953 1.81-3.637 3.688-5.186 3.285-2.492 7.98-3.704 14.282-3.704 5.03 0 10.662.673 16.966 2.02zM442.326 95.127a21.858 21.858 0 0 0-4.72-2.311c-1.82-.544-3.505-.816-5.46-.816-3.64 0-6.876 1.02-9.977 2.99a17.97 17.97 0 0 0-3.843 3.4v-5.71H413V151h5.326v-38.132c0-2.312.337-4.35 1.011-6.186.81-1.835 1.685-3.535 2.966-4.894a14.19 14.19 0 0 1 4.382-3.33c2.832-1.224 6.337-1.496 9.169-.476 1.213.475 2.494 1.155 3.64 1.835l1.686 1.155 1.82-5.166zM448.098 118.955H495l-.136-1.705c-.204-3.886-1.155-7.568-2.311-10.773a24.964 24.964 0 0 0-5.166-8.25c-2.175-2.318-4.758-4.09-7.613-5.386-2.855-1.296-6.254-1.841-9.788-1.841-3.875 0-7.613.818-10.944 2.318-3.33 1.5-6.186 3.546-8.565 6.273-2.311 2.659-4.214 5.864-5.506 9.614-1.223 3.681-1.971 7.636-1.971 12 0 4.363.68 8.386 1.971 11.931a27.164 27.164 0 0 0 5.506 9.478c2.311 2.659 5.234 4.772 8.565 6.204 3.33 1.432 6.933 2.182 10.944 2.182 4.418 0 8.428-.682 12.099-2.045 3.739-1.228 6.933-3.341 9.584-5.864l1.156-1.023-3.33-3.886-1.224 1.023c-2.312 1.977-4.895 3.545-8.09 4.772-3.058 1.16-6.525 1.705-10.263 1.705-3.195 0-6.186-.546-8.769-1.841-2.583-1.296-4.894-2.864-6.865-4.91-1.836-2.181-3.399-4.704-4.419-7.636-1.02-3-1.563-6.409-1.563-10.09v-1.841c-.204-.205-.204-.273-.204-.41zm.748-5.182c.476-2.318 1.223-4.364 2.31-6.205 1.224-2.318 2.72-4.432 4.555-6.068 1.835-1.705 4.01-3 6.39-3.886 2.31-.887 5.03-1.364 7.885-1.364 3.194 0 5.913.545 8.224 1.568 2.312 1.023 4.215 2.387 5.846 4.227 1.564 1.841 2.855 3.887 3.739 6.069.815 1.84 1.223 3.75 1.7 5.727h-40.581v-.068zM538.663 128.396c-1.018-1.951-2.309-3.499-3.871-4.71-1.562-1.21-3.396-2.152-5.365-2.825-1.834-.673-3.872-1.211-5.705-1.817l-3.532-1.009c-1.358-.336-2.853-.807-4.347-1.21-1.222-.472-2.648-1.144-3.735-1.817-1.019-.807-1.97-1.816-2.649-3.027s-1.019-2.96-1.019-4.979c0-1.682.34-3.162 1.155-4.373.815-1.21 1.834-2.287 2.988-3.027a12.603 12.603 0 0 1 4.347-1.816c1.562-.471 3.328-.673 4.89-.673 2.852 0 5.501.336 7.539 1.144 2.173.807 4.346 1.816 6.384 3.363l1.222.875 2.989-4.037-1.155-.874c-2.513-2.018-5.162-3.364-7.946-4.373-2.717-.875-5.841-1.211-9.101-1.211-2.173 0-4.415.202-6.52.807-2.037.538-4.21 1.48-5.909 2.826a14.006 14.006 0 0 0-4.414 4.71c-1.155 1.95-1.698 4.305-1.698 6.861 0 3.027.543 5.517 1.698 7.468 1.154 1.816 2.377 3.363 4.007 4.642 1.562 1.143 3.328 2.018 5.161 2.623a79.748 79.748 0 0 0 4.755 1.346l3.531 1.009c1.834.47 3.532 1.009 5.162 1.547 1.494.538 2.852 1.211 4.007 2.018 1.019.808 1.97 1.817 2.513 3.028.68 1.21.883 2.96.883 4.978 0 1.817-.34 3.364-1.223 4.508-.815 1.21-1.833 2.287-3.192 3.027-1.222.807-2.852 1.345-4.55 1.816-4.89 1.144-10.12.673-14.602-1.21a24.764 24.764 0 0 1-7.743-5.18l-1.222-1.144-3.396 3.969 1.019 1.009c2.852 2.69 5.908 4.71 9.44 6.19 3.532 1.345 7.267 2.152 11.138 2.152 2.174 0 4.415-.202 6.588-.807a18.969 18.969 0 0 0 6.249-2.49c1.833-1.21 3.396-2.69 4.686-4.641 1.222-1.951 1.834-4.373 1.834-7.199.203-3.027-.272-5.516-1.29-7.467zM39 112.412L0 74v46h35.67c.612-2.753 1.767-5.372 3.33-7.588zM35.932 128H0c.818 12.588 5.864 23.95 13.705 33L39 135.757c-1.432-2.382-2.59-4.967-3.068-7.757zM92 82.705C83.087 74.932 71.656 69.886 59 69v35.795c2.858.546 5.375 1.569 7.553 3.205zM72 134.977L96.954 160c7.426-8.788 12.11-19.79 13.046-32H74.877c-.67 2.616-1.539 4.897-2.877 6.977zM75.205 120H111c-.818-12.588-5.864-23.95-13.705-33L72 112.243A24.915 24.915 0 0 1 75.205 120zM19 166.295c8.913 7.773 20.344 12.819 33 13.705v-35.795c-2.858-.546-5.375-1.569-7.553-3.205zM60 144.205V180c12.656-.818 24.087-5.932 33-13.705L67.825 141c-2.45 1.636-5.035 2.66-7.825 3.205zM.136 62.264c9.597 9.543 39.749 39.66 44.785 44.736 2.178-1.218 4.425-2.301 7.079-2.843v-58.27L0 0c0 .068.136 60.843.136 62.264z" fill="#00a9e0"/></g></svg>