<svg xmlns="http://www.w3.org/2000/svg" width="51" height="45.61" viewBox="0 0 13.494 12.068"><path d="M12.683 10.227a.664.664 0 0 0-.439.162l-1.198-1.036.921-2.85H12a.463.463 0 0 0 .463-.472.467.467 0 0 0-.463-.468h-.033l-.807-2.49a.447.447 0 0 0 .158-.163.459.459 0 0 0-.076-.563.458.458 0 0 0-.497-.11.368.368 0 0 0-.138.086L8.477.782 8.508.7C8.51.674 8.51.64 8.51.605A.459.459 0 0 0 8.372.27a.457.457 0 0 0-.325-.139.551.551 0 0 0-.296.1.4.4 0 0 0-.162.258H5.007a.489.489 0 0 0-.163-.253.449.449 0 0 0-.286-.105.446.446 0 0 0-.334.139.454.454 0 0 0-.128.43c.007.029.013.055.022.08L1.99 2.324a.582.582 0 0 0-.134-.085.734.734 0 0 0-.167-.03.445.445 0 0 0-.334.139.454.454 0 0 0-.139.334c0 .089.02.166.062.229a.39.39 0 0 0 .158.162h.009L.638 5.55H.604a.445.445 0 0 0-.333.139.454.454 0 0 0-.139.334c0 .133.046.246.139.334.088.093.2.138.334.138h.024l.816 2.502a.43.43 0 0 0-.167.162.425.425 0 0 0-.062.23c0 .133.045.245.138.333.089.093.2.139.334.139a.49.49 0 0 0 .3-.106l2.13 1.532c-.01.03-.016.06-.023.086a.445.445 0 0 0 .128.425c.089.092.201.138.335.138.103 0 .2-.034.286-.1a.404.404 0 0 0 .162-.258H7.59c.016.111.072.197.162.258a.463.463 0 0 0 .62-.038.448.448 0 0 0 .139-.334l-.003-.09a1.639 1.639 0 0 1-.03-.087l2.43-1.752 1.188 1.027a.52.52 0 0 0-.071.162.55.55 0 0 0-.023.186.618.618 0 0 0 .2.478c.13.132.292.2.483.2a.657.657 0 0 0 .477-.2.67.67 0 0 0 .2-.478.702.702 0 0 0-.2-.487.663.663 0 0 0-.477-.195zM10.99 3.282l.759 2.358a.392.392 0 0 0-.13.12.423.423 0 0 0-.076.157h-.391a.454.454 0 0 0-.11-.21.733.733 0 0 0-.2-.134zm-.22-.153l-.162 2.434h-.013a.05.05 0 0 0-.02.01l-.969-1.842a.41.41 0 0 0 .12-.153.553.553 0 0 0 .042-.196l-.003-.033a.056.056 0 0 1-.003-.048l.783-.334c.026.036.06.068.105.096.03.035.07.055.115.057zM8.13 5.573a.494.494 0 0 0-.081-.006c-.023 0-.045.002-.066.003a.244.244 0 0 1-.072.013L6.62 3.34a.256.256 0 0 0 .062-.077l.053-.086 2.086.263a.28.28 0 0 0 .057.167c.026.055.067.1.114.134zm1.074-1.728l.048.003c.01.007.023.01.043.003a.118.118 0 0 0 .053-.003c.016-.002.035-.01.062-.02l.969 1.848a.35.35 0 0 0-.091.11.244.244 0 0 0-.048.128H8.502l-.058-.128a.802.802 0 0 0-.095-.11zM7.714 5.697a.34.34 0 0 0-.071.1.783.783 0 0 0-.053.12H5.008a.284.284 0 0 0-.048-.12l-.076-.1 1.298-2.243.052.003c.017.007.039.01.067.003a.16.16 0 0 0 .062-.003.513.513 0 0 1 .063-.003zm-3.026-.115a.226.226 0 0 1-.067-.013.617.617 0 0 0-.062-.003c-.02 0-.036.002-.048.003-.02.007-.034.01-.043.003L3.604 3.74a.475.475 0 0 0 .172-.3l2.086-.277a.311.311 0 0 0 .053.1.153.153 0 0 0 .062.076zm-.43.096a.324.324 0 0 0-.095.1.258.258 0 0 0-.053.139H2.383c-.02-.041-.04-.083-.058-.124a.606.606 0 0 0-.095-.106l.969-1.842.052.003c.017.007.036.01.062.003a.1.1 0 0 0 .048-.003.328.328 0 0 1 .048-.003zm-1.875.473h1.713a.32.32 0 0 0 .067.138.255.255 0 0 0 .096.1l-.864 1.833H3.25c-.02.003-.037.01-.052.013l-.97-1.857a.367.367 0 0 0 .096-.105c.018-.037.039-.079.058-.124zm2.085.343l.043.003c.013.01.03.013.048.003a.117.117 0 0 0 .067-.003.284.284 0 0 0 .062-.013l1.289 2.234a.242.242 0 0 0-.062.081c-.02.036-.037.066-.053.09l-2.086-.262a.92.92 0 0 0-.057-.167.867.867 0 0 0-.114-.133zm.416-.124c.026-.026.05-.062.076-.1a.259.259 0 0 0 .048-.12H7.59a.2.2 0 0 0 .048.12.48.48 0 0 0 .076.1L6.425 8.604a.137.137 0 0 1-.057-.003.227.227 0 0 0-.133 0 .187.187 0 0 1-.063.013v-.01zm3.026.115c.026.007.048.013.067.013.016.01.035.013.062.003.016.007.038.003.057-.003a.328.328 0 0 1 .048-.003h-.013l.864 1.833a.596.596 0 0 0-.11.133.385.385 0 0 0-.048.167l-2.1.263a.236.236 0 0 1-.043-.091c-.02-.026-.04-.055-.057-.081zm.43-.096a.432.432 0 0 0 .095-.1.552.552 0 0 0 .067-.138h1.737a.686.686 0 0 0 .058.124.18.18 0 0 0 .095.095L9.4 8.237c-.02-.007-.037-.01-.052-.014H9.204zM8.35.962l2.119 1.547a.338.338 0 0 0-.02.08.333.333 0 0 0-.013.091c-.003.02-.002.033.003.039.007.013.01.026.01.043v-.013l-.787.348a.775.775 0 0 0-.158-.134.451.451 0 0 0-.21-.052h-.043c-.023.003-.04.01-.048.013h.01L8.34.977V.974c0-.007.002-.01.01-.01zm-.483.081a.188.188 0 0 0 .087.023c.026.007.053.01.086.01.013.007.03.003.047-.003a.223.223 0 0 1 .043-.003l.879 1.948a.213.213 0 0 0-.091.086.545.545 0 0 0-.062.11L6.76 2.935a.425.425 0 0 0-.091-.229zM5.008.723h2.583a.168.168 0 0 0 .033.091.355.355 0 0 0 .057.09L6.46 2.553a.49.49 0 0 1-.071-.014 1.418 1.418 0 0 0-.086-.003c-.036 0-.069.002-.096.003a.351.351 0 0 0-.081.03v-.013L4.917.908c.017-.026.038-.054.057-.086a.229.229 0 0 0 .034-.096zm-.448.354a.4.4 0 0 0 .09-.01.228.228 0 0 0 .082-.023l1.212 1.66a.27.27 0 0 0-.072.106.374.374 0 0 0-.033.124l-2.096.277-.057-.11a.936.936 0 0 0-.081-.086l.873-1.947.034.003c.013.01.03.013.048.003zM4.259.962v.01c0 .007.003.01.013.003l-.878 1.948c-.02-.007-.033-.01-.039-.014h-.043a.4.4 0 0 0-.21.053.507.507 0 0 0-.157.133l-.797-.348c.006-.002.01-.013.014-.033V2.67a6.13 6.13 0 0 0-.014-.091.326.326 0 0 1-.02-.072zm-2.2 2.005l.797.334a.106.106 0 0 0-.014.048v.048a.32.32 0 0 0 .043.18.303.303 0 0 0 .12.154l-.97 1.842h-.024L1.84 3.12a.394.394 0 0 0 .128-.067.372.372 0 0 0 .091-.086zm-.44 5.818L.851 6.427a.483.483 0 0 0 .205-.277h.415c.022.077.06.145.115.201.05.061.112.106.186.134h.01zm-.148-2.868h-.415A.385.385 0 0 0 .99 5.75a1.448 1.448 0 0 0-.129-.12l.76-2.348.162 2.3a.526.526 0 0 0-.31.335zm.368 3.03l.172-2.453h.023l.969 1.843a.42.42 0 0 0-.12.153.381.381 0 0 0-.042.195v.039c0 .013.003.026.013.042l-.797.335a.878.878 0 0 0-.096-.096c-.036-.016-.077-.038-.124-.057zm2.42 2.158L2.13 9.573a.323.323 0 0 1 .019-.081.81.81 0 0 0 .014-.096v-.043a5.176 5.176 0 0 1-.014-.048v.014l.788-.349a.461.461 0 0 0 .367.186h.048c.01 0 .023-.003.043-.013l.878 1.947-.013.013zm.472-.081a.236.236 0 0 1-.08-.023c-.036-.002-.066-.007-.091-.01-.02 0-.036.002-.048.003-.02.007-.035.01-.043.003h.01L3.605 9.05a.656.656 0 0 0 .082-.087c.016-.029.038-.068.057-.11h.01l2.086.263a.293.293 0 0 0 .033.13c.017.041.04.08.072.114l-.21.277zm2.86.32H5.008a.577.577 0 0 0-.033-.096.616.616 0 0 0-.057-.086l1.207-1.67c.026.019.053.029.081.029.027.007.06.01.096.003a.357.357 0 0 0 .09-.003c.027 0 .056-.01.091-.03h-.01l1.208 1.671a2.186 2.186 0 0 0-.057.09.263.263 0 0 0-.034.091zM8.13 11c-.02.003-.035.002-.043-.003a.494.494 0 0 0-.048-.003l-.086.01a.247.247 0 0 1-.086.023L6.655 9.366a.908.908 0 0 0 .076-.115.387.387 0 0 0 .03-.129l2.095-.262a.312.312 0 0 0 .062.105.428.428 0 0 0 .076.09l-.84 1.876zm.22.105h-.01v-.013l.022-.057.85-1.89c.002.01.016.013.038.013h.043a.49.49 0 0 0 .21-.048.39.39 0 0 0 .158-.13v-.01l1.016.44zm1.408-2.339a.077.077 0 0 1 .003-.043.161.161 0 0 0 .003-.038.503.503 0 0 0-.043-.19.808.808 0 0 0-.12-.158l.984-1.852h.016l.176 2.73zM10.84 6.47a.526.526 0 0 0 .196-.124.43.43 0 0 0 .1-.195h.406c.016.064.04.116.076.157.03.051.074.092.129.12l-.759 2.357zm0 0" fill="#2e9ad0" stroke-width=".093"/></svg>