<svg data-name="Layer 1" xmlns="http://www.w3.org/2000/svg" viewBox="0 0 873.306 251.218"><defs><linearGradient id="a" x1="83.682" y1="72.488" x2="231.177" y2="219.983" gradientUnits="userSpaceOnUse"><stop offset="0" stop-color="#00aae4"/><stop offset="1" stop-color="#006097"/></linearGradient></defs><path d="M318.31 94.85c-2.307-.769-7.177-1.282-12.048-1.282-14.613 0-30.25 11.837-30.25 26.449V189.7h-33.325V65.37h32.043v12.56c7.434-9.228 21.02-15.124 36.146-15.124a67.94 67.94 0 0 1 11.28 1.025zM355.991 0c12.05 0 21.79 9.229 21.79 21.277s-9.74 21.277-21.79 21.277-21.79-9.228-21.79-21.277S343.943 0 355.991 0zm16.663 189.7H339.33V65.37h33.325V189.7zm98.442-126.9a56.898 56.898 0 0 0-36.4 12.573V65.369h-32.051v185.849h33.328v-70.232a52.428 52.428 0 0 0 33.329 11.282c18.458 0 36.142-8.21 47.166-21.028 9.745-11.282 15.63-26.655 15.63-43.577.001-36.659-27.17-64.863-61.002-64.863zm-4.05 99.21c-20.702 0-34.308-14.285-34.308-34.239s13.606-34.239 34.308-34.239c17.67 0 31.996 15.332 31.996 34.24s-14.326 34.239-31.996 34.239zm267.318 27.69h-33.327V7.69h33.327V189.7zm135.866-19.74c-12.05 14.356-31.789 22.303-51.015 22.303-37.17 0-65.113-25.634-65.113-64.6 0-34.608 23.585-64.857 60.5-64.857 34.35 0 58.704 28.967 58.704 63.575a54.702 54.702 0 0 1-.77 9.485h-86.133c1.794 17.431 15.894 29.48 33.582 29.48 14.099 0 25.379-7.947 31.275-14.356zm-31.019-58.447c-1.026-11.023-11.022-21.79-24.61-21.79-13.843 0-25.122 10.51-26.66 21.79h51.27zM620.295 62.8a56.898 56.898 0 0 0-36.4 12.573V65.369h-32.052v185.849h33.329v-70.232a52.428 52.428 0 0 0 33.328 11.282c18.459 0 36.143-8.21 47.166-21.028 9.746-11.282 15.631-26.655 15.631-43.577 0-36.659-27.17-64.863-61.002-64.863zm-4.051 99.21c-20.701 0-34.307-14.285-34.307-34.239s13.606-34.24 34.307-34.24c17.67 0 31.997 15.333 31.997 34.24s-14.327 34.24-31.997 34.24z" fill="#434c54"/><path d="M202.332 169.701c-7.524-4.344-15.998-5.604-24.39-5.897-7.042-.246-17.548-4.758-17.548-17.568 0-9.544 7.737-17.225 17.55-17.568 8.393-.293 16.866-1.554 24.388-5.897A44.448 44.448 0 1 0 135.66 84.28c0 8.612 3.062 16.537 6.97 23.887 3.288 6.182 4.95 17.656-6.323 24.164-8.386 4.842-18.852 1.776-24.08-6.59-4.416-7.067-9.746-13.688-17.21-17.998a44.447 44.447 0 1 0 0 76.986c7.462-4.309 12.793-10.925 17.206-17.988 3.624-5.799 12.674-13.191 24.084-6.599 8.373 4.838 10.962 15.438 6.32 24.169-3.908 7.349-6.967 15.272-6.967 23.882a44.447 44.447 0 1 0 66.67-38.492z" transform="translate(-28.347 -25.298)" fill="url(#a)"/></svg>