<?xml version="1.0" encoding="UTF-8" standalone="no"?>
<!-- Generator: Adobe Illustrator 20.1.0, SVG Export Plug-In . SVG Version: 6.00 Build 0)  -->

<svg
   xmlns:dc="http://purl.org/dc/elements/1.1/"
   xmlns:cc="http://creativecommons.org/ns#"
   xmlns:rdf="http://www.w3.org/1999/02/22-rdf-syntax-ns#"
   xmlns:svg="http://www.w3.org/2000/svg"
   xmlns="http://www.w3.org/2000/svg"
   xmlns:sodipodi="http://sodipodi.sourceforge.net/DTD/sodipodi-0.dtd"
   xmlns:inkscape="http://www.inkscape.org/namespaces/inkscape"
   version="1.1"
   id="Layer_1"
   x="0px"
   y="0px"
   viewBox="0 0 1515 525"
   style="enable-background:new 0 0 1515 525;"
   xml:space="preserve"
   sodipodi:docname="golden-cash.svg"
   inkscape:version="0.92.1 r15371"><metadata
     id="metadata30"><rdf:RDF><cc:Work
         rdf:about=""><dc:format>image/svg+xml</dc:format><dc:type
           rdf:resource="http://purl.org/dc/dcmitype/StillImage" /></cc:Work></rdf:RDF></metadata><defs
     id="defs28" /><sodipodi:namedview
     pagecolor="#ffffff"
     bordercolor="#666666"
     borderopacity="1"
     objecttolerance="10"
     gridtolerance="10"
     guidetolerance="10"
     inkscape:pageopacity="0"
     inkscape:pageshadow="2"
     inkscape:window-width="1260"
     inkscape:window-height="810"
     id="namedview26"
     showgrid="false"
     inkscape:measure-start="0,0"
     inkscape:measure-end="0,0"
     inkscape:snap-global="true"
     inkscape:zoom="0.5"
     inkscape:cx="888.40207"
     inkscape:cy="313.77275"
     inkscape:window-x="416"
     inkscape:window-y="84"
     inkscape:window-maximized="0"
     inkscape:current-layer="Layer_1" /><style
     type="text/css"
     id="style2">
	.st0{fill:url(#XMLID_3_);}
</style><circle
     id="XMLID_4_"
     cx="262.5"
     cy="262.5"
     r="257" /><linearGradient
     id="XMLID_3_"
     gradientUnits="userSpaceOnUse"
     x1="403.9214"
     y1="198.9214"
     x2="121.0786"
     y2="-83.9213"
     gradientTransform="matrix(1 0 0 -1 0 320)"><stop
       offset="0"
       style="stop-color:#FFD25C"
       id="stop5" /><stop
       offset="1"
       style="stop-color:#CD8421"
       id="stop7" /></linearGradient><circle
     id="XMLID_7_"
     class="st0"
     cx="262.5"
     cy="262.5"
     r="200" /><g
     id="XMLID_2_"><path
       id="XMLID_6_"
       d="M166.2,342.2l69.8-96.8c12.7-16.6,22.7-28.6,35.3-43.6v-1h-97.4v-60.3h181.2v45.6l-66.6,92.8   c-12.2,16.1-23.6,31.6-36.2,45.1v1h106.5v60.7H166.2V342.2z" /><rect
       id="XMLID_5_"
       x="233.9"
       y="95.8"
       width="55.3"
       height="54" /><rect
       id="XMLID_8_"
       x="233.9"
       y="375.2"
       width="55.3"
       height="54" /></g><g
     id="g23"
     transform="translate(-38)"><path
       d="m 798,306.3 0.6,1.2 c 0.6,26.1 -8.1,47.8 -25.5,64 -17.4,16.8 -41.6,24.8 -71.4,24.8 -30.4,0 -55.3,-9.9 -73.9,-30.4 -19.3,-20.5 -28.6,-46.6 -28.6,-78.3 V 238 c 0,-31.7 9.3,-57.8 28,-78.3 18.7,-20.5 42.9,-31.1 73.3,-31.1 30.4,0 54.7,8.1 72.7,24.2 18,16.2 26.1,37.9 26.1,65.2 l -0.6,1.2 h -42.2 c 0,-17.4 -5,-31.1 -14.3,-41 -9.3,-9.9 -23.6,-14.9 -41.6,-14.9 -18,0 -31.7,6.8 -42.2,21.1 -10.6,14.3 -15.5,31.7 -15.5,52.8 V 287 c 0,21.1 5.6,39.1 16.2,53.4 10.6,14.3 24.8,21.1 42.9,21.1 18,0 31.7,-5 41,-14.3 9.3,-9.3 13.7,-23 13.7,-41 -0.3,0.1 41.3,0.1 41.3,0.1 z"
       id="path15"
       inkscape:connector-curvature="0" /><path
       d="M 981.9,331.8 H 880 l -20.5,60.9 H 815.4 L 911.1,133 h 41 l 94.4,259.6 h -44.1 z m -89.5,-36.7 h 77 L 931.5,183.9 h -1.2 z"
       id="path17"
       inkscape:connector-curvature="0" /><path
       d="m 1217.3,325.5 c 0,-10.6 -3.7,-19.9 -11.8,-26.7 -8.1,-6.8 -22.4,-13 -42.9,-18.6 -29.2,-7.5 -51.6,-17.4 -67.1,-30.4 -15.5,-12.4 -23.6,-29.2 -23.6,-49.1 0,-21.1 8.7,-37.9 26.1,-51.6 17.4,-13.7 39.8,-20.5 67.1,-20.5 28.6,0 51.6,7.5 68.9,23 17.4,15.5 25.5,34.2 24.8,55.3 l -0.6,1.2 h -41.6 c 0,-13 -4.3,-24.2 -13.7,-32.3 -9.4,-8.1 -21.7,-12.4 -38.5,-12.4 -15.5,0 -28,3.7 -36.6,10.6 -8.7,6.8 -13,15.5 -13,26.7 0,9.9 4.3,18 13.7,24.8 9.3,6.8 24.2,12.4 46,18.6 28,7.5 49.1,18 64,31.1 14.9,13 21.7,29.8 21.7,50.3 0,21.7 -8.7,39.1 -26.1,51.6 -17.4,13 -40.4,19.3 -68.3,19.3 -27.3,0 -50.9,-7.5 -71.4,-21.7 -20.5,-14.3 -30.4,-34.2 -29.8,-59 l 0.6,-1.2 h 41.6 c 0,15.5 5.6,27.3 16.2,35.4 11.2,8.1 25.5,11.8 42.9,11.8 16.2,0 28.6,-3.1 37.3,-9.9 9.7,-7 14.1,-15.7 14.1,-26.3 z"
       id="path19"
       inkscape:connector-curvature="0" /><path
       d="m 1509.2,392 h -43.5 V 281.4 H 1349.5 V 392 H 1306 V 132.4 h 43.5 v 114.3 h 116.2 V 132.4 h 43.5 z"
       id="path21"
       inkscape:connector-curvature="0" /></g></svg>