<svg width="800pt" height="223pt" viewBox="0 0 800 223" xmlns="http://www.w3.org/2000/svg"><g fill="#5b6a72"><path d="M47.9 35.85c17.89-15.48 41.42-24.25 65.08-24.14 22.73-.16 45.36 7.86 63 22.17 16.41 13.2 28.53 31.65 33.98 52 5.93 21.83 4.27 45.67-4.79 66.42-9.84 22.82-28.47 41.71-51.19 51.79-22.62 10.24-49.08 11.47-72.6 3.58-30.24-9.93-54.88-35.14-64.11-65.61-4.16-12.88-4.98-26.54-4.26-39.98.64 1.19 1.76 2.35 1.28 3.84-1.46 21.76 4.66 43.88 16.83 61.94 13 19.52 33.29 33.92 55.88 40.09 20.44 5.71 42.69 4.45 62.39-3.41 20.02-7.83 37.35-22.38 48.38-40.85 11.61-19.21 16.62-42.43 13.47-64.69-2.85-21.18-12.7-41.36-27.72-56.57-15.32-15.53-35.91-25.75-57.55-28.57-22.65-3.16-46.27 2.25-65.58 14.42-21.12 13.09-36.67 34.57-42.97 58.56-1.19 4.9-2.52 9.85-2.43 14.94-.51-.72-1.01-1.45-1.51-2.17 3.17-24.53 15.55-47.74 34.42-63.76z"/><path d="M151.55 36.73c4.85-.88 9.89-1.98 14.8-1.09 2.63 1.75 2.85 5.37 3.75 8.15 3.19 14.59 3.22 31.19-5.31 44.05-5.47 7.26-11.44 14.13-17.27 21.1 7.74 13.58 2.93 30.46-5.83 42.32-1.05-3.7-1.19-7.61-2.63-11.2-1.69-4.54-4.39-8.66-7.73-12.16-1.57 1.41-3.07 3.31-5.34 3.47-2.41.28-4.54-1.1-6.46-2.36-7.98-5.7-16-11.34-23.99-17.02-1.75-1.32-3.58-2.86-4.12-5.09-.62-2.15.54-4.2 1.25-6.15-8.01-3.45-16.93-3.5-25.29-1.41 7.94-12.42 22.26-22.49 37.61-20.3 4.54-7.78 8.91-15.66 13.77-23.25 7.54-10.75 20.31-16.38 32.79-19.06m-5.64 5.29c-9.67 2.99-19.28 8.21-24.83 16.97-8.68 14.21-16.75 28.78-24.87 43.32-.65 1.32-1.67 2.88-.86 4.37 1.1 1.52 2.72 2.55 4.21 3.65 7.46 5.21 14.84 10.55 22.3 15.77 1.59 1.16 4.08 2.55 5.55.44 11.15-12.62 22.06-25.47 32.66-38.56 4.01-4.85 6.36-10.88 7.42-17.04 1.77-10.62.66-21.65-2.69-31.86-6.41-.13-12.77 1.09-18.89 2.94z"/><path d="M135.4 56.62c8.28-3.17 18.25 2.75 19.65 11.45 1.95 8.58-5.21 17.8-14.05 17.85-7.86.67-15.32-5.97-15.72-13.82-.68-6.68 3.76-13.39 10.12-15.48m.83 3.66c-4.03 1.49-6.92 5.44-7.26 9.7-.65 6.25 4.71 12.27 11.01 12.29 6.82.37 12.79-6.45 11.47-13.17-.89-6.84-8.82-11.55-15.22-8.82zM74.29 153.91c.37.27 1.11.82 1.48 1.1-6.19 9.05-12.71 17.88-18.95 26.9-.89.78-1.3 2.92-2.88 2.2-1.07-1.42.94-2.52 1.44-3.72 6.38-8.77 12.47-17.76 18.91-26.48zM64.51 180.06c3.87-5.99 8.05-11.79 12.32-17.49l1.8.35c-3.87 5.99-7.98 11.87-12.37 17.49l-1.75-.35z"/></g><path fill="#dcf2f9" d="M145.91 42.02c6.12-1.85 12.48-3.07 18.89-2.94 3.35 10.21 4.46 21.24 2.69 31.86-1.06 6.16-3.41 12.19-7.42 17.04-10.6 13.09-21.51 25.94-32.66 38.56-1.47 2.11-3.96.72-5.55-.44-7.46-5.22-14.84-10.56-22.3-15.77-1.49-1.1-3.11-2.13-4.21-3.65-.81-1.49.21-3.05.86-4.37 8.12-14.54 16.19-29.11 24.87-43.32 5.55-8.76 15.16-13.98 24.83-16.97m-10.51 14.6c-6.36 2.09-10.8 8.8-10.12 15.48.4 7.85 7.86 14.49 15.72 13.82 8.84-.05 16-9.27 14.05-17.85-1.4-8.7-11.37-14.62-19.65-11.45z"/><path fill="#fefefe" d="M136.23 60.28c6.4-2.73 14.33 1.98 15.22 8.82 1.32 6.72-4.65 13.54-11.47 13.17-6.3-.02-11.66-6.04-11.01-12.29.34-4.26 3.23-8.21 7.26-9.7z"/><g fill="#0eb8e8"><path d="M270.86 67.01c10.2-1.99 21.17-1.78 30.87 2.25 6.15 2.52 11.17 7.2 14.75 12.75-4.74 3.72-9.5 7.42-14.24 11.16-3.09-4.75-7.55-8.94-13.26-10.13-5.67-1.15-12.05-1.17-17.18 1.83-4.5 2.55-5.18 9.98-.89 13.05 4.52 3.05 10.02 4.05 15.21 5.43 9.09 2.56 19.28 4.27 26.05 11.47 6.77 6.98 7.37 17.76 5.16 26.75-2.26 9.14-10.44 15.7-19.37 17.78-10.64 2.56-22.1 2.49-32.56-.86-7.6-2.38-14-7.73-18.2-14.43 4.78-3.63 9.56-7.26 14.28-10.97 3.4 4.7 7.76 9.09 13.6 10.46 6.51 1.52 13.9 1.74 19.93-1.53 5.59-3.02 5.94-12.13.45-15.43-5.21-3.31-11.49-4.17-17.3-5.98-8.34-2.39-17.45-4.55-23.56-11.17-6.31-6.7-6.75-16.95-4.27-25.38 2.74-9.15 11.45-15.27 20.53-17.05zM323.58 67.72c24.94.01 49.88.01 74.82 0-.01 5.7.04 11.4-.04 17.1-9.34-.16-18.68.01-28.01-.09-.1 24.82-.02 49.65-.05 74.47-6.2 0-12.41 0-18.62.01V84.76c-9.36.03-18.72-.06-28.08.05-.05-5.7-.01-11.4-.02-17.09zM410.6 67.72c19.75.01 39.5 0 59.26 0v16.49c-13.54-.02-27.08.03-40.62-.02-.03 6.5-.02 13-.01 19.5 11.43-.05 22.85.01 34.28-.04 0 5.53.02 11.06-.01 16.59-11.42-.06-22.84.02-34.26-.05-.03 7.32 0 14.65-.02 21.97 13.54.01 27.08.03 40.63-.01.02 5.69 0 11.37.01 17.05-19.76 0-39.51 0-59.26.01V67.72zM486.43 159.23c-.08-30.51-.03-61.01-.02-91.52 6.17.03 12.33.01 18.51.01.3 24.81.09 49.64.16 74.45 12.77-.03 25.54.05 38.3-.04.03 5.69.01 11.39.02 17.08-18.99 0-37.98-.04-56.97.02zM554.84 67.73c6.21-.02 12.42 0 18.64-.01.02 24.82-.04 49.65.03 74.47 12.77-.06 25.54.02 38.32-.04.02 5.68 0 11.37.01 17.05-19 0-38 .01-57 0V67.73zM620.6 159.21c10.14-30.48 20.15-61 30.25-91.49 8.07.01 16.15 0 24.22.01 10.08 30.5 20.17 61 30.31 91.48-6.33.01-12.65-.06-18.98.04-2.24-6.15-4.11-12.44-6.2-18.64-11.73.03-23.46-.02-35.19.03-1.92 6.2-3.95 12.37-5.91 18.56-6.17.01-12.34-.01-18.5.01m42.11-72.6c-4.27 12.52-8.23 25.15-12.41 37.69 8.19 0 16.38-.02 24.58.02-3.94-12.61-8.18-25.12-12.17-37.71zM716.9 67.73c12.35.03 24.71-.1 37.06.07 8.04.45 16.76 1.68 23.03 7.2 6.29 5.74 7.46 14.95 6.96 23.02-.37 7.17-2.74 14.7-8.4 19.44-2.93 2.63-6.69 3.96-10.38 5.09 8.34 12.1 16.24 24.5 24.48 36.66-7.14-.03-14.27.01-21.4-.02-7.72-11.57-15.52-23.07-23.26-34.63-3.15 0-6.29 0-9.43-.02-.04 11.56.04 23.13-.05 34.69-6.2-.06-12.41-.01-18.61-.04-.01-30.48 0-60.97 0-91.46m18.67 16.14c-.04 8.15-.02 16.3-.02 24.44 6.16-.13 12.34.22 18.49-.22 3.95-.32 8.6-1.72 10.18-5.76 1.3-4.05 1.37-8.56.03-12.6-1.16-3.44-4.87-4.94-8.18-5.37-6.8-.91-13.68-.31-20.5-.49z"/></g><path fill="#ed9e17" d="M95.54 111.99c7.99 5.68 16.01 11.32 23.99 17.02-4.2 6.97-10.13 13.23-17.66 16.55-4.13 1.78-9.8 2.28-13.03-1.44-3.42-3.77-3.01-9.33-2.29-14 1.45-6.65 4.59-12.95 8.99-18.13z"/></svg>