<?xml version="1.0" encoding="UTF-8" ?>
<!DOCTYPE svg PUBLIC "-//W3C//DTD SVG 1.1//EN" "http://www.w3.org/Graphics/SVG/1.1/DTD/svg11.dtd">
<svg width="800pt" height="223pt" viewBox="0 0 800 223" version="1.1" xmlns="http://www.w3.org/2000/svg">
<g id="#5b6a72fe">
<path fill="#5b6a72" opacity="1.00" d=" M 47.90 35.85 C 65.79 20.37 89.32 11.60 112.98 11.71 C 135.71 11.55 158.34 19.57 175.98 33.88 C 192.39 47.08 204.51 65.53 209.96 85.88 C 215.89 107.71 214.23 131.55 205.17 152.30 C 195.33 175.12 176.70 194.01 153.98 204.09 C 131.36 214.33 104.90 215.56 81.38 207.67 C 51.14 197.74 26.50 172.53 17.27 142.06 C 13.11 129.18 12.29 115.52 13.01 102.08 C 13.65 103.27 14.77 104.43 14.29 105.92 C 12.83 127.68 18.95 149.80 31.12 167.86 C 44.12 187.38 64.41 201.78 87.00 207.95 C 107.44 213.66 129.69 212.40 149.39 204.54 C 169.41 196.71 186.74 182.16 197.77 163.69 C 209.38 144.48 214.39 121.26 211.24 99.00 C 208.39 77.82 198.54 57.64 183.52 42.43 C 168.20 26.90 147.61 16.68 125.97 13.86 C 103.32 10.70 79.70 16.11 60.39 28.28 C 39.27 41.37 23.72 62.85 17.42 86.84 C 16.23 91.74 14.90 96.69 14.99 101.78 C 14.48 101.06 13.98 100.33 13.48 99.61 C 16.65 75.08 29.03 51.87 47.90 35.85 Z" />
<path fill="#5b6a72" opacity="1.00" d=" M 151.55 36.73 C 156.40 35.85 161.44 34.75 166.35 35.64 C 168.98 37.39 169.20 41.01 170.10 43.79 C 173.29 58.38 173.32 74.98 164.79 87.84 C 159.32 95.10 153.35 101.97 147.52 108.94 C 155.26 122.52 150.45 139.40 141.69 151.26 C 140.64 147.56 140.50 143.65 139.06 140.06 C 137.37 135.52 134.67 131.40 131.33 127.90 C 129.76 129.31 128.26 131.21 125.99 131.37 C 123.58 131.65 121.45 130.27 119.53 129.01 C 111.55 123.31 103.53 117.67 95.54 111.99 C 93.79 110.67 91.96 109.13 91.42 106.90 C 90.80 104.75 91.96 102.70 92.67 100.75 C 84.66 97.30 75.74 97.25 67.38 99.34 C 75.32 86.92 89.64 76.85 104.99 79.04 C 109.53 71.26 113.90 63.38 118.76 55.79 C 126.30 45.04 139.07 39.41 151.55 36.73 M 145.91 42.02 C 136.24 45.01 126.63 50.23 121.08 58.99 C 112.40 73.20 104.33 87.77 96.21 102.31 C 95.56 103.63 94.54 105.19 95.35 106.68 C 96.45 108.20 98.07 109.23 99.56 110.33 C 107.02 115.54 114.40 120.88 121.86 126.10 C 123.45 127.26 125.94 128.65 127.41 126.54 C 138.56 113.92 149.47 101.07 160.07 87.98 C 164.08 83.13 166.43 77.10 167.49 70.94 C 169.26 60.32 168.15 49.29 164.80 39.08 C 158.39 38.95 152.03 40.17 145.91 42.02 Z" />
<path fill="#5b6a72" opacity="1.00" d=" M 135.40 56.62 C 143.68 53.45 153.65 59.37 155.05 68.07 C 157.00 76.65 149.84 85.87 141.00 85.92 C 133.14 86.59 125.68 79.95 125.28 72.10 C 124.60 65.42 129.04 58.71 135.40 56.62 M 136.23 60.28 C 132.20 61.77 129.31 65.72 128.97 69.98 C 128.32 76.23 133.68 82.25 139.98 82.27 C 146.80 82.64 152.77 75.82 151.45 69.10 C 150.56 62.26 142.63 57.55 136.23 60.28 Z" />
<path fill="#5b6a72" opacity="1.00" d=" M 74.29 153.91 C 74.66 154.18 75.40 154.73 75.77 155.01 C 69.58 164.06 63.06 172.89 56.82 181.91 C 55.93 182.69 55.52 184.83 53.94 184.11 C 52.87 182.69 54.88 181.59 55.38 180.39 C 61.76 171.62 67.85 162.63 74.29 153.91 Z" />
<path fill="#5b6a72" opacity="1.00" d=" M 64.51 180.06 C 68.38 174.07 72.56 168.27 76.83 162.57 L 78.63 162.92 C 74.76 168.91 70.65 174.79 66.26 180.41 L 64.51 180.06 Z" />
</g>
<g id="#dcf2f9ff">
<path fill="#dcf2f9" opacity="1.00" d=" M 145.91 42.02 C 152.03 40.17 158.39 38.95 164.80 39.08 C 168.15 49.29 169.26 60.32 167.49 70.94 C 166.43 77.10 164.08 83.13 160.07 87.98 C 149.47 101.07 138.56 113.92 127.41 126.54 C 125.94 128.65 123.45 127.26 121.86 126.10 C 114.40 120.88 107.02 115.54 99.56 110.33 C 98.07 109.23 96.45 108.20 95.35 106.68 C 94.54 105.19 95.56 103.63 96.21 102.31 C 104.33 87.77 112.40 73.20 121.08 58.99 C 126.63 50.23 136.24 45.01 145.91 42.02 M 135.40 56.62 C 129.04 58.71 124.60 65.42 125.28 72.10 C 125.68 79.95 133.14 86.59 141.00 85.92 C 149.84 85.87 157.00 76.65 155.05 68.07 C 153.65 59.37 143.68 53.45 135.40 56.62 Z" />
</g>
<g id="#fefefeff">
<path fill="#fefefe" opacity="1.00" d=" M 136.23 60.28 C 142.63 57.55 150.56 62.26 151.45 69.10 C 152.77 75.82 146.80 82.64 139.98 82.27 C 133.68 82.25 128.32 76.23 128.97 69.98 C 129.31 65.72 132.20 61.77 136.23 60.28 Z" />
</g>
<g id="#0eb8e8ff">
<path fill="#0eb8e8" opacity="1.00" d=" M 270.86 67.01 C 281.06 65.02 292.03 65.23 301.73 69.26 C 307.88 71.78 312.90 76.46 316.48 82.01 C 311.74 85.73 306.98 89.43 302.24 93.17 C 299.15 88.42 294.69 84.23 288.98 83.04 C 283.31 81.89 276.93 81.87 271.80 84.87 C 267.30 87.42 266.62 94.85 270.91 97.92 C 275.43 100.97 280.93 101.97 286.12 103.35 C 295.21 105.91 305.40 107.62 312.17 114.82 C 318.94 121.80 319.54 132.58 317.33 141.57 C 315.07 150.71 306.89 157.27 297.96 159.35 C 287.32 161.91 275.86 161.84 265.40 158.49 C 257.80 156.11 251.40 150.76 247.20 144.06 C 251.98 140.43 256.76 136.80 261.48 133.09 C 264.88 137.79 269.24 142.18 275.08 143.55 C 281.59 145.07 288.98 145.29 295.01 142.02 C 300.60 139.00 300.95 129.89 295.46 126.59 C 290.25 123.28 283.97 122.42 278.16 120.61 C 269.82 118.22 260.71 116.06 254.60 109.44 C 248.29 102.74 247.85 92.49 250.33 84.06 C 253.07 74.91 261.78 68.79 270.86 67.01 Z" />
<path fill="#0eb8e8" opacity="1.00" d=" M 323.58 67.72 C 348.52 67.73 373.46 67.73 398.40 67.72 C 398.39 73.42 398.44 79.12 398.36 84.82 C 389.02 84.66 379.68 84.83 370.35 84.73 C 370.25 109.55 370.33 134.38 370.30 159.20 C 364.10 159.20 357.89 159.20 351.68 159.21 C 351.68 134.39 351.68 109.57 351.68 84.76 C 342.32 84.79 332.96 84.70 323.60 84.81 C 323.55 79.11 323.59 73.41 323.58 67.72 Z" />
<path fill="#0eb8e8" opacity="1.00" d=" M 410.60 67.72 C 430.35 67.73 450.10 67.72 469.86 67.72 C 469.86 73.22 469.86 78.72 469.86 84.21 C 456.32 84.19 442.78 84.24 429.24 84.19 C 429.21 90.69 429.22 97.19 429.23 103.69 C 440.66 103.64 452.08 103.70 463.51 103.65 C 463.51 109.18 463.53 114.71 463.50 120.24 C 452.08 120.18 440.66 120.26 429.24 120.19 C 429.21 127.51 429.24 134.84 429.22 142.16 C 442.76 142.17 456.30 142.19 469.85 142.15 C 469.87 147.84 469.85 153.52 469.86 159.20 C 450.10 159.20 430.35 159.20 410.60 159.21 C 410.60 128.71 410.60 98.21 410.60 67.72 Z" />
<path fill="#0eb8e8" opacity="1.00" d=" M 486.43 159.23 C 486.35 128.72 486.40 98.22 486.41 67.71 C 492.58 67.74 498.74 67.72 504.92 67.72 C 505.22 92.53 505.01 117.36 505.08 142.17 C 517.85 142.14 530.62 142.22 543.38 142.13 C 543.41 147.82 543.39 153.52 543.40 159.21 C 524.41 159.21 505.42 159.17 486.43 159.23 Z" />
<path fill="#0eb8e8" opacity="1.00" d=" M 554.84 67.73 C 561.05 67.71 567.26 67.73 573.48 67.72 C 573.50 92.54 573.44 117.37 573.51 142.19 C 586.28 142.13 599.05 142.21 611.83 142.15 C 611.85 147.83 611.83 153.52 611.84 159.20 C 592.84 159.20 573.84 159.21 554.84 159.20 C 554.84 128.71 554.84 98.22 554.84 67.73 Z" />
<path fill="#0eb8e8" opacity="1.00" d=" M 620.60 159.21 C 630.74 128.73 640.75 98.21 650.85 67.72 C 658.92 67.73 667.00 67.72 675.07 67.73 C 685.15 98.23 695.24 128.73 705.38 159.21 C 699.05 159.22 692.73 159.15 686.40 159.25 C 684.16 153.10 682.29 146.81 680.20 140.61 C 668.47 140.64 656.74 140.59 645.01 140.64 C 643.09 146.84 641.06 153.01 639.10 159.20 C 632.93 159.21 626.76 159.19 620.60 159.21 M 662.71 86.61 C 658.44 99.13 654.48 111.76 650.30 124.30 C 658.49 124.30 666.68 124.28 674.88 124.32 C 670.94 111.71 666.70 99.20 662.71 86.61 Z" />
<path fill="#0eb8e8" opacity="1.00" d=" M 716.90 67.73 C 729.25 67.76 741.61 67.63 753.96 67.80 C 762.00 68.25 770.72 69.48 776.99 75.00 C 783.28 80.74 784.45 89.95 783.95 98.02 C 783.58 105.19 781.21 112.72 775.55 117.46 C 772.62 120.09 768.86 121.42 765.17 122.55 C 773.51 134.65 781.41 147.05 789.65 159.21 C 782.51 159.18 775.38 159.22 768.25 159.19 C 760.53 147.62 752.73 136.12 744.99 124.56 C 741.84 124.56 738.70 124.56 735.56 124.54 C 735.52 136.10 735.60 147.67 735.51 159.23 C 729.31 159.17 723.10 159.22 716.90 159.19 C 716.89 128.71 716.90 98.22 716.90 67.73 M 735.57 83.87 C 735.53 92.02 735.55 100.17 735.55 108.31 C 741.71 108.18 747.89 108.53 754.04 108.09 C 757.99 107.77 762.64 106.37 764.22 102.33 C 765.52 98.28 765.59 93.77 764.25 89.73 C 763.09 86.29 759.38 84.79 756.07 84.36 C 749.27 83.45 742.39 84.05 735.57 83.87 Z" />
</g>
<g id="#ed9e17ff">
<path fill="#ed9e17" opacity="1.00" d=" M 95.54 111.99 C 103.53 117.67 111.55 123.31 119.53 129.01 C 115.33 135.98 109.40 142.24 101.87 145.56 C 97.74 147.34 92.07 147.84 88.84 144.12 C 85.42 140.35 85.83 134.79 86.55 130.12 C 88.00 123.47 91.14 117.17 95.54 111.99 Z" />
</g>
</svg>
