<svg version="1" xmlns="http://www.w3.org/2000/svg" width="230" height="78" viewBox="0 0 2300 780"><g fill="#d61719"><path d="M170 395C97 211 40 57 43 53c4-3 123 15 264 40l258 47 67 67 66 68-186 227C409 627 320 729 314 729c-6 1-70-150-144-334zm156 67c9-73 15-134 13-136-2-1-42-34-89-72-133-109-124-104-108-64 8 19 48 119 89 222 41 102 75 185 76 184s10-61 19-134zm157-7c64-77 114-141 113-143-3-3-198 30-204 34-5 3-31 201-32 233 0 13 2 22 4 20s56-67 119-144zm60-185l69-13-30-30c-34-34-37-33-112 33-26 23-30 30-15 26 11-2 51-10 88-16zm-112-42c34-29 58-53 53-55-33-8-298-53-304-51-8 3 169 156 182 157 3 1 34-22 69-51zM2134 450l-119-140-3 125c-2 117-4 125-22 125-19 0-20-8-20-185 0-102 2-185 4-185 3 0 58 61 123 136l118 136 3-121c2-113 4-121 22-121 19 0 20 8 20 185 0 102-1 185-3 185s-57-63-123-140zM910 440c0-113 1-120 20-120s20 7 20 120-1 120-20 120-20-7-20-120zM970 440c0-113 1-120 20-120s20 7 20 120-1 120-20 120-20-7-20-120zM1180 390V220h116c63 0 124 5 135 10 10 6 26 24 34 40 24 46 19 85-15 124l-31 35 31 60c16 33 30 63 30 66s-10 5-22 5c-18 0-31-15-58-65-33-62-37-65-72-65h-38v65c0 58-2 65-20 65s-20-7-20-84v-83l76-5c78-5 96-15 109-55 4-17-1-29-19-48-23-23-33-25-111-25h-85v150c0 143-1 150-20 150s-20-7-20-170zM1665 545c-104-37-145-164-82-255 30-45 81-70 143-70 124 0 202 131 147 247-32 69-130 106-208 78zm140-65c55-52 57-131 4-181-80-75-210-22-209 84 1 51 17 82 56 108 39 27 115 21 149-11z"/><path d="M1700 386c0-21 5-26 26-26s25 4 22 23c-2 14-11 23-25 25-19 3-23-1-23-22zM2030 490c0-63 2-70 20-70s20 7 20 70-2 70-20 70-20-7-20-70zM810 240c0-19 7-20 150-20s150 1 150 20-7 20-150 20-150-1-150-20z"/></g></svg>