<?xml version="1.0" encoding="utf-8"?>
<!-- Generator: Adobe Illustrator 22.0.1, SVG Export Plug-In . SVG Version: 6.00 Build 0)  -->
<svg version="1.1" id="Layer_1" xmlns="http://www.w3.org/2000/svg" xmlns:xlink="http://www.w3.org/1999/xlink" x="0px" y="0px"
	 viewBox="0 0 100 8" style="enable-background:new 0 0 100 8;" xml:space="preserve">
<style type="text/css">
	.st0{fill-rule:evenodd;clip-rule:evenodd;fill:#5F00AD;}
	.st1{fill:#5F00AD;}
</style>
<g>
	<path d="M95.1,6.4V3.2L97.9,7c0.3,0.4,0.6,0.6,0.9,0.6c0.5,0,0.7-0.3,0.7-1v-5c0-0.7-0.2-1.1-0.8-1.1c-0.5,0-0.8,0.4-0.8,1.1v3.2
		L95,1c-0.2-0.3-0.5-0.5-0.8-0.5c-0.5,0-0.7,0.4-0.7,1v4.8c0,0.7,0.2,1.1,0.8,1.1C94.8,7.5,95.1,7.1,95.1,6.4"/>
	<path d="M85.5,6.4V1.6c0-0.7-0.2-1.1-0.8-1.1c-0.5,0-0.8,0.4-0.8,1.1v4.8c0,0.7,0.2,1.1,0.8,1.1C85.2,7.5,85.5,7.1,85.5,6.4z"/>
	<path d="M75.8,6.3L74,1.4c-0.2-0.6-0.6-0.9-1.1-0.9c-0.6,0-0.9,0.3-1.2,1l-1.8,4.8c-0.1,0.1-0.1,0.3-0.1,0.5c0,0.4,0.3,0.7,0.7,0.7
		c0.3,0,0.6-0.2,0.7-0.7l0.2-0.7h2.5l0.2,0.6c0.2,0.5,0.4,0.8,0.8,0.8c0.4,0,0.8-0.3,0.8-0.7C75.9,6.6,75.8,6.5,75.8,6.3z M72,4.7
		l0.8-2.5l0.8,2.5H72z"/>
	<path d="M57.7,4.6h2.9v1.7c0,0.7,0.2,1.1,0.8,1.1c0.5,0,0.8-0.4,0.8-1.1V1.6c0-0.7-0.2-1.1-0.8-1.1c-0.5,0-0.8,0.4-0.8,1.1v1.6
		h-2.9V1.6c0-0.7-0.2-1.1-0.8-1.1c-0.5,0-0.8,0.4-0.8,1.1v4.8c0,0.7,0.2,1.1,0.8,1.1c0.5,0,0.8-0.4,0.8-1.1V4.6z"/>
	<path class="st0" d="M15.1,1.6v4.9c0,0.8,0.2,1,1.1,1h2.7c0.8,0,1.1-0.2,1.1-0.7s-0.4-0.7-1.1-0.7h-2.2V1.6c0-0.8-0.3-1.1-0.8-1.1
		C15.3,0.5,15.1,0.9,15.1,1.6"/>
	<g>
		<path class="st1" d="M7.5,3.4c0.1,0.4-0.2,0.9-0.7,0.9C6.4,4.4,6,4.1,5.9,3.7C5.9,3.2,5.6,2.8,5.3,2.5C5,2.3,4.5,2.1,4.1,2.1
			c-0.5,0-1,0.2-1.3,0.6l0,0l0,0C2.4,3,2.2,3.5,2.2,4c0,0.5,0.2,0.9,0.4,1.2c0.3,0.3,0.7,0.6,1.1,0.7c0.4,0.1,0.7,0.5,0.7,0.9
			C4.3,7.3,3.9,7.5,3.4,7.5C2.6,7.3,1.9,6.9,1.3,6.2C0.8,5.6,0.5,4.8,0.5,4c0-1,0.4-1.9,1-2.5l0,0c0.6-0.6,1.5-1,2.5-1
			c0.9,0,1.7,0.3,2.3,0.8C7,1.8,7.4,2.6,7.5,3.4"/>
		<path class="st1" d="M6.2,7.3c-0.3-0.3-0.3-0.8,0-1.2c0.3-0.3,0.8-0.3,1.2,0l0,0c0.3,0.3,0.3,0.8,0,1.2C7,7.6,6.5,7.6,6.2,7.3
			L6.2,7.3z"/>
	</g>
	<path class="st1" d="M33,1.1c0.4,0.3,0.4,0.8,0.2,1.1c-0.3,0.4-0.8,0.4-1.1,0.2c-0.4-0.3-0.8-0.4-1.3-0.3c-0.4,0-0.9,0.2-1.2,0.6
		C29.2,3,29,3.5,29,4l0,0h0c0,0.5,0.2,1,0.6,1.3c0.3,0.3,0.7,0.5,1.2,0.6c0.4,0,0.9-0.1,1.2-0.3c0.4-0.3,0.9-0.2,1.1,0.2
		c0.3,0.4,0.2,0.9-0.2,1.1c-0.7,0.5-1.5,0.7-2.3,0.6c-0.8-0.1-1.6-0.4-2.2-1c-0.7-0.7-1-1.6-1-2.5h0c0-0.9,0.3-1.8,1-2.5
		c0.6-0.6,1.4-1,2.2-1C31.5,0.4,32.3,0.6,33,1.1"/>
	<path d="M47.7,1.1c0.4,0.3,0.4,0.8,0.2,1.1c-0.3,0.4-0.8,0.4-1.1,0.2c-0.4-0.3-0.8-0.4-1.3-0.3c-0.4,0-0.9,0.2-1.2,0.6
		C44,3,43.8,3.5,43.8,4l0,0h0c0,0.5,0.2,1,0.6,1.3c0.3,0.3,0.7,0.5,1.2,0.6c0.4,0,0.9-0.1,1.2-0.3c0.4-0.3,0.9-0.2,1.1,0.2
		c0.3,0.4,0.2,0.9-0.2,1.1c-0.7,0.5-1.5,0.7-2.3,0.6c-0.8-0.1-1.6-0.4-2.2-1c-0.7-0.7-1-1.6-1-2.5h0c0-0.9,0.3-1.8,1-2.5
		c0.6-0.6,1.4-1,2.2-1C46.2,0.4,47,0.6,47.7,1.1"/>
</g>
</svg>
