<svg xmlns="http://www.w3.org/2000/svg" width="702" height="110.076" viewBox="0 0 185.737 29.124"><g fill="#2075bc"><path d="M185.473.265h-10.3l-3.618 11.03h-19.37L155.8.265h-10.309l-9.4 28.594h10.31l3.612-11.029h19.37l-3.612 11.03h10.305z"/><path d="M134.278 13.468c-.524-.706-1.07-1.248-1.805-1.619-.727-.37-1.613-.552-2.535-.552h-22.609l1.266-3.96h29.681l2.35-7.072h-32.917c-.922 0-1.984.186-2.908.56-1.064.361-1.975.904-2.87 1.628-.751.705-1.631 1.447-2.198 2.351-.72.904-1.248 1.971-1.61 2.895l-.896 2.705c-.21 1.074-.388 1.996-.37 2.9.163.905.362 1.79.73 2.352.518.724 1.075 1.265 1.802 1.628.724.368 1.618.705 2.532.705h22.61l-1.267 3.798h-29.68l-2.34 7.072h32.906c.922 0 1.99-.186 2.912-.56 1.067-.362 1.971-.904 2.872-1.628.745-.705 1.631-1.447 2.193-2.351.723-.905 1.252-1.972 1.609-2.896l.902-2.704c.357-1.075.382-1.994.364-2.9-.162-.905-.355-1.784-.724-2.352zM93.764 4.623c-.162-.904-.362-1.627-.884-2.19A3.691 3.691 0 0 0 91.232.82C90.509.447 89.622.265 88.7.265H62.854c-.922 0-1.99.186-2.912.56-1.067.362-1.971.904-2.876 1.628-.747.705-1.627 1.447-2.196 2.351-.716.905-1.257 1.972-1.61 2.896l-6.883 21.16h10.31L63.74 7.335h19.532l-2.153 6.313H67.376l-2.17 6.692h13.74l-2.726 8.518h10.147l7.05-21.36c.347-1.067.367-1.971.347-2.876zM48.748 4.804c-.02-.904-.358-1.646-.725-2.351-.38-.724-.927-1.266-1.807-1.628-.725-.374-1.467-.56-2.53-.56H10.763L8.413 7.337h29.825l-4.703 14.45H3.71L1.359 28.86h33.08c.905 0 1.828-.191 2.895-.56.927-.525 1.99-1.068 2.893-1.786.746-.566 1.628-1.452 2.345-2.356.568-.905 1.103-1.81 1.454-2.733L48.386 7.7c.36-.924.527-1.991.362-2.896z" stroke-width=".265"/><path d="M17.98 17.83l2.19-6.535H2.606L.265 17.83z"/></g></svg>