<?xml version="1.0" encoding="UTF-8" standalone="no"?>
<!-- Created with Inkscape (http://www.inkscape.org/) -->

<svg
   xmlns:dc="http://purl.org/dc/elements/1.1/"
   xmlns:cc="http://creativecommons.org/ns#"
   xmlns:rdf="http://www.w3.org/1999/02/22-rdf-syntax-ns#"
   xmlns:svg="http://www.w3.org/2000/svg"
   xmlns="http://www.w3.org/2000/svg"
   xmlns:sodipodi="http://sodipodi.sourceforge.net/DTD/sodipodi-0.dtd"
   xmlns:inkscape="http://www.inkscape.org/namespaces/inkscape"
   width="702"
   height="110.07601"
   viewBox="0 0 185.73749 29.12428"
   version="1.1"
   id="svg6207"
   inkscape:version="0.92.0 r15299"
   sodipodi:docname="dash.svg">
  <defs
     id="defs6201">
	
	

		
		
		
		
		
	</defs>
  <sodipodi:namedview
     id="base"
     pagecolor="#ffffff"
     bordercolor="#666666"
     borderopacity="1.0"
     inkscape:pageopacity="0.0"
     inkscape:pageshadow="2"
     inkscape:zoom="1.1457143"
     inkscape:cx="350"
     inkscape:cy="54.038003"
     inkscape:document-units="mm"
     inkscape:current-layer="layer1"
     showgrid="false"
     fit-margin-top="0"
     fit-margin-left="0"
     fit-margin-right="0"
     fit-margin-bottom="0"
     units="px"
     inkscape:window-width="1280"
     inkscape:window-height="744"
     inkscape:window-x="-4"
     inkscape:window-y="-4"
     inkscape:window-maximized="1" />
  <metadata
     id="metadata6204">
    <rdf:RDF>
      <cc:Work
         rdf:about="">
        <dc:format>image/svg+xml</dc:format>
        <dc:type
           rdf:resource="http://purl.org/dc/dcmitype/StillImage" />
        <dc:title></dc:title>
      </cc:Work>
    </rdf:RDF>
  </metadata>
  <g
     inkscape:label="Layer 1"
     inkscape:groupmode="layer"
     id="layer1"
     transform="translate(308.05059,-200.53042)">
    <g
       id="g6248"
       transform="translate(0.264585,-0.26458596)">
      <polygon
         transform="matrix(0.26458333,0,0,0.26458333,-347.73809,149.27931)"
         style="fill:#2075bc"
         id="H_1_"
         points="850,195.706 811.07,195.706 797.398,237.396 724.185,237.396 737.856,195.706 698.892,195.706 663.361,303.78 702.332,303.78 715.981,262.094 789.195,262.094 775.541,303.78 814.488,303.78 " />
      <path
         style="fill:#2075bc;stroke-width:0.26458332"
         inkscape:connector-curvature="0"
         id="S_1_"
         d="m -174.03675,214.26309 c -0.52414,-0.70564 -1.07104,-1.24857 -1.80525,-1.61898 -0.72682,-0.37042 -1.6129,-0.55166 -2.53551,-0.55166 h -22.60838 l 1.26603,-3.96108 h 29.6807 l 2.34923,-7.07178 h -32.91602 c -0.9226,0 -1.98437,0.18653 -2.9083,0.56012 -1.06362,0.36169 -1.97511,0.90435 -2.87073,1.62798 -0.75062,0.70538 -1.63036,1.44701 -2.19762,2.35136 -0.71914,0.90434 -1.24778,1.97141 -1.60946,2.89533 l -0.89562,2.70457 c -0.21087,1.07448 -0.38894,1.99576 -0.37042,2.90063 0.16246,0.90435 0.36169,1.78991 0.73078,2.35135 0.517,0.72364 1.07395,1.26524 1.80155,1.62798 0.72337,0.3683 1.61713,0.70538 2.53206,0.70538 h 22.60891 l -1.26656,3.7981 h -29.68069 l -2.33918,7.07178 h 32.9057 c 0.9226,0 1.98966,-0.18574 2.91253,-0.56012 1.06654,-0.36169 1.97088,-0.90435 2.87152,-1.62798 0.7456,-0.70538 1.63169,-1.44701 2.19287,-2.35136 0.72311,-0.90434 1.25227,-1.97141 1.6092,-2.8956 l 0.90196,-2.7043 c 0.35772,-1.07448 0.38232,-1.99417 0.36407,-2.90063 -0.16219,-0.90408 -0.35481,-1.78303 -0.72337,-2.35109 z" />
      <path
         style="fill:#2075bc;stroke-width:0.26458332"
         inkscape:connector-curvature="0"
         id="A_1_"
         d="m -214.55108,205.41834 c -0.16245,-0.90435 -0.36168,-1.62772 -0.8837,-2.1897 -0.37333,-0.71358 -0.92499,-1.24671 -1.64836,-1.61342 -0.72337,-0.37307 -1.60946,-0.55536 -2.53206,-0.55536 h -25.84582 c -0.9226,0 -1.98967,0.18653 -2.91227,0.56012 -1.0668,0.36168 -1.97115,0.90434 -2.87549,1.62798 -0.74692,0.70538 -1.62772,1.44701 -2.19631,2.35135 -0.71596,0.90435 -1.2573,1.97141 -1.60946,2.89534 l -6.88393,21.15978 h 10.30949 l 7.05379,-21.52306 h 19.53207 l -2.15318,6.31217 h -13.74325 l -2.17038,6.69237 h 13.73982 l -2.72521,8.51826 h 10.14703 l 7.05089,-21.36008 c 0.34633,-1.06706 0.36644,-1.97141 0.34633,-2.87575 z" />
      <path
         style="fill:#2075bc;stroke-width:0.26458332"
         inkscape:connector-curvature="0"
         id="D_4_"
         d="m -259.56755,205.59931 c -0.0196,-0.90434 -0.35771,-1.64597 -0.72469,-2.35135 -0.38021,-0.72364 -0.92737,-1.2663 -1.80658,-1.62798 -0.72548,-0.37359 -1.46738,-0.56012 -2.531,-0.56012 h -32.92105 l -2.35135,7.07178 h 29.82489 l -4.70297,14.45128 h -2.17011 -17.33947 -10.31451 l -2.35135,7.07178 h 33.08032 c 0.90435,0 1.82695,-0.19103 2.89401,-0.56012 0.92684,-0.52467 1.98967,-1.0676 2.89349,-1.78541 0.74559,-0.56621 1.62824,-1.4523 2.34473,-2.35665 0.5678,-0.90434 1.10252,-1.80975 1.45389,-2.73288 l 4.35927,-13.72446 c 0.36116,-0.92446 0.52811,-1.99152 0.36248,-2.89587 z" />
      <polygon
         transform="matrix(0.26458333,0,0,0.26458333,-347.73809,149.27931)"
         style="fill:#2075bc"
         id="_x2D__4_"
         points="216.956,262.094 225.23,237.396 158.852,237.396 150,262.094 " />
    </g>
  </g>
</svg>
