<!DOCTYPE svg PUBLIC "-//W3C//DTD SVG 20010904//EN" "http://www.w3.org/TR/2001/REC-SVG-20010904/DTD/svg10.dtd">
<svg version="1.0" xmlns="http://www.w3.org/2000/svg" width="1600px" height="537px" viewBox="0 0 16000 5370" preserveAspectRatio="xMidYMid meet">
<g id="layer101" fill="#000000" stroke="none">
 <path d="M3049 5331 c-231 -166 -125 -516 156 -516 166 0 285 119 285 284 0 65 -2 73 -53 166 -9 16 -42 46 -73 67 -56 38 -56 38 -158 38 l-103 0 -54 -39z"/>
 <path d="M2045 5270 c-56 -31 -98 -73 -125 -127 -32 -65 -25 -165 16 -225 78 -113 224 -150 325 -83 21 14 43 25 49 25 6 0 18 16 27 35 9 19 20 35 24 35 4 0 13 23 19 51 26 108 -11 208 -101 269 -45 30 -61 35 -123 38 -58 3 -78 -1 -111 -18z"/>
 <path d="M4338 5187 c-141 -53 -217 -153 -226 -299 -3 -58 0 -89 14 -127 10 -28 22 -51 26 -51 4 0 8 -7 8 -16 0 -18 81 -98 120 -118 95 -49 267 -40 343 18 23 17 60 54 82 82 36 43 44 62 54 126 27 165 -38 301 -174 364 -71 34 -186 43 -247 21z"/>
 <path d="M2512 4874 c-63 -31 -95 -70 -117 -147 -22 -75 -4 -181 37 -225 111 -120 263 -123 374 -9 34 36 43 53 52 106 22 126 -20 221 -120 272 -76 38 -150 39 -226 3z"/>
 <path d="M3547 4784 c-58 -21 -98 -57 -137 -120 -32 -54 -35 -64 -35 -139 0 -66 5 -90 24 -127 68 -133 223 -192 363 -137 61 24 108 65 146 129 23 39 26 56 27 130 0 81 -2 89 -35 144 -40 65 -79 99 -141 121 -53 18 -160 18 -212 -1z"/>
 <path d="M1663 4765 c-85 -37 -140 -134 -127 -222 16 -108 121 -191 227 -180 170 17 255 216 148 344 -42 50 -91 73 -155 73 -34 -1 -76 -7 -93 -15z"/>
 <path d="M2150 4377 c-64 -31 -89 -54 -109 -99 -73 -168 56 -337 233 -304 54 10 129 75 144 124 18 60 15 134 -7 185 -27 62 -104 107 -182 107 -30 -1 -65 -6 -79 -13z"/>
 <path d="M2961 4299 c-105 -52 -148 -152 -121 -279 15 -71 57 -123 129 -160 70 -35 202 -22 241 24 7 9 18 16 24 16 32 1 76 107 76 184 0 80 -25 141 -74 181 -88 72 -177 83 -275 34z"/>
 <path d="M1436 4270 c-57 -17 -116 -108 -116 -178 0 -41 40 -109 80 -137 76 -53 165 -44 239 24 l41 38 0 80 c0 77 -1 81 -35 121 -49 57 -127 76 -209 52z"/>
 <path d="M8965 4170 c-44 -5 -120 -18 -170 -30 -49 -11 -100 -23 -113 -26 -45 -9 -241 -103 -273 -130 -8 -8 -20 -14 -25 -14 -11 0 -91 -64 -154 -123 -65 -62 -190 -205 -190 -219 0 -4 -15 -31 -33 -60 -51 -81 -112 -222 -146 -338 -82 -279 -83 -742 -1 -1001 16 -52 30 -99 30 -105 0 -18 95 -215 124 -257 14 -21 26 -41 26 -46 0 -4 16 -25 35 -47 19 -21 35 -42 35 -46 0 -8 168 -178 177 -178 3 0 23 -16 44 -35 21 -19 57 -44 81 -56 24 -12 50 -27 58 -34 8 -8 33 -20 55 -28 22 -8 67 -26 100 -40 70 -30 167 -52 315 -74 224 -32 514 9 721 102 65 29 126 60 135 69 8 9 20 16 25 16 24 0 206 160 269 237 39 46 70 88 70 92 0 4 9 16 19 28 26 27 107 184 132 253 93 259 132 532 111 776 -15 166 -67 425 -92 459 -5 6 -14 30 -21 55 -16 56 -93 202 -131 251 -15 20 -28 40 -28 44 0 10 -94 121 -138 163 -47 45 -168 142 -177 142 -5 0 -23 12 -42 26 -18 14 -78 45 -133 69 -191 85 -477 128 -695 105z m393 -189 c57 -12 133 -35 169 -51 35 -17 69 -30 74 -30 35 0 339 -243 339 -271 0 -4 11 -20 25 -36 32 -36 89 -125 114 -178 55 -117 71 -156 80 -191 5 -21 22 -82 38 -134 28 -94 28 -96 28 -370 -1 -272 -1 -276 -29 -365 -15 -49 -31 -106 -35 -125 -17 -80 -103 -244 -198 -379 -77 -108 -283 -276 -389 -314 -21 -8 -68 -26 -104 -40 -79 -30 -249 -57 -361 -57 -121 0 -317 35 -402 72 -90 38 -145 66 -176 90 -13 10 -28 18 -33 18 -10 0 -27 15 -135 114 -52 48 -169 193 -181 224 -3 10 -21 40 -39 69 -18 29 -33 60 -33 71 0 10 -4 22 -9 28 -28 31 -90 256 -111 409 -22 158 -6 403 35 555 8 30 15 63 15 73 0 19 58 166 87 222 56 110 72 136 113 190 71 96 238 255 266 255 6 0 18 7 25 17 15 17 130 73 214 103 42 15 119 32 245 54 57 10 271 -3 368 -23z"/>
 <path d="M6430 2725 l0 -1385 90 0 90 0 0 1385 0 1385 -90 0 -90 0 0 -1385z"/>
 <path d="M12080 2805 l0 -1305 -485 0 -485 0 0 -80 0 -80 1060 0 1060 0 0 80 0 80 -480 0 -480 0 0 1305 0 1305 -95 0 -95 0 0 -1305z"/>
 <path d="M13610 4100 c0 -5 9 -29 20 -52 27 -61 89 -214 110 -274 10 -28 30 -76 44 -108 14 -31 26 -61 26 -66 0 -5 14 -40 31 -77 17 -37 37 -87 46 -112 8 -25 25 -68 38 -96 12 -27 28 -68 35 -90 7 -22 26 -67 41 -99 16 -33 29 -65 29 -72 0 -7 14 -43 31 -81 17 -37 37 -86 44 -108 16 -47 82 -208 119 -289 14 -31 26 -61 26 -67 0 -5 16 -49 36 -97 90 -217 103 -248 109 -270 4 -13 22 -57 41 -98 19 -41 34 -81 34 -88 0 -7 6 -26 14 -42 25 -52 53 -119 61 -144 4 -14 21 -53 36 -88 16 -34 29 -67 29 -73 0 -5 9 -30 20 -55 40 -89 57 -130 70 -171 l13 -43 102 0 102 0 32 70 c17 39 31 75 31 81 0 6 12 36 26 67 14 31 36 86 49 122 24 68 47 127 98 245 16 39 40 99 52 135 25 71 50 135 101 253 19 43 34 85 34 92 0 7 15 46 34 87 18 40 36 84 40 98 4 14 22 61 40 105 62 150 78 190 97 245 11 30 24 64 29 75 32 70 50 115 50 124 0 6 15 45 34 88 19 43 42 100 51 128 10 27 28 73 41 102 13 28 24 56 24 62 0 5 16 46 35 90 19 43 35 85 35 91 0 7 16 46 35 87 19 41 38 87 42 102 3 14 19 55 36 91 16 36 31 80 34 98 l6 32 -100 0 -100 0 -13 -42 c-7 -24 -27 -78 -46 -121 -19 -43 -34 -85 -34 -93 0 -7 -12 -39 -26 -71 -15 -32 -34 -83 -44 -113 -10 -30 -32 -91 -50 -135 -76 -187 -100 -251 -100 -262 0 -7 -16 -46 -35 -89 -19 -42 -35 -83 -35 -90 0 -11 -13 -43 -60 -149 -8 -18 -28 -74 -82 -225 -10 -30 -29 -77 -42 -105 -13 -27 -26 -61 -30 -75 -10 -34 -80 -216 -122 -317 -19 -45 -34 -87 -34 -93 0 -7 -16 -48 -35 -93 -19 -44 -35 -86 -35 -93 0 -7 -13 -42 -30 -78 -16 -37 -36 -88 -44 -114 -8 -26 -25 -72 -38 -102 -14 -30 -28 -64 -32 -75 -6 -16 -14 -7 -42 53 -19 41 -34 79 -34 87 0 7 -18 52 -40 99 -22 47 -40 91 -40 97 0 10 -19 59 -106 266 -19 45 -34 87 -34 93 0 5 -9 29 -20 53 -21 45 -90 217 -122 307 -11 30 -33 83 -49 118 -16 35 -29 69 -29 77 0 7 -16 47 -35 88 -19 41 -35 80 -35 87 0 7 -18 53 -40 102 -22 50 -40 96 -40 102 0 7 -12 37 -26 67 -15 30 -35 81 -46 113 -11 33 -30 82 -44 110 -13 27 -24 55 -24 62 0 6 -18 52 -40 102 -22 49 -40 94 -40 100 0 5 -16 44 -35 86 -19 43 -35 83 -35 90 0 8 -17 50 -37 95 l-37 81 -98 0 c-57 0 -98 -4 -98 -10z"/>
 <path d="M3840 3941 c-34 -33 -45 -68 -36 -114 13 -70 100 -107 177 -74 46 19 68 83 49 142 -19 57 -45 75 -108 75 -46 0 -58 -4 -82 -29z"/>
 <path d="M1938 3890 c-146 -44 -175 -258 -46 -334 116 -68 256 2 274 136 6 39 2 57 -20 102 -22 46 -35 59 -78 80 -53 27 -83 30 -130 16z"/>
 <path d="M4134 3846 c-39 -38 -44 -49 -44 -87 0 -81 58 -139 139 -139 44 0 56 5 90 35 64 58 64 130 1 196 -34 36 -41 39 -90 39 -49 0 -56 -3 -96 -44z"/>
 <path d="M1390 3835 c0 -10 -10 -15 -29 -15 -21 0 -40 -12 -75 -50 -41 -44 -46 -54 -46 -97 0 -59 26 -112 69 -137 42 -24 125 -26 172 -3 62 31 88 130 54 210 -15 37 -69 77 -104 77 -12 0 -21 6 -21 15 0 8 -4 15 -10 15 -5 0 -10 -7 -10 -15z"/>
 <path d="M2608 3811 c-43 -14 -109 -71 -124 -108 -17 -39 -17 -146 -1 -191 15 -41 88 -99 134 -108 70 -13 137 0 182 36 108 87 108 251 -1 335 -39 31 -57 37 -105 41 -32 2 -70 -1 -85 -5z"/>
 <path d="M4472 3690 c-46 -28 -72 -76 -72 -133 0 -54 9 -75 46 -112 95 -95 264 -26 264 107 0 56 -36 123 -77 142 -47 22 -120 21 -161 -4z"/>
 <path d="M3558 3631 c-39 -36 -42 -42 -42 -95 -1 -55 1 -59 41 -97 38 -35 47 -39 96 -39 49 0 57 4 91 37 64 64 63 134 -3 196 -36 33 -46 37 -91 37 -45 0 -55 -4 -92 -39z"/>
 <path d="M3893 3470 c-18 -10 -42 -38 -54 -61 -65 -128 63 -269 198 -218 57 21 93 77 93 144 0 61 -31 117 -76 139 -48 22 -121 21 -161 -4z"/>
 <path d="M1866 3445 c-3 -8 -13 -15 -22 -15 -54 0 -123 -85 -124 -152 -1 -109 113 -187 216 -148 71 27 117 118 95 190 -14 47 -64 98 -104 107 -16 3 -31 12 -34 19 -7 18 -19 18 -27 -1z"/>
 <path d="M4870 3450 c0 -9 -20 -22 -49 -33 -85 -30 -140 -118 -125 -198 11 -60 54 -116 102 -135 81 -30 184 -8 226 49 18 24 21 43 21 119 l0 90 -40 34 c-22 19 -55 38 -74 43 -18 6 -39 18 -47 28 -11 14 -13 15 -14 3z"/>
 <path d="M1313 3398 c-33 -23 -63 -81 -63 -119 0 -27 23 -69 53 -97 27 -25 95 -34 149 -19 60 16 98 124 65 184 -39 70 -141 95 -204 51z"/>
 <path d="M3198 3383 c-39 -6 -89 -73 -95 -128 -4 -32 0 -55 18 -90 33 -66 50 -75 140 -75 l77 0 36 42 c50 58 53 135 8 200 -36 51 -88 65 -184 51z"/>
 <path d="M2318 3277 c-44 -38 -58 -71 -58 -135 0 -51 17 -122 28 -122 4 0 19 -11 34 -25 42 -38 106 -51 166 -31 121 41 167 185 90 284 -45 58 -55 62 -142 62 -77 0 -83 -2 -118 -33z"/>
 <path d="M215 3228 c-57 -20 -133 -80 -172 -136 -38 -55 -38 -56 -41 -166 -3 -112 7 -163 40 -198 7 -7 21 -25 30 -40 18 -27 32 -37 123 -83 72 -36 174 -35 256 1 33 15 59 31 59 35 0 5 6 9 13 9 16 0 57 42 57 58 0 7 4 12 9 12 4 0 20 26 35 59 44 98 32 243 -26 307 -10 11 -18 25 -18 31 0 18 -89 85 -141 104 -55 21 -173 25 -224 7z"/>
 <path d="M4290 3228 c0 -10 -15 -21 -37 -29 -122 -39 -168 -158 -106 -270 32 -56 79 -79 158 -79 94 1 156 54 169 145 9 59 -22 165 -48 165 -6 0 -22 9 -36 20 -14 11 -33 20 -42 20 -10 0 -26 10 -38 22 -16 17 -20 19 -20 6z"/>
 <path d="M3505 3093 c-53 -14 -104 -98 -105 -171 -1 -141 161 -227 279 -149 94 62 106 198 27 284 -31 34 -36 36 -107 39 -41 1 -83 0 -94 -3z"/>
 <path d="M1393 3073 c-56 -51 -68 -113 -33 -170 37 -62 143 -65 190 -6 43 55 38 107 -15 160 -27 27 -40 33 -77 33 -29 0 -52 -6 -65 -17z"/>
 <path d="M1802 3015 c-53 -23 -77 -108 -52 -182 15 -42 80 -77 131 -70 76 10 122 60 122 131 0 106 -99 165 -201 121z"/>
 <path d="M5098 3006 c-39 -14 -97 -58 -117 -90 -17 -25 -25 -113 -17 -170 14 -88 122 -164 219 -153 187 23 255 256 110 376 -60 50 -125 62 -195 37z"/>
 <path d="M2320 2870 c0 -5 -10 -10 -23 -10 -35 0 -95 -47 -112 -87 -47 -112 22 -223 138 -223 92 0 157 65 157 158 0 52 -2 57 -49 103 -27 28 -57 49 -70 49 -11 0 -21 5 -21 10 0 6 -4 10 -10 10 -5 0 -10 -4 -10 -10z"/>
 <path d="M4527 2786 c-54 -15 -112 -64 -133 -113 -22 -52 -18 -151 9 -195 44 -73 126 -114 208 -105 128 15 211 148 174 275 -33 110 -142 168 -258 138z"/>
 <path d="M906 2667 c-67 -26 -125 -84 -157 -155 -29 -66 -26 -166 7 -228 59 -112 129 -154 257 -154 99 0 125 8 178 53 80 69 116 154 106 251 -19 188 -213 303 -391 233z"/>
 <path d="M3775 2673 c-92 -48 -140 -149 -116 -241 13 -45 63 -112 103 -136 34 -21 167 -22 207 -1 37 19 89 89 102 139 24 88 -22 190 -103 232 -56 29 -146 32 -193 7z"/>
 <path d="M5270 2441 c-79 -32 -139 -126 -140 -217 0 -86 41 -162 114 -211 37 -25 50 -27 132 -27 99 -1 124 9 178 68 61 67 83 175 51 252 -18 43 -83 124 -100 124 -7 0 -26 7 -41 15 -39 20 -138 18 -194 -4z"/>
 <path d="M1608 2351 c-39 -8 -112 -66 -138 -110 -11 -19 -15 -55 -15 -127 l0 -101 38 -46 c67 -82 180 -109 290 -70 161 58 194 287 59 408 -56 50 -133 65 -234 46z"/>
 <path d="M3181 2298 c-60 -32 -83 -77 -79 -148 5 -68 27 -102 86 -131 105 -52 222 26 222 149 0 72 -66 141 -141 149 -33 3 -55 -1 -88 -19z"/>
 <path d="M4706 2225 c-60 -21 -86 -45 -120 -110 -60 -114 -30 -243 72 -316 44 -32 50 -33 137 -33 66 0 98 4 120 16 42 24 92 79 110 121 19 45 20 147 1 190 -20 49 -86 113 -134 131 -52 20 -133 20 -186 1z"/>
 <path d="M2255 2213 c-11 -2 -30 -6 -42 -8 -34 -8 -84 -55 -104 -100 -35 -76 -16 -200 38 -246 31 -27 108 -59 142 -59 88 0 178 58 199 128 53 175 -67 321 -233 285z"/>
 <path d="M2771 2210 c-35 -5 -53 -16 -79 -46 -41 -47 -52 -73 -52 -124 0 -50 15 -88 48 -124 37 -39 81 -56 145 -56 46 0 60 5 100 36 55 43 71 83 65 165 -4 53 -9 64 -43 99 -21 22 -46 42 -54 44 -39 10 -90 13 -130 6z"/>
 <path d="M3993 2131 c-84 -22 -155 -128 -155 -231 0 -145 98 -240 247 -240 88 0 159 42 211 124 24 39 26 186 2 231 -19 34 -72 87 -106 105 -30 15 -156 22 -199 11z"/>
 <path d="M635 1994 c-56 -20 -108 -65 -140 -122 -21 -36 -29 -65 -33 -124 -4 -70 -2 -82 25 -140 20 -42 44 -75 71 -96 109 -86 283 -81 377 12 67 66 85 111 85 206 0 95 -19 142 -85 207 -68 67 -201 92 -300 57z"/>
 <path d="M3260 1797 c-77 -27 -104 -131 -54 -207 23 -35 31 -39 80 -46 38 -4 67 -2 92 8 32 12 39 21 55 66 25 76 10 129 -46 165 -45 29 -73 32 -127 14z"/>
 <path d="M1322 1675 c-55 -24 -98 -63 -126 -116 -25 -45 -28 -59 -25 -128 4 -72 7 -81 42 -126 57 -74 106 -99 197 -99 66 -1 81 3 130 31 173 100 142 376 -49 441 -46 16 -129 14 -169 -3z"/>
 <path d="M2900 1622 c-49 -24 -73 -79 -68 -154 7 -93 68 -144 165 -136 48 4 60 10 95 46 36 35 42 47 45 94 7 98 -58 167 -157 167 -25 0 -61 -8 -80 -17z"/>
 <path d="M4790 1543 c-43 -7 -121 -74 -154 -133 -28 -49 -31 -64 -31 -135 0 -88 11 -118 72 -191 47 -58 118 -88 208 -88 125 0 209 55 263 172 20 44 23 65 20 120 -2 37 -12 85 -23 107 -27 55 -108 132 -153 145 -35 9 -149 11 -202 3z"/>
 <path d="M1928 1529 c-39 -22 -89 -79 -98 -111 -25 -87 5 -223 52 -236 10 -2 18 -7 18 -11 0 -17 75 -41 128 -41 118 1 202 87 202 208 0 66 -25 118 -81 166 -41 35 -45 36 -123 36 -45 0 -89 -5 -98 -11z"/>
 <path d="M2453 1521 c-17 -11 -44 -40 -58 -66 -23 -39 -27 -54 -23 -104 8 -106 90 -177 194 -169 121 10 190 125 149 248 -25 76 -76 110 -164 110 -48 0 -75 -5 -98 -19z"/>
 <path d="M4065 1442 c-70 -28 -123 -80 -161 -157 -23 -49 -26 -64 -22 -125 4 -56 12 -81 39 -126 19 -31 48 -65 64 -77 17 -12 32 -24 35 -29 12 -16 95 -38 144 -38 62 0 137 24 162 51 9 10 23 19 31 19 7 0 17 8 20 18 4 9 17 30 29 45 29 35 44 87 44 153 0 49 -22 132 -38 144 -4 3 -19 21 -33 40 -15 20 -54 49 -89 68 -51 26 -74 32 -124 31 -34 0 -79 -7 -101 -17z"/>
 <path d="M3398 1385 c-52 -29 -71 -101 -43 -167 11 -29 22 -37 60 -48 55 -16 118 0 142 36 69 105 -49 238 -159 179z"/>
 <path d="M3138 1174 c-37 -19 -58 -63 -58 -116 1 -81 50 -128 135 -128 85 0 134 47 135 128 0 54 -22 97 -60 117 -37 19 -117 19 -152 -1z"/>
 <path d="M1215 1056 c-68 -32 -110 -80 -129 -145 -20 -69 -20 -81 2 -155 30 -104 115 -166 227 -166 71 0 125 23 175 72 57 56 80 158 56 243 -22 74 -72 128 -142 155 -72 26 -127 25 -189 -4z"/>
 <path d="M2806 1018 c-33 -19 -65 -61 -76 -101 -34 -120 73 -219 202 -186 41 11 54 20 78 58 48 71 40 137 -23 204 -33 35 -37 37 -98 37 -35 0 -73 -6 -83 -12z"/>
 <path d="M1869 930 c-93 -28 -149 -105 -149 -206 0 -73 27 -124 88 -171 40 -30 49 -33 115 -33 78 1 96 8 151 57 44 41 60 97 53 180 -7 72 -23 100 -76 137 -61 42 -122 55 -182 36z"/>
 <path d="M2395 928 c-78 -28 -124 -94 -125 -180 0 -51 4 -61 40 -106 36 -47 43 -51 95 -57 85 -11 137 0 172 38 44 46 53 69 53 132 0 66 -16 100 -65 138 -57 45 -111 56 -170 35z"/>
 <path d="M3969 636 c-90 -32 -154 -92 -196 -181 -59 -128 -22 -294 84 -382 80 -67 99 -73 221 -73 l109 0 59 38 c108 70 154 154 154 280 0 76 -23 161 -52 193 -11 13 -27 33 -34 45 -8 11 -47 37 -87 57 -66 33 -82 37 -148 37 -41 -1 -90 -7 -110 -14z"/>
 </g>

</svg>