<svg id="Lag_1" data-name="Lag 1" xmlns="http://www.w3.org/2000/svg" viewBox="0 0 127 127"><defs><style>.cls-1{fill:#b3cf07;}.cls-2{fill:#0769af;}</style></defs><title>ela</title><circle cx="63.5" cy="63.5" r="63.5"/><g id="_3GFeRT.tif" data-name="3GFeRT.tif"><path class="cls-1" d="M63.84,41.57c2-1.19,3.93-2.4,5.91-3.56,4.18-2.43,8.38-4.83,12.57-7.25,1-.59,2.13-1.08,3.1-1.78a1,1,0,0,1,1.18,0q3.59,2.12,7.19,4.21l8,4.61c1.91,1.11,3.81,2.24,5.73,3.35.53.31.65.54,0,.91Q101.74,45.4,96,48.78c-3.07,1.79-6.08,3.69-9.22,5.34-4.8,2.52-9.42,5.35-14.14,8-2.66,1.49-5.3,3-7.95,4.54a6.39,6.39,0,0,1-.65.28c0-.15,0-.3,0-.45q0-11.8,0-23.6A3.45,3.45,0,0,0,63.84,41.57Z" transform="translate(-0.25 -0.25)"/><path class="cls-2" d="M64.11,104.31c-.48.29-.8-.1-1.13-.29Q51.42,97.34,39.89,90.65,30.18,85,20.5,79.32c-.2-.12-.4-.26-.71-.47,1.09-.65,2.1-1.26,3.13-1.85Q32,71.74,41,66.48a.92.92,0,0,1,1.07,0l13.92,8,7.46,4.32a3,3,0,0,0,.5.18q0,11.69,0,23.38A5.42,5.42,0,0,0,64.11,104.31Z" transform="translate(-0.25 -0.25)"/><path class="cls-2" d="M63.84,41.57A3.45,3.45,0,0,1,64,42.9q0,11.8,0,23.6c0,.15,0,.3,0,.45-.4.13-.69-.15-1-.32q-12.89-7.47-25.77-15c-5.58-3.25-11.16-6.52-16.74-9.76-.61-.36-.73-.54,0-1Q30.76,35,41,29.07a1.05,1.05,0,0,1,1.23.09q5.4,3.12,10.8,6.24T63.84,41.57Z" transform="translate(-0.25 -0.25)"/><path class="cls-1" d="M64.11,104.31a5.42,5.42,0,0,1-.12-1.87q0-11.69,0-23.38c5.3-3.31,10.83-6.22,16.18-9.44,1.61-1,3.29-1.83,4.91-2.8a1.72,1.72,0,0,1,2,0c6.63,3.91,13.29,7.76,19.94,11.63,1,.56,1,.7,0,1.26-6.78,3.93-13.53,7.94-20.36,11.77-6.4,3.59-12.72,7.29-19.1,10.92C66.42,103.05,65.26,103.67,64.11,104.31Z" transform="translate(-0.25 -0.25)"/></g></svg>