<?xml version="1.0" encoding="utf-8"?>
<!-- Generator: Adobe Illustrator 22.0.1, SVG Export Plug-In . SVG Version: 6.00 Build 0)  -->
<svg version="1.1" id="Layer_1" xmlns="http://www.w3.org/2000/svg" xmlns:xlink="http://www.w3.org/1999/xlink" x="0px" y="0px"
	 viewBox="0 0 170.9 82" style="enable-background:new 0 0 170.9 82;" xml:space="preserve">
<style type="text/css">
	.st0{fill:#010101;}
</style>
<g>
	<polygon class="st0" points="103.6,61.5 98.5,40 93.7,40 88.9,40 83.9,61.5 67,0.9 66.9,0.5 65.8,0.5 61.2,0.5 57.3,0.5 51.4,22 
		46.3,0.5 41.5,0.5 36.7,0.5 31.7,22 25.7,0.5 17.2,0.5 26,31.8 26,32.2 36.7,32.2 41.5,14.6 46.3,32.2 57,32.2 57.1,31.8 
		62.1,13.8 78.1,71.3 78.2,71.7 88.9,71.7 93.7,54.1 98.5,71.7 109.2,71.7 109.3,71.3 118,40 109.5,40 	"/>
	<path class="st0" d="M92.7,7.8c3.3,0,4.9,2.1,5.5,5.2H86.6C87.3,9.9,89.4,7.8,92.7,7.8 M93.6,32.8c5.1,0,9.1-1.7,12.1-4.8l-5.4-5.5
		c-1.3,1.5-3.4,2.3-6.1,2.3c-4.3,0-6.8-2.2-7.7-5.6h20.7C107.3,7.1,102.2,0,92.5,0c-9.4,0-15.6,6.6-15.6,16.2
		C76.9,26.2,83.6,32.8,93.6,32.8"/>
	<path class="st0" d="M129.1,52.5c0.7-3.1,2.9-5.2,6.1-5.2c3.3,0,4.9,2.1,5.5,5.2H129.1z M135,39.5c-9.4,0-15.6,6.6-15.6,16.2
		c0,10,6.8,16.6,16.7,16.6c5.1,0,9.1-1.7,12.1-4.8l-5.4-5.5c-1.3,1.5-3.4,2.3-6.1,2.3c-4.3,0-6.8-2.2-7.7-5.6h20.7
		C149.8,46.6,144.7,39.5,135,39.5"/>
	<path class="st0" d="M170.7,39.5c-2.7,0-5.1,1.3-7.2,3.4V40h-9.2v31.7h9.2V51c1.3-2.3,3.7-3.8,6.5-3.8c0.3,0,0.6,0,0.9,0v-7.8
		C170.8,39.5,170.7,39.5,170.7,39.5"/>
	<path class="st0" d="M52,64.2c-4.3,0-7.3-3.4-7.3-8.4s3-8.4,7.3-8.4s7.3,3.4,7.3,8.4S56.3,64.2,52,64.2 M52,39.5
		c-10,0-16.7,6.6-16.7,16.4c0,9.7,6.8,16.4,16.7,16.4c10,0,16.7-6.6,16.7-16.4S62,39.5,52,39.5"/>
	<path class="st0" d="M14.6,64c-2.4,0-4.4-0.7-5.6-1.9V49.6c1.2-1.4,3.2-2.2,5.6-2.2c4.4,0,7.5,3.4,7.5,8.3C22.2,60.6,19,64,14.6,64
		 M17.2,39.4c-3.1,0-5.9,1-8.2,2.8v-2.1H0V82h9V70.6c1.9,0.9,4.2,1.4,6.6,1.4c9.5,0,15.9-6.6,15.9-16.3S25.8,39.4,17.2,39.4"/>
</g>
</svg>
