<svg width="423" height="127" xmlns="http://www.w3.org/2000/svg" xmlns:xlink="http://www.w3.org/1999/xlink"><defs><path d="M168.005 62.37v64.376h24.556v-8.828h-14.164V62.37h-10.392zm254.848 22.992V74.695c0-7.818-5.242-12.877-14.715-12.877-9.472 0-14.714 5.15-14.714 12.877v39.728c0 7.725 5.242 12.877 14.714 12.877 9.473 0 14.715-5.06 14.715-12.877V94.65h-14.531v8.828h4.415v10.944c0 2.484-1.931 3.77-4.6 3.77-2.85 0-4.228-1.286-4.228-3.77V74.695c-.737-5.06 9.103-4.875 8.828 0v10.667h10.116zm-45.8-4.047c0 4.967.093 10.392.275 16.277l-9.564-35.222h-11.311v64.377h9.472v-18.945c0-5.242-.092-10.853-.275-16.923l9.84 35.868h11.037V62.37h-9.474v18.945zm-38.534 45.432h10.392V62.371h-10.392v64.376zM321.349 89.5c0 2.484-1.287 3.77-3.77 3.77h-4.69V71.2h4.69c2.483 0 3.77 1.288 3.77 3.77V89.5zm10.394 0V74.97c0-7.818-4.874-12.6-14.164-12.6h-15.082v64.377h10.392V102.1h3.22l6.57 24.646h10.393l-7.066-26.504c3.782-2.075 5.737-5.8 5.737-10.743zm-44.822 0c0 2.484-1.287 3.77-3.77 3.77h-4.69V71.2h4.69c2.483 0 3.77 1.288 3.77 3.77V89.5zm-3.77-27.13H268.07v64.377h10.392V102.1h4.69c9.29 0 14.164-4.784 14.164-12.601V74.97c0-7.818-4.874-12.6-14.164-12.6zm-32.373 52.053c.55 4.968-9.198 4.968-8.553 0V74.695c-.645-4.967 9.104-4.967 8.553 0v39.728zm-4.324-52.605c-9.472 0-14.714 5.15-14.714 12.877v39.728c0 7.725 5.242 12.876 14.714 12.876 9.473 0 14.716-5.059 14.716-12.877V74.696c0-7.819-5.243-12.876-14.716-12.876zm-31.27 52.605c.552 4.968-9.196 4.968-8.551 0V74.695c-.645-4.967 9.103-4.967 8.552 0v39.728zm-4.322-52.605c-9.472 0-14.714 5.15-14.714 12.877v39.728c0 7.725 5.242 12.876 14.714 12.876 9.472 0 14.716-5.059 14.716-12.877V74.696c0-7.819-5.244-12.876-14.716-12.876z" id="a"/></defs><g transform="translate(0 -1)" fill="#1C60FF" fill-rule="evenodd"><use xlink:href="#a"/><path d="M91.725 62.313h66.754v.403L54.22 126.314 105.96 84.95 91.725 62.313zM52.792.999v126.154L0 84.95 52.792 1z"/></g></svg>