<svg id="Layer_1" xmlns="http://www.w3.org/2000/svg" viewBox="0 0 42 48"><style>.st0{fill:#443f54}.st1{enable-background:new}</style><path class="st0" d="M16.1 0L4.8 15.5 0 38.3 16.1 48l16.1-9.7-4.8-22.9L16.1 0zM7.4 15.9L16.1 4l8.7 11.9L16.1 42 7.4 15.9zM26 19.8l3.6 17.4-11.8 7.1L26 19.8zM2.6 37.2l3.6-17.4 8.2 24.5-11.8-7.1z"/><g class="st1"><path class="st0" d="M35.4 44.6h-1.2v-.3h2.7v.3h-1.2V48h-.3v-3.4z"/></g><g class="st1"><path class="st0" d="M41 44.7L39.6 48h-.1l-1.3-3.3V48h-.3v-3.7h.5l1.2 3 1.2-3h.5V48H41v-3.3z"/></g></svg>