<svg id="Layer_1" data-name="Layer 1" xmlns="http://www.w3.org/2000/svg" width="7.5in" height="7.5in" viewBox="0 0 540 540">
  <title>QASH</title>
  <g>
    <g>
      <path d="M266.22,50.25c2.37-.06,4.75-0.06,7.13,0,0,6,0,12,0,17.92q-3.58,0-7.16,0C266.22,62.2,266.2,56.22,266.22,50.25Z" style="fill: #1348e8"/>
      <path d="M223.95,55.19c2.35-.5,4.68-1,7-1.42,1.14,5.89,2.4,11.74,3.43,17.64l-6.92,1.25C226.3,66.85,225.23,61,223.95,55.19Z" style="fill: #1348e8"/>
      <path d="M305.23,71.48c0.82-6,2.26-11.79,3.34-17.69l7,1.3q-1.73,8.78-3.49,17.57Z" style="fill: #1348e8"/>
      <path d="M184.7,67.58q3.3-1.27,6.62-2.51c2.27,5.49,4.49,11,6.77,16.51l-6.62,2.58Q188,75.89,184.7,67.58Z" style="fill: #1348e8"/>
      <path d="M341.47,81.5c2.35-5.44,4.51-11,6.78-16.43l6.62,2.51q-3.35,8.33-6.8,16.61C345.87,83.31,343.66,82.42,341.47,81.5Z" style="fill: #1348e8"/>
      <path d="M247.45,76.66a191.63,191.63,0,1,1-89.25,34.75A190.9,190.9,0,0,1,247.45,76.66Zm-15.08,81.77c-24.76,8.66-42.28,34-41.56,60.25q0,40.41,0,80.79A63.13,63.13,0,0,0,253,362.56q16.77,0,33.57,0a63.78,63.78,0,0,0,28.06-7c6.92,6.85,13.72,13.83,20.7,20.63A7.89,7.89,0,0,0,346.56,365c-6.14-6.34-12.47-12.46-18.66-18.74a63.65,63.65,0,0,0,20.85-46.82q0-41,0-82A63.16,63.16,0,0,0,326,169.24c-12.24-10.4-28.5-15.34-44.46-14.65C265.14,155.22,248.09,152.5,232.37,158.43Z" style="fill: #1348e8"/>
      <path d="M149.06,87q3-1.86,6.05-3.69,4.86,7.47,9.73,15L158.77,102Q153.9,94.5,149.06,87Z" style="fill: #1348e8"/>
      <path d="M374.73,98.28c3.22-5,6.47-10,9.7-15L390.5,87q-4.85,7.49-9.72,14.95Z" style="fill: #1348e8"/>
      <path d="M117.94,112.56c1.74-1.59,3.5-3.18,5.28-4.75q6.13,6.43,12.26,12.86c-1.76,1.59-3.52,3.19-5.32,4.75C126.13,121.09,122,116.84,117.94,112.56Z" style="fill: #1348e8"/>
      <path d="M416.3,107.84c1.8,1.54,3.58,3.12,5.33,4.71-4.09,4.31-8.2,8.6-12.29,12.9l-5.24-4.77C408.14,116.38,412.26,112.15,416.3,107.84Z" style="fill: #1348e8"/>
      <path d="M92.08,143.33c1.42-1.9,2.83-3.78,4.26-5.65q7.23,5.18,14.45,10.4c-1.42,1.89-2.83,3.76-4.25,5.67C101.72,150.28,96.88,146.84,92.08,143.33Z" style="fill: #1348e8"/>
      <path d="M428.78,148.08q7.19-5.22,14.45-10.4,2.12,2.81,4.25,5.67c-4.8,3.49-9.63,6.95-14.45,10.4Q430.89,150.91,428.78,148.08Z" style="fill: #1348e8"/>
      <path d="M248.82,170.79c11.72-.62,23.47-0.1,35.21-0.29a47.4,47.4,0,0,1,48.8,46.88q0,41.65,0,83.3A47.5,47.5,0,0,1,316.62,335c-6-5.91-11.85-12-17.94-17.85a7.88,7.88,0,0,0-11.19,11.06c4.9,5.23,10.14,10.11,15.12,15.27a52.33,52.33,0,0,1-19.78,3.22c-11.21-.17-22.43.31-33.62-0.26-22.55-1.86-41.73-22-42.42-44.62-0.11-28.55,0-57.1,0-85.64C207,193.38,226.13,172.86,248.82,170.79Z" style="fill: #1348e8"/>
      <path d="M75.33,172.22c5.38,2.46,10.72,5,16.13,7.43-1,2.19-2,4.34-3.06,6.5-5.38-2.53-10.77-5-16.16-7.54Q73.77,175.4,75.33,172.22Z" style="fill: #1348e8"/>
      <path d="M448.07,179.74q8.07-3.78,16.16-7.52l3.09,6.39c-5.39,2.51-10.77,5-16.15,7.54Q449.61,182.94,448.07,179.74Z" style="fill: #1348e8"/>
      <path d="M59.21,217.5q0.88-3.45,1.79-6.88c5.78,1.45,11.57,2.88,17.35,4.35-0.6,2.29-1.18,4.58-1.76,6.87C70.77,220.41,65,219,59.21,217.5Z" style="fill: #1348e8"/>
      <path d="M461.22,215c5.78-1.47,11.56-2.89,17.35-4.35,0.58,2.29,1.19,4.58,1.78,6.88q-8.67,2.18-17.35,4.34C462.4,219.55,461.81,217.25,461.22,215Z" style="fill: #1348e8"/>
      <path d="M54.14,252.18q8.95,0.39,17.89.87l-0.37,7.11-17.89-.88Z" style="fill: #1348e8"/>
      <path d="M467.54,253q8.95-.47,17.9-0.87,0.17,3.54.35,7.09-8.93.47-17.88,0.88Z" style="fill: #1348e8"/>
      <path d="M55.49,294.92l17.72-2.62c0.36,2.35.71,4.68,1.07,7q-8.85,1.32-17.72,2.62Q56,298.43,55.49,294.92Z" style="fill: #1348e8"/>
      <path d="M465.3,299.32c0.35-2.35.7-4.68,1.07-7l17.72,2.62-1.08,7Q474.13,300.66,465.3,299.32Z" style="fill: #1348e8"/>
      <path d="M64.81,335.37q8.42-3,16.87-6c0.81,2.21,1.62,4.45,2.41,6.67-5.57,2-11.16,3.89-16.67,6C66.48,339.84,65.66,337.61,64.81,335.37Z" style="fill: #1348e8"/>
      <path d="M455.47,336.07c0.8-2.22,1.59-4.46,2.42-6.67q8.41,3,16.82,6c-0.78,2.17-1.58,4.36-2.32,6.55C466.67,340.21,461.11,338,455.47,336.07Z" style="fill: #1348e8"/>
      <path d="M81.36,372.53q7.7-4.53,15.39-9c1.23,2,2.45,4.09,3.59,6.18-5.13,2.91-10.19,5.94-15.29,8.91C83.81,376.57,82.58,374.56,81.36,372.53Z" style="fill: #1348e8"/>
      <path d="M439.16,369.61q1.81-3.06,3.67-6.09,7.7,4.47,15.37,9-1.83,3-3.68,6C449.38,375.6,444.28,372.58,439.16,369.61Z" style="fill: #1348e8"/>
      <path d="M104.31,405.67c4.45-3.93,8.95-7.82,13.43-11.72l4.78,5.26c-4.49,3.89-8.95,7.8-13.43,11.68C107.49,409.15,105.89,407.41,104.31,405.67Z" style="fill: #1348e8"/>
      <path d="M417.05,399.21l4.77-5.26c4.49,3.9,9,7.79,13.42,11.72l-4.76,5.22Q423.76,405.06,417.05,399.21Z" style="fill: #1348e8"/>
      <path d="M144,419.95c1.88,1.43,3.78,2.85,5.67,4.27-3.7,4.63-7.37,9.29-11.07,13.93q-2.85-2.11-5.67-4.22Q138.41,426.92,144,419.95Z" style="fill: #1348e8"/>
      <path d="M389.94,424.18l5.67-4.22c3.7,4.63,7.38,9.31,11.06,14L401,438.15Q395.45,431.18,389.94,424.18Z" style="fill: #1348e8"/>
      <path d="M174.66,440.7c2.11,1,4.24,2.07,6.36,3.13-2.73,5.27-5.52,10.51-8.26,15.79-2.14-1-4.27-2.06-6.4-3.12C169.13,451.23,171.86,446,174.66,440.7Z" style="fill: #1348e8"/>
      <path d="M358.56,443.83c2.11-1.06,4.22-2.09,6.35-3.12,2.78,5.24,5.53,10.51,8.3,15.77q-3.19,1.6-6.4,3.14C364.09,454.34,361.29,449.1,358.56,443.83Z" style="fill: #1348e8"/>
      <path d="M203.93,472.55c1.71-5.72,3.42-11.43,5.17-17.13l6.82,2q-2.57,8.57-5.17,17.12C208.48,473.86,206.19,473.21,203.93,472.55Z" style="fill: #1348e8"/>
      <path d="M323.64,457.37l6.83-2c1.74,5.7,3.44,11.42,5.17,17.13-2.29.66-4.56,1.3-6.85,1.94Q326.21,465.94,323.64,457.37Z" style="fill: #1348e8"/>
      <path d="M244.8,481.33c0.57-6,1.16-11.9,1.78-17.85,2.35,0.21,4.7.42,7.06,0.66q-0.86,8.93-1.75,17.85Z" style="fill: #1348e8"/>
      <path d="M285.93,464.13l7.06-.66c0.63,5.94,1.19,11.89,1.78,17.84l-7.07.67Q286.79,473.06,285.93,464.13Z" style="fill: #1348e8"/>
    </g>
    <g>
      <path d="M242.56,44.46c8.81-1.28,17.73-1.11,26.6-1.14,67.5-1.78,134.09,31.26,175.75,84A222.11,222.11,0,0,1,492.8,249.74q0.37,16.77,0,33.56C489.32,334.47,467.08,384,431.6,420.94,394,460.63,341.3,485.79,286.67,489.5c-11.64.25-23.3,0.31-34.94-.06a222.05,222.05,0,0,1-101.51-33.85,224.71,224.71,0,0,1-79.49-87,221.61,221.61,0,0,1-23.88-84.05c-0.39-11.59-.3-23.2-0.06-34.79a221.73,221.73,0,0,1,41.39-113.9C124,85.73,181.29,51.56,242.56,44.46Zm23.66,5.79c0,6,0,12,0,17.92q3.58,0,7.16,0c0-6,0-11.94,0-17.92C271,50.19,268.59,50.19,266.22,50.25Zm-42.27,4.95c1.28,5.8,2.35,11.65,3.55,17.48l6.92-1.25c-1-5.9-2.29-11.75-3.43-17.64C228.63,54.22,226.3,54.7,223.95,55.19Zm81.28,16.29,6.85,1.18q1.77-8.78,3.49-17.57l-7-1.3C307.49,59.69,306.05,65.53,305.23,71.48ZM184.7,67.58q3.34,8.31,6.77,16.59l6.62-2.58c-2.29-5.49-4.5-11-6.77-16.51Q188,66.32,184.7,67.58ZM341.47,81.5c2.19,0.92,4.4,1.81,6.61,2.7q3.43-8.29,6.8-16.61l-6.62-2.51C346,70.54,343.82,76.05,341.47,81.5Zm-94-4.83a191.14,191.14,0,1,0,94.81,366.68,192.36,192.36,0,0,0,84.6-68.1,190.72,190.72,0,0,0,10.51-200.55A191.21,191.21,0,0,0,247.45,76.66ZM149.06,87q4.83,7.49,9.7,14.95l6.08-3.68q-4.85-7.49-9.73-15Q152.08,85.15,149.06,87ZM374.73,98.28l6.05,3.68Q385.65,94.5,390.5,87l-6.06-3.69C381.21,88.3,378,93.29,374.73,98.28Zm-256.8,14.28c4.08,4.29,8.19,8.54,12.23,12.86,1.8-1.55,3.55-3.16,5.32-4.75q-6.11-6.43-12.26-12.86C121.44,109.38,119.68,111,117.94,112.56Zm298.36-4.72c-4,4.31-8.15,8.55-12.2,12.83l5.24,4.77c4.09-4.3,8.2-8.59,12.29-12.9C419.87,111,418.1,109.38,416.3,107.84ZM92.08,143.33c4.8,3.5,9.64,6.95,14.46,10.41,1.42-1.9,2.83-3.78,4.25-5.67q-7.21-5.22-14.45-10.4C94.92,139.56,93.5,141.43,92.08,143.33Zm336.7,4.75q2.11,2.83,4.25,5.67c4.82-3.45,9.65-6.91,14.45-10.4q-2.12-2.85-4.25-5.67Q436,142.86,428.78,148.08ZM75.33,172.22q-1.57,3.19-3.09,6.39c5.39,2.51,10.78,5,16.16,7.54,1-2.16,2.07-4.31,3.06-6.5C86.06,177.24,80.71,174.68,75.33,172.22Zm372.73,7.52q1.55,3.21,3.11,6.41c5.38-2.53,10.76-5,16.15-7.54l-3.09-6.39Q456.14,175.95,448.07,179.74ZM59.21,217.5c5.79,1.45,11.57,2.91,17.37,4.34,0.58-2.29,1.17-4.58,1.76-6.87-5.78-1.47-11.57-2.89-17.35-4.35Q60.08,214,59.21,217.5Zm402-2.53c0.58,2.29,1.18,4.58,1.78,6.87q8.68-2.14,17.35-4.34c-0.58-2.3-1.19-4.6-1.78-6.88C472.78,212.07,467,213.5,461.22,215ZM54.14,252.18l-0.37,7.09,17.89,0.88L72,253Q63.08,252.58,54.14,252.18ZM467.54,253l0.37,7.11q8.95-.43,17.88-0.88-0.19-3.56-.35-7.09Q476.48,252.57,467.54,253Zm-412,41.87q0.52,3.5,1.07,7,8.87-1.29,17.72-2.62c-0.36-2.35-.71-4.68-1.07-7Zm409.81,4.4q8.83,1.34,17.71,2.63l1.08-7-17.72-2.62C466,294.63,465.65,297,465.3,299.32ZM64.81,335.37c0.84,2.24,1.66,4.47,2.61,6.67,5.52-2.09,11.11-4,16.67-6-0.8-2.22-1.6-4.46-2.41-6.67Q73.24,332.36,64.81,335.37Zm390.66,0.7c5.64,1.93,11.19,4.14,16.92,5.84,0.75-2.19,1.54-4.37,2.32-6.55q-8.41-3-16.82-6C457.06,331.61,456.27,333.84,455.47,336.07ZM81.36,372.53c1.22,2,2.45,4,3.69,6.06,5.11-3,10.16-6,15.29-8.91-1.14-2.09-2.36-4.14-3.59-6.18Q89,368,81.36,372.53Zm357.8-2.92c5.12,3,10.23,6,15.36,9q1.85-3,3.68-6-7.68-4.53-15.37-9Q441,366.56,439.16,369.61ZM104.31,405.67c1.58,1.74,3.18,3.48,4.78,5.22,4.49-3.88,8.95-7.79,13.43-11.68L117.74,394C113.25,397.86,108.76,401.75,104.31,405.67Zm312.74-6.46q6.71,5.83,13.43,11.68l4.76-5.22c-4.45-3.93-8.93-7.82-13.42-11.72ZM144,419.95q-5.57,7-11.07,14,2.81,2.12,5.67,4.22c3.7-4.63,7.37-9.29,11.07-13.93C147.75,422.79,145.84,421.38,144,419.95Zm246,4.24q5.5,7,11.06,14l5.67-4.22c-3.68-4.66-7.36-9.33-11.06-14ZM174.66,440.7c-2.8,5.26-5.53,10.54-8.3,15.8,2.12,1.06,4.26,2.09,6.4,3.12,2.75-5.28,5.53-10.52,8.26-15.79C178.89,442.77,176.77,441.74,174.66,440.7Zm183.9,3.13c2.73,5.27,5.53,10.51,8.25,15.79q3.21-1.55,6.4-3.14c-2.77-5.26-5.52-10.52-8.3-15.77C362.78,441.74,360.67,442.77,358.56,443.83ZM203.93,472.55c2.26,0.66,4.55,1.3,6.82,1.94q2.61-8.55,5.17-17.12l-6.82-2C207.35,461.12,205.65,466.84,203.93,472.55Zm119.71-15.18q2.55,8.57,5.16,17.12c2.29-.63,4.56-1.28,6.85-1.94-1.73-5.72-3.43-11.43-5.17-17.13Zm-78.85,24,7.08,0.66q0.89-8.93,1.75-17.85c-2.36-.24-4.71-0.45-7.06-0.66C246,469.42,245.37,475.36,244.8,481.33Zm41.14-17.2q0.86,8.93,1.76,17.85l7.07-.67c-0.58-6-1.14-11.9-1.78-17.84Z" style="fill: #fff"/>
      <path d="M232.37,158.43c15.72-5.93,32.76-3.21,49.14-3.84,16-.7,32.22,4.25,44.46,14.65a63.16,63.16,0,0,1,22.76,48.25q0.07,41,0,82a63.65,63.65,0,0,1-20.85,46.82c6.19,6.27,12.52,12.4,18.66,18.74a7.89,7.89,0,0,1-11.22,11.1c-7-6.8-13.78-13.78-20.7-20.63a63.78,63.78,0,0,1-28.06,7q-16.79.06-33.57,0a63.13,63.13,0,0,1-62.19-63.09q-0.06-40.39,0-80.79C190.09,192.44,207.61,167.09,232.37,158.43Zm16.45,12.36c-22.69,2.06-41.8,22.59-42.07,45.41,0,28.54-.07,57.09,0,85.64,0.68,22.64,19.87,42.75,42.42,44.62,11.19,0.57,22.41.09,33.62,0.26a52.33,52.33,0,0,0,19.78-3.22c-5-5.16-10.23-10-15.12-15.27a7.88,7.88,0,0,1,11.19-11.06c6.09,5.84,11.92,11.94,17.94,17.85a47.5,47.5,0,0,0,16.19-34.35q0.06-41.64,0-83.3A47.4,47.4,0,0,0,284,170.51C272.29,170.69,260.54,170.17,248.82,170.79Z" style="fill: #fff"/>
    </g>
  </g>
</svg>
