<svg xmlns="http://www.w3.org/2000/svg" width="2000" height="2000"><path d="M277.69 1668.5l50.69 50.66c223.69 93.61 447.38 188.33 672.18 280.84v-407.49L581.82 1419.6l-173-418.5 173-418.5-304.13-251.1L0 1000z" fill="#598282"/><path d="M1000.55 0C776.86 92.51 552.07 187.22 328.37 280.84l-50.68 50.66 304.13 250 418.73-172.91V0z" fill="#fbbb31"/><path d="M1000.55 581.5L704.13 704.85 581.82 1000l122.31 296.26 296.42 122.25v-837z" fill="#598282"/><path d="M1000.55 2000c223.69-92.51 447.38-187.22 671.07-280.84l50.69-50.66L2000 1000l-277.69-668.5-304.13 250 173 418.5-173 418.5-418.73 172.91V2000h1.1z" fill="#326464"/><path d="M1723.42 331.5l-50.69-51.76Q1335.54 141 1000.55 0v407.49l418.73 172.91 304.13-248.9z" fill="#faaa00"/><path d="M1000.55 1418.5L1297 1296.26 1419.28 1000 1297 704.85 1000.55 581.5v837z" fill="#326464"/></svg>