<?xml version="1.0" encoding="utf-8"?>
<!-- Generator: Adobe Illustrator 22.1.0, SVG Export Plug-In . SVG Version: 6.00 Build 0)  -->
<svg version="1.1" id="Layer_1" xmlns="http://www.w3.org/2000/svg" xmlns:xlink="http://www.w3.org/1999/xlink" x="0px" y="0px"
	 viewBox="0 0 596 529" style="enable-background:new 0 0 596 529;" xml:space="preserve">
<style type="text/css">
	.st0{fill:#636569;}
	.st1{fill:url(#SVGID_1_);}
	.st2{fill:url(#SVGID_2_);}
	.st3{fill:url(#SVGID_3_);}
	.st4{fill:#737478;}
	.st5{fill:#6B6C71;}
	.st6{fill:#54565A;}
	.st7{opacity:0.7;fill:#1F2025;enable-background:new    ;}
	.st8{opacity:0.7;fill:#2C2C31;enable-background:new    ;}
	.st9{opacity:0.7;fill:#4D4B50;enable-background:new    ;}
	.st10{opacity:0.7;fill:#3C3B41;enable-background:new    ;}
	.st11{opacity:0.7;fill:#3F3D43;enable-background:new    ;}
	.st12{opacity:0.7;fill:#434248;enable-background:new    ;}
	.st13{opacity:0.7;fill:#4F4D53;enable-background:new    ;}
</style>
<title>KLEROS-logo-symbol</title>
<polygon class="st0" points="596,276.9 428.7,107.2 384.7,432.7 "/>
<linearGradient id="SVGID_1_" gradientUnits="userSpaceOnUse" x1="124.71" y1="676.045" x2="428.71" y2="676.045" gradientTransform="matrix(1 0 0 -1 0 946)">
	<stop  offset="0" style="stop-color:#A1A2A5"/>
	<stop  offset="0.27" style="stop-color:#9D9EA1"/>
	<stop  offset="0.56" style="stop-color:#909194"/>
	<stop  offset="0.86" style="stop-color:#7A7C80"/>
	<stop  offset="1" style="stop-color:#6E7074"/>
</linearGradient>
<polygon class="st1" points="124.7,238.7 428.7,107.2 384.7,432.7 "/>
<linearGradient id="SVGID_2_" gradientUnits="userSpaceOnUse" x1="122.697" y1="711.643" x2="338.697" y2="925.553" gradientTransform="matrix(1 0 0 -1 0 946)">
	<stop  offset="0" style="stop-color:#949598"/>
	<stop  offset="0.34" style="stop-color:#8E8F92"/>
	<stop  offset="0.79" style="stop-color:#7D7E82"/>
	<stop  offset="1" style="stop-color:#737478"/>
</linearGradient>
<polygon class="st2" points="428.7,107.2 181.7,0 124.7,238.7 "/>
<linearGradient id="SVGID_3_" gradientUnits="userSpaceOnUse" x1="139.3518" y1="714.663" x2="254.7318" y2="485.8429" gradientTransform="matrix(1 0 0 -1 0 946)">
	<stop  offset="0" style="stop-color:#9C9DA0"/>
	<stop  offset="0.28" style="stop-color:#999A9D"/>
	<stop  offset="0.5" style="stop-color:#8F9093"/>
	<stop  offset="0.7" style="stop-color:#7E8083"/>
	<stop  offset="0.88" style="stop-color:#67696C"/>
	<stop  offset="1" style="stop-color:#54565A"/>
</linearGradient>
<polygon class="st3" points="124.7,238.7 130.5,499.1 384.7,432.7 "/>
<polygon class="st4" points="428.7,107.2 475.4,13.1 181.7,0 "/>
<polygon class="st5" points="475.4,13.1 596,276.9 428.7,107.2 "/>
<polygon class="st5" points="596,276.9 427.2,517 384.7,432.7 "/>
<polygon class="st6" points="427.2,517 130.5,499.1 384.7,432.7 "/>
<polygon class="st6" points="181.7,0 10.7,213.6 124.7,238.7 "/>
<polygon class="st0" points="10.7,213.6 130.5,499.1 124.7,238.7 "/>
<polygon class="st7" points="397.6,152.1 366.8,385.4 185.2,244.9 "/>
<polygon class="st7" points="373,105.5 203.2,32.4 167.6,186.1 "/>
<polygon class="st8" points="330,420.7 145.5,288.9 149.9,467.5 "/>
<polygon class="st8" points="565,276.3 439.3,148.7 406.1,394.1 "/>
<polygon class="st9" points="373.2,449.4 400.6,501.8 217.6,490.1 "/>
<polygon class="st10" points="540.4,334.2 404.2,435.7 431.3,488.6 "/>
<polygon class="st10" points="476,50 548,204.4 449.6,104.3 "/>
<polygon class="st11" points="443.1,24 412.8,79.4 270.1,16.9 "/>
<polygon class="st12" points="157.5,49.1 117.3,219.2 36.4,202.1 "/>
<polygon class="st13" points="112.4,249.3 116,432.1 31.1,232 "/>
</svg>
