<svg id="Layer_1" xmlns="http://www.w3.org/2000/svg" viewBox="0 0 596 529"><style>.st0{fill:#636569}.st5{fill:#6b6c71}.st6{fill:#54565a}.st10,.st7,.st8{opacity:.7;fill:#1f2025;enable-background:new}.st10,.st8{fill:#2c2c31}.st10{fill:#3c3b41}</style><path class="st0" d="M596 276.9L428.7 107.2l-44 325.5z"/><linearGradient id="SVGID_1_" gradientUnits="userSpaceOnUse" x1="124.71" y1="676.045" x2="428.71" y2="676.045" gradientTransform="matrix(1 0 0 -1 0 946)"><stop offset="0" stop-color="#a1a2a5"/><stop offset=".27" stop-color="#9d9ea1"/><stop offset=".56" stop-color="#909194"/><stop offset=".86" stop-color="#7a7c80"/><stop offset="1" stop-color="#6e7074"/></linearGradient><path fill="url(#SVGID_1_)" d="M124.7 238.7l304-131.5-44 325.5z"/><linearGradient id="SVGID_2_" gradientUnits="userSpaceOnUse" x1="122.697" y1="711.643" x2="338.697" y2="925.553" gradientTransform="matrix(1 0 0 -1 0 946)"><stop offset="0" stop-color="#949598"/><stop offset=".34" stop-color="#8e8f92"/><stop offset=".79" stop-color="#7d7e82"/><stop offset="1" stop-color="#737478"/></linearGradient><path fill="url(#SVGID_2_)" d="M428.7 107.2L181.7 0l-57 238.7z"/><linearGradient id="SVGID_3_" gradientUnits="userSpaceOnUse" x1="139.352" y1="714.663" x2="254.732" y2="485.843" gradientTransform="matrix(1 0 0 -1 0 946)"><stop offset="0" stop-color="#9c9da0"/><stop offset=".28" stop-color="#999a9d"/><stop offset=".5" stop-color="#8f9093"/><stop offset=".7" stop-color="#7e8083"/><stop offset=".88" stop-color="#67696c"/><stop offset="1" stop-color="#54565a"/></linearGradient><path fill="url(#SVGID_3_)" d="M124.7 238.7l5.8 260.4 254.2-66.4z"/><path fill="#737478" d="M428.7 107.2l46.7-94.1L181.7 0z"/><path class="st5" d="M475.4 13.1L596 276.9 428.7 107.2zM596 276.9L427.2 517l-42.5-84.3z"/><path class="st6" d="M427.2 517l-296.7-17.9 254.2-66.4zM181.7 0l-171 213.6 114 25.1z"/><path class="st0" d="M10.7 213.6l119.8 285.5-5.8-260.4z"/><path class="st7" d="M397.6 152.1l-30.8 233.3-181.6-140.5zM373 105.5L203.2 32.4l-35.6 153.7z"/><path class="st8" d="M330 420.7L145.5 288.9l4.4 178.6zM565 276.3L439.3 148.7l-33.2 245.4z"/><path opacity=".7" fill="#4d4b50" d="M373.2 449.4l27.4 52.4-183-11.7z"/><path class="st10" d="M540.4 334.2L404.2 435.7l27.1 52.9zM476 50l72 154.4-98.4-100.1z"/><path opacity=".7" fill="#3f3d43" d="M443.1 24l-30.3 55.4-142.7-62.5z"/><path opacity=".7" fill="#434248" d="M157.5 49.1l-40.2 170.1-80.9-17.1z"/><path opacity=".7" fill="#4f4d53" d="M112.4 249.3l3.6 182.8L31.1 232z"/></svg>