<svg data-name="Layer 1" xmlns="http://www.w3.org/2000/svg" width="720" height="720" viewBox="0 0 540 540"><circle cx="269.78" cy="266.47" r="223.2" fill="#f2f2f2"/><g fill="#0ca4fb"><path d="M196.28 55.58a220.8 220.8 0 0 1 99.53-10.66c60.44 6.73 117.2 40.18 152.9 89.51a271.26 271.26 0 0 1 16.18 25.28c-23.58-12-50.78-13.61-76.69-11.76-36.14 3.27-71 15.18-103.59 30.8-21 9.73-41.47 20.52-60.77 33.28-23.59 15.51-45.78 33.07-67.39 51.25a25.82 25.82 0 0 0-14.1-5.17c-6.68.49-13.4 3.47-17.32 9.11-6.12 8-5.6 20.27 1.44 27.49a243 243 0 0 0-26.65 33c-10 14.83-17.87 31-25 47.4a228.49 228.49 0 0 1-24.11-67A223.44 223.44 0 0 1 112 108.66a221.14 221.14 0 0 1 84.28-53.08z"/><path d="M253.79 211.78c25.81-10 53.59-17.38 81.43-14.33 13.7 1.74 28.05 7.25 36.12 19.11 7.91 11.11 8.28 25.78 5.36 38.66-4.51 19.1-14.76 36.27-26.47 51.77-13.76 18-30 34-47.45 48.26a366.8 366.8 0 0 1-70.93 45.42c-23.47 11.24-48.38 20.18-74.3 23.38-15.07 1.58-31 1.47-45.07-4.74-10.46-4.42-18.6-13.58-22.62-24.13-4.52-13.63-1.93-28.53 3.09-41.64 8.18-21 21.74-39.3 36.63-55.93a21.06 21.06 0 0 0 18.09 3.72c10.43-2.32 18-13.35 16.42-24a24.94 24.94 0 0 0-3.49-9.31c28.01-23.26 59.32-42.8 93.19-56.24zM489.2 231.95a223.49 223.49 0 0 1-76.63 205.3c-27.8 22.91-60.81 39.68-96 47.37-42 9-87 6.31-126.61-10.93l-2-1.27c9.85-1 19.37-4.09 28.91-6.68a446.8 446.8 0 0 0 112.36-51.45c27.56-17.45 52.69-38.46 76.6-60.61 24.74-23.45 47.77-49.28 64.11-79.43 7.41-13.62 13.43-27.95 19.26-42.3z"/></g></svg>