<svg xmlns="http://www.w3.org/2000/svg" width="1430.928" height="313.484"><g fill="#0CA4FB"><path d="M548.011 75.147h-32.91a2.933 2.933 0 0 0-2.933 2.933v119.325L386.047 75.147h-30.599a2.933 2.933 0 0 0-2.932 2.933v173.796a2.933 2.933 0 0 0 2.932 2.933h31.807a2.933 2.933 0 0 0 2.932-2.933V133.654l125.708 121.154h32.117a2.932 2.932 0 0 0 2.932-2.933V78.08a2.935 2.935 0 0 0-2.933-2.933zM761.421 219.943H645.879c-6.163 0-27.689.368-38.361-36.981 6.624-.092 113.887 0 118.302 0 4.416 0 7.452 0 10.855-3.357s12.419-13.522 15.639-26.218c1.196-5.611-3.68-5.565-6.531-5.565H609.036c-.92 0-1.564-.184-1.196-1.38.368-1.195 3.749-15.408 14.581-26.447s20.284-9.591 36.705-9.591h83.276c3.174 0 6.555.139 12.212-5.036 5.795-6.071 11.867-15.869 13.522-23.113 1.656-7.244-2.621-7.106-8.969-7.106H634.701c-11.039 0-31.737 4.278-48.848 29.943-17.111 25.666-18.214 51.332-17.249 70.374.966 19.043 10.763 48.158 29.943 64.579 19.181 16.42 31.599 14.948 36.659 14.948h109.747c2.668 0 4.508-.275 6.854-2.346 2.346-2.069 13.339-13.431 16.604-27.184 1.198-5.106-2.942-5.52-6.99-5.52zM985.054 82.553c2.162-2.483 1.61-4.094.506-5.749-1.104-1.656-3.357-1.658-4.783-1.658h-36.935c-2.347 0-3.404.508-4.37 1.658-.966 1.149-52.481 59.611-52.481 59.611s-50.55-57.266-52.252-59.336c-1.702-2.069-3.266-1.932-5.335-1.932h-34.98c-2.369 0-4.944.139-6.095 2.208-1.149 2.07.092 4.323 1.196 5.565 1.044 1.175 64.703 74.139 71.608 82.053.354.405.353.983-.002 1.387-6.854 7.819-69.446 79.214-71.055 80.997-1.702 1.886-2.806 3.312-1.932 5.243s2.392 2.438 4.048 2.438h38.452c2.024 0 2.944-.229 4.186-1.563 1.242-1.334 52.344-59.657 52.344-59.657s49.584 56.76 51.47 58.967c1.886 2.208 2.668 2.254 4.14 2.254h39.005c5.382 0 5.749-4.048 2.806-7.359-2.221-2.656-65.196-73.985-71.872-81.548a.964.964 0 0 1-.001-1.295c6.701-7.624 70.284-79.932 72.332-82.284zM1198.201 75.146h-26.816c-3.679 0-4.094 3.406-4.094 6.119v79.804c0 18.675-1.748 25.758-5.979 34.865-11.866 24.47-26.815 24.93-33.439 24.93h-42.017c-7.383 0-11.108-.414-15.11-2.483-26.079-13.109-26.815-42.639-26.815-56.023V79.335c0-3.587-2.943-4.188-5.06-4.188h-26.539c-5.152 0-5.842 2.118-5.842 7.729v82.217c0 14.971 1.84 34.705 15.271 57.335 20.79 32.657 44.432 32.565 51.699 32.565h63.935c13.431 0 28.794-2.76 45.904-23.918s20.975-50.917 20.975-60.301V79.839c-.002-4.323-3.268-4.693-6.073-4.693zM1355.898 147.799h-74.445c-19.594 0-26.425-16.145-19.387-27.046 7.037-10.901 17.938-10.35 24.217-10.35h112.185c10.625 0 22.078-23.319 22.906-29.392.828-6.071-1.932-5.726-8.832-5.726h-126.259c-34.911 0-48.434 12.648-56.438 24.976-8.003 12.326-13.614 41.672 3.128 59.795 21.066 21.434 43.513 22.86 53.172 22.86h75.824c13.316 0 21.802 8.692 21.802 16.696 0 19.663-19.249 20.33-24.769 20.33h-109.701c-6.117 0-8.784.184-11.729 3.082-5.979 6.025-12.833 16.328-15.179 24.93-2.254 8.096 4.231 6.945 9.199 6.945h128.974c13.338 0 29.345-1.656 46.088-15.639 16.742-13.982 20.606-49.124 4.323-67.891-21.801-24.743-45.834-23.57-55.079-23.57z"/></g><path fill="#0CA4FB" d="M298.261 130.264c6.275 37.331-1.939 77.098-26.072 110.17-40.528 55.541-112.872 74.277-173.691 49.333 0 0 57.138-11.571 116.466-55.967 65.181-47.221 83.297-103.536 83.297-103.536zM26.632 226.171C-.218 178.086 1.58 116.713 36.27 69.173 83.826 3.999 175.191-10.496 240.339 36.796c18.353 13.323 32.668 30.129 42.699 48.854 0 0-22.064-9.655-39.822-9.151-17.758.505-48.532 6.458-81.93 21.794-21.996 11.301-42.68 21.794-78.095 52.266-2.32 1.816-3.699 1.043-6.054.101-2.354-.941-8.274-2.623-13.587 1.413-5.314 4.036-6.781 9.931-4.467 15.997 1.507 4.148.93 5.24.023 6.673-.907 1.434-10.355 13.216-12.945 16.681-2.59 3.464-17.964 32.285-18.668 33.43-.704 1.143-.861 1.317-.861 1.317z"/><path fill="#0CA4FB" d="M156.945 114.831c15.958-4.451 33.165-7.852 49.475-3.111 7.763 2.281 14.739 7.973 17.252 15.848 3.3 10.115.42 20.983-3.432 30.52-4.784 11.384-12.324 21.317-20.364 30.586-23.165 26.99-53.615 47.516-87.167 59.266-9.921 3.372-19.954 6.686-30.429 7.771-5.825.676-11.729 1.794-17.573.653-9.313-1.206-19.223-4.449-24.827-12.462-6.011-8.339-5.393-19.567-2.325-28.914 4.152-13.1 13.133-23.765 20.641-35.015 1.406-1.927 2.768-4.275 5.238-4.928 3.289.354 6.451 2.026 9.812 1.55 6.345-.564 11.66-6.246 11.981-12.569.277-3.057-.975-5.913-1.938-8.738 21.723-17.844 46.538-32.517 73.656-40.457"/></svg>